G04 MADE WITH FRITZING*
G04 WWW.FRITZING.ORG*
G04 DOUBLE SIDED*
G04 HOLES PLATED*
G04 CONTOUR ON CENTER OF CONTOUR VECTOR*
%ASAXBY*%
%FSLAX23Y23*%
%MOIN*%
%OFA0B0*%
%SFA1.0B1.0*%
%ADD10C,0.102000*%
%ADD11C,0.181260*%
%ADD12C,0.149764*%
%ADD13C,0.085361*%
%ADD14C,0.084803*%
%ADD15C,0.084000*%
%ADD16C,0.075000*%
%ADD17C,0.076111*%
%ADD18C,0.088000*%
%ADD19C,0.085000*%
%ADD20C,0.080000*%
%ADD21C,0.049370*%
%ADD22R,0.088000X0.088000*%
%ADD23C,0.030000*%
%LNMASK1*%
G90*
G70*
G54D10*
X1615Y2821D03*
X1615Y3121D03*
X1615Y2821D03*
X1615Y3121D03*
G54D11*
X139Y205D03*
G54D12*
X139Y2134D03*
X2422Y2134D03*
G54D11*
X2422Y205D03*
G54D13*
X323Y2081D03*
X423Y2081D03*
X523Y2081D03*
X623Y2081D03*
X723Y2081D03*
X823Y2081D03*
X923Y2081D03*
X1023Y2081D03*
X1123Y2081D03*
X1223Y2081D03*
X1323Y2081D03*
X1423Y2081D03*
X1523Y2081D03*
X1623Y2081D03*
X1723Y2081D03*
X1823Y2081D03*
X1923Y2081D03*
X2023Y2081D03*
X2123Y2081D03*
X2223Y2081D03*
X2223Y2181D03*
X2123Y2181D03*
X2023Y2181D03*
X1923Y2181D03*
X1823Y2181D03*
X1723Y2181D03*
X1623Y2181D03*
X1523Y2181D03*
X1423Y2181D03*
X1323Y2181D03*
X1223Y2181D03*
X1123Y2181D03*
X1023Y2181D03*
X923Y2181D03*
X823Y2181D03*
X723Y2181D03*
X623Y2181D03*
X523Y2181D03*
X423Y2181D03*
X323Y2181D03*
G54D14*
X1163Y1350D03*
X1163Y1850D03*
X1163Y1750D03*
X1163Y1650D03*
X1163Y1550D03*
X1163Y1450D03*
X1563Y1350D03*
X1563Y1850D03*
X1563Y1750D03*
X1563Y1650D03*
X1563Y1550D03*
X1563Y1450D03*
X1163Y1350D03*
X1163Y1850D03*
X1163Y1750D03*
X1163Y1650D03*
X1163Y1550D03*
X1163Y1450D03*
X1563Y1350D03*
X1563Y1850D03*
X1563Y1750D03*
X1563Y1650D03*
X1563Y1550D03*
X1563Y1450D03*
G54D15*
X1399Y2393D03*
X1399Y2649D03*
X1399Y2393D03*
X1399Y2649D03*
X1399Y2393D03*
X1399Y2649D03*
G54D16*
X2403Y2590D03*
X2403Y2669D03*
X2403Y2747D03*
X2403Y2826D03*
X2403Y2590D03*
X2403Y2669D03*
X2403Y2747D03*
X2403Y2826D03*
G54D17*
X2068Y1038D03*
X2068Y938D03*
X2068Y738D03*
X2068Y838D03*
X2068Y1038D03*
X2068Y938D03*
X2068Y738D03*
X2068Y838D03*
G54D18*
X928Y2413D03*
X828Y2413D03*
X728Y2413D03*
X628Y2413D03*
X928Y2413D03*
X828Y2413D03*
X728Y2413D03*
X628Y2413D03*
G54D19*
X749Y2964D03*
X1049Y2964D03*
X749Y2964D03*
X1049Y2964D03*
X749Y2806D03*
X1049Y2806D03*
X749Y2806D03*
X1049Y2806D03*
G54D18*
X434Y2491D03*
X434Y2591D03*
X434Y2691D03*
X434Y2491D03*
X434Y2591D03*
X434Y2691D03*
X434Y2903D03*
X434Y3003D03*
X434Y3103D03*
X434Y2903D03*
X434Y3003D03*
X434Y3103D03*
X769Y208D03*
X769Y308D03*
X769Y408D03*
X769Y208D03*
X769Y308D03*
X769Y408D03*
X769Y641D03*
X769Y741D03*
X769Y841D03*
X769Y641D03*
X769Y741D03*
X769Y841D03*
X769Y1094D03*
X769Y1194D03*
X769Y1294D03*
X769Y1094D03*
X769Y1194D03*
X769Y1294D03*
X769Y1527D03*
X769Y1627D03*
X769Y1727D03*
X769Y1527D03*
X769Y1627D03*
X769Y1727D03*
G54D20*
X946Y1038D03*
X946Y938D03*
X946Y838D03*
X946Y738D03*
X946Y638D03*
X946Y538D03*
X946Y438D03*
X946Y338D03*
X946Y238D03*
X946Y138D03*
X946Y1038D03*
X946Y938D03*
X946Y838D03*
X946Y738D03*
X946Y638D03*
X946Y538D03*
X946Y438D03*
X946Y338D03*
X946Y238D03*
X946Y138D03*
G54D21*
X916Y1898D03*
X1655Y1035D03*
X1596Y936D03*
G54D18*
X1830Y1171D03*
X1830Y1271D03*
X1830Y1371D03*
X1830Y1171D03*
X1830Y1271D03*
X1830Y1371D03*
X2226Y1730D03*
X2126Y1730D03*
X2026Y1730D03*
X2226Y1730D03*
X2126Y1730D03*
X2026Y1730D03*
G54D21*
X1182Y2295D03*
G54D19*
X2039Y2410D03*
X2039Y2710D03*
X2039Y2410D03*
X2039Y2710D03*
X1871Y2408D03*
X1871Y2708D03*
X1871Y2408D03*
X1871Y2708D03*
X1714Y2408D03*
X1714Y2708D03*
X1714Y2408D03*
X1714Y2708D03*
X1049Y3082D03*
X749Y3082D03*
X1049Y3082D03*
X749Y3082D03*
G54D22*
X434Y2491D03*
X434Y2491D03*
X434Y2903D03*
X434Y2903D03*
X769Y208D03*
X769Y208D03*
X769Y641D03*
X769Y641D03*
X769Y1094D03*
X769Y1094D03*
X769Y1527D03*
X769Y1527D03*
X1830Y1171D03*
X1830Y1171D03*
X2226Y1730D03*
X2226Y1730D03*
G54D23*
G36*
X1651Y2785D02*
X1579Y2785D01*
X1579Y2857D01*
X1651Y2857D01*
X1651Y2785D01*
G37*
D02*
G36*
X1651Y2785D02*
X1579Y2785D01*
X1579Y2857D01*
X1651Y2857D01*
X1651Y2785D01*
G37*
D02*
G04 End of Mask1*
M02*