; NON-PLATED HOLES START AT T1
; THROUGH (PLATED) HOLES START AT T100
M48
INCH
T100C0.025000
T101C0.039370
T102C0.052000
T103C0.035433
T104C0.038000
T105C0.040639
T106C0.108268
T107C0.032778
T108C0.038522
T109C0.035000
T110C0.015748
%
T100
X024026Y028260
X024026Y027472
X024026Y025898
X024026Y026686
T101
X009459Y004379
X009459Y010379
X009459Y003379
X009459Y008379
X009459Y006379
X009459Y007379
X009459Y002379
X009459Y001379
X009459Y009379
X009459Y005379
T102
X016152Y031214
X016152Y028214
T103
X013987Y023930
X013987Y026489
T104
X004341Y025914
X006278Y024127
X007688Y011938
X007278Y024127
X007688Y012938
X007688Y008410
X007688Y004080
X007688Y017269
X007688Y006410
X009278Y024127
X007688Y003080
X007688Y016269
X007688Y007410
X007688Y002080
X021255Y017304
X004341Y030032
X007688Y015269
X004341Y024914
X004341Y026914
X004341Y029032
X022255Y017304
X004341Y031032
X008278Y024127
X018303Y013709
X007688Y010938
X020255Y017304
X018303Y012709
X018303Y011709
T105
X017232Y021813
X012232Y020813
X015232Y020813
X015232Y021813
X013232Y020813
X008232Y020813
X008232Y021813
X022232Y020813
X009232Y021813
X021232Y020813
X014232Y020813
X003232Y020813
X018232Y021813
X013232Y021813
X004232Y020813
X021232Y021813
X007232Y021813
X020232Y021813
X006232Y020813
X004232Y021813
X019232Y021813
X020232Y020813
X016232Y021813
X012232Y021813
X011232Y020813
X017232Y020813
X010232Y021813
X014232Y021813
X005232Y020813
X007232Y020813
X005232Y021813
X011232Y021813
X018232Y020813
X003232Y021813
X010232Y020813
X022232Y021813
X016232Y020813
X009232Y020813
X006232Y021813
X019232Y020813
T106
X024223Y021340
X001388Y021340
X001388Y002048
X024223Y002048
T107
X020680Y010379
X020680Y007379
X020680Y009379
X020680Y008379
T108
X011629Y015501
X011629Y016501
X011625Y013497
X015629Y013497
X015633Y017501
X011629Y018501
X015634Y016501
X015633Y015501
X015634Y014501
X011629Y014501
X015634Y018501
X011629Y017501
T109
X007491Y030820
X007491Y029639
X020385Y027095
X018711Y027080
X017137Y027080
X010491Y030820
X017137Y024080
X020385Y024095
X010491Y028064
X010491Y029639
X007491Y028064
X018711Y024080
T110
X011815Y022945
X016546Y010347
X015955Y009363
X009164Y018977
T00
M30
