G04 MADE WITH FRITZING*
G04 WWW.FRITZING.ORG*
G04 DOUBLE SIDED*
G04 HOLES PLATED*
G04 CONTOUR ON CENTER OF CONTOUR VECTOR*
%ASAXBY*%
%FSLAX23Y23*%
%MOIN*%
%OFA0B0*%
%SFA1.0B1.0*%
%ADD10C,0.008*%
%LNCONTOUR*%
G90*
G70*
G54D10*
X52Y3268D02*
X53Y3268D01*
X54Y3268D01*
X55Y3268D01*
X56Y3268D01*
X57Y3268D01*
X58Y3268D01*
X59Y3268D01*
X60Y3268D01*
X61Y3268D01*
X62Y3268D01*
X63Y3268D01*
X64Y3268D01*
X65Y3268D01*
X66Y3268D01*
X67Y3268D01*
X68Y3268D01*
X69Y3268D01*
X70Y3268D01*
X71Y3268D01*
X72Y3268D01*
X73Y3268D01*
X74Y3268D01*
X75Y3268D01*
X76Y3268D01*
X77Y3268D01*
X78Y3268D01*
X79Y3268D01*
X80Y3268D01*
X81Y3268D01*
X82Y3268D01*
X83Y3268D01*
X84Y3268D01*
X85Y3268D01*
X86Y3268D01*
X87Y3268D01*
X88Y3268D01*
X89Y3268D01*
X90Y3268D01*
X91Y3268D01*
X92Y3268D01*
X93Y3268D01*
X94Y3268D01*
X95Y3268D01*
X96Y3268D01*
X97Y3268D01*
X98Y3268D01*
X99Y3268D01*
X100Y3268D01*
X101Y3268D01*
X102Y3268D01*
X103Y3268D01*
X104Y3268D01*
X105Y3268D01*
X106Y3268D01*
X107Y3268D01*
X108Y3268D01*
X109Y3268D01*
X110Y3268D01*
X111Y3268D01*
X112Y3268D01*
X113Y3268D01*
X114Y3268D01*
X115Y3268D01*
X116Y3268D01*
X117Y3268D01*
X118Y3268D01*
X119Y3268D01*
X120Y3268D01*
X121Y3268D01*
X122Y3268D01*
X123Y3268D01*
X124Y3268D01*
X125Y3268D01*
X126Y3268D01*
X127Y3268D01*
X128Y3268D01*
X129Y3268D01*
X130Y3268D01*
X131Y3268D01*
X132Y3268D01*
X133Y3268D01*
X134Y3268D01*
X135Y3268D01*
X136Y3268D01*
X137Y3268D01*
X138Y3268D01*
X139Y3268D01*
X140Y3268D01*
X141Y3268D01*
X142Y3268D01*
X143Y3268D01*
X144Y3268D01*
X145Y3268D01*
X146Y3268D01*
X147Y3268D01*
X148Y3268D01*
X149Y3268D01*
X150Y3268D01*
X151Y3268D01*
X152Y3268D01*
X153Y3268D01*
X154Y3268D01*
X155Y3268D01*
X156Y3268D01*
X157Y3268D01*
X158Y3268D01*
X159Y3268D01*
X160Y3268D01*
X161Y3268D01*
X162Y3268D01*
X163Y3268D01*
X164Y3268D01*
X165Y3268D01*
X166Y3268D01*
X167Y3268D01*
X168Y3268D01*
X169Y3268D01*
X170Y3268D01*
X171Y3268D01*
X172Y3268D01*
X173Y3268D01*
X174Y3268D01*
X175Y3268D01*
X176Y3268D01*
X177Y3268D01*
X178Y3268D01*
X179Y3268D01*
X180Y3268D01*
X181Y3268D01*
X182Y3268D01*
X183Y3268D01*
X184Y3268D01*
X185Y3268D01*
X186Y3268D01*
X187Y3268D01*
X188Y3268D01*
X189Y3268D01*
X190Y3268D01*
X191Y3268D01*
X192Y3268D01*
X193Y3268D01*
X194Y3268D01*
X195Y3268D01*
X196Y3268D01*
X197Y3268D01*
X198Y3268D01*
X199Y3268D01*
X200Y3268D01*
X201Y3268D01*
X202Y3268D01*
X203Y3268D01*
X204Y3268D01*
X205Y3268D01*
X206Y3268D01*
X207Y3268D01*
X208Y3268D01*
X209Y3268D01*
X210Y3268D01*
X211Y3268D01*
X212Y3268D01*
X213Y3268D01*
X214Y3268D01*
X215Y3268D01*
X216Y3268D01*
X217Y3268D01*
X218Y3268D01*
X219Y3268D01*
X220Y3268D01*
X221Y3268D01*
X222Y3268D01*
X223Y3268D01*
X224Y3268D01*
X225Y3268D01*
X226Y3268D01*
X227Y3268D01*
X228Y3268D01*
X229Y3268D01*
X230Y3268D01*
X231Y3268D01*
X232Y3268D01*
X233Y3268D01*
X234Y3268D01*
X235Y3268D01*
X236Y3268D01*
X237Y3268D01*
X238Y3268D01*
X239Y3268D01*
X240Y3268D01*
X241Y3268D01*
X242Y3268D01*
X243Y3268D01*
X244Y3268D01*
X245Y3268D01*
X246Y3268D01*
X247Y3268D01*
X248Y3268D01*
X249Y3268D01*
X250Y3268D01*
X251Y3268D01*
X252Y3268D01*
X253Y3268D01*
X254Y3268D01*
X255Y3268D01*
X256Y3268D01*
X257Y3268D01*
X258Y3268D01*
X259Y3268D01*
X260Y3268D01*
X261Y3268D01*
X262Y3268D01*
X263Y3268D01*
X264Y3268D01*
X265Y3268D01*
X266Y3268D01*
X267Y3268D01*
X268Y3268D01*
X269Y3268D01*
X270Y3268D01*
X271Y3268D01*
X272Y3268D01*
X273Y3268D01*
X274Y3268D01*
X275Y3268D01*
X276Y3268D01*
X277Y3268D01*
X278Y3268D01*
X279Y3268D01*
X280Y3268D01*
X281Y3268D01*
X282Y3268D01*
X283Y3268D01*
X284Y3268D01*
X285Y3268D01*
X286Y3268D01*
X287Y3268D01*
X288Y3268D01*
X289Y3268D01*
X290Y3268D01*
X291Y3268D01*
X292Y3268D01*
X293Y3268D01*
X294Y3268D01*
X295Y3268D01*
X296Y3268D01*
X297Y3268D01*
X298Y3268D01*
X299Y3268D01*
X300Y3268D01*
X301Y3268D01*
X302Y3268D01*
X303Y3268D01*
X304Y3268D01*
X305Y3268D01*
X306Y3268D01*
X307Y3268D01*
X308Y3268D01*
X309Y3268D01*
X310Y3268D01*
X311Y3268D01*
X312Y3268D01*
X313Y3268D01*
X314Y3268D01*
X315Y3268D01*
X316Y3268D01*
X317Y3268D01*
X318Y3268D01*
X319Y3268D01*
X320Y3268D01*
X321Y3268D01*
X322Y3268D01*
X323Y3268D01*
X324Y3268D01*
X325Y3268D01*
X326Y3268D01*
X327Y3268D01*
X328Y3268D01*
X329Y3268D01*
X330Y3268D01*
X331Y3268D01*
X332Y3268D01*
X333Y3268D01*
X334Y3268D01*
X335Y3268D01*
X336Y3268D01*
X337Y3268D01*
X338Y3268D01*
X339Y3268D01*
X340Y3268D01*
X341Y3268D01*
X342Y3268D01*
X343Y3268D01*
X344Y3268D01*
X345Y3268D01*
X346Y3268D01*
X347Y3268D01*
X348Y3268D01*
X349Y3268D01*
X350Y3268D01*
X351Y3268D01*
X352Y3268D01*
X353Y3268D01*
X354Y3268D01*
X355Y3268D01*
X356Y3268D01*
X357Y3268D01*
X358Y3268D01*
X359Y3268D01*
X360Y3268D01*
X361Y3268D01*
X362Y3268D01*
X363Y3268D01*
X364Y3268D01*
X365Y3268D01*
X366Y3268D01*
X367Y3268D01*
X368Y3268D01*
X369Y3268D01*
X370Y3268D01*
X371Y3268D01*
X372Y3268D01*
X373Y3268D01*
X374Y3268D01*
X375Y3268D01*
X376Y3268D01*
X377Y3268D01*
X378Y3268D01*
X379Y3268D01*
X380Y3268D01*
X381Y3268D01*
X382Y3268D01*
X383Y3268D01*
X384Y3268D01*
X385Y3268D01*
X386Y3268D01*
X387Y3268D01*
X388Y3268D01*
X389Y3268D01*
X390Y3268D01*
X391Y3268D01*
X392Y3268D01*
X393Y3268D01*
X394Y3268D01*
X395Y3268D01*
X396Y3268D01*
X397Y3268D01*
X398Y3268D01*
X399Y3268D01*
X400Y3268D01*
X401Y3268D01*
X402Y3268D01*
X403Y3268D01*
X404Y3268D01*
X405Y3268D01*
X406Y3268D01*
X407Y3268D01*
X408Y3268D01*
X409Y3268D01*
X410Y3268D01*
X411Y3268D01*
X412Y3268D01*
X413Y3268D01*
X414Y3268D01*
X415Y3268D01*
X416Y3268D01*
X417Y3268D01*
X418Y3268D01*
X419Y3268D01*
X420Y3268D01*
X421Y3268D01*
X422Y3268D01*
X423Y3268D01*
X424Y3268D01*
X425Y3268D01*
X426Y3268D01*
X427Y3268D01*
X428Y3268D01*
X429Y3268D01*
X430Y3268D01*
X431Y3268D01*
X432Y3268D01*
X433Y3268D01*
X434Y3268D01*
X435Y3268D01*
X436Y3268D01*
X437Y3268D01*
X438Y3268D01*
X439Y3268D01*
X440Y3268D01*
X441Y3268D01*
X442Y3268D01*
X443Y3268D01*
X444Y3268D01*
X445Y3268D01*
X446Y3268D01*
X447Y3268D01*
X448Y3268D01*
X449Y3268D01*
X450Y3268D01*
X451Y3268D01*
X452Y3268D01*
X453Y3268D01*
X454Y3268D01*
X455Y3268D01*
X456Y3268D01*
X457Y3268D01*
X458Y3268D01*
X459Y3268D01*
X460Y3268D01*
X461Y3268D01*
X462Y3268D01*
X463Y3268D01*
X464Y3268D01*
X465Y3268D01*
X466Y3268D01*
X467Y3268D01*
X468Y3268D01*
X469Y3268D01*
X470Y3268D01*
X471Y3268D01*
X472Y3268D01*
X473Y3268D01*
X474Y3268D01*
X475Y3268D01*
X476Y3268D01*
X477Y3268D01*
X478Y3268D01*
X479Y3268D01*
X480Y3268D01*
X481Y3268D01*
X482Y3268D01*
X483Y3268D01*
X484Y3268D01*
X485Y3268D01*
X486Y3268D01*
X487Y3268D01*
X488Y3268D01*
X489Y3268D01*
X490Y3268D01*
X491Y3268D01*
X492Y3268D01*
X493Y3268D01*
X494Y3268D01*
X495Y3268D01*
X496Y3268D01*
X497Y3268D01*
X498Y3268D01*
X499Y3268D01*
X500Y3268D01*
X501Y3268D01*
X502Y3268D01*
X503Y3268D01*
X504Y3268D01*
X505Y3268D01*
X506Y3268D01*
X507Y3268D01*
X508Y3268D01*
X509Y3268D01*
X510Y3268D01*
X511Y3268D01*
X512Y3268D01*
X513Y3268D01*
X514Y3268D01*
X515Y3268D01*
X516Y3268D01*
X517Y3268D01*
X518Y3268D01*
X519Y3268D01*
X520Y3268D01*
X521Y3268D01*
X522Y3268D01*
X523Y3268D01*
X524Y3268D01*
X525Y3268D01*
X526Y3268D01*
X527Y3268D01*
X528Y3268D01*
X529Y3268D01*
X530Y3268D01*
X531Y3268D01*
X532Y3268D01*
X533Y3268D01*
X534Y3268D01*
X535Y3268D01*
X536Y3268D01*
X537Y3268D01*
X538Y3268D01*
X539Y3268D01*
X540Y3268D01*
X541Y3268D01*
X542Y3268D01*
X543Y3268D01*
X544Y3268D01*
X545Y3268D01*
X546Y3268D01*
X547Y3268D01*
X548Y3268D01*
X549Y3268D01*
X550Y3268D01*
X551Y3268D01*
X552Y3268D01*
X553Y3268D01*
X554Y3268D01*
X555Y3268D01*
X556Y3268D01*
X557Y3268D01*
X558Y3268D01*
X559Y3268D01*
X560Y3268D01*
X561Y3268D01*
X562Y3268D01*
X563Y3268D01*
X564Y3268D01*
X565Y3268D01*
X566Y3268D01*
X567Y3268D01*
X568Y3268D01*
X569Y3268D01*
X570Y3268D01*
X571Y3268D01*
X572Y3268D01*
X573Y3268D01*
X574Y3268D01*
X575Y3268D01*
X576Y3268D01*
X577Y3268D01*
X578Y3268D01*
X579Y3268D01*
X580Y3268D01*
X581Y3268D01*
X582Y3268D01*
X583Y3268D01*
X584Y3268D01*
X585Y3268D01*
X586Y3268D01*
X587Y3268D01*
X588Y3268D01*
X589Y3268D01*
X590Y3268D01*
X591Y3268D01*
X592Y3268D01*
X593Y3268D01*
X594Y3268D01*
X595Y3268D01*
X596Y3268D01*
X597Y3268D01*
X598Y3268D01*
X599Y3268D01*
X600Y3268D01*
X601Y3268D01*
X602Y3268D01*
X603Y3268D01*
X604Y3268D01*
X605Y3268D01*
X606Y3268D01*
X607Y3268D01*
X608Y3268D01*
X609Y3268D01*
X610Y3268D01*
X611Y3268D01*
X612Y3268D01*
X613Y3268D01*
X614Y3268D01*
X615Y3268D01*
X616Y3268D01*
X617Y3268D01*
X618Y3268D01*
X619Y3268D01*
X620Y3268D01*
X621Y3268D01*
X622Y3268D01*
X623Y3268D01*
X624Y3268D01*
X625Y3268D01*
X626Y3268D01*
X627Y3268D01*
X628Y3268D01*
X629Y3268D01*
X630Y3268D01*
X631Y3268D01*
X632Y3268D01*
X633Y3268D01*
X634Y3268D01*
X635Y3268D01*
X636Y3268D01*
X637Y3268D01*
X638Y3268D01*
X639Y3268D01*
X640Y3268D01*
X641Y3268D01*
X642Y3268D01*
X643Y3268D01*
X644Y3268D01*
X645Y3268D01*
X646Y3268D01*
X647Y3268D01*
X648Y3268D01*
X649Y3268D01*
X650Y3268D01*
X651Y3268D01*
X652Y3268D01*
X653Y3268D01*
X654Y3268D01*
X655Y3268D01*
X656Y3268D01*
X657Y3268D01*
X658Y3268D01*
X659Y3268D01*
X660Y3268D01*
X661Y3268D01*
X662Y3268D01*
X663Y3268D01*
X664Y3268D01*
X665Y3268D01*
X666Y3268D01*
X667Y3268D01*
X668Y3268D01*
X669Y3268D01*
X670Y3268D01*
X671Y3268D01*
X672Y3268D01*
X673Y3268D01*
X674Y3268D01*
X675Y3268D01*
X676Y3268D01*
X677Y3268D01*
X678Y3268D01*
X679Y3268D01*
X680Y3268D01*
X681Y3268D01*
X682Y3268D01*
X683Y3268D01*
X684Y3268D01*
X685Y3268D01*
X686Y3268D01*
X687Y3268D01*
X688Y3268D01*
X689Y3268D01*
X690Y3268D01*
X691Y3268D01*
X692Y3268D01*
X693Y3268D01*
X694Y3268D01*
X695Y3268D01*
X696Y3268D01*
X697Y3268D01*
X698Y3268D01*
X699Y3268D01*
X700Y3268D01*
X701Y3268D01*
X702Y3268D01*
X703Y3268D01*
X704Y3268D01*
X705Y3268D01*
X706Y3268D01*
X707Y3268D01*
X708Y3268D01*
X709Y3268D01*
X710Y3268D01*
X711Y3268D01*
X712Y3268D01*
X713Y3268D01*
X714Y3268D01*
X715Y3268D01*
X716Y3268D01*
X717Y3268D01*
X718Y3268D01*
X719Y3268D01*
X720Y3268D01*
X721Y3268D01*
X722Y3268D01*
X723Y3268D01*
X724Y3268D01*
X725Y3268D01*
X726Y3268D01*
X727Y3268D01*
X728Y3268D01*
X729Y3268D01*
X730Y3268D01*
X731Y3268D01*
X732Y3268D01*
X733Y3268D01*
X734Y3268D01*
X735Y3268D01*
X736Y3268D01*
X737Y3268D01*
X738Y3268D01*
X739Y3268D01*
X740Y3268D01*
X741Y3268D01*
X742Y3268D01*
X743Y3268D01*
X744Y3268D01*
X745Y3268D01*
X746Y3268D01*
X747Y3268D01*
X748Y3268D01*
X749Y3268D01*
X750Y3268D01*
X751Y3268D01*
X752Y3268D01*
X753Y3268D01*
X754Y3268D01*
X755Y3268D01*
X756Y3268D01*
X757Y3268D01*
X758Y3268D01*
X759Y3268D01*
X760Y3268D01*
X761Y3268D01*
X762Y3268D01*
X763Y3268D01*
X764Y3268D01*
X765Y3268D01*
X766Y3268D01*
X767Y3268D01*
X768Y3268D01*
X769Y3268D01*
X770Y3268D01*
X771Y3268D01*
X772Y3268D01*
X773Y3268D01*
X774Y3268D01*
X775Y3268D01*
X776Y3268D01*
X777Y3268D01*
X778Y3268D01*
X779Y3268D01*
X780Y3268D01*
X781Y3268D01*
X782Y3268D01*
X783Y3268D01*
X784Y3268D01*
X785Y3268D01*
X786Y3268D01*
X787Y3268D01*
X788Y3268D01*
X789Y3268D01*
X790Y3268D01*
X791Y3268D01*
X792Y3268D01*
X793Y3268D01*
X794Y3268D01*
X795Y3268D01*
X796Y3268D01*
X797Y3268D01*
X798Y3268D01*
X799Y3268D01*
X800Y3268D01*
X801Y3268D01*
X802Y3268D01*
X803Y3268D01*
X804Y3268D01*
X805Y3268D01*
X806Y3268D01*
X807Y3268D01*
X808Y3268D01*
X809Y3268D01*
X810Y3268D01*
X811Y3268D01*
X812Y3268D01*
X813Y3268D01*
X814Y3268D01*
X815Y3268D01*
X816Y3268D01*
X817Y3268D01*
X818Y3268D01*
X819Y3268D01*
X820Y3268D01*
X821Y3268D01*
X822Y3268D01*
X823Y3268D01*
X824Y3268D01*
X825Y3268D01*
X826Y3268D01*
X827Y3268D01*
X828Y3268D01*
X829Y3268D01*
X830Y3268D01*
X831Y3268D01*
X832Y3268D01*
X833Y3268D01*
X834Y3268D01*
X835Y3268D01*
X836Y3268D01*
X837Y3268D01*
X838Y3268D01*
X839Y3268D01*
X840Y3268D01*
X841Y3268D01*
X842Y3268D01*
X843Y3268D01*
X844Y3268D01*
X845Y3268D01*
X846Y3268D01*
X847Y3268D01*
X848Y3268D01*
X849Y3268D01*
X850Y3268D01*
X851Y3268D01*
X852Y3268D01*
X853Y3268D01*
X854Y3268D01*
X855Y3268D01*
X856Y3268D01*
X857Y3268D01*
X858Y3268D01*
X859Y3268D01*
X860Y3268D01*
X861Y3268D01*
X862Y3268D01*
X863Y3268D01*
X864Y3268D01*
X865Y3268D01*
X866Y3268D01*
X867Y3268D01*
X868Y3268D01*
X869Y3268D01*
X870Y3268D01*
X871Y3268D01*
X872Y3268D01*
X873Y3268D01*
X874Y3268D01*
X875Y3268D01*
X876Y3268D01*
X877Y3268D01*
X878Y3268D01*
X879Y3268D01*
X880Y3268D01*
X881Y3268D01*
X882Y3268D01*
X883Y3268D01*
X884Y3268D01*
X885Y3268D01*
X886Y3268D01*
X887Y3268D01*
X888Y3268D01*
X889Y3268D01*
X890Y3268D01*
X891Y3268D01*
X892Y3268D01*
X893Y3268D01*
X894Y3268D01*
X895Y3268D01*
X896Y3268D01*
X897Y3268D01*
X898Y3268D01*
X899Y3268D01*
X900Y3268D01*
X901Y3268D01*
X902Y3268D01*
X903Y3268D01*
X904Y3268D01*
X905Y3268D01*
X906Y3268D01*
X907Y3268D01*
X908Y3268D01*
X909Y3268D01*
X910Y3268D01*
X911Y3268D01*
X912Y3268D01*
X913Y3268D01*
X914Y3268D01*
X915Y3268D01*
X916Y3268D01*
X917Y3268D01*
X918Y3268D01*
X919Y3268D01*
X920Y3268D01*
X921Y3268D01*
X922Y3268D01*
X923Y3268D01*
X924Y3268D01*
X925Y3268D01*
X926Y3268D01*
X927Y3268D01*
X928Y3268D01*
X929Y3268D01*
X930Y3268D01*
X931Y3268D01*
X932Y3268D01*
X933Y3268D01*
X934Y3268D01*
X935Y3268D01*
X936Y3268D01*
X937Y3268D01*
X938Y3268D01*
X939Y3268D01*
X940Y3268D01*
X941Y3268D01*
X942Y3268D01*
X943Y3268D01*
X944Y3268D01*
X945Y3268D01*
X946Y3268D01*
X947Y3268D01*
X948Y3268D01*
X949Y3268D01*
X950Y3268D01*
X951Y3268D01*
X952Y3268D01*
X953Y3268D01*
X954Y3268D01*
X955Y3268D01*
X956Y3268D01*
X957Y3268D01*
X958Y3268D01*
X959Y3268D01*
X960Y3268D01*
X961Y3268D01*
X962Y3268D01*
X963Y3268D01*
X964Y3268D01*
X965Y3268D01*
X966Y3268D01*
X967Y3268D01*
X968Y3268D01*
X969Y3268D01*
X970Y3268D01*
X971Y3268D01*
X972Y3268D01*
X973Y3268D01*
X974Y3268D01*
X975Y3268D01*
X976Y3268D01*
X977Y3268D01*
X978Y3268D01*
X979Y3268D01*
X980Y3268D01*
X981Y3268D01*
X982Y3268D01*
X983Y3268D01*
X984Y3268D01*
X985Y3268D01*
X986Y3268D01*
X987Y3268D01*
X988Y3268D01*
X989Y3268D01*
X990Y3268D01*
X991Y3268D01*
X992Y3268D01*
X993Y3268D01*
X994Y3268D01*
X995Y3268D01*
X996Y3268D01*
X997Y3268D01*
X998Y3268D01*
X999Y3268D01*
X1000Y3268D01*
X1001Y3268D01*
X1002Y3268D01*
X1003Y3268D01*
X1004Y3268D01*
X1005Y3268D01*
X1006Y3268D01*
X1007Y3268D01*
X1008Y3268D01*
X1009Y3268D01*
X1010Y3268D01*
X1011Y3268D01*
X1012Y3268D01*
X1013Y3268D01*
X1014Y3268D01*
X1015Y3268D01*
X1016Y3268D01*
X1017Y3268D01*
X1018Y3268D01*
X1019Y3268D01*
X1020Y3268D01*
X1021Y3268D01*
X1022Y3268D01*
X1023Y3268D01*
X1024Y3268D01*
X1025Y3268D01*
X1026Y3268D01*
X1027Y3268D01*
X1028Y3268D01*
X1029Y3268D01*
X1030Y3268D01*
X1031Y3268D01*
X1032Y3268D01*
X1033Y3268D01*
X1034Y3268D01*
X1035Y3268D01*
X1036Y3268D01*
X1037Y3268D01*
X1038Y3268D01*
X1039Y3268D01*
X1040Y3268D01*
X1041Y3268D01*
X1042Y3268D01*
X1043Y3268D01*
X1044Y3268D01*
X1045Y3268D01*
X1046Y3268D01*
X1047Y3268D01*
X1048Y3268D01*
X1049Y3268D01*
X1050Y3268D01*
X1051Y3268D01*
X1052Y3268D01*
X1053Y3268D01*
X1054Y3268D01*
X1055Y3268D01*
X1056Y3268D01*
X1057Y3268D01*
X1058Y3268D01*
X1059Y3268D01*
X1060Y3268D01*
X1061Y3268D01*
X1062Y3268D01*
X1063Y3268D01*
X1064Y3268D01*
X1065Y3268D01*
X1066Y3268D01*
X1067Y3268D01*
X1068Y3268D01*
X1069Y3268D01*
X1070Y3268D01*
X1071Y3268D01*
X1072Y3268D01*
X1073Y3268D01*
X1074Y3268D01*
X1075Y3268D01*
X1076Y3268D01*
X1077Y3268D01*
X1078Y3268D01*
X1079Y3268D01*
X1080Y3268D01*
X1081Y3268D01*
X1082Y3268D01*
X1083Y3268D01*
X1084Y3268D01*
X1085Y3268D01*
X1086Y3268D01*
X1087Y3268D01*
X1088Y3268D01*
X1089Y3268D01*
X1090Y3268D01*
X1091Y3268D01*
X1092Y3268D01*
X1093Y3268D01*
X1094Y3268D01*
X1095Y3268D01*
X1096Y3268D01*
X1097Y3268D01*
X1098Y3268D01*
X1099Y3268D01*
X1100Y3268D01*
X1101Y3268D01*
X1102Y3268D01*
X1103Y3268D01*
X1104Y3268D01*
X1105Y3268D01*
X1106Y3268D01*
X1107Y3268D01*
X1108Y3268D01*
X1109Y3268D01*
X1110Y3268D01*
X1111Y3268D01*
X1112Y3268D01*
X1113Y3268D01*
X1114Y3268D01*
X1115Y3268D01*
X1116Y3268D01*
X1117Y3268D01*
X1118Y3268D01*
X1119Y3268D01*
X1120Y3268D01*
X1121Y3268D01*
X1122Y3268D01*
X1123Y3268D01*
X1124Y3268D01*
X1125Y3268D01*
X1126Y3268D01*
X1127Y3268D01*
X1128Y3268D01*
X1129Y3268D01*
X1130Y3268D01*
X1131Y3268D01*
X1132Y3268D01*
X1133Y3268D01*
X1134Y3268D01*
X1135Y3268D01*
X1136Y3268D01*
X1137Y3268D01*
X1138Y3268D01*
X1139Y3268D01*
X1140Y3268D01*
X1141Y3268D01*
X1142Y3268D01*
X1143Y3268D01*
X1144Y3268D01*
X1145Y3268D01*
X1146Y3268D01*
X1147Y3268D01*
X1148Y3268D01*
X1149Y3268D01*
X1150Y3268D01*
X1151Y3268D01*
X1152Y3268D01*
X1153Y3268D01*
X1154Y3268D01*
X1155Y3268D01*
X1156Y3268D01*
X1157Y3268D01*
X1158Y3268D01*
X1159Y3268D01*
X1160Y3268D01*
X1161Y3268D01*
X1162Y3268D01*
X1163Y3268D01*
X1164Y3268D01*
X1165Y3268D01*
X1166Y3268D01*
X1167Y3268D01*
X1168Y3268D01*
X1169Y3268D01*
X1170Y3268D01*
X1171Y3268D01*
X1172Y3268D01*
X1173Y3268D01*
X1174Y3268D01*
X1175Y3268D01*
X1176Y3268D01*
X1177Y3268D01*
X1178Y3268D01*
X1179Y3268D01*
X1180Y3268D01*
X1181Y3268D01*
X1182Y3268D01*
X1183Y3268D01*
X1184Y3268D01*
X1185Y3268D01*
X1186Y3268D01*
X1187Y3268D01*
X1188Y3268D01*
X1189Y3268D01*
X1190Y3268D01*
X1191Y3268D01*
X1192Y3268D01*
X1193Y3268D01*
X1194Y3268D01*
X1195Y3268D01*
X1196Y3268D01*
X1197Y3268D01*
X1198Y3268D01*
X1199Y3268D01*
X1200Y3268D01*
X1201Y3268D01*
X1202Y3268D01*
X1203Y3268D01*
X1204Y3268D01*
X1205Y3268D01*
X1206Y3268D01*
X1207Y3268D01*
X1208Y3268D01*
X1209Y3268D01*
X1210Y3268D01*
X1211Y3268D01*
X1212Y3268D01*
X1213Y3268D01*
X1214Y3268D01*
X1215Y3268D01*
X1216Y3268D01*
X1217Y3268D01*
X1218Y3268D01*
X1219Y3268D01*
X1220Y3268D01*
X1221Y3268D01*
X1222Y3268D01*
X1223Y3268D01*
X1224Y3268D01*
X1225Y3268D01*
X1226Y3268D01*
X1227Y3268D01*
X1228Y3268D01*
X1229Y3268D01*
X1230Y3268D01*
X1231Y3268D01*
X1232Y3268D01*
X1233Y3268D01*
X1234Y3268D01*
X1235Y3268D01*
X1236Y3268D01*
X1237Y3268D01*
X1238Y3268D01*
X1239Y3268D01*
X1240Y3268D01*
X1241Y3268D01*
X1242Y3268D01*
X1243Y3268D01*
X1244Y3268D01*
X1245Y3268D01*
X1246Y3268D01*
X1247Y3268D01*
X1248Y3268D01*
X1249Y3268D01*
X1250Y3268D01*
X1251Y3268D01*
X1252Y3268D01*
X1253Y3268D01*
X1254Y3268D01*
X1255Y3268D01*
X1256Y3268D01*
X1257Y3268D01*
X1258Y3268D01*
X1259Y3268D01*
X1260Y3268D01*
X1261Y3268D01*
X1262Y3268D01*
X1263Y3268D01*
X1264Y3268D01*
X1265Y3268D01*
X1266Y3268D01*
X1267Y3268D01*
X1268Y3268D01*
X1269Y3268D01*
X1270Y3268D01*
X1271Y3268D01*
X1272Y3268D01*
X1273Y3268D01*
X1274Y3268D01*
X1275Y3268D01*
X1276Y3268D01*
X1277Y3268D01*
X1278Y3268D01*
X1279Y3268D01*
X1280Y3268D01*
X1281Y3268D01*
X1282Y3268D01*
X1283Y3268D01*
X1284Y3268D01*
X1285Y3268D01*
X1286Y3268D01*
X1287Y3268D01*
X1288Y3268D01*
X1289Y3268D01*
X1290Y3268D01*
X1291Y3268D01*
X1292Y3268D01*
X1293Y3268D01*
X1294Y3268D01*
X1295Y3268D01*
X1296Y3268D01*
X1297Y3268D01*
X1298Y3268D01*
X1299Y3268D01*
X1300Y3268D01*
X1301Y3268D01*
X1302Y3268D01*
X1303Y3268D01*
X1304Y3268D01*
X1305Y3268D01*
X1306Y3268D01*
X1307Y3268D01*
X1308Y3268D01*
X1309Y3268D01*
X1310Y3268D01*
X1311Y3268D01*
X1312Y3268D01*
X1313Y3268D01*
X1314Y3268D01*
X1315Y3268D01*
X1316Y3268D01*
X1317Y3268D01*
X1318Y3268D01*
X1319Y3268D01*
X1320Y3268D01*
X1321Y3268D01*
X1322Y3268D01*
X1323Y3268D01*
X1324Y3268D01*
X1325Y3268D01*
X1326Y3268D01*
X1327Y3268D01*
X1328Y3268D01*
X1329Y3268D01*
X1330Y3268D01*
X1331Y3268D01*
X1332Y3268D01*
X1333Y3268D01*
X1334Y3268D01*
X1335Y3268D01*
X1336Y3268D01*
X1337Y3268D01*
X1338Y3268D01*
X1339Y3268D01*
X1340Y3268D01*
X1341Y3268D01*
X1342Y3268D01*
X1343Y3268D01*
X1344Y3268D01*
X1345Y3268D01*
X1346Y3268D01*
X1347Y3268D01*
X1348Y3268D01*
X1349Y3268D01*
X1350Y3268D01*
X1351Y3268D01*
X1352Y3268D01*
X1353Y3268D01*
X1354Y3268D01*
X1355Y3268D01*
X1356Y3268D01*
X1357Y3268D01*
X1358Y3268D01*
X1359Y3268D01*
X1360Y3268D01*
X1361Y3268D01*
X1362Y3268D01*
X1363Y3268D01*
X1364Y3268D01*
X1365Y3268D01*
X1366Y3268D01*
X1367Y3268D01*
X1368Y3268D01*
X1369Y3268D01*
X1370Y3268D01*
X1371Y3268D01*
X1372Y3268D01*
X1373Y3268D01*
X1374Y3268D01*
X1375Y3268D01*
X1376Y3268D01*
X1377Y3268D01*
X1378Y3268D01*
X1379Y3268D01*
X1380Y3268D01*
X1381Y3268D01*
X1382Y3268D01*
X1383Y3268D01*
X1384Y3268D01*
X1385Y3268D01*
X1386Y3268D01*
X1387Y3268D01*
X1388Y3268D01*
X1389Y3268D01*
X1390Y3268D01*
X1391Y3268D01*
X1392Y3268D01*
X1393Y3268D01*
X1394Y3268D01*
X1395Y3268D01*
X1396Y3268D01*
X1397Y3268D01*
X1398Y3268D01*
X1399Y3268D01*
X1400Y3268D01*
X1401Y3268D01*
X1402Y3268D01*
X1403Y3268D01*
X1404Y3268D01*
X1405Y3268D01*
X1406Y3268D01*
X1407Y3268D01*
X1408Y3268D01*
X1409Y3268D01*
X1410Y3268D01*
X1411Y3268D01*
X1412Y3268D01*
X1413Y3268D01*
X1414Y3268D01*
X1415Y3268D01*
X1416Y3268D01*
X1417Y3268D01*
X1418Y3268D01*
X1419Y3268D01*
X1420Y3268D01*
X1421Y3268D01*
X1422Y3268D01*
X1423Y3268D01*
X1424Y3268D01*
X1425Y3268D01*
X1426Y3268D01*
X1427Y3268D01*
X1428Y3268D01*
X1429Y3268D01*
X1430Y3268D01*
X1431Y3268D01*
X1432Y3268D01*
X1433Y3268D01*
X1434Y3268D01*
X1435Y3268D01*
X1436Y3268D01*
X1437Y3268D01*
X1438Y3268D01*
X1439Y3268D01*
X1440Y3268D01*
X1441Y3268D01*
X1442Y3268D01*
X1443Y3268D01*
X1444Y3268D01*
X1445Y3268D01*
X1446Y3268D01*
X1447Y3268D01*
X1448Y3268D01*
X1449Y3268D01*
X1450Y3268D01*
X1451Y3268D01*
X1452Y3268D01*
X1453Y3268D01*
X1454Y3268D01*
X1455Y3268D01*
X1456Y3268D01*
X1457Y3268D01*
X1458Y3268D01*
X1459Y3268D01*
X1460Y3268D01*
X1461Y3268D01*
X1462Y3268D01*
X1463Y3268D01*
X1464Y3268D01*
X1465Y3268D01*
X1466Y3268D01*
X1467Y3268D01*
X1468Y3268D01*
X1469Y3268D01*
X1470Y3268D01*
X1471Y3268D01*
X1472Y3268D01*
X1473Y3268D01*
X1474Y3268D01*
X1475Y3268D01*
X1476Y3268D01*
X1477Y3268D01*
X1478Y3268D01*
X1479Y3268D01*
X1480Y3268D01*
X1481Y3268D01*
X1482Y3268D01*
X1483Y3268D01*
X1484Y3268D01*
X1485Y3268D01*
X1486Y3268D01*
X1487Y3268D01*
X1488Y3268D01*
X1489Y3268D01*
X1490Y3268D01*
X1491Y3268D01*
X1492Y3268D01*
X1493Y3268D01*
X1494Y3268D01*
X1495Y3268D01*
X1496Y3268D01*
X1497Y3268D01*
X1498Y3268D01*
X1499Y3268D01*
X1500Y3268D01*
X1501Y3268D01*
X1502Y3268D01*
X1503Y3268D01*
X1504Y3268D01*
X1505Y3268D01*
X1506Y3268D01*
X1507Y3268D01*
X1508Y3268D01*
X1509Y3268D01*
X1510Y3268D01*
X1511Y3268D01*
X1512Y3268D01*
X1513Y3268D01*
X1514Y3268D01*
X1515Y3268D01*
X1516Y3268D01*
X1517Y3268D01*
X1518Y3268D01*
X1519Y3268D01*
X1520Y3268D01*
X1521Y3268D01*
X1522Y3268D01*
X1523Y3268D01*
X1524Y3268D01*
X1525Y3268D01*
X1526Y3268D01*
X1527Y3268D01*
X1528Y3268D01*
X1529Y3268D01*
X1530Y3268D01*
X1531Y3268D01*
X1532Y3268D01*
X1533Y3268D01*
X1534Y3268D01*
X1535Y3268D01*
X1536Y3268D01*
X1537Y3268D01*
X1538Y3268D01*
X1539Y3268D01*
X1540Y3268D01*
X1541Y3268D01*
X1542Y3268D01*
X1543Y3268D01*
X1544Y3268D01*
X1545Y3268D01*
X1546Y3268D01*
X1547Y3268D01*
X1548Y3268D01*
X1549Y3268D01*
X1550Y3268D01*
X1551Y3268D01*
X1552Y3268D01*
X1553Y3268D01*
X1554Y3268D01*
X1555Y3268D01*
X1556Y3268D01*
X1557Y3268D01*
X1558Y3268D01*
X1559Y3268D01*
X1560Y3268D01*
X1561Y3268D01*
X1562Y3268D01*
X1563Y3268D01*
X1564Y3268D01*
X1565Y3268D01*
X1566Y3268D01*
X1567Y3268D01*
X1568Y3268D01*
X1569Y3268D01*
X1570Y3268D01*
X1571Y3268D01*
X1572Y3268D01*
X1573Y3268D01*
X1574Y3268D01*
X1575Y3268D01*
X1576Y3268D01*
X1577Y3268D01*
X1578Y3268D01*
X1579Y3268D01*
X1580Y3268D01*
X1581Y3268D01*
X1582Y3268D01*
X1583Y3268D01*
X1584Y3268D01*
X1585Y3268D01*
X1586Y3268D01*
X1587Y3268D01*
X1588Y3268D01*
X1589Y3268D01*
X1590Y3268D01*
X1591Y3268D01*
X1592Y3268D01*
X1593Y3268D01*
X1594Y3268D01*
X1595Y3268D01*
X1596Y3268D01*
X1597Y3268D01*
X1598Y3268D01*
X1599Y3268D01*
X1600Y3268D01*
X1601Y3268D01*
X1602Y3268D01*
X1603Y3268D01*
X1604Y3268D01*
X1605Y3268D01*
X1606Y3268D01*
X1607Y3268D01*
X1608Y3268D01*
X1609Y3268D01*
X1610Y3268D01*
X1611Y3268D01*
X1612Y3268D01*
X1613Y3268D01*
X1614Y3268D01*
X1615Y3268D01*
X1616Y3268D01*
X1617Y3268D01*
X1618Y3268D01*
X1619Y3268D01*
X1620Y3268D01*
X1621Y3268D01*
X1622Y3268D01*
X1623Y3268D01*
X1624Y3268D01*
X1625Y3268D01*
X1626Y3268D01*
X1627Y3268D01*
X1628Y3268D01*
X1629Y3268D01*
X1630Y3268D01*
X1631Y3268D01*
X1632Y3268D01*
X1633Y3268D01*
X1634Y3268D01*
X1635Y3268D01*
X1636Y3268D01*
X1637Y3268D01*
X1638Y3268D01*
X1639Y3268D01*
X1640Y3268D01*
X1641Y3268D01*
X1642Y3268D01*
X1643Y3268D01*
X1644Y3268D01*
X1645Y3268D01*
X1646Y3268D01*
X1647Y3268D01*
X1648Y3268D01*
X1649Y3268D01*
X1650Y3268D01*
X1651Y3268D01*
X1652Y3268D01*
X1653Y3268D01*
X1654Y3268D01*
X1655Y3268D01*
X1656Y3268D01*
X1657Y3268D01*
X1658Y3268D01*
X1659Y3268D01*
X1660Y3268D01*
X1661Y3268D01*
X1662Y3268D01*
X1663Y3268D01*
X1664Y3268D01*
X1665Y3268D01*
X1666Y3268D01*
X1667Y3268D01*
X1668Y3268D01*
X1669Y3268D01*
X1670Y3268D01*
X1671Y3268D01*
X1672Y3268D01*
X1673Y3268D01*
X1674Y3268D01*
X1675Y3268D01*
X1676Y3268D01*
X1677Y3268D01*
X1678Y3268D01*
X1679Y3268D01*
X1680Y3268D01*
X1681Y3268D01*
X1682Y3268D01*
X1683Y3268D01*
X1684Y3268D01*
X1685Y3268D01*
X1686Y3268D01*
X1687Y3268D01*
X1688Y3268D01*
X1689Y3268D01*
X1690Y3268D01*
X1691Y3268D01*
X1692Y3268D01*
X1693Y3268D01*
X1694Y3268D01*
X1695Y3268D01*
X1696Y3268D01*
X1697Y3268D01*
X1698Y3268D01*
X1699Y3268D01*
X1700Y3268D01*
X1701Y3268D01*
X1702Y3268D01*
X1703Y3268D01*
X1704Y3268D01*
X1705Y3268D01*
X1706Y3268D01*
X1707Y3268D01*
X1708Y3268D01*
X1709Y3268D01*
X1710Y3268D01*
X1711Y3268D01*
X1712Y3268D01*
X1713Y3268D01*
X1714Y3268D01*
X1715Y3268D01*
X1716Y3268D01*
X1717Y3268D01*
X1718Y3268D01*
X1719Y3268D01*
X1720Y3268D01*
X1721Y3268D01*
X1722Y3268D01*
X1723Y3268D01*
X1724Y3268D01*
X1725Y3268D01*
X1726Y3268D01*
X1727Y3268D01*
X1728Y3268D01*
X1729Y3268D01*
X1730Y3268D01*
X1731Y3268D01*
X1732Y3268D01*
X1733Y3268D01*
X1734Y3268D01*
X1735Y3268D01*
X1736Y3268D01*
X1737Y3268D01*
X1738Y3268D01*
X1739Y3268D01*
X1740Y3268D01*
X1741Y3268D01*
X1742Y3268D01*
X1743Y3268D01*
X1744Y3268D01*
X1745Y3268D01*
X1746Y3268D01*
X1747Y3268D01*
X1748Y3268D01*
X1749Y3268D01*
X1750Y3268D01*
X1751Y3268D01*
X1752Y3268D01*
X1753Y3268D01*
X1754Y3268D01*
X1755Y3268D01*
X1756Y3268D01*
X1757Y3268D01*
X1758Y3268D01*
X1759Y3268D01*
X1760Y3268D01*
X1761Y3268D01*
X1762Y3268D01*
X1763Y3268D01*
X1764Y3268D01*
X1765Y3268D01*
X1766Y3268D01*
X1767Y3268D01*
X1768Y3268D01*
X1769Y3268D01*
X1770Y3268D01*
X1771Y3268D01*
X1772Y3268D01*
X1773Y3268D01*
X1774Y3268D01*
X1775Y3268D01*
X1776Y3268D01*
X1777Y3268D01*
X1778Y3268D01*
X1779Y3268D01*
X1780Y3268D01*
X1781Y3268D01*
X1782Y3268D01*
X1783Y3268D01*
X1784Y3268D01*
X1785Y3268D01*
X1786Y3268D01*
X1787Y3268D01*
X1788Y3268D01*
X1789Y3268D01*
X1790Y3268D01*
X1791Y3268D01*
X1792Y3268D01*
X1793Y3268D01*
X1794Y3268D01*
X1795Y3268D01*
X1796Y3268D01*
X1797Y3268D01*
X1798Y3268D01*
X1799Y3268D01*
X1800Y3268D01*
X1801Y3268D01*
X1802Y3268D01*
X1803Y3268D01*
X1804Y3268D01*
X1805Y3268D01*
X1806Y3268D01*
X1807Y3268D01*
X1808Y3268D01*
X1809Y3268D01*
X1810Y3268D01*
X1811Y3268D01*
X1812Y3268D01*
X1813Y3268D01*
X1814Y3268D01*
X1815Y3268D01*
X1816Y3268D01*
X1817Y3268D01*
X1818Y3268D01*
X1819Y3268D01*
X1820Y3268D01*
X1821Y3268D01*
X1822Y3268D01*
X1823Y3268D01*
X1824Y3268D01*
X1825Y3268D01*
X1826Y3268D01*
X1827Y3268D01*
X1828Y3268D01*
X1829Y3268D01*
X1830Y3268D01*
X1831Y3268D01*
X1832Y3268D01*
X1833Y3268D01*
X1834Y3268D01*
X1835Y3268D01*
X1836Y3268D01*
X1837Y3268D01*
X1838Y3268D01*
X1839Y3268D01*
X1840Y3268D01*
X1841Y3268D01*
X1842Y3268D01*
X1843Y3268D01*
X1844Y3268D01*
X1845Y3268D01*
X1846Y3268D01*
X1847Y3268D01*
X1848Y3268D01*
X1849Y3268D01*
X1850Y3268D01*
X1851Y3268D01*
X1852Y3268D01*
X1853Y3268D01*
X1854Y3268D01*
X1855Y3268D01*
X1856Y3268D01*
X1857Y3268D01*
X1858Y3268D01*
X1859Y3268D01*
X1860Y3268D01*
X1861Y3268D01*
X1862Y3268D01*
X1863Y3268D01*
X1864Y3268D01*
X1865Y3268D01*
X1866Y3268D01*
X1867Y3268D01*
X1868Y3268D01*
X1869Y3268D01*
X1870Y3268D01*
X1871Y3268D01*
X1872Y3268D01*
X1873Y3268D01*
X1874Y3268D01*
X1875Y3268D01*
X1876Y3268D01*
X1877Y3268D01*
X1878Y3268D01*
X1879Y3268D01*
X1880Y3268D01*
X1881Y3268D01*
X1882Y3268D01*
X1883Y3268D01*
X1884Y3268D01*
X1885Y3268D01*
X1886Y3268D01*
X1887Y3268D01*
X1888Y3268D01*
X1889Y3268D01*
X1890Y3268D01*
X1891Y3268D01*
X1892Y3268D01*
X1893Y3268D01*
X1894Y3268D01*
X1895Y3268D01*
X1896Y3268D01*
X1897Y3268D01*
X1898Y3268D01*
X1899Y3268D01*
X1900Y3268D01*
X1901Y3268D01*
X1902Y3268D01*
X1903Y3268D01*
X1904Y3268D01*
X1905Y3268D01*
X1906Y3268D01*
X1907Y3268D01*
X1908Y3268D01*
X1909Y3268D01*
X1910Y3268D01*
X1911Y3268D01*
X1912Y3268D01*
X1913Y3268D01*
X1914Y3268D01*
X1915Y3268D01*
X1916Y3268D01*
X1917Y3268D01*
X1918Y3268D01*
X1919Y3268D01*
X1920Y3268D01*
X1921Y3268D01*
X1922Y3268D01*
X1923Y3268D01*
X1924Y3268D01*
X1925Y3268D01*
X1926Y3268D01*
X1927Y3268D01*
X1928Y3268D01*
X1929Y3268D01*
X1930Y3268D01*
X1931Y3268D01*
X1932Y3268D01*
X1933Y3268D01*
X1934Y3268D01*
X1935Y3268D01*
X1936Y3268D01*
X1937Y3268D01*
X1938Y3268D01*
X1939Y3268D01*
X1940Y3268D01*
X1941Y3268D01*
X1942Y3268D01*
X1943Y3268D01*
X1944Y3268D01*
X1945Y3268D01*
X1946Y3268D01*
X1947Y3268D01*
X1948Y3268D01*
X1949Y3268D01*
X1950Y3268D01*
X1951Y3268D01*
X1952Y3268D01*
X1953Y3268D01*
X1954Y3268D01*
X1955Y3268D01*
X1956Y3268D01*
X1957Y3268D01*
X1958Y3268D01*
X1959Y3268D01*
X1960Y3268D01*
X1961Y3268D01*
X1962Y3268D01*
X1963Y3268D01*
X1964Y3268D01*
X1965Y3268D01*
X1966Y3268D01*
X1967Y3268D01*
X1968Y3268D01*
X1969Y3268D01*
X1970Y3268D01*
X1971Y3268D01*
X1972Y3268D01*
X1973Y3268D01*
X1974Y3268D01*
X1975Y3268D01*
X1976Y3268D01*
X1977Y3268D01*
X1978Y3268D01*
X1979Y3268D01*
X1980Y3268D01*
X1981Y3268D01*
X1982Y3268D01*
X1983Y3268D01*
X1984Y3268D01*
X1985Y3268D01*
X1986Y3268D01*
X1987Y3268D01*
X1988Y3268D01*
X1989Y3268D01*
X1990Y3268D01*
X1991Y3268D01*
X1992Y3268D01*
X1993Y3268D01*
X1994Y3268D01*
X1995Y3268D01*
X1996Y3268D01*
X1997Y3268D01*
X1998Y3268D01*
X1999Y3268D01*
X2000Y3268D01*
X2001Y3268D01*
X2002Y3268D01*
X2003Y3268D01*
X2004Y3268D01*
X2005Y3268D01*
X2006Y3268D01*
X2007Y3268D01*
X2008Y3268D01*
X2009Y3268D01*
X2010Y3268D01*
X2011Y3268D01*
X2012Y3268D01*
X2013Y3268D01*
X2014Y3268D01*
X2015Y3268D01*
X2016Y3268D01*
X2017Y3268D01*
X2018Y3268D01*
X2019Y3268D01*
X2020Y3268D01*
X2021Y3268D01*
X2022Y3268D01*
X2023Y3268D01*
X2024Y3268D01*
X2025Y3268D01*
X2026Y3268D01*
X2027Y3268D01*
X2028Y3268D01*
X2029Y3268D01*
X2030Y3268D01*
X2031Y3268D01*
X2032Y3268D01*
X2033Y3268D01*
X2034Y3268D01*
X2035Y3268D01*
X2036Y3268D01*
X2037Y3268D01*
X2038Y3268D01*
X2039Y3268D01*
X2040Y3268D01*
X2041Y3268D01*
X2042Y3268D01*
X2043Y3268D01*
X2044Y3268D01*
X2045Y3268D01*
X2046Y3268D01*
X2047Y3268D01*
X2048Y3268D01*
X2049Y3268D01*
X2050Y3268D01*
X2051Y3268D01*
X2052Y3268D01*
X2053Y3268D01*
X2054Y3268D01*
X2055Y3268D01*
X2056Y3268D01*
X2057Y3268D01*
X2058Y3268D01*
X2059Y3268D01*
X2060Y3268D01*
X2061Y3268D01*
X2062Y3268D01*
X2063Y3268D01*
X2064Y3268D01*
X2065Y3268D01*
X2066Y3268D01*
X2067Y3268D01*
X2068Y3268D01*
X2069Y3268D01*
X2070Y3268D01*
X2071Y3268D01*
X2072Y3268D01*
X2073Y3268D01*
X2074Y3268D01*
X2075Y3268D01*
X2076Y3268D01*
X2077Y3268D01*
X2078Y3268D01*
X2079Y3268D01*
X2080Y3268D01*
X2081Y3268D01*
X2082Y3268D01*
X2083Y3268D01*
X2084Y3268D01*
X2085Y3268D01*
X2086Y3268D01*
X2087Y3268D01*
X2088Y3268D01*
X2089Y3268D01*
X2090Y3268D01*
X2091Y3268D01*
X2092Y3268D01*
X2093Y3268D01*
X2094Y3268D01*
X2095Y3268D01*
X2096Y3268D01*
X2097Y3268D01*
X2098Y3268D01*
X2099Y3268D01*
X2100Y3268D01*
X2101Y3268D01*
X2102Y3268D01*
X2103Y3268D01*
X2104Y3268D01*
X2105Y3268D01*
X2106Y3268D01*
X2107Y3268D01*
X2108Y3268D01*
X2109Y3268D01*
X2110Y3268D01*
X2111Y3268D01*
X2112Y3268D01*
X2113Y3268D01*
X2114Y3268D01*
X2115Y3268D01*
X2116Y3268D01*
X2117Y3268D01*
X2118Y3268D01*
X2119Y3268D01*
X2120Y3268D01*
X2121Y3268D01*
X2122Y3268D01*
X2123Y3268D01*
X2124Y3268D01*
X2125Y3268D01*
X2126Y3268D01*
X2127Y3268D01*
X2128Y3268D01*
X2129Y3268D01*
X2130Y3268D01*
X2131Y3268D01*
X2132Y3268D01*
X2133Y3268D01*
X2134Y3268D01*
X2135Y3268D01*
X2136Y3268D01*
X2137Y3268D01*
X2138Y3268D01*
X2139Y3268D01*
X2140Y3268D01*
X2141Y3268D01*
X2142Y3268D01*
X2143Y3268D01*
X2144Y3268D01*
X2145Y3268D01*
X2146Y3268D01*
X2147Y3268D01*
X2148Y3268D01*
X2149Y3268D01*
X2150Y3268D01*
X2151Y3268D01*
X2152Y3268D01*
X2153Y3268D01*
X2154Y3268D01*
X2155Y3268D01*
X2156Y3268D01*
X2157Y3268D01*
X2158Y3268D01*
X2159Y3268D01*
X2160Y3268D01*
X2161Y3268D01*
X2162Y3268D01*
X2163Y3268D01*
X2164Y3268D01*
X2165Y3268D01*
X2166Y3268D01*
X2167Y3268D01*
X2168Y3268D01*
X2169Y3268D01*
X2170Y3268D01*
X2171Y3268D01*
X2172Y3268D01*
X2173Y3268D01*
X2174Y3268D01*
X2175Y3268D01*
X2176Y3268D01*
X2177Y3268D01*
X2178Y3268D01*
X2179Y3268D01*
X2180Y3268D01*
X2181Y3268D01*
X2182Y3268D01*
X2183Y3268D01*
X2184Y3268D01*
X2185Y3268D01*
X2186Y3268D01*
X2187Y3268D01*
X2188Y3268D01*
X2189Y3268D01*
X2190Y3268D01*
X2191Y3268D01*
X2192Y3268D01*
X2193Y3268D01*
X2194Y3268D01*
X2195Y3268D01*
X2196Y3268D01*
X2197Y3268D01*
X2198Y3268D01*
X2199Y3268D01*
X2200Y3268D01*
X2201Y3268D01*
X2202Y3268D01*
X2203Y3268D01*
X2204Y3268D01*
X2205Y3268D01*
X2206Y3268D01*
X2207Y3268D01*
X2208Y3268D01*
X2209Y3268D01*
X2210Y3268D01*
X2211Y3268D01*
X2212Y3268D01*
X2213Y3268D01*
X2214Y3268D01*
X2215Y3268D01*
X2216Y3268D01*
X2217Y3268D01*
X2218Y3268D01*
X2219Y3268D01*
X2220Y3268D01*
X2221Y3268D01*
X2222Y3268D01*
X2223Y3268D01*
X2224Y3268D01*
X2225Y3268D01*
X2226Y3268D01*
X2227Y3268D01*
X2228Y3268D01*
X2229Y3268D01*
X2230Y3268D01*
X2231Y3268D01*
X2232Y3268D01*
X2233Y3268D01*
X2234Y3268D01*
X2235Y3268D01*
X2236Y3268D01*
X2237Y3268D01*
X2238Y3268D01*
X2239Y3268D01*
X2240Y3268D01*
X2241Y3268D01*
X2242Y3268D01*
X2243Y3268D01*
X2244Y3268D01*
X2245Y3268D01*
X2246Y3268D01*
X2247Y3268D01*
X2248Y3268D01*
X2249Y3268D01*
X2250Y3268D01*
X2251Y3268D01*
X2252Y3268D01*
X2253Y3268D01*
X2254Y3268D01*
X2255Y3268D01*
X2256Y3268D01*
X2257Y3268D01*
X2258Y3268D01*
X2259Y3268D01*
X2260Y3268D01*
X2261Y3268D01*
X2262Y3268D01*
X2263Y3268D01*
X2264Y3268D01*
X2265Y3268D01*
X2266Y3268D01*
X2267Y3268D01*
X2268Y3268D01*
X2269Y3268D01*
X2270Y3268D01*
X2271Y3268D01*
X2272Y3268D01*
X2273Y3268D01*
X2274Y3268D01*
X2275Y3268D01*
X2276Y3268D01*
X2277Y3268D01*
X2278Y3268D01*
X2279Y3268D01*
X2280Y3268D01*
X2281Y3268D01*
X2282Y3268D01*
X2283Y3268D01*
X2284Y3268D01*
X2285Y3268D01*
X2286Y3268D01*
X2287Y3268D01*
X2288Y3268D01*
X2289Y3268D01*
X2290Y3268D01*
X2291Y3268D01*
X2292Y3268D01*
X2293Y3268D01*
X2294Y3268D01*
X2295Y3268D01*
X2296Y3268D01*
X2297Y3268D01*
X2298Y3268D01*
X2299Y3268D01*
X2300Y3268D01*
X2301Y3268D01*
X2302Y3268D01*
X2303Y3268D01*
X2304Y3268D01*
X2305Y3268D01*
X2306Y3268D01*
X2307Y3268D01*
X2308Y3268D01*
X2309Y3268D01*
X2310Y3268D01*
X2311Y3268D01*
X2312Y3268D01*
X2313Y3268D01*
X2314Y3268D01*
X2315Y3268D01*
X2316Y3268D01*
X2317Y3268D01*
X2318Y3268D01*
X2319Y3268D01*
X2320Y3268D01*
X2321Y3268D01*
X2322Y3268D01*
X2323Y3268D01*
X2324Y3268D01*
X2325Y3268D01*
X2326Y3268D01*
X2327Y3268D01*
X2328Y3268D01*
X2329Y3268D01*
X2330Y3268D01*
X2331Y3268D01*
X2332Y3268D01*
X2333Y3268D01*
X2334Y3268D01*
X2335Y3268D01*
X2336Y3268D01*
X2337Y3268D01*
X2338Y3268D01*
X2339Y3268D01*
X2340Y3268D01*
X2341Y3268D01*
X2342Y3268D01*
X2343Y3268D01*
X2344Y3268D01*
X2345Y3268D01*
X2346Y3268D01*
X2347Y3268D01*
X2348Y3268D01*
X2349Y3268D01*
X2350Y3268D01*
X2351Y3268D01*
X2352Y3268D01*
X2353Y3268D01*
X2354Y3268D01*
X2355Y3268D01*
X2356Y3268D01*
X2357Y3268D01*
X2358Y3268D01*
X2359Y3268D01*
X2360Y3268D01*
X2361Y3268D01*
X2362Y3268D01*
X2363Y3268D01*
X2364Y3268D01*
X2365Y3268D01*
X2366Y3268D01*
X2367Y3268D01*
X2368Y3268D01*
X2369Y3268D01*
X2370Y3268D01*
X2371Y3268D01*
X2372Y3268D01*
X2373Y3268D01*
X2374Y3268D01*
X2375Y3268D01*
X2376Y3268D01*
X2377Y3268D01*
X2378Y3268D01*
X2379Y3268D01*
X2380Y3268D01*
X2381Y3268D01*
X2382Y3268D01*
X2383Y3268D01*
X2384Y3268D01*
X2385Y3268D01*
X2386Y3268D01*
X2387Y3268D01*
X2388Y3268D01*
X2389Y3268D01*
X2390Y3268D01*
X2391Y3268D01*
X2392Y3268D01*
X2393Y3268D01*
X2394Y3268D01*
X2395Y3268D01*
X2396Y3268D01*
X2397Y3268D01*
X2398Y3268D01*
X2399Y3268D01*
X2400Y3268D01*
X2401Y3268D01*
X2402Y3268D01*
X2403Y3268D01*
X2404Y3268D01*
X2405Y3268D01*
X2406Y3268D01*
X2407Y3268D01*
X2408Y3268D01*
X2409Y3268D01*
X2410Y3268D01*
X2411Y3268D01*
X2412Y3268D01*
X2413Y3268D01*
X2414Y3268D01*
X2415Y3268D01*
X2416Y3268D01*
X2417Y3268D01*
X2418Y3268D01*
X2419Y3268D01*
X2420Y3268D01*
X2421Y3268D01*
X2422Y3268D01*
X2423Y3268D01*
X2424Y3268D01*
X2425Y3268D01*
X2426Y3268D01*
X2427Y3268D01*
X2428Y3268D01*
X2429Y3268D01*
X2430Y3268D01*
X2431Y3268D01*
X2432Y3268D01*
X2433Y3268D01*
X2434Y3268D01*
X2435Y3268D01*
X2436Y3268D01*
X2437Y3268D01*
X2438Y3268D01*
X2439Y3268D01*
X2440Y3268D01*
X2441Y3268D01*
X2442Y3268D01*
X2443Y3268D01*
X2444Y3268D01*
X2445Y3268D01*
X2446Y3268D01*
X2447Y3268D01*
X2448Y3268D01*
X2449Y3268D01*
X2450Y3268D01*
X2451Y3268D01*
X2452Y3268D01*
X2453Y3268D01*
X2454Y3268D01*
X2455Y3268D01*
X2456Y3268D01*
X2457Y3268D01*
X2458Y3268D01*
X2459Y3268D01*
X2460Y3268D01*
X2461Y3268D01*
X2462Y3268D01*
X2463Y3268D01*
X2464Y3268D01*
X2465Y3268D01*
X2466Y3268D01*
X2467Y3268D01*
X2468Y3268D01*
X2469Y3268D01*
X2470Y3268D01*
X2471Y3268D01*
X2472Y3268D01*
X2473Y3268D01*
X2474Y3268D01*
X2475Y3268D01*
X2476Y3268D01*
X2477Y3268D01*
X2478Y3268D01*
X2479Y3268D01*
X2480Y3268D01*
X2481Y3268D01*
X2482Y3268D01*
X2483Y3268D01*
X2484Y3268D01*
X2485Y3268D01*
X2486Y3268D01*
X2487Y3268D01*
X2488Y3268D01*
X2489Y3268D01*
X2490Y3268D01*
X2491Y3268D01*
X2492Y3268D01*
X2493Y3268D01*
X2494Y3268D01*
X2495Y3268D01*
X2496Y3268D01*
X2497Y3268D01*
X2498Y3268D01*
X2499Y3268D01*
X2500Y3268D01*
X2501Y3268D01*
X2502Y3268D01*
X2503Y3268D01*
X2504Y3268D01*
X2505Y3268D01*
X2506Y3268D01*
X2507Y3267D01*
X2508Y3267D01*
X2509Y3267D01*
X2510Y3267D01*
X2511Y3267D01*
X2512Y3267D01*
X2513Y3266D01*
X2514Y3266D01*
X2515Y3266D01*
X2516Y3266D01*
X2517Y3265D01*
X2518Y3265D01*
X2519Y3265D01*
X2520Y3264D01*
X2521Y3264D01*
X2522Y3263D01*
X2523Y3263D01*
X2524Y3263D01*
X2525Y3262D01*
X2526Y3262D01*
X2527Y3261D01*
X2528Y3261D01*
X2529Y3260D01*
X2530Y3259D01*
X2531Y3259D01*
X2532Y3258D01*
X2533Y3257D01*
X2534Y3257D01*
X2535Y3256D01*
X2536Y3255D01*
X2537Y3254D01*
X2538Y3254D01*
X2539Y3253D01*
X2540Y3252D01*
X2541Y3251D01*
X2542Y3250D01*
X2543Y3249D01*
X2544Y3248D01*
X2544Y3247D01*
X2545Y3246D01*
X2546Y3245D01*
X2547Y3244D01*
X2547Y3243D01*
X2548Y3242D01*
X2549Y3241D01*
X2549Y3240D01*
X2550Y3239D01*
X2551Y3238D01*
X2551Y3237D01*
X2552Y3236D01*
X2552Y3235D01*
X2553Y3234D01*
X2553Y3232D01*
X2554Y3231D01*
X2554Y3230D01*
X2555Y3229D01*
X2555Y3227D01*
X2556Y3226D01*
X2556Y3223D01*
X2557Y3222D01*
X2557Y3217D01*
X2558Y3216D01*
X2558Y54D01*
X2557Y53D01*
X2557Y48D01*
X2556Y47D01*
X2556Y44D01*
X2555Y43D01*
X2555Y41D01*
X2554Y40D01*
X2554Y39D01*
X2553Y38D01*
X2553Y36D01*
X2552Y35D01*
X2552Y34D01*
X2551Y33D01*
X2551Y32D01*
X2550Y31D01*
X2549Y30D01*
X2549Y29D01*
X2548Y28D01*
X2547Y27D01*
X2547Y26D01*
X2546Y25D01*
X2545Y24D01*
X2544Y23D01*
X2544Y22D01*
X2543Y21D01*
X2542Y20D01*
X2541Y19D01*
X2540Y18D01*
X2539Y17D01*
X2538Y16D01*
X2537Y16D01*
X2536Y15D01*
X2535Y14D01*
X2534Y13D01*
X2533Y13D01*
X2532Y12D01*
X2531Y11D01*
X2530Y11D01*
X2529Y10D01*
X2528Y9D01*
X2527Y9D01*
X2526Y8D01*
X2525Y8D01*
X2524Y7D01*
X2523Y7D01*
X2522Y7D01*
X2521Y6D01*
X2520Y6D01*
X2519Y5D01*
X2518Y5D01*
X2517Y5D01*
X2516Y4D01*
X2515Y4D01*
X2514Y4D01*
X2513Y4D01*
X2512Y3D01*
X2511Y3D01*
X2510Y3D01*
X2509Y3D01*
X2508Y3D01*
X2507Y3D01*
X2506Y2D01*
X2505Y2D01*
X2504Y2D01*
X2503Y2D01*
X2502Y2D01*
X2501Y2D01*
X2500Y2D01*
X2499Y2D01*
X2498Y2D01*
X2497Y2D01*
X2496Y2D01*
X2495Y2D01*
X2494Y2D01*
X2493Y2D01*
X2492Y2D01*
X2491Y2D01*
X2490Y2D01*
X2489Y2D01*
X2488Y2D01*
X2487Y2D01*
X2486Y2D01*
X2485Y2D01*
X2484Y2D01*
X2483Y2D01*
X2482Y2D01*
X2481Y2D01*
X2480Y2D01*
X2479Y2D01*
X2478Y2D01*
X2477Y2D01*
X2476Y2D01*
X2475Y2D01*
X2474Y2D01*
X2473Y2D01*
X2472Y2D01*
X2471Y2D01*
X2470Y2D01*
X2469Y2D01*
X2468Y2D01*
X2467Y2D01*
X2466Y2D01*
X2465Y2D01*
X2464Y2D01*
X2463Y2D01*
X2462Y2D01*
X2461Y2D01*
X2460Y2D01*
X2459Y2D01*
X2458Y2D01*
X2457Y2D01*
X2456Y2D01*
X2455Y2D01*
X2454Y2D01*
X2453Y2D01*
X2452Y2D01*
X2451Y2D01*
X2450Y2D01*
X2449Y2D01*
X2448Y2D01*
X2447Y2D01*
X2446Y2D01*
X2445Y2D01*
X2444Y2D01*
X2443Y2D01*
X2442Y2D01*
X2441Y2D01*
X2440Y2D01*
X2439Y2D01*
X2438Y2D01*
X2437Y2D01*
X2436Y2D01*
X2435Y2D01*
X2434Y2D01*
X2433Y2D01*
X2432Y2D01*
X2431Y2D01*
X2430Y2D01*
X2429Y2D01*
X2428Y2D01*
X2427Y2D01*
X2426Y2D01*
X2425Y2D01*
X2424Y2D01*
X2423Y2D01*
X2422Y2D01*
X2421Y2D01*
X2420Y2D01*
X2419Y2D01*
X2418Y2D01*
X2417Y2D01*
X2416Y2D01*
X2415Y2D01*
X2414Y2D01*
X2413Y2D01*
X2412Y2D01*
X2411Y2D01*
X2410Y2D01*
X2409Y2D01*
X2408Y2D01*
X2407Y2D01*
X2406Y2D01*
X2405Y2D01*
X2404Y2D01*
X2403Y2D01*
X2402Y2D01*
X2401Y2D01*
X2400Y2D01*
X2399Y2D01*
X2398Y2D01*
X2397Y2D01*
X2396Y2D01*
X2395Y2D01*
X2394Y2D01*
X2393Y2D01*
X2392Y2D01*
X2391Y2D01*
X2390Y2D01*
X2389Y2D01*
X2388Y2D01*
X2387Y2D01*
X2386Y2D01*
X2385Y2D01*
X2384Y2D01*
X2383Y2D01*
X2382Y2D01*
X2381Y2D01*
X2380Y2D01*
X2379Y2D01*
X2378Y2D01*
X2377Y2D01*
X2376Y2D01*
X2375Y2D01*
X2374Y2D01*
X2373Y2D01*
X2372Y2D01*
X2371Y2D01*
X2370Y2D01*
X2369Y2D01*
X2368Y2D01*
X2367Y2D01*
X2366Y2D01*
X2365Y2D01*
X2364Y2D01*
X2363Y2D01*
X2362Y2D01*
X2361Y2D01*
X2360Y2D01*
X2359Y2D01*
X2358Y2D01*
X2357Y2D01*
X2356Y2D01*
X2355Y2D01*
X2354Y2D01*
X2353Y2D01*
X2352Y2D01*
X2351Y2D01*
X2350Y2D01*
X2349Y2D01*
X2348Y2D01*
X2347Y2D01*
X2346Y2D01*
X2345Y2D01*
X2344Y2D01*
X2343Y2D01*
X2342Y2D01*
X2341Y2D01*
X2340Y2D01*
X2339Y2D01*
X2338Y2D01*
X2337Y2D01*
X2336Y2D01*
X2335Y2D01*
X2334Y2D01*
X2333Y2D01*
X2332Y2D01*
X2331Y2D01*
X2330Y2D01*
X2329Y2D01*
X2328Y2D01*
X2327Y2D01*
X2326Y2D01*
X2325Y2D01*
X2324Y2D01*
X2323Y2D01*
X2322Y2D01*
X2321Y2D01*
X2320Y2D01*
X2319Y2D01*
X2318Y2D01*
X2317Y2D01*
X2316Y2D01*
X2315Y2D01*
X2314Y2D01*
X2313Y2D01*
X2312Y2D01*
X2311Y2D01*
X2310Y2D01*
X2309Y2D01*
X2308Y2D01*
X2307Y2D01*
X2306Y2D01*
X2305Y2D01*
X2304Y2D01*
X2303Y2D01*
X2302Y2D01*
X2301Y2D01*
X2300Y2D01*
X2299Y2D01*
X2298Y2D01*
X2297Y2D01*
X2296Y2D01*
X2295Y2D01*
X2294Y2D01*
X2293Y2D01*
X2292Y2D01*
X2291Y2D01*
X2290Y2D01*
X2289Y2D01*
X2288Y2D01*
X2287Y2D01*
X2286Y2D01*
X2285Y2D01*
X2284Y2D01*
X2283Y2D01*
X2282Y2D01*
X2281Y2D01*
X2280Y2D01*
X2279Y2D01*
X2278Y2D01*
X2277Y2D01*
X2276Y2D01*
X2275Y2D01*
X2274Y2D01*
X2273Y2D01*
X2272Y2D01*
X2271Y2D01*
X2270Y2D01*
X2269Y2D01*
X2268Y2D01*
X2267Y2D01*
X2266Y2D01*
X2265Y2D01*
X2264Y2D01*
X2263Y2D01*
X2262Y2D01*
X2261Y2D01*
X2260Y2D01*
X2259Y2D01*
X2258Y2D01*
X2257Y2D01*
X2256Y2D01*
X2255Y2D01*
X2254Y2D01*
X2253Y2D01*
X2252Y2D01*
X2251Y2D01*
X2250Y2D01*
X2249Y2D01*
X2248Y2D01*
X2247Y2D01*
X2246Y2D01*
X2245Y2D01*
X2244Y2D01*
X2243Y2D01*
X2242Y2D01*
X2241Y2D01*
X2240Y2D01*
X2239Y2D01*
X2238Y2D01*
X2237Y2D01*
X2236Y2D01*
X2235Y2D01*
X2234Y2D01*
X2233Y2D01*
X2232Y2D01*
X2231Y2D01*
X2230Y2D01*
X2229Y2D01*
X2228Y2D01*
X2227Y2D01*
X2226Y2D01*
X2225Y2D01*
X2224Y2D01*
X2223Y2D01*
X2222Y2D01*
X2221Y2D01*
X2220Y2D01*
X2219Y2D01*
X2218Y2D01*
X2217Y2D01*
X2216Y2D01*
X2215Y2D01*
X2214Y2D01*
X2213Y2D01*
X2212Y2D01*
X2211Y2D01*
X2210Y2D01*
X2209Y2D01*
X2208Y2D01*
X2207Y2D01*
X2206Y2D01*
X2205Y2D01*
X2204Y2D01*
X2203Y2D01*
X2202Y2D01*
X2201Y2D01*
X2200Y2D01*
X2199Y2D01*
X2198Y2D01*
X2197Y2D01*
X2196Y2D01*
X2195Y2D01*
X2194Y2D01*
X2193Y2D01*
X2192Y2D01*
X2191Y2D01*
X2190Y2D01*
X2189Y2D01*
X2188Y2D01*
X2187Y2D01*
X2186Y2D01*
X2185Y2D01*
X2184Y2D01*
X2183Y2D01*
X2182Y2D01*
X2181Y2D01*
X2180Y2D01*
X2179Y2D01*
X2178Y2D01*
X2177Y2D01*
X2176Y2D01*
X2175Y2D01*
X2174Y2D01*
X2173Y2D01*
X2172Y2D01*
X2171Y2D01*
X2170Y2D01*
X2169Y2D01*
X2168Y2D01*
X2167Y2D01*
X2166Y2D01*
X2165Y2D01*
X2164Y2D01*
X2163Y2D01*
X2162Y2D01*
X2161Y2D01*
X2160Y2D01*
X2159Y2D01*
X2158Y2D01*
X2157Y2D01*
X2156Y2D01*
X2155Y2D01*
X2154Y2D01*
X2153Y2D01*
X2152Y2D01*
X2151Y2D01*
X2150Y2D01*
X2149Y2D01*
X2148Y2D01*
X2147Y2D01*
X2146Y2D01*
X2145Y2D01*
X2144Y2D01*
X2143Y2D01*
X2142Y2D01*
X2141Y2D01*
X2140Y2D01*
X2139Y2D01*
X2138Y2D01*
X2137Y2D01*
X2136Y2D01*
X2135Y2D01*
X2134Y2D01*
X2133Y2D01*
X2132Y2D01*
X2131Y2D01*
X2130Y2D01*
X2129Y2D01*
X2128Y2D01*
X2127Y2D01*
X2126Y2D01*
X2125Y2D01*
X2124Y2D01*
X2123Y2D01*
X2122Y2D01*
X2121Y2D01*
X2120Y2D01*
X2119Y2D01*
X2118Y2D01*
X2117Y2D01*
X2116Y2D01*
X2115Y2D01*
X2114Y2D01*
X2113Y2D01*
X2112Y2D01*
X2111Y2D01*
X2110Y2D01*
X2109Y2D01*
X2108Y2D01*
X2107Y2D01*
X2106Y2D01*
X2105Y2D01*
X2104Y2D01*
X2103Y2D01*
X2102Y2D01*
X2101Y2D01*
X2100Y2D01*
X2099Y2D01*
X2098Y2D01*
X2097Y2D01*
X2096Y2D01*
X2095Y2D01*
X2094Y2D01*
X2093Y2D01*
X2092Y2D01*
X2091Y2D01*
X2090Y2D01*
X2089Y2D01*
X2088Y2D01*
X2087Y2D01*
X2086Y2D01*
X2085Y2D01*
X2084Y2D01*
X2083Y2D01*
X2082Y2D01*
X2081Y2D01*
X2080Y2D01*
X2079Y2D01*
X2078Y2D01*
X2077Y2D01*
X2076Y2D01*
X2075Y2D01*
X2074Y2D01*
X2073Y2D01*
X2072Y2D01*
X2071Y2D01*
X2070Y2D01*
X2069Y2D01*
X2068Y2D01*
X2067Y2D01*
X2066Y2D01*
X2065Y2D01*
X2064Y2D01*
X2063Y2D01*
X2062Y2D01*
X2061Y2D01*
X2060Y2D01*
X2059Y2D01*
X2058Y2D01*
X2057Y2D01*
X2056Y2D01*
X2055Y2D01*
X2054Y2D01*
X2053Y2D01*
X2052Y2D01*
X2051Y2D01*
X2050Y2D01*
X2049Y2D01*
X2048Y2D01*
X2047Y2D01*
X2046Y2D01*
X2045Y2D01*
X2044Y2D01*
X2043Y2D01*
X2042Y2D01*
X2041Y2D01*
X2040Y2D01*
X2039Y2D01*
X2038Y2D01*
X2037Y2D01*
X2036Y2D01*
X2035Y2D01*
X2034Y2D01*
X2033Y2D01*
X2032Y2D01*
X2031Y2D01*
X2030Y2D01*
X2029Y2D01*
X2028Y2D01*
X2027Y2D01*
X2026Y2D01*
X2025Y2D01*
X2024Y2D01*
X2023Y2D01*
X2022Y2D01*
X2021Y2D01*
X2020Y2D01*
X2019Y2D01*
X2018Y2D01*
X2017Y2D01*
X2016Y2D01*
X2015Y2D01*
X2014Y2D01*
X2013Y2D01*
X2012Y2D01*
X2011Y2D01*
X2010Y2D01*
X2009Y2D01*
X2008Y2D01*
X2007Y2D01*
X2006Y2D01*
X2005Y2D01*
X2004Y2D01*
X2003Y2D01*
X2002Y2D01*
X2001Y2D01*
X2000Y2D01*
X1999Y2D01*
X1998Y2D01*
X1997Y2D01*
X1996Y2D01*
X1995Y2D01*
X1994Y2D01*
X1993Y2D01*
X1992Y2D01*
X1991Y2D01*
X1990Y2D01*
X1989Y2D01*
X1988Y2D01*
X1987Y2D01*
X1986Y2D01*
X1985Y2D01*
X1984Y2D01*
X1983Y2D01*
X1982Y2D01*
X1981Y2D01*
X1980Y2D01*
X1979Y2D01*
X1978Y2D01*
X1977Y2D01*
X1976Y2D01*
X1975Y2D01*
X1974Y2D01*
X1973Y2D01*
X1972Y2D01*
X1971Y2D01*
X1970Y2D01*
X1969Y2D01*
X1968Y2D01*
X1967Y2D01*
X1966Y2D01*
X1965Y2D01*
X1964Y2D01*
X1963Y2D01*
X1962Y2D01*
X1961Y2D01*
X1960Y2D01*
X1959Y2D01*
X1958Y2D01*
X1957Y2D01*
X1956Y2D01*
X1955Y2D01*
X1954Y2D01*
X1953Y2D01*
X1952Y2D01*
X1951Y2D01*
X1950Y2D01*
X1949Y2D01*
X1948Y2D01*
X1947Y2D01*
X1946Y2D01*
X1945Y2D01*
X1944Y2D01*
X1943Y2D01*
X1942Y2D01*
X1941Y2D01*
X1940Y2D01*
X1939Y2D01*
X1938Y2D01*
X1937Y2D01*
X1936Y2D01*
X1935Y2D01*
X1934Y2D01*
X1933Y2D01*
X1932Y2D01*
X1931Y2D01*
X1930Y2D01*
X1929Y2D01*
X1928Y2D01*
X1927Y2D01*
X1926Y2D01*
X1925Y2D01*
X1924Y2D01*
X1923Y2D01*
X1922Y2D01*
X1921Y2D01*
X1920Y2D01*
X1919Y2D01*
X1918Y2D01*
X1917Y2D01*
X1916Y2D01*
X1915Y2D01*
X1914Y2D01*
X1913Y2D01*
X1912Y2D01*
X1911Y2D01*
X1910Y2D01*
X1909Y2D01*
X1908Y2D01*
X1907Y2D01*
X1906Y2D01*
X1905Y2D01*
X1904Y2D01*
X1903Y2D01*
X1902Y2D01*
X1901Y2D01*
X1900Y2D01*
X1899Y2D01*
X1898Y2D01*
X1897Y2D01*
X1896Y2D01*
X1895Y2D01*
X1894Y2D01*
X1893Y2D01*
X1892Y2D01*
X1891Y2D01*
X1890Y2D01*
X1889Y2D01*
X1888Y2D01*
X1887Y2D01*
X1886Y2D01*
X1885Y2D01*
X1884Y2D01*
X1883Y2D01*
X1882Y2D01*
X1881Y2D01*
X1880Y2D01*
X1879Y2D01*
X1878Y2D01*
X1877Y2D01*
X1876Y2D01*
X1875Y2D01*
X1874Y2D01*
X1873Y2D01*
X1872Y2D01*
X1871Y2D01*
X1870Y2D01*
X1869Y2D01*
X1868Y2D01*
X1867Y2D01*
X1866Y2D01*
X1865Y2D01*
X1864Y2D01*
X1863Y2D01*
X1862Y2D01*
X1861Y2D01*
X1860Y2D01*
X1859Y2D01*
X1858Y2D01*
X1857Y2D01*
X1856Y2D01*
X1855Y2D01*
X1854Y2D01*
X1853Y2D01*
X1852Y2D01*
X1851Y2D01*
X1850Y2D01*
X1849Y2D01*
X1848Y2D01*
X1847Y2D01*
X1846Y2D01*
X1845Y2D01*
X1844Y2D01*
X1843Y2D01*
X1842Y2D01*
X1841Y2D01*
X1840Y2D01*
X1839Y2D01*
X1838Y2D01*
X1837Y2D01*
X1836Y2D01*
X1835Y2D01*
X1834Y2D01*
X1833Y2D01*
X1832Y2D01*
X1831Y2D01*
X1830Y2D01*
X1829Y2D01*
X1828Y2D01*
X1827Y2D01*
X1826Y2D01*
X1825Y2D01*
X1824Y2D01*
X1823Y2D01*
X1822Y2D01*
X1821Y2D01*
X1820Y2D01*
X1819Y2D01*
X1818Y2D01*
X1817Y2D01*
X1816Y2D01*
X1815Y2D01*
X1814Y2D01*
X1813Y2D01*
X1812Y2D01*
X1811Y2D01*
X1810Y2D01*
X1809Y2D01*
X1808Y2D01*
X1807Y2D01*
X1806Y2D01*
X1805Y2D01*
X1804Y2D01*
X1803Y2D01*
X1802Y2D01*
X1801Y2D01*
X1800Y2D01*
X1799Y2D01*
X1798Y2D01*
X1797Y2D01*
X1796Y2D01*
X1795Y2D01*
X1794Y2D01*
X1793Y2D01*
X1792Y2D01*
X1791Y2D01*
X1790Y2D01*
X1789Y2D01*
X1788Y2D01*
X1787Y2D01*
X1786Y2D01*
X1785Y2D01*
X1784Y2D01*
X1783Y2D01*
X1782Y2D01*
X1781Y2D01*
X1780Y2D01*
X1779Y2D01*
X1778Y2D01*
X1777Y2D01*
X1776Y2D01*
X1775Y2D01*
X1774Y2D01*
X1773Y2D01*
X1772Y2D01*
X1771Y2D01*
X1770Y2D01*
X1769Y2D01*
X1768Y2D01*
X1767Y2D01*
X1766Y2D01*
X1765Y2D01*
X1764Y2D01*
X1763Y2D01*
X1762Y2D01*
X1761Y2D01*
X1760Y2D01*
X1759Y2D01*
X1758Y2D01*
X1757Y2D01*
X1756Y2D01*
X1755Y2D01*
X1754Y2D01*
X1753Y2D01*
X1752Y2D01*
X1751Y2D01*
X1750Y2D01*
X1749Y2D01*
X1748Y2D01*
X1747Y2D01*
X1746Y2D01*
X1745Y2D01*
X1744Y2D01*
X1743Y2D01*
X1742Y2D01*
X1741Y2D01*
X1740Y2D01*
X1739Y2D01*
X1738Y2D01*
X1737Y2D01*
X1736Y2D01*
X1735Y2D01*
X1734Y2D01*
X1733Y2D01*
X1732Y2D01*
X1731Y2D01*
X1730Y2D01*
X1729Y2D01*
X1728Y2D01*
X1727Y2D01*
X1726Y2D01*
X1725Y2D01*
X1724Y2D01*
X1723Y2D01*
X1722Y2D01*
X1721Y2D01*
X1720Y2D01*
X1719Y2D01*
X1718Y2D01*
X1717Y2D01*
X1716Y2D01*
X1715Y2D01*
X1714Y2D01*
X1713Y2D01*
X1712Y2D01*
X1711Y2D01*
X1710Y2D01*
X1709Y2D01*
X1708Y2D01*
X1707Y2D01*
X1706Y2D01*
X1705Y2D01*
X1704Y2D01*
X1703Y2D01*
X1702Y2D01*
X1701Y2D01*
X1700Y2D01*
X1699Y2D01*
X1698Y2D01*
X1697Y2D01*
X1696Y2D01*
X1695Y2D01*
X1694Y2D01*
X1693Y2D01*
X1692Y2D01*
X1691Y2D01*
X1690Y2D01*
X1689Y2D01*
X1688Y2D01*
X1687Y2D01*
X1686Y2D01*
X1685Y2D01*
X1684Y2D01*
X1683Y2D01*
X1682Y2D01*
X1681Y2D01*
X1680Y2D01*
X1679Y2D01*
X1678Y2D01*
X1677Y2D01*
X1676Y2D01*
X1675Y2D01*
X1674Y2D01*
X1673Y2D01*
X1672Y2D01*
X1671Y2D01*
X1670Y2D01*
X1669Y2D01*
X1668Y2D01*
X1667Y2D01*
X1666Y2D01*
X1665Y2D01*
X1664Y2D01*
X1663Y2D01*
X1662Y2D01*
X1661Y2D01*
X1660Y2D01*
X1659Y2D01*
X1658Y2D01*
X1657Y2D01*
X1656Y2D01*
X1655Y2D01*
X1654Y2D01*
X1653Y2D01*
X1652Y2D01*
X1651Y2D01*
X1650Y2D01*
X1649Y2D01*
X1648Y2D01*
X1647Y2D01*
X1646Y2D01*
X1645Y2D01*
X1644Y2D01*
X1643Y2D01*
X1642Y2D01*
X1641Y2D01*
X1640Y2D01*
X1639Y2D01*
X1638Y2D01*
X1637Y2D01*
X1636Y2D01*
X1635Y2D01*
X1634Y2D01*
X1633Y2D01*
X1632Y2D01*
X1631Y2D01*
X1630Y2D01*
X1629Y2D01*
X1628Y2D01*
X1627Y2D01*
X1626Y2D01*
X1625Y2D01*
X1624Y2D01*
X1623Y2D01*
X1622Y2D01*
X1621Y2D01*
X1620Y2D01*
X1619Y2D01*
X1618Y2D01*
X1617Y2D01*
X1616Y2D01*
X1615Y2D01*
X1614Y2D01*
X1613Y2D01*
X1612Y2D01*
X1611Y2D01*
X1610Y2D01*
X1609Y2D01*
X1608Y2D01*
X1607Y2D01*
X1606Y2D01*
X1605Y2D01*
X1604Y2D01*
X1603Y2D01*
X1602Y2D01*
X1601Y2D01*
X1600Y2D01*
X1599Y2D01*
X1598Y2D01*
X1597Y2D01*
X1596Y2D01*
X1595Y2D01*
X1594Y2D01*
X1593Y2D01*
X1592Y2D01*
X1591Y2D01*
X1590Y2D01*
X1589Y2D01*
X1588Y2D01*
X1587Y2D01*
X1586Y2D01*
X1585Y2D01*
X1584Y2D01*
X1583Y2D01*
X1582Y2D01*
X1581Y2D01*
X1580Y2D01*
X1579Y2D01*
X1578Y2D01*
X1577Y2D01*
X1576Y2D01*
X1575Y2D01*
X1574Y2D01*
X1573Y2D01*
X1572Y2D01*
X1571Y2D01*
X1570Y2D01*
X1569Y2D01*
X1568Y2D01*
X1567Y2D01*
X1566Y2D01*
X1565Y2D01*
X1564Y2D01*
X1563Y2D01*
X1562Y2D01*
X1561Y2D01*
X1560Y2D01*
X1559Y2D01*
X1558Y2D01*
X1557Y2D01*
X1556Y2D01*
X1555Y2D01*
X1554Y2D01*
X1553Y2D01*
X1552Y2D01*
X1551Y2D01*
X1550Y2D01*
X1549Y2D01*
X1548Y2D01*
X1547Y2D01*
X1546Y2D01*
X1545Y2D01*
X1544Y2D01*
X1543Y2D01*
X1542Y2D01*
X1541Y2D01*
X1540Y2D01*
X1539Y2D01*
X1538Y2D01*
X1537Y2D01*
X1536Y2D01*
X1535Y2D01*
X1534Y2D01*
X1533Y2D01*
X1532Y2D01*
X1531Y2D01*
X1530Y2D01*
X1529Y2D01*
X1528Y2D01*
X1527Y2D01*
X1526Y2D01*
X1525Y2D01*
X1524Y2D01*
X1523Y2D01*
X1522Y2D01*
X1521Y2D01*
X1520Y2D01*
X1519Y2D01*
X1518Y2D01*
X1517Y2D01*
X1516Y2D01*
X1515Y2D01*
X1514Y2D01*
X1513Y2D01*
X1512Y2D01*
X1511Y2D01*
X1510Y2D01*
X1509Y2D01*
X1508Y2D01*
X1507Y2D01*
X1506Y2D01*
X1505Y2D01*
X1504Y2D01*
X1503Y2D01*
X1502Y2D01*
X1501Y2D01*
X1500Y2D01*
X1499Y2D01*
X1498Y2D01*
X1497Y2D01*
X1496Y2D01*
X1495Y2D01*
X1494Y2D01*
X1493Y2D01*
X1492Y2D01*
X1491Y2D01*
X1490Y2D01*
X1489Y2D01*
X1488Y2D01*
X1487Y2D01*
X1486Y2D01*
X1485Y2D01*
X1484Y2D01*
X1483Y2D01*
X1482Y2D01*
X1481Y2D01*
X1480Y2D01*
X1479Y2D01*
X1478Y2D01*
X1477Y2D01*
X1476Y2D01*
X1475Y2D01*
X1474Y2D01*
X1473Y2D01*
X1472Y2D01*
X1471Y2D01*
X1470Y2D01*
X1469Y2D01*
X1468Y2D01*
X1467Y2D01*
X1466Y2D01*
X1465Y2D01*
X1464Y2D01*
X1463Y2D01*
X1462Y2D01*
X1461Y2D01*
X1460Y2D01*
X1459Y2D01*
X1458Y2D01*
X1457Y2D01*
X1456Y2D01*
X1455Y2D01*
X1454Y2D01*
X1453Y2D01*
X1452Y2D01*
X1451Y2D01*
X1450Y2D01*
X1449Y2D01*
X1448Y2D01*
X1447Y2D01*
X1446Y2D01*
X1445Y2D01*
X1444Y2D01*
X1443Y2D01*
X1442Y2D01*
X1441Y2D01*
X1440Y2D01*
X1439Y2D01*
X1438Y2D01*
X1437Y2D01*
X1436Y2D01*
X1435Y2D01*
X1434Y2D01*
X1433Y2D01*
X1432Y2D01*
X1431Y2D01*
X1430Y2D01*
X1429Y2D01*
X1428Y2D01*
X1427Y2D01*
X1426Y2D01*
X1425Y2D01*
X1424Y2D01*
X1423Y2D01*
X1422Y2D01*
X1421Y2D01*
X1420Y2D01*
X1419Y2D01*
X1418Y2D01*
X1417Y2D01*
X1416Y2D01*
X1415Y2D01*
X1414Y2D01*
X1413Y2D01*
X1412Y2D01*
X1411Y2D01*
X1410Y2D01*
X1409Y2D01*
X1408Y2D01*
X1407Y2D01*
X1406Y2D01*
X1405Y2D01*
X1404Y2D01*
X1403Y2D01*
X1402Y2D01*
X1401Y2D01*
X1400Y2D01*
X1399Y2D01*
X1398Y2D01*
X1397Y2D01*
X1396Y2D01*
X1395Y2D01*
X1394Y2D01*
X1393Y2D01*
X1392Y2D01*
X1391Y2D01*
X1390Y2D01*
X1389Y2D01*
X1388Y2D01*
X1387Y2D01*
X1386Y2D01*
X1385Y2D01*
X1384Y2D01*
X1383Y2D01*
X1382Y2D01*
X1381Y2D01*
X1380Y2D01*
X1379Y2D01*
X1378Y2D01*
X1377Y2D01*
X1376Y2D01*
X1375Y2D01*
X1374Y2D01*
X1373Y2D01*
X1372Y2D01*
X1371Y2D01*
X1370Y2D01*
X1369Y2D01*
X1368Y2D01*
X1367Y2D01*
X1366Y2D01*
X1365Y2D01*
X1364Y2D01*
X1363Y2D01*
X1362Y2D01*
X1361Y2D01*
X1360Y2D01*
X1359Y2D01*
X1358Y2D01*
X1357Y2D01*
X1356Y2D01*
X1355Y2D01*
X1354Y2D01*
X1353Y2D01*
X1352Y2D01*
X1351Y2D01*
X1350Y2D01*
X1349Y2D01*
X1348Y2D01*
X1347Y2D01*
X1346Y2D01*
X1345Y2D01*
X1344Y2D01*
X1343Y2D01*
X1342Y2D01*
X1341Y2D01*
X1340Y2D01*
X1339Y2D01*
X1338Y2D01*
X1337Y2D01*
X1336Y2D01*
X1335Y2D01*
X1334Y2D01*
X1333Y2D01*
X1332Y2D01*
X1331Y2D01*
X1330Y2D01*
X1329Y2D01*
X1328Y2D01*
X1327Y2D01*
X1326Y2D01*
X1325Y2D01*
X1324Y2D01*
X1323Y2D01*
X1322Y2D01*
X1321Y2D01*
X1320Y2D01*
X1319Y2D01*
X1318Y2D01*
X1317Y2D01*
X1316Y2D01*
X1315Y2D01*
X1314Y2D01*
X1313Y2D01*
X1312Y2D01*
X1311Y2D01*
X1310Y2D01*
X1309Y2D01*
X1308Y2D01*
X1307Y2D01*
X1306Y2D01*
X1305Y2D01*
X1304Y2D01*
X1303Y2D01*
X1302Y2D01*
X1301Y2D01*
X1300Y2D01*
X1299Y2D01*
X1298Y2D01*
X1297Y2D01*
X1296Y2D01*
X1295Y2D01*
X1294Y2D01*
X1293Y2D01*
X1292Y2D01*
X1291Y2D01*
X1290Y2D01*
X1289Y2D01*
X1288Y2D01*
X1287Y2D01*
X1286Y2D01*
X1285Y2D01*
X1284Y2D01*
X1283Y2D01*
X1282Y2D01*
X1281Y2D01*
X1280Y2D01*
X1279Y2D01*
X1278Y2D01*
X1277Y2D01*
X1276Y2D01*
X1275Y2D01*
X1274Y2D01*
X1273Y2D01*
X1272Y2D01*
X1271Y2D01*
X1270Y2D01*
X1269Y2D01*
X1268Y2D01*
X1267Y2D01*
X1266Y2D01*
X1265Y2D01*
X1264Y2D01*
X1263Y2D01*
X1262Y2D01*
X1261Y2D01*
X1260Y2D01*
X1259Y2D01*
X1258Y2D01*
X1257Y2D01*
X1256Y2D01*
X1255Y2D01*
X1254Y2D01*
X1253Y2D01*
X1252Y2D01*
X1251Y2D01*
X1250Y2D01*
X1249Y2D01*
X1248Y2D01*
X1247Y2D01*
X1246Y2D01*
X1245Y2D01*
X1244Y2D01*
X1243Y2D01*
X1242Y2D01*
X1241Y2D01*
X1240Y2D01*
X1239Y2D01*
X1238Y2D01*
X1237Y2D01*
X1236Y2D01*
X1235Y2D01*
X1234Y2D01*
X1233Y2D01*
X1232Y2D01*
X1231Y2D01*
X1230Y2D01*
X1229Y2D01*
X1228Y2D01*
X1227Y2D01*
X1226Y2D01*
X1225Y2D01*
X1224Y2D01*
X1223Y2D01*
X1222Y2D01*
X1221Y2D01*
X1220Y2D01*
X1219Y2D01*
X1218Y2D01*
X1217Y2D01*
X1216Y2D01*
X1215Y2D01*
X1214Y2D01*
X1213Y2D01*
X1212Y2D01*
X1211Y2D01*
X1210Y2D01*
X1209Y2D01*
X1208Y2D01*
X1207Y2D01*
X1206Y2D01*
X1205Y2D01*
X1204Y2D01*
X1203Y2D01*
X1202Y2D01*
X1201Y2D01*
X1200Y2D01*
X1199Y2D01*
X1198Y2D01*
X1197Y2D01*
X1196Y2D01*
X1195Y2D01*
X1194Y2D01*
X1193Y2D01*
X1192Y2D01*
X1191Y2D01*
X1190Y2D01*
X1189Y2D01*
X1188Y2D01*
X1187Y2D01*
X1186Y2D01*
X1185Y2D01*
X1184Y2D01*
X1183Y2D01*
X1182Y2D01*
X1181Y2D01*
X1180Y2D01*
X1179Y2D01*
X1178Y2D01*
X1177Y2D01*
X1176Y2D01*
X1175Y2D01*
X1174Y2D01*
X1173Y2D01*
X1172Y2D01*
X1171Y2D01*
X1170Y2D01*
X1169Y2D01*
X1168Y2D01*
X1167Y2D01*
X1166Y2D01*
X1165Y2D01*
X1164Y2D01*
X1163Y2D01*
X1162Y2D01*
X1161Y2D01*
X1160Y2D01*
X1159Y2D01*
X1158Y2D01*
X1157Y2D01*
X1156Y2D01*
X1155Y2D01*
X1154Y2D01*
X1153Y2D01*
X1152Y2D01*
X1151Y2D01*
X1150Y2D01*
X1149Y2D01*
X1148Y2D01*
X1147Y2D01*
X1146Y2D01*
X1145Y2D01*
X1144Y2D01*
X1143Y2D01*
X1142Y2D01*
X1141Y2D01*
X1140Y2D01*
X1139Y2D01*
X1138Y2D01*
X1137Y2D01*
X1136Y2D01*
X1135Y2D01*
X1134Y2D01*
X1133Y2D01*
X1132Y2D01*
X1131Y2D01*
X1130Y2D01*
X1129Y2D01*
X1128Y2D01*
X1127Y2D01*
X1126Y2D01*
X1125Y2D01*
X1124Y2D01*
X1123Y2D01*
X1122Y2D01*
X1121Y2D01*
X1120Y2D01*
X1119Y2D01*
X1118Y2D01*
X1117Y2D01*
X1116Y2D01*
X1115Y2D01*
X1114Y2D01*
X1113Y2D01*
X1112Y2D01*
X1111Y2D01*
X1110Y2D01*
X1109Y2D01*
X1108Y2D01*
X1107Y2D01*
X1106Y2D01*
X1105Y2D01*
X1104Y2D01*
X1103Y2D01*
X1102Y2D01*
X1101Y2D01*
X1100Y2D01*
X1099Y2D01*
X1098Y2D01*
X1097Y2D01*
X1096Y2D01*
X1095Y2D01*
X1094Y2D01*
X1093Y2D01*
X1092Y2D01*
X1091Y2D01*
X1090Y2D01*
X1089Y2D01*
X1088Y2D01*
X1087Y2D01*
X1086Y2D01*
X1085Y2D01*
X1084Y2D01*
X1083Y2D01*
X1082Y2D01*
X1081Y2D01*
X1080Y2D01*
X1079Y2D01*
X1078Y2D01*
X1077Y2D01*
X1076Y2D01*
X1075Y2D01*
X1074Y2D01*
X1073Y2D01*
X1072Y2D01*
X1071Y2D01*
X1070Y2D01*
X1069Y2D01*
X1068Y2D01*
X1067Y2D01*
X1066Y2D01*
X1065Y2D01*
X1064Y2D01*
X1063Y2D01*
X1062Y2D01*
X1061Y2D01*
X1060Y2D01*
X1059Y2D01*
X1058Y2D01*
X1057Y2D01*
X1056Y2D01*
X1055Y2D01*
X1054Y2D01*
X1053Y2D01*
X1052Y2D01*
X1051Y2D01*
X1050Y2D01*
X1049Y2D01*
X1048Y2D01*
X1047Y2D01*
X1046Y2D01*
X1045Y2D01*
X1044Y2D01*
X1043Y2D01*
X1042Y2D01*
X1041Y2D01*
X1040Y2D01*
X1039Y2D01*
X1038Y2D01*
X1037Y2D01*
X1036Y2D01*
X1035Y2D01*
X1034Y2D01*
X1033Y2D01*
X1032Y2D01*
X1031Y2D01*
X1030Y2D01*
X1029Y2D01*
X1028Y2D01*
X1027Y2D01*
X1026Y2D01*
X1025Y2D01*
X1024Y2D01*
X1023Y2D01*
X1022Y2D01*
X1021Y2D01*
X1020Y2D01*
X1019Y2D01*
X1018Y2D01*
X1017Y2D01*
X1016Y2D01*
X1015Y2D01*
X1014Y2D01*
X1013Y2D01*
X1012Y2D01*
X1011Y2D01*
X1010Y2D01*
X1009Y2D01*
X1008Y2D01*
X1007Y2D01*
X1006Y2D01*
X1005Y2D01*
X1004Y2D01*
X1003Y2D01*
X1002Y2D01*
X1001Y2D01*
X1000Y2D01*
X999Y2D01*
X998Y2D01*
X997Y2D01*
X996Y2D01*
X995Y2D01*
X994Y2D01*
X993Y2D01*
X992Y2D01*
X991Y2D01*
X990Y2D01*
X989Y2D01*
X988Y2D01*
X987Y2D01*
X986Y2D01*
X985Y2D01*
X984Y2D01*
X983Y2D01*
X982Y2D01*
X981Y2D01*
X980Y2D01*
X979Y2D01*
X978Y2D01*
X977Y2D01*
X976Y2D01*
X975Y2D01*
X974Y2D01*
X973Y2D01*
X972Y2D01*
X971Y2D01*
X970Y2D01*
X969Y2D01*
X968Y2D01*
X967Y2D01*
X966Y2D01*
X965Y2D01*
X964Y2D01*
X963Y2D01*
X962Y2D01*
X961Y2D01*
X960Y2D01*
X959Y2D01*
X958Y2D01*
X957Y2D01*
X956Y2D01*
X955Y2D01*
X954Y2D01*
X953Y2D01*
X952Y2D01*
X951Y2D01*
X950Y2D01*
X949Y2D01*
X948Y2D01*
X947Y2D01*
X946Y2D01*
X945Y2D01*
X944Y2D01*
X943Y2D01*
X942Y2D01*
X941Y2D01*
X940Y2D01*
X939Y2D01*
X938Y2D01*
X937Y2D01*
X936Y2D01*
X935Y2D01*
X934Y2D01*
X933Y2D01*
X932Y2D01*
X931Y2D01*
X930Y2D01*
X929Y2D01*
X928Y2D01*
X927Y2D01*
X926Y2D01*
X925Y2D01*
X924Y2D01*
X923Y2D01*
X922Y2D01*
X921Y2D01*
X920Y2D01*
X919Y2D01*
X918Y2D01*
X917Y2D01*
X916Y2D01*
X915Y2D01*
X914Y2D01*
X913Y2D01*
X912Y2D01*
X911Y2D01*
X910Y2D01*
X909Y2D01*
X908Y2D01*
X907Y2D01*
X906Y2D01*
X905Y2D01*
X904Y2D01*
X903Y2D01*
X902Y2D01*
X901Y2D01*
X900Y2D01*
X899Y2D01*
X898Y2D01*
X897Y2D01*
X896Y2D01*
X895Y2D01*
X894Y2D01*
X893Y2D01*
X892Y2D01*
X891Y2D01*
X890Y2D01*
X889Y2D01*
X888Y2D01*
X887Y2D01*
X886Y2D01*
X885Y2D01*
X884Y2D01*
X883Y2D01*
X882Y2D01*
X881Y2D01*
X880Y2D01*
X879Y2D01*
X878Y2D01*
X877Y2D01*
X876Y2D01*
X875Y2D01*
X874Y2D01*
X873Y2D01*
X872Y2D01*
X871Y2D01*
X870Y2D01*
X869Y2D01*
X868Y2D01*
X867Y2D01*
X866Y2D01*
X865Y2D01*
X864Y2D01*
X863Y2D01*
X862Y2D01*
X861Y2D01*
X860Y2D01*
X859Y2D01*
X858Y2D01*
X857Y2D01*
X856Y2D01*
X855Y2D01*
X854Y2D01*
X853Y2D01*
X852Y2D01*
X851Y2D01*
X850Y2D01*
X849Y2D01*
X848Y2D01*
X847Y2D01*
X846Y2D01*
X845Y2D01*
X844Y2D01*
X843Y2D01*
X842Y2D01*
X841Y2D01*
X840Y2D01*
X839Y2D01*
X838Y2D01*
X837Y2D01*
X836Y2D01*
X835Y2D01*
X834Y2D01*
X833Y2D01*
X832Y2D01*
X831Y2D01*
X830Y2D01*
X829Y2D01*
X828Y2D01*
X827Y2D01*
X826Y2D01*
X825Y2D01*
X824Y2D01*
X823Y2D01*
X822Y2D01*
X821Y2D01*
X820Y2D01*
X819Y2D01*
X818Y2D01*
X817Y2D01*
X816Y2D01*
X815Y2D01*
X814Y2D01*
X813Y2D01*
X812Y2D01*
X811Y2D01*
X810Y2D01*
X809Y2D01*
X808Y2D01*
X807Y2D01*
X806Y2D01*
X805Y2D01*
X804Y2D01*
X803Y2D01*
X802Y2D01*
X801Y2D01*
X800Y2D01*
X799Y2D01*
X798Y2D01*
X797Y2D01*
X796Y2D01*
X795Y2D01*
X794Y2D01*
X793Y2D01*
X792Y2D01*
X791Y2D01*
X790Y2D01*
X789Y2D01*
X788Y2D01*
X787Y2D01*
X786Y2D01*
X785Y2D01*
X784Y2D01*
X783Y2D01*
X782Y2D01*
X781Y2D01*
X780Y2D01*
X779Y2D01*
X778Y2D01*
X777Y2D01*
X776Y2D01*
X775Y2D01*
X774Y2D01*
X773Y2D01*
X772Y2D01*
X771Y2D01*
X770Y2D01*
X769Y2D01*
X768Y2D01*
X767Y2D01*
X766Y2D01*
X765Y2D01*
X764Y2D01*
X763Y2D01*
X762Y2D01*
X761Y2D01*
X760Y2D01*
X759Y2D01*
X758Y2D01*
X757Y2D01*
X756Y2D01*
X755Y2D01*
X754Y2D01*
X753Y2D01*
X752Y2D01*
X751Y2D01*
X750Y2D01*
X749Y2D01*
X748Y2D01*
X747Y2D01*
X746Y2D01*
X745Y2D01*
X744Y2D01*
X743Y2D01*
X742Y2D01*
X741Y2D01*
X740Y2D01*
X739Y2D01*
X738Y2D01*
X737Y2D01*
X736Y2D01*
X735Y2D01*
X734Y2D01*
X733Y2D01*
X732Y2D01*
X731Y2D01*
X730Y2D01*
X729Y2D01*
X728Y2D01*
X727Y2D01*
X726Y2D01*
X725Y2D01*
X724Y2D01*
X723Y2D01*
X722Y2D01*
X721Y2D01*
X720Y2D01*
X719Y2D01*
X718Y2D01*
X717Y2D01*
X716Y2D01*
X715Y2D01*
X714Y2D01*
X713Y2D01*
X712Y2D01*
X711Y2D01*
X710Y2D01*
X709Y2D01*
X708Y2D01*
X707Y2D01*
X706Y2D01*
X705Y2D01*
X704Y2D01*
X703Y2D01*
X702Y2D01*
X701Y2D01*
X700Y2D01*
X699Y2D01*
X698Y2D01*
X697Y2D01*
X696Y2D01*
X695Y2D01*
X694Y2D01*
X693Y2D01*
X692Y2D01*
X691Y2D01*
X690Y2D01*
X689Y2D01*
X688Y2D01*
X687Y2D01*
X686Y2D01*
X685Y2D01*
X684Y2D01*
X683Y2D01*
X682Y2D01*
X681Y2D01*
X680Y2D01*
X679Y2D01*
X678Y2D01*
X677Y2D01*
X676Y2D01*
X675Y2D01*
X674Y2D01*
X673Y2D01*
X672Y2D01*
X671Y2D01*
X670Y2D01*
X669Y2D01*
X668Y2D01*
X667Y2D01*
X666Y2D01*
X665Y2D01*
X664Y2D01*
X663Y2D01*
X662Y2D01*
X661Y2D01*
X660Y2D01*
X659Y2D01*
X658Y2D01*
X657Y2D01*
X656Y2D01*
X655Y2D01*
X654Y2D01*
X653Y2D01*
X652Y2D01*
X651Y2D01*
X650Y2D01*
X649Y2D01*
X648Y2D01*
X647Y2D01*
X646Y2D01*
X645Y2D01*
X644Y2D01*
X643Y2D01*
X642Y2D01*
X641Y2D01*
X640Y2D01*
X639Y2D01*
X638Y2D01*
X637Y2D01*
X636Y2D01*
X635Y2D01*
X634Y2D01*
X633Y2D01*
X632Y2D01*
X631Y2D01*
X630Y2D01*
X629Y2D01*
X628Y2D01*
X627Y2D01*
X626Y2D01*
X625Y2D01*
X624Y2D01*
X623Y2D01*
X622Y2D01*
X621Y2D01*
X620Y2D01*
X619Y2D01*
X618Y2D01*
X617Y2D01*
X616Y2D01*
X615Y2D01*
X614Y2D01*
X613Y2D01*
X612Y2D01*
X611Y2D01*
X610Y2D01*
X609Y2D01*
X608Y2D01*
X607Y2D01*
X606Y2D01*
X605Y2D01*
X604Y2D01*
X603Y2D01*
X602Y2D01*
X601Y2D01*
X600Y2D01*
X599Y2D01*
X598Y2D01*
X597Y2D01*
X596Y2D01*
X595Y2D01*
X594Y2D01*
X593Y2D01*
X592Y2D01*
X591Y2D01*
X590Y2D01*
X589Y2D01*
X588Y2D01*
X587Y2D01*
X586Y2D01*
X585Y2D01*
X584Y2D01*
X583Y2D01*
X582Y2D01*
X581Y2D01*
X580Y2D01*
X579Y2D01*
X578Y2D01*
X577Y2D01*
X576Y2D01*
X575Y2D01*
X574Y2D01*
X573Y2D01*
X572Y2D01*
X571Y2D01*
X570Y2D01*
X569Y2D01*
X568Y2D01*
X567Y2D01*
X566Y2D01*
X565Y2D01*
X564Y2D01*
X563Y2D01*
X562Y2D01*
X561Y2D01*
X560Y2D01*
X559Y2D01*
X558Y2D01*
X557Y2D01*
X556Y2D01*
X555Y2D01*
X554Y2D01*
X553Y2D01*
X552Y2D01*
X551Y2D01*
X550Y2D01*
X549Y2D01*
X548Y2D01*
X547Y2D01*
X546Y2D01*
X545Y2D01*
X544Y2D01*
X543Y2D01*
X542Y2D01*
X541Y2D01*
X540Y2D01*
X539Y2D01*
X538Y2D01*
X537Y2D01*
X536Y2D01*
X535Y2D01*
X534Y2D01*
X533Y2D01*
X532Y2D01*
X531Y2D01*
X530Y2D01*
X529Y2D01*
X528Y2D01*
X527Y2D01*
X526Y2D01*
X525Y2D01*
X524Y2D01*
X523Y2D01*
X522Y2D01*
X521Y2D01*
X520Y2D01*
X519Y2D01*
X518Y2D01*
X517Y2D01*
X516Y2D01*
X515Y2D01*
X514Y2D01*
X513Y2D01*
X512Y2D01*
X511Y2D01*
X510Y2D01*
X509Y2D01*
X508Y2D01*
X507Y2D01*
X506Y2D01*
X505Y2D01*
X504Y2D01*
X503Y2D01*
X502Y2D01*
X501Y2D01*
X500Y2D01*
X499Y2D01*
X498Y2D01*
X497Y2D01*
X496Y2D01*
X495Y2D01*
X494Y2D01*
X493Y2D01*
X492Y2D01*
X491Y2D01*
X490Y2D01*
X489Y2D01*
X488Y2D01*
X487Y2D01*
X486Y2D01*
X485Y2D01*
X484Y2D01*
X483Y2D01*
X482Y2D01*
X481Y2D01*
X480Y2D01*
X479Y2D01*
X478Y2D01*
X477Y2D01*
X476Y2D01*
X475Y2D01*
X474Y2D01*
X473Y2D01*
X472Y2D01*
X471Y2D01*
X470Y2D01*
X469Y2D01*
X468Y2D01*
X467Y2D01*
X466Y2D01*
X465Y2D01*
X464Y2D01*
X463Y2D01*
X462Y2D01*
X461Y2D01*
X460Y2D01*
X459Y2D01*
X458Y2D01*
X457Y2D01*
X456Y2D01*
X455Y2D01*
X454Y2D01*
X453Y2D01*
X452Y2D01*
X451Y2D01*
X450Y2D01*
X449Y2D01*
X448Y2D01*
X447Y2D01*
X446Y2D01*
X445Y2D01*
X444Y2D01*
X443Y2D01*
X442Y2D01*
X441Y2D01*
X440Y2D01*
X439Y2D01*
X438Y2D01*
X437Y2D01*
X436Y2D01*
X435Y2D01*
X434Y2D01*
X433Y2D01*
X432Y2D01*
X431Y2D01*
X430Y2D01*
X429Y2D01*
X428Y2D01*
X427Y2D01*
X426Y2D01*
X425Y2D01*
X424Y2D01*
X423Y2D01*
X422Y2D01*
X421Y2D01*
X420Y2D01*
X419Y2D01*
X418Y2D01*
X417Y2D01*
X416Y2D01*
X415Y2D01*
X414Y2D01*
X413Y2D01*
X412Y2D01*
X411Y2D01*
X410Y2D01*
X409Y2D01*
X408Y2D01*
X407Y2D01*
X406Y2D01*
X405Y2D01*
X404Y2D01*
X403Y2D01*
X402Y2D01*
X401Y2D01*
X400Y2D01*
X399Y2D01*
X398Y2D01*
X397Y2D01*
X396Y2D01*
X395Y2D01*
X394Y2D01*
X393Y2D01*
X392Y2D01*
X391Y2D01*
X390Y2D01*
X389Y2D01*
X388Y2D01*
X387Y2D01*
X386Y2D01*
X385Y2D01*
X384Y2D01*
X383Y2D01*
X382Y2D01*
X381Y2D01*
X380Y2D01*
X379Y2D01*
X378Y2D01*
X377Y2D01*
X376Y2D01*
X375Y2D01*
X374Y2D01*
X373Y2D01*
X372Y2D01*
X371Y2D01*
X370Y2D01*
X369Y2D01*
X368Y2D01*
X367Y2D01*
X366Y2D01*
X365Y2D01*
X364Y2D01*
X363Y2D01*
X362Y2D01*
X361Y2D01*
X360Y2D01*
X359Y2D01*
X358Y2D01*
X357Y2D01*
X356Y2D01*
X355Y2D01*
X354Y2D01*
X353Y2D01*
X352Y2D01*
X351Y2D01*
X350Y2D01*
X349Y2D01*
X348Y2D01*
X347Y2D01*
X346Y2D01*
X345Y2D01*
X344Y2D01*
X343Y2D01*
X342Y2D01*
X341Y2D01*
X340Y2D01*
X339Y2D01*
X338Y2D01*
X337Y2D01*
X336Y2D01*
X335Y2D01*
X334Y2D01*
X333Y2D01*
X332Y2D01*
X331Y2D01*
X330Y2D01*
X329Y2D01*
X328Y2D01*
X327Y2D01*
X326Y2D01*
X325Y2D01*
X324Y2D01*
X323Y2D01*
X322Y2D01*
X321Y2D01*
X320Y2D01*
X319Y2D01*
X318Y2D01*
X317Y2D01*
X316Y2D01*
X315Y2D01*
X314Y2D01*
X313Y2D01*
X312Y2D01*
X311Y2D01*
X310Y2D01*
X309Y2D01*
X308Y2D01*
X307Y2D01*
X306Y2D01*
X305Y2D01*
X304Y2D01*
X303Y2D01*
X302Y2D01*
X301Y2D01*
X300Y2D01*
X299Y2D01*
X298Y2D01*
X297Y2D01*
X296Y2D01*
X295Y2D01*
X294Y2D01*
X293Y2D01*
X292Y2D01*
X291Y2D01*
X290Y2D01*
X289Y2D01*
X288Y2D01*
X287Y2D01*
X286Y2D01*
X285Y2D01*
X284Y2D01*
X283Y2D01*
X282Y2D01*
X281Y2D01*
X280Y2D01*
X279Y2D01*
X278Y2D01*
X277Y2D01*
X276Y2D01*
X275Y2D01*
X274Y2D01*
X273Y2D01*
X272Y2D01*
X271Y2D01*
X270Y2D01*
X269Y2D01*
X268Y2D01*
X267Y2D01*
X266Y2D01*
X265Y2D01*
X264Y2D01*
X263Y2D01*
X262Y2D01*
X261Y2D01*
X260Y2D01*
X259Y2D01*
X258Y2D01*
X257Y2D01*
X256Y2D01*
X255Y2D01*
X254Y2D01*
X253Y2D01*
X252Y2D01*
X251Y2D01*
X250Y2D01*
X249Y2D01*
X248Y2D01*
X247Y2D01*
X246Y2D01*
X245Y2D01*
X244Y2D01*
X243Y2D01*
X242Y2D01*
X241Y2D01*
X240Y2D01*
X239Y2D01*
X238Y2D01*
X237Y2D01*
X236Y2D01*
X235Y2D01*
X234Y2D01*
X233Y2D01*
X232Y2D01*
X231Y2D01*
X230Y2D01*
X229Y2D01*
X228Y2D01*
X227Y2D01*
X226Y2D01*
X225Y2D01*
X224Y2D01*
X223Y2D01*
X222Y2D01*
X221Y2D01*
X220Y2D01*
X219Y2D01*
X218Y2D01*
X217Y2D01*
X216Y2D01*
X215Y2D01*
X214Y2D01*
X213Y2D01*
X212Y2D01*
X211Y2D01*
X210Y2D01*
X209Y2D01*
X208Y2D01*
X207Y2D01*
X206Y2D01*
X205Y2D01*
X204Y2D01*
X203Y2D01*
X202Y2D01*
X201Y2D01*
X200Y2D01*
X199Y2D01*
X198Y2D01*
X197Y2D01*
X196Y2D01*
X195Y2D01*
X194Y2D01*
X193Y2D01*
X192Y2D01*
X191Y2D01*
X190Y2D01*
X189Y2D01*
X188Y2D01*
X187Y2D01*
X186Y2D01*
X185Y2D01*
X184Y2D01*
X183Y2D01*
X182Y2D01*
X181Y2D01*
X180Y2D01*
X179Y2D01*
X178Y2D01*
X177Y2D01*
X176Y2D01*
X175Y2D01*
X174Y2D01*
X173Y2D01*
X172Y2D01*
X171Y2D01*
X170Y2D01*
X169Y2D01*
X168Y2D01*
X167Y2D01*
X166Y2D01*
X165Y2D01*
X164Y2D01*
X163Y2D01*
X162Y2D01*
X161Y2D01*
X160Y2D01*
X159Y2D01*
X158Y2D01*
X157Y2D01*
X156Y2D01*
X155Y2D01*
X154Y2D01*
X153Y2D01*
X152Y2D01*
X151Y2D01*
X150Y2D01*
X149Y2D01*
X148Y2D01*
X147Y2D01*
X146Y2D01*
X145Y2D01*
X144Y2D01*
X143Y2D01*
X142Y2D01*
X141Y2D01*
X140Y2D01*
X139Y2D01*
X138Y2D01*
X137Y2D01*
X136Y2D01*
X135Y2D01*
X134Y2D01*
X133Y2D01*
X132Y2D01*
X131Y2D01*
X130Y2D01*
X129Y2D01*
X128Y2D01*
X127Y2D01*
X126Y2D01*
X125Y2D01*
X124Y2D01*
X123Y2D01*
X122Y2D01*
X121Y2D01*
X120Y2D01*
X119Y2D01*
X118Y2D01*
X117Y2D01*
X116Y2D01*
X115Y2D01*
X114Y2D01*
X113Y2D01*
X112Y2D01*
X111Y2D01*
X110Y2D01*
X109Y2D01*
X108Y2D01*
X107Y2D01*
X106Y2D01*
X105Y2D01*
X104Y2D01*
X103Y2D01*
X102Y2D01*
X101Y2D01*
X100Y2D01*
X99Y2D01*
X98Y2D01*
X97Y2D01*
X96Y2D01*
X95Y2D01*
X94Y2D01*
X93Y2D01*
X92Y2D01*
X91Y2D01*
X90Y2D01*
X89Y2D01*
X88Y2D01*
X87Y2D01*
X86Y2D01*
X85Y2D01*
X84Y2D01*
X83Y2D01*
X82Y2D01*
X81Y2D01*
X80Y2D01*
X79Y2D01*
X78Y2D01*
X77Y2D01*
X76Y2D01*
X75Y2D01*
X74Y2D01*
X73Y2D01*
X72Y2D01*
X71Y2D01*
X70Y2D01*
X69Y2D01*
X68Y2D01*
X67Y2D01*
X66Y2D01*
X65Y2D01*
X64Y2D01*
X63Y2D01*
X62Y2D01*
X61Y2D01*
X60Y2D01*
X59Y2D01*
X58Y2D01*
X57Y2D01*
X56Y2D01*
X55Y2D01*
X54Y2D01*
X53Y2D01*
X52Y2D01*
X51Y3D01*
X50Y3D01*
X49Y3D01*
X48Y3D01*
X47Y3D01*
X46Y3D01*
X45Y4D01*
X44Y4D01*
X43Y4D01*
X42Y4D01*
X41Y5D01*
X40Y5D01*
X39Y5D01*
X38Y6D01*
X37Y6D01*
X36Y7D01*
X35Y7D01*
X34Y7D01*
X33Y8D01*
X32Y8D01*
X31Y9D01*
X30Y9D01*
X29Y10D01*
X28Y11D01*
X27Y11D01*
X26Y12D01*
X25Y13D01*
X24Y13D01*
X23Y14D01*
X22Y15D01*
X21Y16D01*
X20Y16D01*
X19Y17D01*
X18Y18D01*
X17Y19D01*
X16Y20D01*
X15Y21D01*
X14Y22D01*
X14Y23D01*
X13Y24D01*
X12Y25D01*
X11Y26D01*
X11Y27D01*
X10Y28D01*
X9Y29D01*
X9Y30D01*
X8Y31D01*
X7Y32D01*
X7Y33D01*
X6Y34D01*
X6Y35D01*
X5Y36D01*
X5Y38D01*
X4Y39D01*
X4Y40D01*
X3Y41D01*
X3Y43D01*
X2Y44D01*
X2Y47D01*
X1Y48D01*
X1Y53D01*
X0Y54D01*
X0Y717D01*
X1Y718D01*
X1Y723D01*
X2Y724D01*
X2Y726D01*
X3Y727D01*
X3Y729D01*
X4Y730D01*
X4Y732D01*
X5Y733D01*
X5Y734D01*
X6Y735D01*
X6Y736D01*
X7Y737D01*
X7Y738D01*
X8Y739D01*
X8Y740D01*
X9Y741D01*
X10Y742D01*
X10Y743D01*
X11Y744D01*
X12Y745D01*
X12Y746D01*
X13Y747D01*
X14Y748D01*
X15Y749D01*
X16Y750D01*
X17Y751D01*
X18Y752D01*
X19Y753D01*
X20Y754D01*
X21Y755D01*
X22Y756D01*
X23Y756D01*
X24Y757D01*
X25Y758D01*
X26Y759D01*
X27Y759D01*
X28Y760D01*
X29Y760D01*
X30Y761D01*
X31Y762D01*
X32Y762D01*
X33Y763D01*
X34Y763D01*
X35Y764D01*
X36Y764D01*
X37Y764D01*
X38Y765D01*
X39Y765D01*
X40Y765D01*
X41Y766D01*
X42Y766D01*
X43Y766D01*
X44Y767D01*
X45Y767D01*
X46Y767D01*
X47Y767D01*
X48Y768D01*
X49Y768D01*
X50Y768D01*
X51Y768D01*
X52Y768D01*
X53Y768D01*
X54Y768D01*
X55Y768D01*
X56Y768D01*
X57Y768D01*
X58Y768D01*
X59Y769D01*
X60Y769D01*
X61Y769D01*
X62Y769D01*
X63Y769D01*
X64Y769D01*
X65Y769D01*
X66Y769D01*
X67Y769D01*
X68Y769D01*
X69Y769D01*
X70Y769D01*
X71Y769D01*
X72Y769D01*
X73Y769D01*
X74Y769D01*
X75Y769D01*
X76Y769D01*
X77Y769D01*
X78Y769D01*
X79Y769D01*
X80Y769D01*
X81Y769D01*
X82Y769D01*
X83Y769D01*
X84Y769D01*
X85Y769D01*
X86Y769D01*
X87Y769D01*
X88Y769D01*
X89Y769D01*
X90Y769D01*
X91Y769D01*
X92Y769D01*
X93Y769D01*
X94Y769D01*
X95Y769D01*
X96Y769D01*
X97Y769D01*
X98Y769D01*
X99Y769D01*
X100Y769D01*
X101Y769D01*
X102Y769D01*
X103Y769D01*
X104Y769D01*
X105Y769D01*
X106Y769D01*
X107Y769D01*
X108Y769D01*
X109Y769D01*
X110Y769D01*
X111Y769D01*
X112Y769D01*
X113Y769D01*
X114Y769D01*
X115Y769D01*
X116Y769D01*
X117Y769D01*
X118Y769D01*
X119Y769D01*
X120Y769D01*
X121Y769D01*
X122Y769D01*
X123Y769D01*
X124Y769D01*
X125Y769D01*
X126Y769D01*
X127Y769D01*
X128Y769D01*
X129Y769D01*
X130Y769D01*
X131Y769D01*
X132Y769D01*
X133Y769D01*
X134Y769D01*
X135Y769D01*
X136Y769D01*
X137Y769D01*
X138Y769D01*
X139Y769D01*
X140Y769D01*
X141Y769D01*
X142Y769D01*
X143Y769D01*
X144Y769D01*
X145Y769D01*
X146Y769D01*
X147Y769D01*
X148Y770D01*
X149Y770D01*
X150Y770D01*
X151Y770D01*
X152Y770D01*
X153Y771D01*
X154Y771D01*
X155Y771D01*
X156Y772D01*
X157Y772D01*
X158Y772D01*
X159Y773D01*
X160Y773D01*
X161Y774D01*
X162Y774D01*
X163Y775D01*
X164Y775D01*
X165Y776D01*
X166Y776D01*
X167Y777D01*
X168Y777D01*
X169Y778D01*
X170Y779D01*
X171Y779D01*
X172Y780D01*
X173Y781D01*
X174Y781D01*
X175Y782D01*
X176Y783D01*
X177Y784D01*
X178Y785D01*
X179Y786D01*
X180Y787D01*
X181Y788D01*
X182Y789D01*
X183Y790D01*
X184Y791D01*
X184Y792D01*
X185Y793D01*
X186Y794D01*
X187Y795D01*
X187Y796D01*
X188Y797D01*
X188Y798D01*
X189Y799D01*
X190Y800D01*
X190Y801D01*
X191Y802D01*
X191Y803D01*
X192Y804D01*
X192Y806D01*
X193Y807D01*
X193Y808D01*
X194Y809D01*
X194Y811D01*
X195Y812D01*
X195Y815D01*
X196Y816D01*
X196Y822D01*
X197Y823D01*
X197Y1385D01*
X196Y1386D01*
X196Y1391D01*
X195Y1392D01*
X195Y1395D01*
X194Y1396D01*
X194Y1398D01*
X193Y1399D01*
X193Y1401D01*
X192Y1402D01*
X192Y1403D01*
X191Y1404D01*
X191Y1405D01*
X190Y1406D01*
X190Y1407D01*
X189Y1408D01*
X189Y1409D01*
X188Y1410D01*
X187Y1411D01*
X187Y1412D01*
X186Y1413D01*
X185Y1414D01*
X185Y1415D01*
X184Y1416D01*
X183Y1417D01*
X182Y1418D01*
X181Y1419D01*
X180Y1420D01*
X179Y1421D01*
X178Y1422D01*
X177Y1423D01*
X176Y1424D01*
X175Y1425D01*
X174Y1426D01*
X173Y1426D01*
X172Y1427D01*
X171Y1428D01*
X170Y1429D01*
X169Y1429D01*
X168Y1430D01*
X167Y1431D01*
X166Y1431D01*
X165Y1432D01*
X164Y1432D01*
X163Y1433D01*
X162Y1433D01*
X161Y1434D01*
X160Y1434D01*
X159Y1434D01*
X158Y1435D01*
X157Y1435D01*
X156Y1436D01*
X155Y1436D01*
X154Y1436D01*
X153Y1436D01*
X152Y1437D01*
X151Y1437D01*
X150Y1437D01*
X149Y1437D01*
X148Y1438D01*
X147Y1438D01*
X146Y1438D01*
X145Y1438D01*
X144Y1438D01*
X143Y1438D01*
X142Y1438D01*
X141Y1438D01*
X140Y1439D01*
X139Y1439D01*
X138Y1439D01*
X137Y1439D01*
X136Y1439D01*
X135Y1439D01*
X134Y1439D01*
X133Y1439D01*
X132Y1439D01*
X131Y1439D01*
X130Y1439D01*
X129Y1439D01*
X128Y1439D01*
X127Y1439D01*
X126Y1439D01*
X125Y1439D01*
X124Y1439D01*
X123Y1439D01*
X122Y1439D01*
X121Y1439D01*
X120Y1439D01*
X119Y1439D01*
X118Y1439D01*
X117Y1439D01*
X116Y1439D01*
X115Y1439D01*
X114Y1439D01*
X113Y1439D01*
X112Y1439D01*
X111Y1439D01*
X110Y1439D01*
X109Y1439D01*
X108Y1439D01*
X107Y1439D01*
X106Y1439D01*
X105Y1439D01*
X104Y1439D01*
X103Y1439D01*
X102Y1439D01*
X101Y1439D01*
X100Y1439D01*
X99Y1439D01*
X98Y1439D01*
X97Y1439D01*
X96Y1439D01*
X95Y1439D01*
X94Y1439D01*
X93Y1439D01*
X92Y1439D01*
X91Y1439D01*
X90Y1439D01*
X89Y1439D01*
X88Y1439D01*
X87Y1439D01*
X86Y1439D01*
X85Y1439D01*
X84Y1439D01*
X83Y1439D01*
X82Y1439D01*
X81Y1439D01*
X80Y1439D01*
X79Y1439D01*
X78Y1439D01*
X77Y1439D01*
X76Y1439D01*
X75Y1439D01*
X74Y1439D01*
X73Y1439D01*
X72Y1439D01*
X71Y1439D01*
X70Y1439D01*
X69Y1439D01*
X68Y1439D01*
X67Y1439D01*
X66Y1439D01*
X65Y1439D01*
X64Y1439D01*
X63Y1439D01*
X62Y1439D01*
X61Y1439D01*
X60Y1439D01*
X59Y1439D01*
X58Y1439D01*
X57Y1439D01*
X56Y1439D01*
X55Y1439D01*
X54Y1439D01*
X53Y1439D01*
X52Y1439D01*
X51Y1439D01*
X50Y1439D01*
X49Y1440D01*
X48Y1440D01*
X47Y1440D01*
X46Y1440D01*
X45Y1440D01*
X44Y1441D01*
X43Y1441D01*
X42Y1441D01*
X41Y1441D01*
X40Y1442D01*
X39Y1442D01*
X38Y1442D01*
X37Y1443D01*
X36Y1443D01*
X35Y1444D01*
X34Y1444D01*
X33Y1445D01*
X32Y1445D01*
X31Y1446D01*
X30Y1446D01*
X29Y1447D01*
X28Y1447D01*
X27Y1448D01*
X26Y1449D01*
X25Y1449D01*
X24Y1450D01*
X23Y1451D01*
X22Y1451D01*
X21Y1452D01*
X20Y1453D01*
X19Y1454D01*
X18Y1455D01*
X17Y1456D01*
X16Y1457D01*
X15Y1458D01*
X14Y1459D01*
X13Y1460D01*
X13Y1461D01*
X12Y1462D01*
X11Y1463D01*
X10Y1464D01*
X10Y1465D01*
X9Y1466D01*
X8Y1467D01*
X8Y1468D01*
X7Y1469D01*
X7Y1470D01*
X6Y1471D01*
X6Y1472D01*
X5Y1473D01*
X5Y1474D01*
X4Y1475D01*
X4Y1477D01*
X3Y1478D01*
X3Y1480D01*
X2Y1481D01*
X2Y1484D01*
X1Y1485D01*
X1Y1489D01*
X0Y1490D01*
X0Y3216D01*
X1Y3217D01*
X1Y3222D01*
X2Y3223D01*
X2Y3226D01*
X3Y3227D01*
X3Y3229D01*
X4Y3230D01*
X4Y3231D01*
X5Y3232D01*
X5Y3234D01*
X6Y3235D01*
X6Y3236D01*
X7Y3237D01*
X7Y3238D01*
X8Y3239D01*
X9Y3240D01*
X9Y3241D01*
X10Y3242D01*
X11Y3243D01*
X11Y3244D01*
X12Y3245D01*
X13Y3246D01*
X14Y3247D01*
X14Y3248D01*
X15Y3249D01*
X16Y3250D01*
X17Y3251D01*
X18Y3252D01*
X19Y3253D01*
X20Y3254D01*
X21Y3254D01*
X22Y3255D01*
X23Y3256D01*
X24Y3257D01*
X25Y3257D01*
X26Y3258D01*
X27Y3259D01*
X28Y3259D01*
X29Y3260D01*
X30Y3261D01*
X31Y3261D01*
X32Y3262D01*
X33Y3262D01*
X34Y3263D01*
X35Y3263D01*
X36Y3263D01*
X37Y3264D01*
X38Y3264D01*
X39Y3265D01*
X40Y3265D01*
X41Y3265D01*
X42Y3266D01*
X43Y3266D01*
X44Y3266D01*
X45Y3266D01*
X46Y3267D01*
X47Y3267D01*
X48Y3267D01*
X49Y3267D01*
X50Y3267D01*
X51Y3267D01*
X52Y3268D01*
D02*
X1766Y788D02*
X1767Y788D01*
X1768Y788D01*
X1769Y788D01*
X1770Y788D01*
X1771Y788D01*
X1772Y788D01*
X1773Y788D01*
X1774Y788D01*
X1775Y788D01*
X1776Y788D01*
X1777Y787D01*
X1778Y787D01*
X1779Y787D01*
X1780Y787D01*
X1781Y786D01*
X1782Y786D01*
X1783Y785D01*
X1784Y785D01*
X1785Y784D01*
X1786Y784D01*
X1787Y783D01*
X1788Y782D01*
X1789Y782D01*
X1790Y781D01*
X1791Y780D01*
X1792Y779D01*
X1793Y778D01*
X1794Y777D01*
X1795Y776D01*
X1796Y775D01*
X1797Y774D01*
X1797Y773D01*
X1798Y772D01*
X1799Y771D01*
X1799Y770D01*
X1800Y769D01*
X1800Y768D01*
X1801Y767D01*
X1802Y766D01*
X1802Y765D01*
X1803Y764D01*
X1803Y763D01*
X1804Y762D01*
X1804Y760D01*
X1805Y759D01*
X1805Y757D01*
X1806Y756D01*
X1806Y754D01*
X1807Y753D01*
X1807Y751D01*
X1808Y750D01*
X1808Y746D01*
X1809Y745D01*
X1809Y739D01*
X1810Y738D01*
X1810Y170D01*
X1809Y169D01*
X1809Y163D01*
X1808Y162D01*
X1808Y159D01*
X1807Y158D01*
X1807Y155D01*
X1806Y154D01*
X1806Y152D01*
X1805Y151D01*
X1805Y149D01*
X1804Y148D01*
X1804Y147D01*
X1803Y146D01*
X1803Y145D01*
X1802Y144D01*
X1802Y143D01*
X1801Y142D01*
X1801Y141D01*
X1800Y140D01*
X1800Y139D01*
X1799Y138D01*
X1798Y137D01*
X1798Y136D01*
X1797Y135D01*
X1796Y134D01*
X1796Y133D01*
X1795Y132D01*
X1794Y131D01*
X1793Y130D01*
X1792Y129D01*
X1791Y128D01*
X1790Y127D01*
X1789Y127D01*
X1788Y126D01*
X1787Y125D01*
X1786Y124D01*
X1785Y124D01*
X1784Y123D01*
X1783Y123D01*
X1782Y122D01*
X1781Y122D01*
X1780Y122D01*
X1779Y121D01*
X1778Y121D01*
X1777Y121D01*
X1776Y121D01*
X1775Y120D01*
X1774Y120D01*
X1773Y120D01*
X1772Y120D01*
X1771Y120D01*
X1770Y120D01*
X1769Y120D01*
X1768Y120D01*
X1767Y120D01*
X1766Y121D01*
X1765Y121D01*
X1764Y121D01*
X1763Y121D01*
X1762Y122D01*
X1761Y122D01*
X1760Y122D01*
X1759Y123D01*
X1758Y124D01*
X1757Y124D01*
X1756Y125D01*
X1755Y125D01*
X1754Y126D01*
X1753Y127D01*
X1752Y128D01*
X1751Y128D01*
X1750Y129D01*
X1749Y130D01*
X1748Y131D01*
X1748Y132D01*
X1747Y133D01*
X1746Y134D01*
X1745Y135D01*
X1744Y136D01*
X1744Y137D01*
X1743Y138D01*
X1743Y139D01*
X1742Y140D01*
X1741Y141D01*
X1741Y142D01*
X1740Y143D01*
X1740Y144D01*
X1739Y145D01*
X1739Y146D01*
X1738Y147D01*
X1738Y149D01*
X1737Y150D01*
X1737Y152D01*
X1736Y153D01*
X1736Y155D01*
X1735Y156D01*
X1735Y159D01*
X1734Y160D01*
X1734Y164D01*
X1733Y165D01*
X1733Y172D01*
X1732Y173D01*
X1732Y736D01*
X1733Y737D01*
X1733Y744D01*
X1734Y745D01*
X1734Y749D01*
X1735Y750D01*
X1735Y753D01*
X1736Y754D01*
X1736Y756D01*
X1737Y757D01*
X1737Y758D01*
X1738Y759D01*
X1738Y761D01*
X1739Y762D01*
X1739Y763D01*
X1740Y764D01*
X1740Y765D01*
X1741Y766D01*
X1741Y767D01*
X1742Y768D01*
X1742Y769D01*
X1743Y770D01*
X1744Y771D01*
X1744Y772D01*
X1745Y773D01*
X1746Y774D01*
X1746Y775D01*
X1747Y776D01*
X1748Y777D01*
X1749Y778D01*
X1750Y779D01*
X1751Y780D01*
X1752Y781D01*
X1753Y782D01*
X1754Y782D01*
X1755Y783D01*
X1756Y784D01*
X1757Y784D01*
X1758Y785D01*
X1759Y785D01*
X1760Y786D01*
X1761Y786D01*
X1762Y787D01*
X1763Y787D01*
X1764Y787D01*
X1765Y787D01*
X1766Y788D01*
D02*
G04 End of contour*
M02*