<?xml version="1.0" encoding="UTF-8" standalone="no"?>
<!-- Generator: Adobe Illustrator 16.0.0, SVG Export Plug-In . SVG Version: 6.00 Build 0)  -->

<svg
   version="1.1"
   x="0px"
   y="0px"
   width="230"
   height="260"
   viewBox="0 0 230 260"
   enable-background="new 0 0 406 444.263"
   xml:space="preserve"
   id="svg87"
   sodipodi:docname="regulations.svg"
   inkscape:version="1.3 (0e150ed6c4, 2023-07-21)"
   inkscape:export-filename="regulations.png"
   inkscape:export-xdpi="800"
   inkscape:export-ydpi="800"
   xmlns:inkscape="http://www.inkscape.org/namespaces/inkscape"
   xmlns:sodipodi="http://sodipodi.sourceforge.net/DTD/sodipodi-0.dtd"
   xmlns:xlink="http://www.w3.org/1999/xlink"
   xmlns="http://www.w3.org/2000/svg"
   xmlns:svg="http://www.w3.org/2000/svg"><defs
   id="defs87"><linearGradient
     id="linearGradient60"
     inkscape:collect="always"><stop
       style="stop-color:#e0e0e0;stop-opacity:1;"
       offset="0"
       id="stop60" /><stop
       style="stop-color:#e1e1e1;stop-opacity:0;"
       offset="1"
       id="stop61" /></linearGradient><clipPath
     clipPathUnits="userSpaceOnUse"
     id="clipPath33"><rect
       style="fill:#000000;stroke:none;stroke-width:0.999995;stroke-linecap:butt;stroke-linejoin:bevel;paint-order:stroke markers fill;stop-color:#000000"
       id="rect52"
       width="46.19186"
       height="80.006783"
       x="74.999985"
       y="399.99661" /></clipPath><clipPath
     clipPathUnits="userSpaceOnUse"
     id="clipPath55"><path
       id="path42"
       style="stroke-width:0.1;stroke-linecap:square;paint-order:markers fill stroke;stop-color:#000000"
       d="m 1736.6147,-745.57287 h 1589.4765 v 72.46715 H 1736.6147 Z" /></clipPath><clipPath
     clipPathUnits="userSpaceOnUse"
     id="clipPath24"><rect
       style="fill:none;stroke:#000000;stroke-width:0.999999;stroke-linecap:butt;stroke-linejoin:bevel;paint-order:stroke markers fill;stop-color:#000000"
       id="rect26"
       width="44.999748"
       height="77.937294"
       x="251.53429"
       y="222.73541" /></clipPath><linearGradient
     id="swatch6"
     inkscape:swatch="solid"><stop
       style="stop-color:#dbdbdb;stop-opacity:1;"
       offset="0"
       id="stop7" /></linearGradient><radialGradient
     inkscape:collect="always"
     xlink:href="#linearGradient60"
     id="radialGradient61"
     cx="485.18967"
     cy="1173.4613"
     fx="485.18967"
     fy="1173.4613"
     r="203"
     gradientTransform="matrix(3.2835336,2.909385,-0.36620294,0.3872563,-974.59791,-1955.4435)"
     gradientUnits="userSpaceOnUse" /></defs><sodipodi:namedview
   id="namedview87"
   pagecolor="#ffffff"
   bordercolor="#000000"
   borderopacity="0.25"
   inkscape:showpageshadow="2"
   inkscape:pageopacity="0.0"
   inkscape:pagecheckerboard="0"
   inkscape:deskcolor="#d1d1d1"
   inkscape:zoom="1.4142136"
   inkscape:cx="100.40916"
   inkscape:cy="178.1909"
   inkscape:window-width="1920"
   inkscape:window-height="1009"
   inkscape:window-x="-8"
   inkscape:window-y="-8"
   inkscape:window-maximized="1"
   inkscape:current-layer="OBJECTS" />&#10;<g
   id="BACKGROUND"
   transform="scale(0.56650246,0.58523892)">&#10;	<rect
   opacity="0.4"
   fill="#ffca15"
   width="406"
   height="444.263"
   id="rect1"
   x="0"
   y="0"
   style="opacity:1;fill:url(#radialGradient61);fill-opacity:1"
   ry="1.5176339e-15" />&#10;	<ellipse
   opacity="0.15"
   fill="#75480c"
   cx="199.49001"
   cy="383.375"
   rx="184.858"
   ry="12.91"
   id="ellipse1" />&#10;</g>&#10;<g
   id="OBJECTS"
   transform="scale(0.56650246,0.58523892)">&#10;	<g
   id="g12">&#10;		<path
   fill="#ffffff"
   d="m 308.597,379.986 c 0,0 -12.946,-17.963 -0.938,-57.47 0.433,-0.433 -71.167,0 -71.167,0 l 4.962,58.135 z"
   id="path1" />&#10;		<path
   opacity="0.15"
   fill="#00495c"
   d="m 252.537,341.135 c 16,-0.945 32.147,-0.945 48.149,0 -16.002,0.945 -32.148,0.944 -48.149,0 z"
   id="path2" />&#10;		<path
   opacity="0.15"
   fill="#00495c"
   d="m 251.113,368.063 c 11.386,-0.944 18.729,-0.945 30.116,0 -11.388,0.945 -18.729,0.945 -30.116,0 z"
   id="path3" />&#10;		<path
   opacity="0.15"
   fill="#01708b"
   d="m 302.254,352.563 h -66.476 v 7.254 h 66.979 c -0.304,-2.409 -0.459,-4.831 -0.503,-7.254 z"
   id="path4" />&#10;		<path
   opacity="0.15"
   fill="#01708b"
   d="m 306.134,373.938 h -70.355 v 6.047 h 72.818 c -0.928,-1.982 -1.739,-4.003 -2.463,-6.047 z"
   id="path5" />&#10;		<path
   opacity="0.15"
   fill="#01708b"
   d="m 235.778,328.914 v 2.136 h 69.555 c 0.226,-0.718 0.495,-1.425 0.745,-2.136 z"
   id="path6" />&#10;		<path
   fill="#01a79d"
   d="m 245.877,322.949 h 69.44 V 319.46 H 247.709 243.164 69.882 c -14.495,0 -17.889,16.187 -18.749,26.246 v 11.283 c 0.747,9.451 4.253,26.246 18.749,26.246 h 173.282 v 0.142 h 72.153 v -3.489 h -69.37 c -9.259,-17.852 -9.28,-39.072 -0.07,-56.939 z"
   id="path7"
   sodipodi:nodetypes="cccccsccscccccc"
   style="fill:#abc863;fill-opacity:1" />&#10;		<path
   fill="none"
   stroke="#fcfff5"
   stroke-width="1.1403"
   stroke-miterlimit="10"
   d="M 227.787,375.017 H 68.576 c -2.558,0 -4.63,-2.073 -4.63,-4.63 v -40.361 c 0,-2.557 2.073,-4.63 4.63,-4.63 h 159.211 c 2.557,0 4.63,2.073 4.63,4.63 v 40.361 c 0,2.557 -2.073,4.63 -4.63,4.63 z"
   id="path8" />&#10;		<circle
   fill="none"
   stroke="#fcfff5"
   stroke-width="1.1403"
   stroke-miterlimit="10"
   cx="211.505"
   cy="349.91101"
   r="11.203"
   id="circle8" />&#10;		<g
   id="g9">&#10;			&#10;				<line
   fill="none"
   stroke="#fcfff5"
   stroke-width="1.1403"
   stroke-linecap="round"
   stroke-miterlimit="10"
   x1="189.10001"
   y1="332.612"
   x2="189.10001"
   y2="368.771"
   id="line8" />&#10;			&#10;				<line
   fill="none"
   stroke="#fcfff5"
   stroke-width="1.1403"
   stroke-linecap="round"
   stroke-miterlimit="10"
   x1="183.226"
   y1="332.612"
   x2="183.226"
   y2="368.771"
   id="line9" />&#10;		</g>&#10;		<g
   id="g11">&#10;			&#10;				<line
   fill="none"
   stroke="#fcfff5"
   stroke-width="1.1403"
   stroke-linecap="round"
   stroke-miterlimit="10"
   x1="92.327003"
   y1="330.38501"
   x2="92.327003"
   y2="366.54401"
   id="line10" />&#10;			&#10;				<line
   fill="none"
   stroke="#fcfff5"
   stroke-width="1.1403"
   stroke-linecap="round"
   stroke-miterlimit="10"
   x1="86.453003"
   y1="330.38501"
   x2="86.453003"
   y2="366.54401"
   id="line11" />&#10;		</g>&#10;		<path
   opacity="0.15"
   fill="#0c7475"
   d="m 315.317,383.375 v -3.489 h -69.37 c -2.95,-5.688 -4.953,-11.719 -6.028,-17.874 -69.393,-0.127 -159.276,-1.123 -188.397,-1.456 1.327,9.572 5.554,22.677 18.36,22.677 h 173.282 v 0.142 z"
   id="path11"
   sodipodi:nodetypes="cccccsccc" />&#10;	</g>&#10;	<g
   id="g18">&#10;		<g
   id="g17">&#10;			<path
   fill="#ffffff"
   d="M 242,132.15 H 134.014 c -13.233,-22.842 0,-36.992 0,-36.992 H 242 c 0,0 -9.709,16.489 0,36.992 z"
   id="path12" />&#10;			<path
   opacity="0.15"
   fill="#00495c"
   d="m 188.404,103.792 c 16,-0.944 32.147,-0.945 48.149,0 -16.003,0.944 -32.149,0.944 -48.149,0 z"
   id="path13" />&#10;			<path
   opacity="0.15"
   fill="#00495c"
   d="m 139.869,121.687 c 11.386,-0.944 18.729,-0.945 30.116,0 -11.388,0.945 -18.729,0.944 -30.116,0 z"
   id="path14" />&#10;			<path
   opacity="0.15"
   fill="#01708b"
   d="M 237.942,108.848 H 128.347 c -0.339,2.821 -0.311,6.036 0.366,9.613 h 109.282 c -0.422,-3.502 -0.371,-6.737 -0.053,-9.613 z"
   id="path15" />&#10;			<path
   opacity="0.15"
   fill="#01708b"
   d="M 134.014,132.15 H 242 c -0.786,-1.66 -1.433,-3.29 -1.979,-4.891 H 131.523 c 0.703,1.584 1.518,3.211 2.491,4.891 z"
   id="path16" />&#10;			<path
   opacity="0.15"
   fill="#01708b"
   d="m 132.503,97.174 c -0.58,0.887 -1.255,2.062 -1.901,3.499 h 109.084 c 0.46,-1.427 0.928,-2.602 1.324,-3.499 z"
   id="path17" />&#10;		</g>&#10;		<path
   fill="none"
   stroke="#eda156"
   stroke-width="3.421"
   stroke-miterlimit="10"
   d="M 248.888,95.158 H 132.146 c 0,0 -13.233,14.15 0,36.992 h 116.741"
   id="path18" />&#10;	</g>&#10;	<g
   id="g26">&#10;		<g
   id="g25">&#10;			<rect
   x="81.877998"
   y="299.74701"
   fill="#009ee5"
   width="204.88699"
   height="19.587999"
   id="rect18" />&#10;			<rect
   x="206.13"
   y="302.73401"
   fill="#ffffff"
   width="80.635002"
   height="13.443"
   id="rect19" />&#10;			&#10;				<line
   opacity="0.15"
   fill="none"
   stroke="#01a79d"
   stroke-width="1.1403"
   stroke-miterlimit="10"
   x1="206.13"
   y1="305.63501"
   x2="286.76501"
   y2="305.63501"
   id="line19" />&#10;			&#10;				<line
   opacity="0.15"
   fill="none"
   stroke="#01a79d"
   stroke-width="1.1403"
   stroke-miterlimit="10"
   x1="206.13"
   y1="310.05399"
   x2="286.76501"
   y2="310.05399"
   id="line20" />&#10;			<rect
   x="206.13"
   y="312.668"
   opacity="0.15"
   fill="#01708b"
   width="80.635002"
   height="3.51"
   id="rect20" />&#10;			<rect
   x="81.877998"
   y="316.17801"
   opacity="0.15"
   fill="#253745"
   width="204.88699"
   height="3.158"
   id="rect21" />&#10;			<rect
   x="89.844002"
   y="299.74701"
   fill="#253745"
   width="7.4679999"
   height="19.587999"
   id="rect22" />&#10;			<rect
   x="101.33"
   y="299.74701"
   fill="#253745"
   width="3.734"
   height="19.587999"
   id="rect23" />&#10;			<rect
   x="187.06"
   y="299.74701"
   fill="#253745"
   width="7.4689999"
   height="19.587999"
   id="rect24" />&#10;			<rect
   x="206.13"
   y="302.73401"
   opacity="0.15"
   fill="#253745"
   width="2.0280001"
   height="13.267"
   id="rect25" />&#10;			&#10;				<line
   fill="none"
   stroke="#253745"
   stroke-width="5.7017"
   stroke-miterlimit="10"
   x1="113.574"
   y1="309.36801"
   x2="178.55"
   y2="309.36801"
   id="line25" />&#10;		</g>&#10;		<polygon
   opacity="0.34"
   fill="#253745"
   points="149.785,300.372 172.654,316.001 192.819,300.372 "
   id="polygon25" />&#10;	</g>&#10;	<g
   id="g34">&#10;		<g
   id="g33">&#10;			<polygon
   fill="#ee4f3c"
   points="76.107,179.072 76.107,171.912 80.059,171.912 84.82,140.574 76.107,140.387 76.107,133.42 280.994,133.42 280.994,179.072 "
   id="polygon26"
   style="fill:#96989b;fill-opacity:1" />&#10;			<path
   fill="#ffffff"
   d="m 78.534,140.581 h 78.037 l 0.146,0.343 c 4.198,9.885 4.145,21.146 -0.146,30.988 v 0 H 78.534 Z"
   id="path26" />&#10;			<path
   opacity="0.15"
   fill="#01a79d"
   d="m 159.214,163.103 h -80.4 v 1.505 h 80.109 c 0.108,-0.501 0.202,-1.003 0.291,-1.505 z"
   id="path27" />&#10;			<path
   opacity="0.15"
   fill="#01a79d"
   d="M 159.666,152.753 H 78.814 v 1.607 h 80.965 c -0.025,-0.536 -0.066,-1.072 -0.113,-1.607 z"
   id="path28" />&#10;			<path
   opacity="0.15"
   fill="#01708b"
   d="m 156.716,140.924 -0.146,-0.343 H 78.814 v 6.884 h 80.008 c -0.51,-2.225 -1.203,-4.416 -2.106,-6.541 z"
   id="path29" />&#10;			<path
   opacity="0.15"
   fill="#253745"
   d="m 156.57,140.581 h -5.312 v 31.331 h 5.312 c 4.291,-9.842 4.344,-21.103 0.146,-30.988 z"
   id="path30" />&#10;			<rect
   x="76.107002"
   y="133.696"
   opacity="0.15"
   fill="#253745"
   width="204.88699"
   height="5.5890002"
   id="rect30" />&#10;			<rect
   x="265.55899"
   y="133.42"
   fill="#ffffff"
   width="7.4689999"
   height="45.652"
   id="rect31" />&#10;			<rect
   x="257.80801"
   y="133.42"
   fill="#ffffff"
   width="3.733"
   height="45.652"
   id="rect32" />&#10;			<rect
   x="168.343"
   y="133.42"
   fill="#ffffff"
   width="7.4689999"
   height="45.652"
   id="rect33" />&#10;		</g>&#10;		<rect
   x="183.064"
   y="146.27499"
   opacity="0.15"
   fill="#253745"
   width="68.049004"
   height="21.347"
   id="rect34" />&#10;	</g>&#10;	<g
   id="g44">&#10;		<g
   id="g42">&#10;			<path
   fill="#ffffff"
   d="m 96.866,258.998 c 0,0 -6.313,10.143 -6.313,19.387 0,9.245 5.104,18.843 5.104,18.843 l 75.449,0.565 -0.11,-38.251 z"
   id="path34" />&#10;			<path
   fill="#f4f0ed"
   d="m 171.49,257.852 c 0,0 -5.8,9.761 -5.8,19.499 0,9.738 5.104,19.847 5.104,19.847 l 90.776,0.595 -0.183,-0.572 c -4.131,-12.921 -4.105,-26.812 0.072,-39.717 v 0 z"
   id="path35" />&#10;			<path
   opacity="0.15"
   fill="#5e3619"
   d="m 186.318,271.743 c 14.021,-0.828 28.173,-0.828 42.197,0 -14.025,0.828 -28.175,0.828 -42.197,0 z"
   id="path36" />&#10;			<path
   opacity="0.15"
   fill="#5e3619"
   d="m 103.438,282.11 c 9.206,-0.828 18.497,-0.828 27.704,0 -9.208,0.828 -18.498,0.828 -27.704,0 z"
   id="path37" />&#10;			<path
   opacity="0.15"
   fill="#5e3619"
   d="m 123.158,267.419 c 9.206,-0.828 18.497,-0.828 27.704,0 -9.208,0.828 -18.497,0.828 -27.704,0 z"
   id="path38" />&#10;			<path
   opacity="0.15"
   fill="#5e3619"
   d="m 207.416,289.793 c 14.022,-0.828 28.174,-0.828 42.197,0 -14.025,0.829 -28.174,0.828 -42.197,0 z"
   id="path39" />&#10;			<path
   opacity="0.15"
   fill="#5e3619"
   d="m 123.158,291.034 c 12.403,0.732 24.904,0.814 37.331,0.251 -0.029,-0.169 -0.06,-0.338 -0.088,-0.507 -12.398,-0.558 -24.871,-0.474 -37.243,0.256 z"
   id="path40" />&#10;			<path
   fill="none"
   stroke="#eda156"
   stroke-width="3.421"
   stroke-miterlimit="10"
   d="M 171.119,298.691 H 96.417 l -1.24,-2.274 c -6.417,-11.771 -5.942,-26.098 1.24,-37.419 v 0 h 74.702"
   id="path41" />&#10;			<rect
   x="171.104"
   y="257.31699"
   fill="#ea8e42"
   width="95.349998"
   height="3.3610001"
   id="rect41" />&#10;			<rect
   x="171.198"
   y="297.01001"
   fill="#ea8e42"
   width="95.350998"
   height="3.3610001"
   id="rect42" />&#10;		</g>&#10;		<g
   id="g43">&#10;			<polygon
   fill="#b44858"
   points="233.455,278.396 248.057,278.396 248.057,309.456 240.756,305.635 233.455,309.456 "
   id="polygon42"
   style="fill:#ffca15;fill-opacity:1" />&#10;			<rect
   x="233.455"
   y="278.396"
   opacity="0.15"
   fill="#253745"
   width="14.602"
   height="4.336"
   id="rect43" />&#10;		</g>&#10;	</g>&#10;	<g
   id="g51">&#10;		<rect
   x="115.042"
   y="207.63499"
   fill="#8f268b"
   width="173.88"
   height="49.681999"
   id="rect44"
   style="fill:#709a35;fill-opacity:1" />&#10;		<rect
   x="133.334"
   y="207.63499"
   fill="#ea8e42"
   width="7.4689999"
   height="49.681999"
   id="rect45" />&#10;		<rect
   x="262.43799"
   y="207.63499"
   fill="#ea8e42"
   width="7.4679999"
   height="49.681999"
   id="rect46" />&#10;		<rect
   x="276.612"
   y="207.63499"
   fill="#ea8e42"
   width="3.734"
   height="49.681999"
   id="rect47" />&#10;		<rect
   x="115.042"
   y="244.479"
   opacity="0.15"
   fill="#253745"
   width="173.88"
   height="12.837"
   id="rect48"
   style="fill:#0e4422;fill-opacity:1" />&#10;		<rect
   x="115.042"
   y="207.63499"
   opacity="0.15"
   fill="#253745"
   width="173.88"
   height="7.4689999"
   id="rect49" />&#10;		<rect
   x="115.042"
   y="215.60899"
   opacity="0.2"
   fill="#ad38ad"
   width="173.88"
   height="5.9710002"
   id="rect50"
   style="fill:#0e4422;fill-opacity:1" />&#10;		<rect
   x="115.042"
   y="238.44701"
   opacity="0.2"
   fill="#ad38ad"
   width="173.88"
   height="5.9710002"
   id="rect51"
   style="fill:#709a35;fill-opacity:1" />&#10;	</g>&#10;	<g
   id="g65">&#10;		<g
   id="g63">&#10;			<path
   fill="#009ee5"
   d="m 101.33,207.94 h 190.047 c 8.196,0 14.84,-6.644 14.84,-14.841 v 0 c 0,-8.196 -6.644,-14.84 -14.84,-14.84 H 101.33 v 1.519 l 29.065,0.467 2.987,25.598 -32.053,0.355 v 1.742 z"
   id="path51" />&#10;			<g
   id="g56">&#10;				<path
   fill="#ffffff"
   d="m 104.721,205.957 85.395,-0.761 0.158,-0.483 c 2.63,-8.015 2.573,-16.938 -0.158,-24.904 v 0 h -85.868 v 0 c 0.346,0.609 6.014,4.036 5.64,13.893 -0.289,7.621 -4.909,13.054 -5.167,12.255 z"
   id="path52" />&#10;				<path
   opacity="0.15"
   fill="#01a79d"
   d="m 106.528,182.181 h 84.292 c -0.216,-0.796 -0.437,-1.592 -0.704,-2.372 h -85.868 c 0.139,0.246 1.151,0.965 2.28,2.372 z"
   id="path53" />&#10;				<path
   opacity="0.15"
   fill="#01a79d"
   d="m 190.8,202.852 c 0.214,-0.785 0.403,-1.574 0.567,-2.372 h -82.005 c -0.403,0.894 -0.843,1.693 -1.284,2.372 z"
   id="path54" />&#10;				<path
   opacity="0.15"
   fill="#01a79d"
   d="m 109.889,192.695 h 82.302 c 0.011,-2.241 -0.153,-4.482 -0.519,-6.689 H 108.72 c 0.683,1.756 1.157,3.962 1.169,6.689 z"
   id="path55" />&#10;				<path
   opacity="0.15"
   fill="#8999a1"
   d="m 190.116,179.809 h -3.836 c 1.577,2.942 2.896,7.024 2.744,12.572 -0.148,5.377 -1.135,9.638 -2.271,12.845 l 3.364,-0.03 0.158,-0.483 c 2.629,-8.015 2.573,-16.938 -0.159,-24.904 z"
   id="path56" />&#10;			</g>&#10;			<path
   opacity="0.15"
   fill="#253745"
   d="m 299.995,205.166 c -35.747,-0.121 -166.612,0.676 -166.612,0.676 l -32.053,0.355 v 1.743 h 190.047 c 3.217,0 6.187,-1.035 8.618,-2.774 z"
   id="path57" />&#10;			<path
   opacity="0.15"
   fill="#253745"
   d="M 291.377,178.259 H 101.33 v 1.519 l 29.937,-0.093 58.849,0.125 1.251,3.983 h 111.561 c -2.721,-3.373 -6.881,-5.534 -11.551,-5.534 z"
   id="path58" />&#10;			&#10;				<line
   opacity="0.15"
   fill="none"
   stroke="#253745"
   stroke-width="0.5702"
   stroke-miterlimit="10"
   x1="108.078"
   y1="184.569"
   x2="191.367"
   y2="184.569"
   id="line58" />&#10;			&#10;				<line
   opacity="0.15"
   fill="none"
   stroke="#253745"
   stroke-width="0.5702"
   stroke-miterlimit="10"
   x1="109.716"
   y1="196.659"
   x2="192.13499"
   y2="196.858"
   id="line59" />&#10;			&#10;				<line
   opacity="0.15"
   fill="none"
   stroke="#253745"
   stroke-width="0.5702"
   stroke-miterlimit="10"
   x1="107.741"
   y1="202.95599"
   x2="190.8"
   y2="202.95599"
   id="line60" />&#10;			<g
   id="g61">&#10;				<rect
   x="203.302"
   y="178.259"
   fill="#253745"
   width="0.94300002"
   height="29.681"
   id="rect60" />&#10;				<rect
   x="214.194"
   y="178.259"
   fill="#253745"
   width="0.94300002"
   height="29.681"
   id="rect61" />&#10;			</g>&#10;			<g
   id="g62">&#10;				<path
   fill="#253745"
   d="m 293.127,178.492 0.049,0.075 c 5.55,8.585 5.712,19.783 0.413,28.526 l -0.443,0.732 c 0.263,-0.031 0.522,-0.074 0.781,-0.12 l 0.182,-0.298 c 5.37,-8.86 5.25,-20.182 -0.276,-28.93 -0.234,-0.039 -0.468,-0.08 -0.705,-0.107 v 0.122 z"
   id="path61" />&#10;				<path
   fill="#253745"
   d="m 284.808,178.259 h -0.623 c -2.25,9.777 -2.007,20.002 0.73,29.681 h 0.632 c -2.767,-9.675 -3.013,-19.906 -0.739,-29.681 z"
   id="path62" />&#10;			</g>&#10;			<rect
   x="217.03"
   y="189.02"
   opacity="0.15"
   fill="#334e63"
   width="64.353996"
   height="10.207"
   id="rect62" />&#10;		</g>&#10;		<g
   id="g64"
   transform="matrix(1,0,0,0.59324636,0,87.250151)">&#10;			<polygon
   fill="#01a79d"
   points="178.405,238.967 171.104,235.146 163.803,238.967 163.803,190.827 178.405,190.827 "
   id="polygon63"
   style="fill:#96989b;fill-opacity:1" />&#10;			<rect
   x="163.804"
   y="190.827"
   opacity="0.15"
   fill="#253745"
   width="14.602"
   height="4.336"
   id="rect63" />&#10;		</g>&#10;	</g><g
   id="g66"
   style="stroke:#000000;stroke-opacity:1;stroke-width:0.30566462;stroke-dasharray:none">&#10;			<path
   fill="#edefef"
   d="m 226.234,20.137 -4.07,10.412 c 0,0 -22.467,14.134 -28.461,45.674 -1.343,7.069 1.55628,-9.097 0.48728,-1.246 0,0 -3.23328,-19.111 20.44772,-43.307 -0.165,-0.29 9.586,-9.996 11.596,-11.533 z"
   id="path65"
   style="stroke:#9f9f9f;stroke-width:0.305665;stroke-dasharray:none;stroke-opacity:1"
   sodipodi:nodetypes="cccccc" />&#10;			<path
   fill="#f4f6f5"
   d="m 226.234,20.137 c -8.196,6.647 -15.823,14.047 -22.229,22.481 -3.168,4.255 -6.052,8.815 -7.934,13.937 -1.706,4.679 -2.516,19.752 -2.368,19.668 l 0.001,0.001 c 0.403,-0.221 0.011,0.425 -0.001,-0.001 -0.129,-4.5 3.157,-13.947 4.639,-18.908 1.507,-4.863 4.068,-9.451 6.964,-13.771 5.901,-8.646 13.134,-16.407 20.928,-23.407 z"
   id="path66"
   style="stroke:#9f9f9f;stroke-width:0.305665;stroke-dasharray:none;stroke-opacity:1"
   sodipodi:nodetypes="ccccccccc" />&#10;		</g>&#10;	<g
   id="g83">&#10;		&#10;		<path
   fill="#dce4e5"
   d="m 279.542,56.85 -14.338,4.031 c 0,0 -5.791,-2.308 -13.919,-2.612 -17.52,-0.655 -27.927,3.902 -34.385,6.218 l -15.541,8.213 -1.87,-2.97 c 0,0 27.718,-18.421 41.043,-18.12 29.036,0.655 39.01,5.24 39.01,5.24 z"
   id="path69" /><path
   fill="#dce4e5"
   d="m 138.122,41.009 5.243,5.329 c 0,0 18.447,-2.074 41.589,21.067 5.087,5.088 0.332,-4.777 5.13,1.528 0,0 -5.458,-15.173 -37.987,-24.561 0,-0.332 -11.468,-3.016 -13.975,-3.363 z"
   id="path67" /><path
   fill="#dce4e5"
   d="m 106.757,56.708 14.338,4.031 c 0,0 5.791,-2.308 13.919,-2.612 17.52,-0.655 27.927,3.902 34.384,6.219 l 15.541,8.213 1.87,-2.971 c 0,0 -27.718,-18.421 -41.043,-18.12 -29.036,0.656 -39.009,5.24 -39.009,5.24 z"
   id="path68" /><path
   fill="#f4f6f5"
   d="m 279.892,56.708 c 0,0 -26.457,-10.042 -57.021,2.51 -10.426,3.93 -11.872,5.158 -15.127,7.926 -3.6,3.061 -7.685,13.612 -7.157,12.721 l -13.392,-2.458 6.508,-1.184 c 0,0 30.392,-27.4 55.932,-26.501 21.702,0.764 30.257,6.986 30.257,6.986 z"
   id="path73"
   style="stroke:#9f9f9f;stroke-width:0.305665;stroke-dasharray:none;stroke-opacity:1"
   sodipodi:nodetypes="cccccccc" /><path
   fill="#f4f6f5"
   d="m 137.684,40.935 c 10.407,1.746 20.69,4.427 30.421,8.61 4.853,2.141 9.61,4.688 13.771,8.219 3.79,3.231 4.655,7.902 8.67,12.479 -0.354,2.16 4.332,6.567 3.235,3.236 1.235,3.751 -2.412,2.251 -2.412,2.251 -0.46,0.006 -3.891,-5.496 -4.09,-5.872 -2.105,-3.979 -3.27,-6.727 -7.003,-10.313 -3.707,-3.489 -8.196,-6.219 -12.845,-8.552 -9.398,-4.618 -19.516,-7.806 -29.747,-10.058 z"
   id="path74"
   style="stroke:#9f9f9f;stroke-width:0.305665;stroke-dasharray:none;stroke-opacity:1"
   sodipodi:nodetypes="cccccccccc" />&#10;		<path
   fill="#f4f6f5"
   d="m 106.975,56.708 c 0,0 23.87325,-13.627433 54.43725,-1.075433 24.0535,11.032064 20.44575,9.175848 24.0535,11.032064 3.6,3.061 1.34125,14.091369 0.81325,13.200369 l 4.267,-9.622 c 0,0 -27.775,-21.42 -53.315,-20.521 -21.702,0.764 -30.256,6.986 -30.256,6.986 z"
   id="path72"
   style="stroke:#9f9f9f;stroke-width:0.305665;stroke-dasharray:none;stroke-opacity:1"
   sodipodi:nodetypes="ccccccc" />&#10;		&#10;		<path
   fill="#f4f6f5"
   d="m 153.204,63.501 c -26.997,3.274 -60.922,13.313 -61.574,13.965 0.272,0.697 0.504,1.438 0.7,2.207 0.127,0.498 3.489,0.366 3.489,0.366 l -2.988,1.637 c 0.082,0.597 0.149,1.209 0.205,1.827 0.016,0.169 2.047,-0.197 2.047,-0.026 0,0.328 -1.964,1.053 -1.947,1.312 0.308,4.707 0.023,9.313 0.023,9.313 l 90.025,-10.744 c 0,0 11.235,-3.55 11.005,-5.874 C 193.304,68.577 180.2,60.226 153.204,63.501 Z"
   id="path70"
   style="stroke:#9f9f9f;stroke-opacity:1;stroke-width:0.30566462;stroke-dasharray:none" />&#10;		&#10;		&#10;		&#10;		&#10;		<path
   fill="#f4f6f5"
   d="m 233.818,67.699 c 26.997,3.274 47.874,10.742 48.526,11.393 -0.273,0.697 -0.019,2.8 -0.214,3.569 -0.127,0.498 -3.489,0.365 -3.489,0.365 l 2.988,1.638 c -0.082,0.597 -0.149,1.209 -0.205,1.827 -0.016,0.169 -2.047,-0.197 -2.047,-0.026 0,0.327 1.965,1.052 1.947,1.311 -0.309,4.707 -0.549,6.326 -0.549,6.326 L 190.75,83.357 c 0,0 1.225,-1.429 1.456,-3.753 0.884,-8.907 14.616,-15.18 41.612,-11.905 z"
   id="path71"
   style="stroke:#9f9f9f;stroke-opacity:1;stroke-width:0.30566462;stroke-dasharray:none" /><path
   opacity="0.15"
   fill="#778084"
   d="m 170.409,67.699 c -10.868,1.957 -22.945,3.828 -33.939,5.236 10.948,-2.919 22.441,-4.699 33.939,-5.236 z"
   id="path75" />&#10;		<path
   opacity="0.15"
   fill="#778084"
   d="m 234.145,72.358 c 10.867,1.957 22.944,3.828 33.938,5.236 -10.948,-2.919 -22.441,-4.698 -33.938,-5.236 z"
   id="path76" />&#10;		<path
   opacity="0.15"
   fill="#778084"
   d="m 180.555,74.977 c -10.075,1.741 -61.063,6.23 -72.96,7.926 -13.014,1.856 32.235,-5.356 43.733,-5.894 z"
   id="path77" />&#10;		<g
   opacity="0.15"
   id="g78">&#10;			<path
   fill="#778084"
   d="m 100.015,88.652 c 3.723,-1.543 7.767,-2.355 11.797,-2.359 -2.95,0.541 -8.867,1.725 -11.797,2.359 z"
   id="path78" />&#10;		</g>&#10;		<g
   opacity="0.15"
   id="g79"
   style="stroke:#000000;stroke-opacity:1;stroke-width:0.30566462;stroke-dasharray:none">&#10;			<path
   fill="#778084"
   d="m 217.657,78.493 c 8.426,-0.88 16.935,-0.358 25.35,0.442 8.381,1.013 16.859,2.482 24.65,5.84 -1.018,-0.294 -2.028,-0.597 -3.033,-0.911 -15.293,-3.947 -31.211,-5.187 -46.967,-5.371 z"
   id="path79"
   style="stroke:#000000;stroke-opacity:1;stroke-width:0.30566462;stroke-dasharray:none" />&#10;		</g>&#10;		<g
   opacity="0.15"
   id="g80">&#10;			<path
   fill="#778084"
   d="m 245.166,84.419 c 3.404,-0.186 6.677,0.34 9.847,1.599 -3.38,0.195 -6.701,-0.35 -9.847,-1.599 z"
   id="path80" />&#10;		</g>&#10;		<path
   fill="#778084"
   d="m 204.253,84.41 c 0,0 -4.059,-8.187 -10.55,-8.187 -6.491,0 -12.476,8.187 -12.476,8.187 0,0 1.72,6.447 11.513,6.447 9.793,0 11.513,-0.879 11.513,-6.447 z"
   id="path81" />&#10;		&#10;			<line
   fill="none"
   stroke="#ffca15"
   stroke-width="3.5771"
   stroke-linecap="round"
   stroke-miterlimit="10"
   x1="91.112"
   y1="95.735001"
   x2="181.828"
   y2="85.249001"
   id="line81"
   style="stroke:#ffca15;stroke-opacity:1" />&#10;		&#10;			<line
   fill="none"
   stroke="#ffca15"
   stroke-width="3.5771"
   stroke-linecap="round"
   stroke-miterlimit="10"
   x1="204.25301"
   y1="85.218002"
   x2="287.37399"
   y2="97.890999"
   id="line82"
   style="stroke:#ffca15;stroke-opacity:1" />&#10;		<path
   fill="none"
   stroke="#ffca15"
   stroke-width="3.5349"
   stroke-linecap="round"
   stroke-miterlimit="10"
   d="m 204.253,85.784 c 0,3.488 -4.902,6.316 -10.949,6.316 -6.047,0 -10.949,-2.828 -10.949,-6.316"
   id="path82"
   style="stroke:#af8700;stroke-opacity:1" />&#10;		<path
   opacity="0.15"
   fill="#4b5254"
   d="m 193.704,76.224 c -5.242,0 -10.15,5.335 -11.846,7.39 0.261,-0.126 0.54,-0.267 0.835,-0.414 2.241,-1.12 4.366,-2.327 6.794,-3.03 3.565,-1.034 7.578,-1.061 10.818,0.749 1.223,0.683 2.296,1.6 3.382,2.493 -1.317,-2.177 -4.898,-7.188 -9.983,-7.188 z"
   id="path83" />&#10;	</g>&#10;	<g
   id="g87">&#10;		&#10;			<rect
   x="310.90601"
   y="221.968"
   transform="matrix(0.9566,-0.2913,0.2913,0.9566,-73.6378,108.8347)"
   fill="#eda156"
   width="35.605999"
   height="159.532"
   id="rect83"
   style="fill:#ffca15;fill-opacity:1" />&#10;		<polygon
   opacity="0.2"
   fill="#ffffff"
   points="322.505,220.242 315.929,222.244 361.809,375.038 368.974,372.855 "
   id="polygon83" />&#10;		&#10;			<rect
   x="292.88901"
   y="236.39101"
   transform="matrix(-0.9566,0.2913,-0.2913,-0.9566,678.567,384.1063)"
   fill="#ffd4ae"
   width="35.605999"
   height="12.344"
   id="rect84" />&#10;		&#10;			<rect
   x="330.84799"
   y="365.022"
   transform="matrix(0.9566,-0.2913,0.2913,0.9566,-91.7939,117.4622)"
   fill="#ffd4ae"
   width="35.548"
   height="4.033"
   id="rect85" />&#10;		&#10;			<rect
   x="328.57199"
   y="357.548"
   transform="matrix(0.9566,-0.2913,0.2913,0.9566,-89.7167,116.4776)"
   fill="#ffd4ae"
   width="35.549"
   height="4.033"
   id="rect86" />&#10;		<polygon
   opacity="0.15"
   fill="#b44959"
   points="295.053,228.601 288.443,230.613 334.912,383.227 344.605,380.275 "
   id="polygon86" />&#10;		&#10;			<rect
   x="332.647"
   y="372.23499"
   transform="matrix(-0.9566,0.2913,-0.2913,-0.9566,794.3887,628.0129)"
   fill="#ce7525"
   width="35.605"
   height="1.801"
   id="rect87" />&#10;		<path
   fill="#ce7525"
   d="m 296.472,228.72 c 0.595,1.694 2.049,2.942 3.814,3.273 l 4.907,0.921 c 1.766,0.332 3.572,-0.304 4.742,-1.667 l 3.252,-3.79 c 1.111,-1.295 1.475,-3.058 0.999,-4.684 l -17.89,5.447 z"
   id="path87" />&#10;	</g>&#10;	&#10;		&#10;<text
   xml:space="preserve"
   style="font-weight:600;font-size:17.3794px;font-family:Poppins;-inkscape-font-specification:'Poppins Semi-Bold';fill:#ffffff;fill-opacity:1;stroke:none;stroke-width:4.88797;stroke-linecap:round;stroke-linejoin:round;stroke-miterlimit:16.2;stroke-opacity:1;paint-order:fill markers stroke"
   x="136.12703"
   y="349.26654"
   id="text106"
   transform="matrix(1.3413317,0,0,1.0712163,-44.365453,-30.79262)"><tspan
     sodipodi:role="line"
     id="tspan106"
     style="text-align:center;text-anchor:middle;stroke-width:4.88797"
     x="136.12703"
     y="349.26654">Dam </tspan><tspan
     sodipodi:role="line"
     style="text-align:center;text-anchor:middle;stroke-width:4.88797"
     x="136.12703"
     y="370.99078"
     id="tspan107">safety</tspan></text></g>&#10;</svg>
