; NON-PLATED HOLES START AT T1
; THROUGH (PLATED) HOLES START AT T100
M48
INCH
T100C0.038000
T101C0.035000
T102C0.025000
T103C0.032778
T104C0.040639
T105C0.039370
T106C0.015748
T107C0.038522
%
T100
X002972Y013889
X020301Y003054
X030334Y007377
X013592Y003054
X002175Y003054
X029750Y003054
X002972Y010889
X017523Y014661
X014592Y003054
X028750Y003054
X015592Y003054
X023435Y003054
X018301Y003054
X008836Y003054
X018523Y014661
X019301Y003054
X009836Y003054
X030750Y003054
X019523Y014661
X013224Y007377
X025435Y003054
X012224Y007377
X004175Y003054
X003175Y003054
X029334Y007377
X024435Y003054
X011224Y007377
X010836Y003054
X002972Y011889
X002972Y012889
X027578Y010133
X026578Y010133
T101
X028366Y015054
X011830Y005409
X007106Y001818
X002728Y005015
X029941Y013873
X030531Y014858
X007106Y004818
X026941Y013873
X030531Y017858
X025366Y015054
X008830Y005409
X005728Y005015
T102
X028366Y017023
X026004Y017023
X026792Y017023
X027578Y017023
T103
X005728Y006377
X005728Y007377
X005728Y009377
X005728Y008377
T104
X003917Y017543
X007917Y017543
X020917Y017543
X007917Y016543
X012917Y016543
X006917Y017543
X018917Y016543
X002917Y016543
X017917Y017543
X021917Y017543
X014917Y016543
X011917Y017543
X016917Y017543
X003917Y016543
X012917Y017543
X011917Y016543
X005917Y017543
X009917Y016543
X006917Y016543
X005917Y016543
X019917Y016543
X016917Y016543
X004917Y017543
X021917Y016543
X013917Y016543
X008917Y016543
X004917Y016543
X010917Y016543
X013917Y017543
X015917Y016543
X015917Y017543
X018917Y017543
X019917Y017543
X020917Y016543
X002917Y017543
X009917Y017543
X008917Y017543
X010917Y017543
X014917Y017543
X017917Y016543
T105
X016673Y007377
X017673Y007377
X015673Y007377
X022673Y007377
X020673Y007377
X021673Y007377
X024673Y007377
X018673Y007377
X019673Y007377
X023673Y007377
T106
X004350Y011708
T107
X013079Y009117
X009074Y012117
X009074Y011117
X009074Y010117
X013074Y014121
X009070Y014121
X013078Y010117
X009074Y009117
X013078Y012117
X013079Y013117
X013079Y011117
X009074Y013117
T00
M30
