G04 MADE WITH FRITZING*
G04 WWW.FRITZING.ORG*
G04 DOUBLE SIDED*
G04 HOLES PLATED*
G04 CONTOUR ON CENTER OF CONTOUR VECTOR*
%ASAXBY*%
%FSLAX23Y23*%
%MOIN*%
%OFA0B0*%
%SFA1.0B1.0*%
%ADD10C,0.075000*%
%ADD11C,0.049370*%
%ADD12C,0.088000*%
%ADD13C,0.084803*%
%ADD14C,0.080000*%
%ADD15C,0.085361*%
%ADD16C,0.085000*%
%ADD17C,0.076111*%
%ADD18R,0.088000X0.088000*%
%LNMASK1*%
G90*
G70*
G54D10*
X2600Y1702D03*
X2679Y1702D03*
X2758Y1702D03*
X2837Y1702D03*
G54D11*
X435Y1171D03*
G54D12*
X218Y305D03*
X318Y305D03*
X418Y305D03*
X884Y305D03*
X984Y305D03*
X1084Y305D03*
X1359Y305D03*
X1459Y305D03*
X1559Y305D03*
X1830Y305D03*
X1930Y305D03*
X2030Y305D03*
X2344Y305D03*
X2444Y305D03*
X2544Y305D03*
X2875Y305D03*
X2975Y305D03*
X3075Y305D03*
G54D13*
X907Y1412D03*
X907Y912D03*
X907Y1012D03*
X907Y1112D03*
X907Y1212D03*
X907Y1312D03*
X1307Y1412D03*
X1308Y912D03*
X1308Y1012D03*
X1308Y1112D03*
X1308Y1212D03*
X1308Y1312D03*
G54D12*
X2933Y738D03*
X3033Y738D03*
G54D14*
X2467Y738D03*
X2367Y738D03*
X2267Y738D03*
X2167Y738D03*
X2067Y738D03*
X1967Y738D03*
X1867Y738D03*
X1767Y738D03*
X1667Y738D03*
X1567Y738D03*
G54D15*
X292Y1654D03*
X392Y1654D03*
X492Y1654D03*
X592Y1654D03*
X692Y1654D03*
X792Y1654D03*
X892Y1654D03*
X992Y1654D03*
X1092Y1654D03*
X1192Y1654D03*
X1292Y1654D03*
X1392Y1654D03*
X1492Y1654D03*
X1592Y1654D03*
X1692Y1654D03*
X1792Y1654D03*
X1892Y1654D03*
X1992Y1654D03*
X2092Y1654D03*
X2192Y1654D03*
X2192Y1754D03*
X2092Y1754D03*
X1992Y1754D03*
X1892Y1754D03*
X1792Y1754D03*
X1692Y1754D03*
X1592Y1754D03*
X1492Y1754D03*
X1392Y1754D03*
X1292Y1754D03*
X1192Y1754D03*
X1092Y1754D03*
X992Y1754D03*
X892Y1754D03*
X792Y1754D03*
X692Y1754D03*
X592Y1754D03*
X492Y1754D03*
X392Y1754D03*
X292Y1754D03*
G54D12*
X2658Y1013D03*
X2758Y1013D03*
G54D16*
X711Y182D03*
X711Y482D03*
X883Y541D03*
X1183Y541D03*
X3053Y1786D03*
X3053Y1486D03*
X2537Y1505D03*
X2837Y1505D03*
X2694Y1387D03*
X2994Y1387D03*
X273Y502D03*
X573Y502D03*
G54D12*
X297Y1389D03*
X297Y1289D03*
X297Y1189D03*
X297Y1089D03*
X1752Y1466D03*
X1852Y1466D03*
X1952Y1466D03*
X1122Y738D03*
X1222Y738D03*
X1322Y738D03*
G54D17*
X573Y938D03*
X573Y838D03*
X573Y638D03*
X573Y738D03*
G54D18*
X218Y305D03*
X884Y305D03*
X1359Y305D03*
X1830Y305D03*
X2344Y305D03*
X2875Y305D03*
X2933Y738D03*
X1752Y1466D03*
X1122Y738D03*
G04 End of Mask1*
M02*