G04 MADE WITH FRITZING*
G04 WWW.FRITZING.ORG*
G04 DOUBLE SIDED*
G04 HOLES PLATED*
G04 CONTOUR ON CENTER OF CONTOUR VECTOR*
%ASAXBY*%
%FSLAX23Y23*%
%MOIN*%
%OFA0B0*%
%SFA1.0B1.0*%
%ADD10R,3.271650X2.047240X3.255650X2.031240*%
%ADD11C,0.008000*%
%ADD12R,0.001000X0.001000*%
%LNSILK0*%
G90*
G70*
G54D11*
X4Y2043D02*
X3268Y2043D01*
X3268Y4D01*
X4Y4D01*
X4Y2043D01*
D02*
G36*
X2202Y1119D02*
X2202Y1116D01*
X2192Y1116D01*
X2192Y1112D01*
X2191Y1112D01*
X2191Y1109D01*
X2189Y1109D01*
X2189Y1104D01*
X2188Y1104D01*
X2188Y1101D01*
X2186Y1101D01*
X2186Y1097D01*
X2185Y1097D01*
X2185Y1094D01*
X2183Y1094D01*
X2183Y1091D01*
X2182Y1091D01*
X2182Y1087D01*
X2180Y1087D01*
X2180Y1084D01*
X2179Y1084D01*
X2179Y1080D01*
X2178Y1080D01*
X2178Y1077D01*
X2176Y1077D01*
X2176Y1072D01*
X2175Y1072D01*
X2175Y1070D01*
X2173Y1070D01*
X2173Y1065D01*
X2172Y1065D01*
X2172Y1062D01*
X2170Y1062D01*
X2170Y1059D01*
X2169Y1059D01*
X2169Y1055D01*
X2167Y1055D01*
X2167Y1052D01*
X2166Y1052D01*
X2166Y1048D01*
X2165Y1048D01*
X2165Y1046D01*
X2159Y1046D01*
X2159Y1049D01*
X2160Y1049D01*
X2160Y1054D01*
X2162Y1054D01*
X2162Y1056D01*
X2163Y1056D01*
X2163Y1061D01*
X2165Y1061D01*
X2165Y1064D01*
X2166Y1064D01*
X2166Y1068D01*
X2167Y1068D01*
X2167Y1071D01*
X2169Y1071D01*
X2169Y1074D01*
X2170Y1074D01*
X2170Y1078D01*
X2172Y1078D01*
X2172Y1081D01*
X2173Y1081D01*
X2173Y1085D01*
X2175Y1085D01*
X2175Y1088D01*
X2176Y1088D01*
X2176Y1093D01*
X2178Y1093D01*
X2178Y1096D01*
X2179Y1096D01*
X2179Y1099D01*
X2180Y1099D01*
X2180Y1103D01*
X2182Y1103D01*
X2182Y1106D01*
X2183Y1106D01*
X2183Y1110D01*
X2185Y1110D01*
X2185Y1113D01*
X2186Y1113D01*
X2186Y1117D01*
X2194Y1117D01*
X2194Y1119D01*
X2202Y1119D01*
G37*
D02*
G36*
X2202Y1116D02*
X2202Y1045D01*
X2194Y1045D01*
X2194Y1116D01*
X2202Y1116D01*
G37*
D02*
G36*
X2157Y1119D02*
X2157Y1045D01*
X2149Y1045D01*
X2149Y1119D01*
X2157Y1119D01*
G37*
D02*
G36*
X2215Y1117D02*
X2215Y1116D01*
X2217Y1116D01*
X2217Y1113D01*
X2218Y1113D01*
X2218Y1109D01*
X2220Y1109D01*
X2220Y1106D01*
X2221Y1106D01*
X2221Y1101D01*
X2223Y1101D01*
X2223Y1099D01*
X2224Y1099D01*
X2224Y1094D01*
X2225Y1094D01*
X2225Y1091D01*
X2227Y1091D01*
X2227Y1087D01*
X2228Y1087D01*
X2228Y1084D01*
X2230Y1084D01*
X2230Y1081D01*
X2231Y1081D01*
X2231Y1077D01*
X2233Y1077D01*
X2233Y1074D01*
X2234Y1074D01*
X2234Y1070D01*
X2236Y1070D01*
X2236Y1067D01*
X2237Y1067D01*
X2237Y1062D01*
X2238Y1062D01*
X2238Y1059D01*
X2240Y1059D01*
X2240Y1055D01*
X2241Y1055D01*
X2241Y1052D01*
X2243Y1052D01*
X2243Y1049D01*
X2244Y1049D01*
X2244Y1046D01*
X2208Y1046D01*
X2208Y1052D01*
X2236Y1052D01*
X2236Y1054D01*
X2234Y1054D01*
X2234Y1058D01*
X2233Y1058D01*
X2233Y1061D01*
X2231Y1061D01*
X2231Y1065D01*
X2230Y1065D01*
X2230Y1068D01*
X2228Y1068D01*
X2228Y1072D01*
X2227Y1072D01*
X2227Y1075D01*
X2225Y1075D01*
X2225Y1078D01*
X2224Y1078D01*
X2224Y1083D01*
X2223Y1083D01*
X2223Y1085D01*
X2221Y1085D01*
X2221Y1090D01*
X2220Y1090D01*
X2220Y1093D01*
X2218Y1093D01*
X2218Y1097D01*
X2217Y1097D01*
X2217Y1100D01*
X2215Y1100D01*
X2215Y1104D01*
X2214Y1104D01*
X2214Y1107D01*
X2212Y1107D01*
X2212Y1110D01*
X2211Y1110D01*
X2211Y1114D01*
X2209Y1114D01*
X2209Y1117D01*
X2215Y1117D01*
G37*
D02*
G36*
X2143Y1117D02*
X2143Y1046D01*
X2104Y1046D01*
X2104Y1055D01*
X2134Y1055D01*
X2134Y1078D01*
X2109Y1078D01*
X2109Y1085D01*
X2134Y1085D01*
X2134Y1109D01*
X2104Y1109D01*
X2104Y1117D01*
X2143Y1117D01*
G37*
D02*
G36*
X2059Y1117D02*
X2059Y1116D01*
X2060Y1116D01*
X2060Y1114D01*
X2063Y1114D01*
X2063Y1113D01*
X2064Y1113D01*
X2064Y1112D01*
X2066Y1112D01*
X2066Y1110D01*
X2069Y1110D01*
X2069Y1109D01*
X2070Y1109D01*
X2070Y1107D01*
X2073Y1107D01*
X2073Y1106D01*
X2075Y1106D01*
X2075Y1104D01*
X2076Y1104D01*
X2076Y1103D01*
X2079Y1103D01*
X2079Y1101D01*
X2080Y1101D01*
X2080Y1100D01*
X2083Y1100D01*
X2083Y1099D01*
X2085Y1099D01*
X2085Y1097D01*
X2088Y1097D01*
X2088Y1096D01*
X2089Y1096D01*
X2089Y1094D01*
X2091Y1094D01*
X2091Y1093D01*
X2093Y1093D01*
X2093Y1091D01*
X2095Y1091D01*
X2095Y1090D01*
X2098Y1090D01*
X2098Y1088D01*
X2099Y1088D01*
X2099Y1087D01*
X2101Y1087D01*
X2101Y1085D01*
X2102Y1085D01*
X2102Y1077D01*
X2099Y1077D01*
X2099Y1075D01*
X2098Y1075D01*
X2098Y1074D01*
X2095Y1074D01*
X2095Y1072D01*
X2093Y1072D01*
X2093Y1071D01*
X2091Y1071D01*
X2091Y1070D01*
X2089Y1070D01*
X2089Y1068D01*
X2088Y1068D01*
X2088Y1067D01*
X2085Y1067D01*
X2085Y1065D01*
X2083Y1065D01*
X2083Y1064D01*
X2080Y1064D01*
X2080Y1062D01*
X2079Y1062D01*
X2079Y1061D01*
X2077Y1061D01*
X2077Y1059D01*
X2075Y1059D01*
X2075Y1058D01*
X2073Y1058D01*
X2073Y1056D01*
X2070Y1056D01*
X2070Y1055D01*
X2069Y1055D01*
X2069Y1054D01*
X2066Y1054D01*
X2066Y1052D01*
X2064Y1052D01*
X2064Y1051D01*
X2063Y1051D01*
X2063Y1049D01*
X2060Y1049D01*
X2060Y1048D01*
X2059Y1048D01*
X2059Y1046D01*
X2057Y1046D01*
X2057Y1058D01*
X2059Y1058D01*
X2059Y1059D01*
X2060Y1059D01*
X2060Y1061D01*
X2063Y1061D01*
X2063Y1062D01*
X2064Y1062D01*
X2064Y1064D01*
X2066Y1064D01*
X2066Y1065D01*
X2069Y1065D01*
X2069Y1067D01*
X2070Y1067D01*
X2070Y1068D01*
X2073Y1068D01*
X2073Y1070D01*
X2075Y1070D01*
X2075Y1071D01*
X2076Y1071D01*
X2076Y1072D01*
X2079Y1072D01*
X2079Y1074D01*
X2080Y1074D01*
X2080Y1075D01*
X2083Y1075D01*
X2083Y1077D01*
X2085Y1077D01*
X2085Y1078D01*
X2086Y1078D01*
X2086Y1080D01*
X2089Y1080D01*
X2089Y1084D01*
X2086Y1084D01*
X2086Y1085D01*
X2085Y1085D01*
X2085Y1087D01*
X2082Y1087D01*
X2082Y1088D01*
X2080Y1088D01*
X2080Y1090D01*
X2079Y1090D01*
X2079Y1091D01*
X2076Y1091D01*
X2076Y1093D01*
X2075Y1093D01*
X2075Y1094D01*
X2073Y1094D01*
X2073Y1096D01*
X2070Y1096D01*
X2070Y1097D01*
X2069Y1097D01*
X2069Y1099D01*
X2066Y1099D01*
X2066Y1100D01*
X2064Y1100D01*
X2064Y1101D01*
X2063Y1101D01*
X2063Y1103D01*
X2060Y1103D01*
X2060Y1104D01*
X2059Y1104D01*
X2059Y1106D01*
X2057Y1106D01*
X2057Y1117D01*
X2059Y1117D01*
G37*
D02*
G36*
X2401Y897D02*
X2401Y887D01*
X2398Y887D01*
X2398Y888D01*
X2395Y888D01*
X2395Y890D01*
X2394Y890D01*
X2394Y894D01*
X2395Y894D01*
X2395Y895D01*
X2397Y895D01*
X2397Y897D01*
X2401Y897D01*
G37*
D02*
G36*
X2368Y897D02*
X2368Y895D01*
X2369Y895D01*
X2369Y894D01*
X2370Y894D01*
X2370Y893D01*
X2372Y893D01*
X2372Y891D01*
X2373Y891D01*
X2373Y887D01*
X2375Y887D01*
X2375Y881D01*
X2373Y881D01*
X2373Y877D01*
X2372Y877D01*
X2372Y874D01*
X2370Y874D01*
X2370Y872D01*
X2369Y872D01*
X2369Y871D01*
X2359Y871D01*
X2359Y872D01*
X2357Y872D01*
X2357Y874D01*
X2356Y874D01*
X2356Y875D01*
X2355Y875D01*
X2355Y878D01*
X2353Y878D01*
X2353Y888D01*
X2355Y888D01*
X2355Y891D01*
X2356Y891D01*
X2356Y894D01*
X2357Y894D01*
X2357Y895D01*
X2360Y895D01*
X2360Y897D01*
X2368Y897D01*
G37*
D02*
G36*
X2334Y897D02*
X2334Y885D01*
X2330Y885D01*
X2330Y887D01*
X2328Y887D01*
X2328Y888D01*
X2327Y888D01*
X2327Y894D01*
X2328Y894D01*
X2328Y895D01*
X2330Y895D01*
X2330Y897D01*
X2334Y897D01*
G37*
D02*
G36*
X2244Y897D02*
X2244Y895D01*
X2246Y895D01*
X2246Y894D01*
X2247Y894D01*
X2247Y893D01*
X2249Y893D01*
X2249Y891D01*
X2250Y891D01*
X2250Y884D01*
X2252Y884D01*
X2252Y882D01*
X2250Y882D01*
X2250Y877D01*
X2249Y877D01*
X2249Y874D01*
X2247Y874D01*
X2247Y872D01*
X2244Y872D01*
X2244Y871D01*
X2236Y871D01*
X2236Y872D01*
X2234Y872D01*
X2234Y874D01*
X2233Y874D01*
X2233Y875D01*
X2231Y875D01*
X2231Y878D01*
X2230Y878D01*
X2230Y890D01*
X2231Y890D01*
X2231Y893D01*
X2233Y893D01*
X2233Y894D01*
X2234Y894D01*
X2234Y895D01*
X2237Y895D01*
X2237Y897D01*
X2244Y897D01*
G37*
D02*
G36*
X2211Y897D02*
X2211Y885D01*
X2207Y885D01*
X2207Y887D01*
X2205Y887D01*
X2205Y888D01*
X2204Y888D01*
X2204Y895D01*
X2207Y895D01*
X2207Y897D01*
X2211Y897D01*
G37*
D02*
G36*
X2163Y897D02*
X2163Y895D01*
X2165Y895D01*
X2165Y894D01*
X2166Y894D01*
X2166Y893D01*
X2167Y893D01*
X2167Y891D01*
X2169Y891D01*
X2169Y887D01*
X2170Y887D01*
X2170Y881D01*
X2169Y881D01*
X2169Y877D01*
X2167Y877D01*
X2167Y874D01*
X2166Y874D01*
X2166Y872D01*
X2165Y872D01*
X2165Y871D01*
X2154Y871D01*
X2154Y872D01*
X2153Y872D01*
X2153Y874D01*
X2151Y874D01*
X2151Y875D01*
X2150Y875D01*
X2150Y878D01*
X2149Y878D01*
X2149Y888D01*
X2150Y888D01*
X2150Y891D01*
X2151Y891D01*
X2151Y894D01*
X2153Y894D01*
X2153Y895D01*
X2156Y895D01*
X2156Y897D01*
X2163Y897D01*
G37*
D02*
G36*
X1998Y897D02*
X1998Y895D01*
X2001Y895D01*
X2001Y894D01*
X2002Y894D01*
X2002Y893D01*
X2004Y893D01*
X2004Y888D01*
X2005Y888D01*
X2005Y878D01*
X2004Y878D01*
X2004Y875D01*
X2002Y875D01*
X2002Y874D01*
X2001Y874D01*
X2001Y872D01*
X1999Y872D01*
X1999Y871D01*
X1989Y871D01*
X1989Y872D01*
X1988Y872D01*
X1988Y874D01*
X1986Y874D01*
X1986Y877D01*
X1985Y877D01*
X1985Y881D01*
X1983Y881D01*
X1983Y887D01*
X1985Y887D01*
X1985Y891D01*
X1986Y891D01*
X1986Y893D01*
X1988Y893D01*
X1988Y894D01*
X1989Y894D01*
X1989Y895D01*
X1990Y895D01*
X1990Y897D01*
X1998Y897D01*
G37*
D02*
G36*
X1922Y891D02*
X1922Y887D01*
X1924Y887D01*
X1924Y882D01*
X1925Y882D01*
X1925Y880D01*
X1918Y880D01*
X1918Y881D01*
X1919Y881D01*
X1919Y887D01*
X1921Y887D01*
X1921Y891D01*
X1922Y891D01*
G37*
D02*
G36*
X2429Y890D02*
X2429Y885D01*
X2430Y885D01*
X2430Y881D01*
X2431Y881D01*
X2431Y880D01*
X2424Y880D01*
X2424Y882D01*
X2426Y882D01*
X2426Y888D01*
X2427Y888D01*
X2427Y890D01*
X2429Y890D01*
G37*
D02*
G36*
X2301Y890D02*
X2301Y885D01*
X2302Y885D01*
X2302Y881D01*
X2304Y881D01*
X2304Y880D01*
X2297Y880D01*
X2297Y882D01*
X2298Y882D01*
X2298Y887D01*
X2299Y887D01*
X2299Y890D01*
X2301Y890D01*
G37*
D02*
G36*
X2075Y890D02*
X2075Y885D01*
X2076Y885D01*
X2076Y881D01*
X2077Y881D01*
X2077Y880D01*
X2070Y880D01*
X2070Y882D01*
X2072Y882D01*
X2072Y887D01*
X2073Y887D01*
X2073Y890D01*
X2075Y890D01*
G37*
D02*
G36*
X2401Y881D02*
X2401Y871D01*
X2394Y871D01*
X2394Y872D01*
X2392Y872D01*
X2392Y880D01*
X2395Y880D01*
X2395Y881D01*
X2401Y881D01*
G37*
D02*
G36*
X2466Y1220D02*
X2466Y1217D01*
X2166Y1217D01*
X2166Y1216D01*
X2151Y1216D01*
X2151Y1215D01*
X2143Y1215D01*
X2143Y1213D01*
X2137Y1213D01*
X2137Y1212D01*
X2133Y1212D01*
X2133Y1210D01*
X2128Y1210D01*
X2128Y1209D01*
X2124Y1209D01*
X2124Y1207D01*
X2120Y1207D01*
X2120Y1206D01*
X2117Y1206D01*
X2117Y1204D01*
X2114Y1204D01*
X2114Y1203D01*
X2111Y1203D01*
X2111Y1202D01*
X2108Y1202D01*
X2108Y1200D01*
X2105Y1200D01*
X2105Y1199D01*
X2104Y1199D01*
X2104Y1197D01*
X2101Y1197D01*
X2101Y1196D01*
X2098Y1196D01*
X2098Y1194D01*
X2096Y1194D01*
X2096Y1193D01*
X2093Y1193D01*
X2093Y1191D01*
X2092Y1191D01*
X2092Y1190D01*
X2091Y1190D01*
X2091Y1188D01*
X2088Y1188D01*
X2088Y1187D01*
X2086Y1187D01*
X2086Y1186D01*
X2085Y1186D01*
X2085Y1184D01*
X2083Y1184D01*
X2083Y1183D01*
X2082Y1183D01*
X2082Y1181D01*
X2080Y1181D01*
X2080Y1180D01*
X2079Y1180D01*
X2079Y1178D01*
X2077Y1178D01*
X2077Y1177D01*
X2076Y1177D01*
X2076Y1175D01*
X2075Y1175D01*
X2075Y1174D01*
X2073Y1174D01*
X2073Y1172D01*
X2072Y1172D01*
X2072Y1171D01*
X2070Y1171D01*
X2070Y1170D01*
X2069Y1170D01*
X2069Y1168D01*
X2067Y1168D01*
X2067Y1167D01*
X2066Y1167D01*
X2066Y1164D01*
X2064Y1164D01*
X2064Y1162D01*
X2063Y1162D01*
X2063Y1161D01*
X2062Y1161D01*
X2062Y1158D01*
X2060Y1158D01*
X2060Y1157D01*
X2059Y1157D01*
X2059Y1154D01*
X2057Y1154D01*
X2057Y1151D01*
X2056Y1151D01*
X2056Y1149D01*
X2054Y1149D01*
X2054Y1146D01*
X2053Y1146D01*
X2053Y1143D01*
X2051Y1143D01*
X2051Y1141D01*
X2050Y1141D01*
X2050Y1138D01*
X2048Y1138D01*
X2048Y1135D01*
X2047Y1135D01*
X2047Y1130D01*
X2046Y1130D01*
X2046Y1126D01*
X2044Y1126D01*
X2044Y1122D01*
X2043Y1122D01*
X2043Y1117D01*
X2041Y1117D01*
X2041Y1112D01*
X2040Y1112D01*
X2040Y1103D01*
X2038Y1103D01*
X2038Y1088D01*
X2037Y1088D01*
X2037Y1075D01*
X2038Y1075D01*
X2038Y1061D01*
X2040Y1061D01*
X2040Y1052D01*
X2041Y1052D01*
X2041Y1046D01*
X2043Y1046D01*
X2043Y1042D01*
X2044Y1042D01*
X2044Y1038D01*
X2046Y1038D01*
X2046Y1033D01*
X2047Y1033D01*
X2047Y1029D01*
X2048Y1029D01*
X2048Y1026D01*
X2050Y1026D01*
X2050Y1023D01*
X2051Y1023D01*
X2051Y1020D01*
X2053Y1020D01*
X2053Y1017D01*
X2054Y1017D01*
X2054Y1014D01*
X2056Y1014D01*
X2056Y1013D01*
X2057Y1013D01*
X2057Y1010D01*
X2059Y1010D01*
X2059Y1007D01*
X2060Y1007D01*
X2060Y1006D01*
X2062Y1006D01*
X2062Y1003D01*
X2063Y1003D01*
X2063Y1001D01*
X2064Y1001D01*
X2064Y1000D01*
X2066Y1000D01*
X2066Y997D01*
X2067Y997D01*
X2067Y996D01*
X2069Y996D01*
X2069Y994D01*
X2070Y994D01*
X2070Y993D01*
X2072Y993D01*
X2072Y991D01*
X2073Y991D01*
X2073Y990D01*
X2075Y990D01*
X2075Y988D01*
X2076Y988D01*
X2076Y987D01*
X2077Y987D01*
X2077Y985D01*
X2079Y985D01*
X2079Y984D01*
X2080Y984D01*
X2080Y982D01*
X2082Y982D01*
X2082Y981D01*
X2083Y981D01*
X2083Y980D01*
X2085Y980D01*
X2085Y978D01*
X2086Y978D01*
X2086Y977D01*
X2088Y977D01*
X2088Y975D01*
X2091Y975D01*
X2091Y974D01*
X2092Y974D01*
X2092Y972D01*
X2093Y972D01*
X2093Y971D01*
X2096Y971D01*
X2096Y969D01*
X2098Y969D01*
X2098Y968D01*
X2101Y968D01*
X2101Y967D01*
X2102Y967D01*
X2102Y965D01*
X2105Y965D01*
X2105Y964D01*
X2108Y964D01*
X2108Y962D01*
X2111Y962D01*
X2111Y961D01*
X2114Y961D01*
X2114Y959D01*
X2117Y959D01*
X2117Y958D01*
X2120Y958D01*
X2120Y956D01*
X2124Y956D01*
X2124Y955D01*
X2128Y955D01*
X2128Y953D01*
X2133Y953D01*
X2133Y952D01*
X2137Y952D01*
X2137Y951D01*
X2143Y951D01*
X2143Y949D01*
X2151Y949D01*
X2151Y948D01*
X2165Y948D01*
X2165Y946D01*
X1876Y946D01*
X1876Y1220D01*
X2466Y1220D01*
G37*
D02*
G36*
X2466Y1217D02*
X2466Y946D01*
X2180Y946D01*
X2180Y948D01*
X2195Y948D01*
X2195Y949D01*
X2202Y949D01*
X2202Y951D01*
X2208Y951D01*
X2208Y952D01*
X2212Y952D01*
X2212Y953D01*
X2218Y953D01*
X2218Y955D01*
X2221Y955D01*
X2221Y956D01*
X2225Y956D01*
X2225Y958D01*
X2228Y958D01*
X2228Y959D01*
X2231Y959D01*
X2231Y961D01*
X2234Y961D01*
X2234Y962D01*
X2237Y962D01*
X2237Y964D01*
X2240Y964D01*
X2240Y965D01*
X2243Y965D01*
X2243Y967D01*
X2244Y967D01*
X2244Y968D01*
X2247Y968D01*
X2247Y969D01*
X2249Y969D01*
X2249Y971D01*
X2252Y971D01*
X2252Y972D01*
X2253Y972D01*
X2253Y974D01*
X2254Y974D01*
X2254Y975D01*
X2257Y975D01*
X2257Y977D01*
X2259Y977D01*
X2259Y978D01*
X2260Y978D01*
X2260Y980D01*
X2262Y980D01*
X2262Y981D01*
X2263Y981D01*
X2263Y982D01*
X2265Y982D01*
X2265Y984D01*
X2268Y984D01*
X2268Y985D01*
X2269Y985D01*
X2269Y987D01*
X2270Y987D01*
X2270Y990D01*
X2272Y990D01*
X2272Y991D01*
X2273Y991D01*
X2273Y993D01*
X2275Y993D01*
X2275Y994D01*
X2276Y994D01*
X2276Y996D01*
X2278Y996D01*
X2278Y997D01*
X2279Y997D01*
X2279Y1000D01*
X2281Y1000D01*
X2281Y1001D01*
X2282Y1001D01*
X2282Y1003D01*
X2283Y1003D01*
X2283Y1006D01*
X2285Y1006D01*
X2285Y1007D01*
X2286Y1007D01*
X2286Y1010D01*
X2288Y1010D01*
X2288Y1011D01*
X2289Y1011D01*
X2289Y1014D01*
X2291Y1014D01*
X2291Y1017D01*
X2292Y1017D01*
X2292Y1020D01*
X2294Y1020D01*
X2294Y1023D01*
X2295Y1023D01*
X2295Y1026D01*
X2297Y1026D01*
X2297Y1029D01*
X2298Y1029D01*
X2298Y1033D01*
X2299Y1033D01*
X2299Y1036D01*
X2301Y1036D01*
X2301Y1041D01*
X2302Y1041D01*
X2302Y1046D01*
X2304Y1046D01*
X2304Y1052D01*
X2305Y1052D01*
X2305Y1059D01*
X2307Y1059D01*
X2307Y1074D01*
X2308Y1074D01*
X2308Y1090D01*
X2307Y1090D01*
X2307Y1104D01*
X2305Y1104D01*
X2305Y1112D01*
X2304Y1112D01*
X2304Y1117D01*
X2302Y1117D01*
X2302Y1122D01*
X2301Y1122D01*
X2301Y1128D01*
X2299Y1128D01*
X2299Y1130D01*
X2298Y1130D01*
X2298Y1135D01*
X2297Y1135D01*
X2297Y1138D01*
X2295Y1138D01*
X2295Y1141D01*
X2294Y1141D01*
X2294Y1143D01*
X2292Y1143D01*
X2292Y1146D01*
X2291Y1146D01*
X2291Y1149D01*
X2289Y1149D01*
X2289Y1152D01*
X2288Y1152D01*
X2288Y1154D01*
X2286Y1154D01*
X2286Y1157D01*
X2285Y1157D01*
X2285Y1158D01*
X2283Y1158D01*
X2283Y1161D01*
X2282Y1161D01*
X2282Y1162D01*
X2281Y1162D01*
X2281Y1164D01*
X2279Y1164D01*
X2279Y1167D01*
X2278Y1167D01*
X2278Y1168D01*
X2276Y1168D01*
X2276Y1170D01*
X2275Y1170D01*
X2275Y1171D01*
X2273Y1171D01*
X2273Y1172D01*
X2272Y1172D01*
X2272Y1174D01*
X2270Y1174D01*
X2270Y1175D01*
X2269Y1175D01*
X2269Y1177D01*
X2268Y1177D01*
X2268Y1178D01*
X2266Y1178D01*
X2266Y1180D01*
X2265Y1180D01*
X2265Y1181D01*
X2263Y1181D01*
X2263Y1183D01*
X2262Y1183D01*
X2262Y1184D01*
X2260Y1184D01*
X2260Y1186D01*
X2259Y1186D01*
X2259Y1187D01*
X2257Y1187D01*
X2257Y1188D01*
X2254Y1188D01*
X2254Y1190D01*
X2253Y1190D01*
X2253Y1191D01*
X2252Y1191D01*
X2252Y1193D01*
X2249Y1193D01*
X2249Y1194D01*
X2247Y1194D01*
X2247Y1196D01*
X2244Y1196D01*
X2244Y1197D01*
X2243Y1197D01*
X2243Y1199D01*
X2240Y1199D01*
X2240Y1200D01*
X2237Y1200D01*
X2237Y1202D01*
X2234Y1202D01*
X2234Y1203D01*
X2231Y1203D01*
X2231Y1204D01*
X2228Y1204D01*
X2228Y1206D01*
X2225Y1206D01*
X2225Y1207D01*
X2221Y1207D01*
X2221Y1209D01*
X2217Y1209D01*
X2217Y1210D01*
X2212Y1210D01*
X2212Y1212D01*
X2208Y1212D01*
X2208Y1213D01*
X2202Y1213D01*
X2202Y1215D01*
X2194Y1215D01*
X2194Y1216D01*
X2179Y1216D01*
X2179Y1217D01*
X2466Y1217D01*
G37*
D02*
G36*
X2466Y946D02*
X2466Y945D01*
X1876Y945D01*
X1876Y946D01*
X2466Y946D01*
G37*
D02*
G36*
X2466Y946D02*
X2466Y945D01*
X1876Y945D01*
X1876Y946D01*
X2466Y946D01*
G37*
D02*
G36*
X2466Y945D02*
X2466Y914D01*
X2231Y914D01*
X2231Y911D01*
X2233Y911D01*
X2233Y910D01*
X2234Y910D01*
X2234Y907D01*
X2236Y907D01*
X2236Y906D01*
X2237Y906D01*
X2237Y904D01*
X1992Y904D01*
X1992Y903D01*
X1895Y903D01*
X1895Y871D01*
X1883Y871D01*
X1883Y864D01*
X1876Y864D01*
X1876Y945D01*
X2466Y945D01*
G37*
D02*
G36*
X2466Y914D02*
X2466Y904D01*
X2360Y904D01*
X2360Y903D01*
X2260Y903D01*
X2260Y897D01*
X2270Y897D01*
X2270Y864D01*
X2246Y864D01*
X2246Y865D01*
X2250Y865D01*
X2250Y866D01*
X2252Y866D01*
X2252Y868D01*
X2253Y868D01*
X2253Y869D01*
X2254Y869D01*
X2254Y871D01*
X2256Y871D01*
X2256Y875D01*
X2257Y875D01*
X2257Y893D01*
X2256Y893D01*
X2256Y895D01*
X2254Y895D01*
X2254Y897D01*
X2253Y897D01*
X2253Y900D01*
X2250Y900D01*
X2250Y901D01*
X2249Y901D01*
X2249Y903D01*
X2243Y903D01*
X2243Y904D01*
X2244Y904D01*
X2244Y906D01*
X2243Y906D01*
X2243Y909D01*
X2241Y909D01*
X2241Y911D01*
X2240Y911D01*
X2240Y914D01*
X2466Y914D01*
G37*
D02*
G36*
X2466Y904D02*
X2466Y903D01*
X2391Y903D01*
X2391Y901D01*
X2389Y901D01*
X2389Y900D01*
X2388Y900D01*
X2388Y897D01*
X2386Y897D01*
X2386Y890D01*
X2388Y890D01*
X2388Y887D01*
X2389Y887D01*
X2389Y885D01*
X2388Y885D01*
X2388Y884D01*
X2386Y884D01*
X2386Y882D01*
X2385Y882D01*
X2385Y869D01*
X2386Y869D01*
X2386Y868D01*
X2388Y868D01*
X2388Y866D01*
X2389Y866D01*
X2389Y865D01*
X2394Y865D01*
X2394Y864D01*
X2369Y864D01*
X2369Y865D01*
X2373Y865D01*
X2373Y866D01*
X2375Y866D01*
X2375Y868D01*
X2376Y868D01*
X2376Y869D01*
X2378Y869D01*
X2378Y871D01*
X2379Y871D01*
X2379Y874D01*
X2381Y874D01*
X2381Y880D01*
X2382Y880D01*
X2382Y887D01*
X2381Y887D01*
X2381Y893D01*
X2379Y893D01*
X2379Y895D01*
X2378Y895D01*
X2378Y898D01*
X2376Y898D01*
X2376Y900D01*
X2373Y900D01*
X2373Y901D01*
X2372Y901D01*
X2372Y903D01*
X2366Y903D01*
X2366Y904D01*
X2466Y904D01*
G37*
D02*
G36*
X2237Y904D02*
X2237Y903D01*
X2182Y903D01*
X2182Y864D01*
X2165Y864D01*
X2165Y865D01*
X2169Y865D01*
X2169Y866D01*
X2170Y866D01*
X2170Y868D01*
X2172Y868D01*
X2172Y869D01*
X2173Y869D01*
X2173Y871D01*
X2175Y871D01*
X2175Y874D01*
X2176Y874D01*
X2176Y880D01*
X2178Y880D01*
X2178Y887D01*
X2176Y887D01*
X2176Y893D01*
X2175Y893D01*
X2175Y895D01*
X2173Y895D01*
X2173Y898D01*
X2172Y898D01*
X2172Y900D01*
X2169Y900D01*
X2169Y901D01*
X2167Y901D01*
X2167Y903D01*
X2162Y903D01*
X2162Y904D01*
X2237Y904D01*
G37*
D02*
G36*
X2156Y904D02*
X2156Y903D01*
X2070Y903D01*
X2070Y900D01*
X2069Y900D01*
X2069Y895D01*
X2067Y895D01*
X2067Y891D01*
X2066Y891D01*
X2066Y888D01*
X2064Y888D01*
X2064Y884D01*
X2063Y884D01*
X2063Y880D01*
X2062Y880D01*
X2062Y875D01*
X2060Y875D01*
X2060Y871D01*
X2059Y871D01*
X2059Y868D01*
X2057Y868D01*
X2057Y864D01*
X2046Y864D01*
X2046Y865D01*
X2048Y865D01*
X2048Y866D01*
X2050Y866D01*
X2050Y868D01*
X2051Y868D01*
X2051Y869D01*
X2053Y869D01*
X2053Y871D01*
X2054Y871D01*
X2054Y874D01*
X2056Y874D01*
X2056Y878D01*
X2057Y878D01*
X2057Y888D01*
X2056Y888D01*
X2056Y893D01*
X2054Y893D01*
X2054Y895D01*
X2053Y895D01*
X2053Y898D01*
X2051Y898D01*
X2051Y900D01*
X2048Y900D01*
X2048Y901D01*
X2047Y901D01*
X2047Y903D01*
X2041Y903D01*
X2041Y904D01*
X2156Y904D01*
G37*
D02*
G36*
X2035Y904D02*
X2035Y903D01*
X2017Y903D01*
X2017Y864D01*
X2001Y864D01*
X2001Y865D01*
X2004Y865D01*
X2004Y866D01*
X2005Y866D01*
X2005Y868D01*
X2008Y868D01*
X2008Y871D01*
X2009Y871D01*
X2009Y872D01*
X2011Y872D01*
X2011Y877D01*
X2012Y877D01*
X2012Y890D01*
X2011Y890D01*
X2011Y894D01*
X2009Y894D01*
X2009Y897D01*
X2008Y897D01*
X2008Y898D01*
X2006Y898D01*
X2006Y900D01*
X2005Y900D01*
X2005Y901D01*
X2002Y901D01*
X2002Y903D01*
X1998Y903D01*
X1998Y904D01*
X2035Y904D01*
G37*
D02*
G36*
X2466Y903D02*
X2466Y864D01*
X2462Y864D01*
X2462Y903D01*
X2466Y903D01*
G37*
D02*
G36*
X2456Y903D02*
X2456Y871D01*
X2443Y871D01*
X2443Y868D01*
X2442Y868D01*
X2442Y871D01*
X2440Y871D01*
X2440Y875D01*
X2439Y875D01*
X2439Y880D01*
X2437Y880D01*
X2437Y884D01*
X2436Y884D01*
X2436Y888D01*
X2434Y888D01*
X2434Y893D01*
X2433Y893D01*
X2433Y897D01*
X2431Y897D01*
X2431Y901D01*
X2430Y901D01*
X2430Y903D01*
X2456Y903D01*
G37*
D02*
G36*
X2424Y903D02*
X2424Y900D01*
X2423Y900D01*
X2423Y895D01*
X2421Y895D01*
X2421Y893D01*
X2420Y893D01*
X2420Y888D01*
X2418Y888D01*
X2418Y884D01*
X2417Y884D01*
X2417Y880D01*
X2415Y880D01*
X2415Y875D01*
X2414Y875D01*
X2414Y872D01*
X2413Y872D01*
X2413Y868D01*
X2411Y868D01*
X2411Y864D01*
X2408Y864D01*
X2408Y903D01*
X2424Y903D01*
G37*
D02*
G36*
X2356Y903D02*
X2356Y901D01*
X2353Y901D01*
X2353Y900D01*
X2352Y900D01*
X2352Y898D01*
X2350Y898D01*
X2350Y897D01*
X2349Y897D01*
X2349Y894D01*
X2347Y894D01*
X2347Y890D01*
X2346Y890D01*
X2346Y877D01*
X2347Y877D01*
X2347Y872D01*
X2349Y872D01*
X2349Y871D01*
X2350Y871D01*
X2350Y869D01*
X2352Y869D01*
X2352Y868D01*
X2353Y868D01*
X2353Y866D01*
X2355Y866D01*
X2355Y865D01*
X2357Y865D01*
X2357Y864D01*
X2341Y864D01*
X2341Y903D01*
X2356Y903D01*
G37*
D02*
G36*
X2324Y903D02*
X2324Y901D01*
X2323Y901D01*
X2323Y900D01*
X2321Y900D01*
X2321Y898D01*
X2320Y898D01*
X2320Y887D01*
X2321Y887D01*
X2321Y884D01*
X2323Y884D01*
X2323Y882D01*
X2326Y882D01*
X2326Y881D01*
X2324Y881D01*
X2324Y880D01*
X2323Y880D01*
X2323Y877D01*
X2321Y877D01*
X2321Y875D01*
X2320Y875D01*
X2320Y872D01*
X2318Y872D01*
X2318Y869D01*
X2317Y869D01*
X2317Y866D01*
X2315Y866D01*
X2315Y868D01*
X2314Y868D01*
X2314Y872D01*
X2312Y872D01*
X2312Y877D01*
X2311Y877D01*
X2311Y881D01*
X2310Y881D01*
X2310Y884D01*
X2308Y884D01*
X2308Y888D01*
X2307Y888D01*
X2307Y893D01*
X2305Y893D01*
X2305Y897D01*
X2304Y897D01*
X2304Y901D01*
X2302Y901D01*
X2302Y903D01*
X2324Y903D01*
G37*
D02*
G36*
X2297Y903D02*
X2297Y900D01*
X2295Y900D01*
X2295Y895D01*
X2294Y895D01*
X2294Y891D01*
X2292Y891D01*
X2292Y887D01*
X2291Y887D01*
X2291Y884D01*
X2289Y884D01*
X2289Y880D01*
X2288Y880D01*
X2288Y875D01*
X2286Y875D01*
X2286Y871D01*
X2285Y871D01*
X2285Y866D01*
X2283Y866D01*
X2283Y864D01*
X2276Y864D01*
X2276Y897D01*
X2286Y897D01*
X2286Y903D01*
X2297Y903D01*
G37*
D02*
G36*
X2233Y903D02*
X2233Y901D01*
X2230Y901D01*
X2230Y900D01*
X2228Y900D01*
X2228Y898D01*
X2227Y898D01*
X2227Y897D01*
X2225Y897D01*
X2225Y895D01*
X2224Y895D01*
X2224Y891D01*
X2223Y891D01*
X2223Y877D01*
X2224Y877D01*
X2224Y872D01*
X2225Y872D01*
X2225Y871D01*
X2227Y871D01*
X2227Y868D01*
X2228Y868D01*
X2228Y866D01*
X2231Y866D01*
X2231Y865D01*
X2234Y865D01*
X2234Y864D01*
X2218Y864D01*
X2218Y903D01*
X2233Y903D01*
G37*
D02*
G36*
X2201Y903D02*
X2201Y901D01*
X2199Y901D01*
X2199Y900D01*
X2198Y900D01*
X2198Y898D01*
X2196Y898D01*
X2196Y887D01*
X2198Y887D01*
X2198Y884D01*
X2199Y884D01*
X2199Y882D01*
X2201Y882D01*
X2201Y880D01*
X2199Y880D01*
X2199Y878D01*
X2198Y878D01*
X2198Y875D01*
X2196Y875D01*
X2196Y872D01*
X2195Y872D01*
X2195Y869D01*
X2194Y869D01*
X2194Y866D01*
X2192Y866D01*
X2192Y864D01*
X2189Y864D01*
X2189Y903D01*
X2201Y903D01*
G37*
D02*
G36*
X2151Y903D02*
X2151Y901D01*
X2149Y901D01*
X2149Y900D01*
X2147Y900D01*
X2147Y898D01*
X2146Y898D01*
X2146Y897D01*
X2144Y897D01*
X2144Y894D01*
X2143Y894D01*
X2143Y890D01*
X2141Y890D01*
X2141Y877D01*
X2143Y877D01*
X2143Y872D01*
X2144Y872D01*
X2144Y871D01*
X2146Y871D01*
X2146Y869D01*
X2147Y869D01*
X2147Y868D01*
X2149Y868D01*
X2149Y866D01*
X2150Y866D01*
X2150Y865D01*
X2153Y865D01*
X2153Y864D01*
X2124Y864D01*
X2124Y903D01*
X2151Y903D01*
G37*
D02*
G36*
X2115Y903D02*
X2115Y900D01*
X2114Y900D01*
X2114Y898D01*
X2112Y898D01*
X2112Y895D01*
X2111Y895D01*
X2111Y894D01*
X2109Y894D01*
X2109Y891D01*
X2108Y891D01*
X2108Y890D01*
X2107Y890D01*
X2107Y887D01*
X2105Y887D01*
X2105Y885D01*
X2104Y885D01*
X2104Y884D01*
X2102Y884D01*
X2102Y881D01*
X2101Y881D01*
X2101Y880D01*
X2099Y880D01*
X2099Y903D01*
X2115Y903D01*
G37*
D02*
G36*
X2092Y903D02*
X2092Y864D01*
X2089Y864D01*
X2089Y868D01*
X2088Y868D01*
X2088Y872D01*
X2086Y872D01*
X2086Y877D01*
X2085Y877D01*
X2085Y880D01*
X2083Y880D01*
X2083Y884D01*
X2082Y884D01*
X2082Y888D01*
X2080Y888D01*
X2080Y893D01*
X2079Y893D01*
X2079Y897D01*
X2077Y897D01*
X2077Y901D01*
X2076Y901D01*
X2076Y903D01*
X2092Y903D01*
G37*
D02*
G36*
X2030Y903D02*
X2030Y901D01*
X2028Y901D01*
X2028Y894D01*
X2024Y894D01*
X2024Y903D01*
X2030Y903D01*
G37*
D02*
G36*
X1986Y903D02*
X1986Y901D01*
X1983Y901D01*
X1983Y900D01*
X1982Y900D01*
X1982Y898D01*
X1980Y898D01*
X1980Y895D01*
X1979Y895D01*
X1979Y893D01*
X1977Y893D01*
X1977Y888D01*
X1976Y888D01*
X1976Y880D01*
X1977Y880D01*
X1977Y874D01*
X1979Y874D01*
X1979Y871D01*
X1980Y871D01*
X1980Y869D01*
X1982Y869D01*
X1982Y868D01*
X1983Y868D01*
X1983Y866D01*
X1985Y866D01*
X1985Y865D01*
X1989Y865D01*
X1989Y864D01*
X1972Y864D01*
X1972Y903D01*
X1986Y903D01*
G37*
D02*
G36*
X1964Y903D02*
X1964Y901D01*
X1963Y901D01*
X1963Y900D01*
X1961Y900D01*
X1961Y897D01*
X1960Y897D01*
X1960Y895D01*
X1959Y895D01*
X1959Y893D01*
X1957Y893D01*
X1957Y891D01*
X1956Y891D01*
X1956Y890D01*
X1954Y890D01*
X1954Y887D01*
X1953Y887D01*
X1953Y885D01*
X1951Y885D01*
X1951Y882D01*
X1950Y882D01*
X1950Y881D01*
X1948Y881D01*
X1948Y878D01*
X1947Y878D01*
X1947Y903D01*
X1964Y903D01*
G37*
D02*
G36*
X1941Y903D02*
X1941Y864D01*
X1937Y864D01*
X1937Y868D01*
X1935Y868D01*
X1935Y872D01*
X1934Y872D01*
X1934Y877D01*
X1932Y877D01*
X1932Y881D01*
X1931Y881D01*
X1931Y885D01*
X1930Y885D01*
X1930Y890D01*
X1928Y890D01*
X1928Y894D01*
X1927Y894D01*
X1927Y898D01*
X1925Y898D01*
X1925Y903D01*
X1941Y903D01*
G37*
D02*
G36*
X1918Y903D02*
X1918Y898D01*
X1916Y898D01*
X1916Y895D01*
X1915Y895D01*
X1915Y891D01*
X1914Y891D01*
X1914Y887D01*
X1912Y887D01*
X1912Y882D01*
X1911Y882D01*
X1911Y878D01*
X1909Y878D01*
X1909Y874D01*
X1908Y874D01*
X1908Y871D01*
X1906Y871D01*
X1906Y866D01*
X1905Y866D01*
X1905Y864D01*
X1902Y864D01*
X1902Y903D01*
X1918Y903D01*
G37*
D02*
G36*
X2043Y897D02*
X2043Y895D01*
X2044Y895D01*
X2044Y894D01*
X2031Y894D01*
X2031Y895D01*
X2034Y895D01*
X2034Y897D01*
X2043Y897D01*
G37*
D02*
G36*
X2046Y894D02*
X2046Y893D01*
X2024Y893D01*
X2024Y894D01*
X2046Y894D01*
G37*
D02*
G36*
X2046Y894D02*
X2046Y893D01*
X2024Y893D01*
X2024Y894D01*
X2046Y894D01*
G37*
D02*
G36*
X2047Y893D02*
X2047Y891D01*
X2048Y891D01*
X2048Y887D01*
X2050Y887D01*
X2050Y881D01*
X2048Y881D01*
X2048Y877D01*
X2047Y877D01*
X2047Y874D01*
X2046Y874D01*
X2046Y872D01*
X2030Y872D01*
X2030Y871D01*
X2028Y871D01*
X2028Y866D01*
X2030Y866D01*
X2030Y865D01*
X2034Y865D01*
X2034Y864D01*
X2024Y864D01*
X2024Y893D01*
X2047Y893D01*
G37*
D02*
G36*
X2117Y888D02*
X2117Y864D01*
X2099Y864D01*
X2099Y865D01*
X2101Y865D01*
X2101Y868D01*
X2102Y868D01*
X2102Y869D01*
X2104Y869D01*
X2104Y872D01*
X2105Y872D01*
X2105Y874D01*
X2107Y874D01*
X2107Y877D01*
X2108Y877D01*
X2108Y878D01*
X2109Y878D01*
X2109Y881D01*
X2111Y881D01*
X2111Y882D01*
X2112Y882D01*
X2112Y885D01*
X2114Y885D01*
X2114Y887D01*
X2115Y887D01*
X2115Y888D01*
X2117Y888D01*
G37*
D02*
G36*
X1964Y888D02*
X1964Y864D01*
X1947Y864D01*
X1947Y865D01*
X1948Y865D01*
X1948Y868D01*
X1950Y868D01*
X1950Y869D01*
X1951Y869D01*
X1951Y871D01*
X1953Y871D01*
X1953Y874D01*
X1954Y874D01*
X1954Y875D01*
X1956Y875D01*
X1956Y878D01*
X1957Y878D01*
X1957Y880D01*
X1959Y880D01*
X1959Y882D01*
X1960Y882D01*
X1960Y884D01*
X1961Y884D01*
X1961Y887D01*
X1963Y887D01*
X1963Y888D01*
X1964Y888D01*
G37*
D02*
G36*
X2334Y880D02*
X2334Y864D01*
X2323Y864D01*
X2323Y865D01*
X2324Y865D01*
X2324Y866D01*
X2326Y866D01*
X2326Y869D01*
X2327Y869D01*
X2327Y872D01*
X2328Y872D01*
X2328Y875D01*
X2330Y875D01*
X2330Y877D01*
X2331Y877D01*
X2331Y880D01*
X2334Y880D01*
G37*
D02*
G36*
X2211Y880D02*
X2211Y864D01*
X2199Y864D01*
X2199Y865D01*
X2201Y865D01*
X2201Y868D01*
X2202Y868D01*
X2202Y869D01*
X2204Y869D01*
X2204Y872D01*
X2205Y872D01*
X2205Y875D01*
X2207Y875D01*
X2207Y878D01*
X2208Y878D01*
X2208Y880D01*
X2211Y880D01*
G37*
D02*
G36*
X2433Y874D02*
X2433Y872D01*
X2434Y872D01*
X2434Y868D01*
X2436Y868D01*
X2436Y864D01*
X2418Y864D01*
X2418Y866D01*
X2420Y866D01*
X2420Y871D01*
X2421Y871D01*
X2421Y874D01*
X2433Y874D01*
G37*
D02*
G36*
X2305Y874D02*
X2305Y872D01*
X2307Y872D01*
X2307Y868D01*
X2308Y868D01*
X2308Y864D01*
X2291Y864D01*
X2291Y865D01*
X2292Y865D01*
X2292Y869D01*
X2294Y869D01*
X2294Y874D01*
X2305Y874D01*
G37*
D02*
G36*
X2079Y874D02*
X2079Y872D01*
X2080Y872D01*
X2080Y868D01*
X2082Y868D01*
X2082Y864D01*
X2064Y864D01*
X2064Y866D01*
X2066Y866D01*
X2066Y869D01*
X2067Y869D01*
X2067Y874D01*
X2079Y874D01*
G37*
D02*
G36*
X1928Y874D02*
X1928Y869D01*
X1930Y869D01*
X1930Y865D01*
X1931Y865D01*
X1931Y864D01*
X1912Y864D01*
X1912Y865D01*
X1914Y865D01*
X1914Y869D01*
X1915Y869D01*
X1915Y872D01*
X1916Y872D01*
X1916Y874D01*
X1928Y874D01*
G37*
D02*
G36*
X2043Y872D02*
X2043Y871D01*
X2034Y871D01*
X2034Y872D01*
X2043Y872D01*
G37*
D02*
G36*
X2466Y864D02*
X2466Y862D01*
X1876Y862D01*
X1876Y864D01*
X2466Y864D01*
G37*
D02*
G36*
X2466Y864D02*
X2466Y862D01*
X1876Y862D01*
X1876Y864D01*
X2466Y864D01*
G37*
D02*
G36*
X2466Y864D02*
X2466Y862D01*
X1876Y862D01*
X1876Y864D01*
X2466Y864D01*
G37*
D02*
G36*
X2466Y864D02*
X2466Y862D01*
X1876Y862D01*
X1876Y864D01*
X2466Y864D01*
G37*
D02*
G36*
X2466Y864D02*
X2466Y862D01*
X1876Y862D01*
X1876Y864D01*
X2466Y864D01*
G37*
D02*
G36*
X2466Y864D02*
X2466Y862D01*
X1876Y862D01*
X1876Y864D01*
X2466Y864D01*
G37*
D02*
G36*
X2466Y864D02*
X2466Y862D01*
X1876Y862D01*
X1876Y864D01*
X2466Y864D01*
G37*
D02*
G36*
X2466Y864D02*
X2466Y862D01*
X1876Y862D01*
X1876Y864D01*
X2466Y864D01*
G37*
D02*
G36*
X2466Y864D02*
X2466Y862D01*
X1876Y862D01*
X1876Y864D01*
X2466Y864D01*
G37*
D02*
G36*
X2466Y864D02*
X2466Y862D01*
X1876Y862D01*
X1876Y864D01*
X2466Y864D01*
G37*
D02*
G36*
X2466Y864D02*
X2466Y862D01*
X1876Y862D01*
X1876Y864D01*
X2466Y864D01*
G37*
D02*
G36*
X2466Y864D02*
X2466Y862D01*
X1876Y862D01*
X1876Y864D01*
X2466Y864D01*
G37*
D02*
G36*
X2466Y864D02*
X2466Y862D01*
X1876Y862D01*
X1876Y864D01*
X2466Y864D01*
G37*
D02*
G36*
X2466Y864D02*
X2466Y862D01*
X1876Y862D01*
X1876Y864D01*
X2466Y864D01*
G37*
D02*
G36*
X2466Y864D02*
X2466Y862D01*
X1876Y862D01*
X1876Y864D01*
X2466Y864D01*
G37*
D02*
G36*
X2466Y864D02*
X2466Y862D01*
X1876Y862D01*
X1876Y864D01*
X2466Y864D01*
G37*
D02*
G36*
X2466Y864D02*
X2466Y862D01*
X1876Y862D01*
X1876Y864D01*
X2466Y864D01*
G37*
D02*
G36*
X2466Y864D02*
X2466Y862D01*
X1876Y862D01*
X1876Y864D01*
X2466Y864D01*
G37*
D02*
G36*
X2466Y864D02*
X2466Y862D01*
X1876Y862D01*
X1876Y864D01*
X2466Y864D01*
G37*
D02*
G36*
X2466Y864D02*
X2466Y862D01*
X1876Y862D01*
X1876Y864D01*
X2466Y864D01*
G37*
D02*
G36*
X2466Y864D02*
X2466Y862D01*
X1876Y862D01*
X1876Y864D01*
X2466Y864D01*
G37*
D02*
G36*
X2466Y864D02*
X2466Y862D01*
X1876Y862D01*
X1876Y864D01*
X2466Y864D01*
G37*
D02*
G36*
X2466Y864D02*
X2466Y862D01*
X1876Y862D01*
X1876Y864D01*
X2466Y864D01*
G37*
D02*
G36*
X2466Y864D02*
X2466Y862D01*
X1876Y862D01*
X1876Y864D01*
X2466Y864D01*
G37*
D02*
G36*
X2466Y864D02*
X2466Y862D01*
X1876Y862D01*
X1876Y864D01*
X2466Y864D01*
G37*
D02*
G36*
X2466Y864D02*
X2466Y862D01*
X1876Y862D01*
X1876Y864D01*
X2466Y864D01*
G37*
D02*
G36*
X2466Y862D02*
X2466Y852D01*
X1935Y852D01*
X1935Y820D01*
X1924Y820D01*
X1924Y813D01*
X1876Y813D01*
X1876Y862D01*
X2466Y862D01*
G37*
D02*
G36*
X2466Y852D02*
X2466Y813D01*
X2421Y813D01*
X2421Y852D01*
X2466Y852D01*
G37*
D02*
G36*
X2405Y852D02*
X2405Y850D01*
X2401Y850D01*
X2401Y849D01*
X2398Y849D01*
X2398Y848D01*
X2397Y848D01*
X2397Y846D01*
X2395Y846D01*
X2395Y843D01*
X2394Y843D01*
X2394Y840D01*
X2392Y840D01*
X2392Y826D01*
X2394Y826D01*
X2394Y821D01*
X2395Y821D01*
X2395Y820D01*
X2397Y820D01*
X2397Y817D01*
X2399Y817D01*
X2399Y816D01*
X2401Y816D01*
X2401Y814D01*
X2405Y814D01*
X2405Y813D01*
X2388Y813D01*
X2388Y852D01*
X2405Y852D01*
G37*
D02*
G36*
X2368Y852D02*
X2368Y849D01*
X2369Y849D01*
X2369Y845D01*
X2381Y845D01*
X2381Y836D01*
X2369Y836D01*
X2369Y829D01*
X2381Y829D01*
X2381Y820D01*
X2368Y820D01*
X2368Y813D01*
X2350Y813D01*
X2350Y852D01*
X2368Y852D01*
G37*
D02*
G36*
X2330Y852D02*
X2330Y849D01*
X2331Y849D01*
X2331Y845D01*
X2343Y845D01*
X2343Y836D01*
X2331Y836D01*
X2331Y829D01*
X2343Y829D01*
X2343Y820D01*
X2330Y820D01*
X2330Y813D01*
X2324Y813D01*
X2324Y852D01*
X2330Y852D01*
G37*
D02*
G36*
X2317Y852D02*
X2317Y849D01*
X2315Y849D01*
X2315Y848D01*
X2314Y848D01*
X2314Y845D01*
X2312Y845D01*
X2312Y843D01*
X2311Y843D01*
X2311Y840D01*
X2310Y840D01*
X2310Y839D01*
X2308Y839D01*
X2308Y836D01*
X2307Y836D01*
X2307Y835D01*
X2305Y835D01*
X2305Y832D01*
X2304Y832D01*
X2304Y830D01*
X2302Y830D01*
X2302Y829D01*
X2301Y829D01*
X2301Y852D01*
X2317Y852D01*
G37*
D02*
G36*
X2294Y852D02*
X2294Y813D01*
X2279Y813D01*
X2279Y814D01*
X2281Y814D01*
X2281Y816D01*
X2283Y816D01*
X2283Y817D01*
X2285Y817D01*
X2285Y820D01*
X2286Y820D01*
X2286Y821D01*
X2288Y821D01*
X2288Y827D01*
X2289Y827D01*
X2289Y836D01*
X2288Y836D01*
X2288Y842D01*
X2286Y842D01*
X2286Y845D01*
X2285Y845D01*
X2285Y846D01*
X2283Y846D01*
X2283Y848D01*
X2282Y848D01*
X2282Y849D01*
X2279Y849D01*
X2279Y850D01*
X2276Y850D01*
X2276Y852D01*
X2294Y852D01*
G37*
D02*
G36*
X2262Y852D02*
X2262Y850D01*
X2259Y850D01*
X2259Y843D01*
X2252Y843D01*
X2252Y852D01*
X2262Y852D01*
G37*
D02*
G36*
X2233Y852D02*
X2233Y848D01*
X2234Y848D01*
X2234Y845D01*
X2244Y845D01*
X2244Y836D01*
X2234Y836D01*
X2234Y829D01*
X2244Y829D01*
X2244Y820D01*
X2233Y820D01*
X2233Y813D01*
X2227Y813D01*
X2227Y852D01*
X2233Y852D01*
G37*
D02*
G36*
X2220Y852D02*
X2220Y850D01*
X2218Y850D01*
X2218Y848D01*
X2217Y848D01*
X2217Y846D01*
X2215Y846D01*
X2215Y843D01*
X2214Y843D01*
X2214Y842D01*
X2212Y842D01*
X2212Y839D01*
X2211Y839D01*
X2211Y837D01*
X2209Y837D01*
X2209Y835D01*
X2208Y835D01*
X2208Y833D01*
X2207Y833D01*
X2207Y832D01*
X2205Y832D01*
X2205Y829D01*
X2204Y829D01*
X2204Y827D01*
X2202Y827D01*
X2202Y852D01*
X2220Y852D01*
G37*
D02*
G36*
X2196Y852D02*
X2196Y813D01*
X2189Y813D01*
X2189Y852D01*
X2196Y852D01*
G37*
D02*
G36*
X2182Y852D02*
X2182Y836D01*
X2167Y836D01*
X2167Y852D01*
X2182Y852D01*
G37*
D02*
G36*
X2160Y852D02*
X2160Y813D01*
X2157Y813D01*
X2157Y814D01*
X2156Y814D01*
X2156Y819D01*
X2154Y819D01*
X2154Y823D01*
X2153Y823D01*
X2153Y827D01*
X2151Y827D01*
X2151Y832D01*
X2150Y832D01*
X2150Y836D01*
X2149Y836D01*
X2149Y839D01*
X2147Y839D01*
X2147Y843D01*
X2146Y843D01*
X2146Y848D01*
X2144Y848D01*
X2144Y852D01*
X2160Y852D01*
G37*
D02*
G36*
X2138Y852D02*
X2138Y850D01*
X2137Y850D01*
X2137Y846D01*
X2136Y846D01*
X2136Y842D01*
X2134Y842D01*
X2134Y837D01*
X2133Y837D01*
X2133Y835D01*
X2131Y835D01*
X2131Y830D01*
X2130Y830D01*
X2130Y826D01*
X2128Y826D01*
X2128Y821D01*
X2127Y821D01*
X2127Y817D01*
X2125Y817D01*
X2125Y813D01*
X2121Y813D01*
X2121Y852D01*
X2138Y852D01*
G37*
D02*
G36*
X2107Y852D02*
X2107Y850D01*
X2104Y850D01*
X2104Y849D01*
X2102Y849D01*
X2102Y848D01*
X2101Y848D01*
X2101Y842D01*
X2099Y842D01*
X2099Y839D01*
X2101Y839D01*
X2101Y835D01*
X2102Y835D01*
X2102Y832D01*
X2105Y832D01*
X2105Y829D01*
X2104Y829D01*
X2104Y826D01*
X2102Y826D01*
X2102Y824D01*
X2101Y824D01*
X2101Y821D01*
X2099Y821D01*
X2099Y819D01*
X2098Y819D01*
X2098Y816D01*
X2096Y816D01*
X2096Y813D01*
X2093Y813D01*
X2093Y852D01*
X2107Y852D01*
G37*
D02*
G36*
X2086Y852D02*
X2086Y813D01*
X2082Y813D01*
X2082Y819D01*
X2080Y819D01*
X2080Y823D01*
X2079Y823D01*
X2079Y826D01*
X2077Y826D01*
X2077Y830D01*
X2076Y830D01*
X2076Y835D01*
X2075Y835D01*
X2075Y839D01*
X2073Y839D01*
X2073Y843D01*
X2072Y843D01*
X2072Y848D01*
X2070Y848D01*
X2070Y852D01*
X2086Y852D01*
G37*
D02*
G36*
X2064Y852D02*
X2064Y850D01*
X2063Y850D01*
X2063Y846D01*
X2062Y846D01*
X2062Y842D01*
X2060Y842D01*
X2060Y839D01*
X2059Y839D01*
X2059Y835D01*
X2057Y835D01*
X2057Y830D01*
X2056Y830D01*
X2056Y826D01*
X2054Y826D01*
X2054Y821D01*
X2053Y821D01*
X2053Y819D01*
X2051Y819D01*
X2051Y813D01*
X2027Y813D01*
X2027Y814D01*
X2028Y814D01*
X2028Y816D01*
X2031Y816D01*
X2031Y817D01*
X2033Y817D01*
X2033Y820D01*
X2034Y820D01*
X2034Y823D01*
X2035Y823D01*
X2035Y829D01*
X2037Y829D01*
X2037Y835D01*
X2035Y835D01*
X2035Y840D01*
X2034Y840D01*
X2034Y843D01*
X2033Y843D01*
X2033Y846D01*
X2031Y846D01*
X2031Y848D01*
X2030Y848D01*
X2030Y849D01*
X2027Y849D01*
X2027Y850D01*
X2024Y850D01*
X2024Y852D01*
X2064Y852D01*
G37*
D02*
G36*
X2011Y852D02*
X2011Y850D01*
X2008Y850D01*
X2008Y843D01*
X2004Y843D01*
X2004Y852D01*
X2011Y852D01*
G37*
D02*
G36*
X1996Y852D02*
X1996Y813D01*
X1980Y813D01*
X1980Y817D01*
X1982Y817D01*
X1982Y821D01*
X1983Y821D01*
X1983Y824D01*
X1985Y824D01*
X1985Y829D01*
X1986Y829D01*
X1986Y833D01*
X1988Y833D01*
X1988Y837D01*
X1989Y837D01*
X1989Y842D01*
X1990Y842D01*
X1990Y845D01*
X1992Y845D01*
X1992Y849D01*
X1993Y849D01*
X1993Y852D01*
X1996Y852D01*
G37*
D02*
G36*
X1986Y852D02*
X1986Y850D01*
X1985Y850D01*
X1985Y846D01*
X1983Y846D01*
X1983Y842D01*
X1982Y842D01*
X1982Y839D01*
X1980Y839D01*
X1980Y835D01*
X1979Y835D01*
X1979Y830D01*
X1977Y830D01*
X1977Y826D01*
X1976Y826D01*
X1976Y829D01*
X1975Y829D01*
X1975Y833D01*
X1973Y833D01*
X1973Y836D01*
X1972Y836D01*
X1972Y840D01*
X1970Y840D01*
X1970Y845D01*
X1969Y845D01*
X1969Y848D01*
X1967Y848D01*
X1967Y852D01*
X1986Y852D01*
G37*
D02*
G36*
X1960Y852D02*
X1960Y848D01*
X1961Y848D01*
X1961Y843D01*
X1963Y843D01*
X1963Y840D01*
X1964Y840D01*
X1964Y836D01*
X1966Y836D01*
X1966Y833D01*
X1967Y833D01*
X1967Y829D01*
X1969Y829D01*
X1969Y824D01*
X1970Y824D01*
X1970Y821D01*
X1972Y821D01*
X1972Y817D01*
X1973Y817D01*
X1973Y814D01*
X1975Y814D01*
X1975Y813D01*
X1956Y813D01*
X1956Y852D01*
X1960Y852D01*
G37*
D02*
G36*
X1950Y852D02*
X1950Y813D01*
X1943Y813D01*
X1943Y852D01*
X1950Y852D01*
G37*
D02*
G36*
X2272Y846D02*
X2272Y845D01*
X2276Y845D01*
X2276Y843D01*
X2263Y843D01*
X2263Y845D01*
X2268Y845D01*
X2268Y846D01*
X2272Y846D01*
G37*
D02*
G36*
X2019Y846D02*
X2019Y845D01*
X2022Y845D01*
X2022Y843D01*
X2011Y843D01*
X2011Y845D01*
X2015Y845D01*
X2015Y846D01*
X2019Y846D01*
G37*
D02*
G36*
X2278Y843D02*
X2278Y842D01*
X2252Y842D01*
X2252Y843D01*
X2278Y843D01*
G37*
D02*
G36*
X2278Y843D02*
X2278Y842D01*
X2252Y842D01*
X2252Y843D01*
X2278Y843D01*
G37*
D02*
G36*
X2025Y843D02*
X2025Y842D01*
X2004Y842D01*
X2004Y843D01*
X2025Y843D01*
G37*
D02*
G36*
X2025Y843D02*
X2025Y842D01*
X2004Y842D01*
X2004Y843D01*
X2025Y843D01*
G37*
D02*
G36*
X2279Y842D02*
X2279Y839D01*
X2281Y839D01*
X2281Y835D01*
X2282Y835D01*
X2282Y833D01*
X2257Y833D01*
X2257Y816D01*
X2259Y816D01*
X2259Y814D01*
X2262Y814D01*
X2262Y813D01*
X2252Y813D01*
X2252Y842D01*
X2279Y842D01*
G37*
D02*
G36*
X2027Y842D02*
X2027Y839D01*
X2028Y839D01*
X2028Y833D01*
X2030Y833D01*
X2030Y832D01*
X2028Y832D01*
X2028Y826D01*
X2027Y826D01*
X2027Y823D01*
X2025Y823D01*
X2025Y821D01*
X2009Y821D01*
X2009Y820D01*
X2008Y820D01*
X2008Y814D01*
X2011Y814D01*
X2011Y813D01*
X2004Y813D01*
X2004Y842D01*
X2027Y842D01*
G37*
D02*
G36*
X2318Y837D02*
X2318Y813D01*
X2301Y813D01*
X2301Y814D01*
X2302Y814D01*
X2302Y817D01*
X2304Y817D01*
X2304Y819D01*
X2305Y819D01*
X2305Y821D01*
X2307Y821D01*
X2307Y823D01*
X2308Y823D01*
X2308Y826D01*
X2310Y826D01*
X2310Y827D01*
X2311Y827D01*
X2311Y830D01*
X2312Y830D01*
X2312Y832D01*
X2314Y832D01*
X2314Y835D01*
X2315Y835D01*
X2315Y836D01*
X2317Y836D01*
X2317Y837D01*
X2318Y837D01*
G37*
D02*
G36*
X2220Y837D02*
X2220Y813D01*
X2202Y813D01*
X2202Y814D01*
X2204Y814D01*
X2204Y816D01*
X2205Y816D01*
X2205Y817D01*
X2207Y817D01*
X2207Y820D01*
X2208Y820D01*
X2208Y821D01*
X2209Y821D01*
X2209Y824D01*
X2211Y824D01*
X2211Y826D01*
X2212Y826D01*
X2212Y829D01*
X2214Y829D01*
X2214Y830D01*
X2215Y830D01*
X2215Y833D01*
X2217Y833D01*
X2217Y835D01*
X2218Y835D01*
X2218Y837D01*
X2220Y837D01*
G37*
D02*
G36*
X2282Y833D02*
X2282Y830D01*
X2281Y830D01*
X2281Y826D01*
X2279Y826D01*
X2279Y823D01*
X2278Y823D01*
X2278Y821D01*
X2276Y821D01*
X2276Y820D01*
X2273Y820D01*
X2273Y819D01*
X2266Y819D01*
X2266Y820D01*
X2265Y820D01*
X2265Y833D01*
X2282Y833D01*
G37*
D02*
G36*
X2182Y829D02*
X2182Y813D01*
X2167Y813D01*
X2167Y829D01*
X2182Y829D01*
G37*
D02*
G36*
X2115Y827D02*
X2115Y813D01*
X2104Y813D01*
X2104Y814D01*
X2105Y814D01*
X2105Y817D01*
X2107Y817D01*
X2107Y819D01*
X2108Y819D01*
X2108Y821D01*
X2109Y821D01*
X2109Y824D01*
X2111Y824D01*
X2111Y827D01*
X2115Y827D01*
G37*
D02*
G36*
X2147Y823D02*
X2147Y819D01*
X2149Y819D01*
X2149Y814D01*
X2150Y814D01*
X2150Y813D01*
X2133Y813D01*
X2133Y816D01*
X2134Y816D01*
X2134Y820D01*
X2136Y820D01*
X2136Y823D01*
X2147Y823D01*
G37*
D02*
G36*
X2073Y823D02*
X2073Y819D01*
X2075Y819D01*
X2075Y814D01*
X2076Y814D01*
X2076Y813D01*
X2059Y813D01*
X2059Y817D01*
X2060Y817D01*
X2060Y820D01*
X2062Y820D01*
X2062Y823D01*
X2073Y823D01*
G37*
D02*
G36*
X2024Y821D02*
X2024Y820D01*
X2021Y820D01*
X2021Y819D01*
X2015Y819D01*
X2015Y820D01*
X2012Y820D01*
X2012Y821D01*
X2024Y821D01*
G37*
D02*
G36*
X2466Y813D02*
X2466Y811D01*
X1876Y811D01*
X1876Y813D01*
X2466Y813D01*
G37*
D02*
G36*
X2466Y813D02*
X2466Y811D01*
X1876Y811D01*
X1876Y813D01*
X2466Y813D01*
G37*
D02*
G36*
X2466Y813D02*
X2466Y811D01*
X1876Y811D01*
X1876Y813D01*
X2466Y813D01*
G37*
D02*
G36*
X2466Y813D02*
X2466Y811D01*
X1876Y811D01*
X1876Y813D01*
X2466Y813D01*
G37*
D02*
G36*
X2466Y813D02*
X2466Y811D01*
X1876Y811D01*
X1876Y813D01*
X2466Y813D01*
G37*
D02*
G36*
X2466Y813D02*
X2466Y811D01*
X1876Y811D01*
X1876Y813D01*
X2466Y813D01*
G37*
D02*
G36*
X2466Y813D02*
X2466Y811D01*
X1876Y811D01*
X1876Y813D01*
X2466Y813D01*
G37*
D02*
G36*
X2466Y813D02*
X2466Y811D01*
X1876Y811D01*
X1876Y813D01*
X2466Y813D01*
G37*
D02*
G36*
X2466Y813D02*
X2466Y811D01*
X1876Y811D01*
X1876Y813D01*
X2466Y813D01*
G37*
D02*
G36*
X2466Y813D02*
X2466Y811D01*
X1876Y811D01*
X1876Y813D01*
X2466Y813D01*
G37*
D02*
G36*
X2466Y813D02*
X2466Y811D01*
X1876Y811D01*
X1876Y813D01*
X2466Y813D01*
G37*
D02*
G36*
X2466Y813D02*
X2466Y811D01*
X1876Y811D01*
X1876Y813D01*
X2466Y813D01*
G37*
D02*
G36*
X2466Y813D02*
X2466Y811D01*
X1876Y811D01*
X1876Y813D01*
X2466Y813D01*
G37*
D02*
G36*
X2466Y813D02*
X2466Y811D01*
X1876Y811D01*
X1876Y813D01*
X2466Y813D01*
G37*
D02*
G36*
X2466Y813D02*
X2466Y811D01*
X1876Y811D01*
X1876Y813D01*
X2466Y813D01*
G37*
D02*
G36*
X2466Y813D02*
X2466Y811D01*
X1876Y811D01*
X1876Y813D01*
X2466Y813D01*
G37*
D02*
G36*
X2466Y813D02*
X2466Y811D01*
X1876Y811D01*
X1876Y813D01*
X2466Y813D01*
G37*
D02*
G36*
X2466Y813D02*
X2466Y811D01*
X1876Y811D01*
X1876Y813D01*
X2466Y813D01*
G37*
D02*
G36*
X2466Y813D02*
X2466Y811D01*
X1876Y811D01*
X1876Y813D01*
X2466Y813D01*
G37*
D02*
G36*
X2466Y813D02*
X2466Y811D01*
X1876Y811D01*
X1876Y813D01*
X2466Y813D01*
G37*
D02*
G36*
X2466Y813D02*
X2466Y811D01*
X1876Y811D01*
X1876Y813D01*
X2466Y813D01*
G37*
D02*
G36*
X2466Y813D02*
X2466Y811D01*
X1876Y811D01*
X1876Y813D01*
X2466Y813D01*
G37*
D02*
G36*
X2466Y813D02*
X2466Y811D01*
X1876Y811D01*
X1876Y813D01*
X2466Y813D01*
G37*
D02*
G36*
X2466Y813D02*
X2466Y811D01*
X1876Y811D01*
X1876Y813D01*
X2466Y813D01*
G37*
D02*
G36*
X2466Y811D02*
X2466Y807D01*
X1876Y807D01*
X1876Y811D01*
X2466Y811D01*
G37*
D02*
G36*
X2414Y845D02*
X2414Y820D01*
X2405Y820D01*
X2405Y821D01*
X2404Y821D01*
X2404Y823D01*
X2402Y823D01*
X2402Y824D01*
X2401Y824D01*
X2401Y827D01*
X2399Y827D01*
X2399Y837D01*
X2401Y837D01*
X2401Y840D01*
X2402Y840D01*
X2402Y842D01*
X2404Y842D01*
X2404Y843D01*
X2405Y843D01*
X2405Y845D01*
X2414Y845D01*
G37*
D02*
G36*
X2115Y845D02*
X2115Y835D01*
X2109Y835D01*
X2109Y836D01*
X2108Y836D01*
X2108Y839D01*
X2107Y839D01*
X2107Y842D01*
X2108Y842D01*
X2108Y843D01*
X2109Y843D01*
X2109Y845D01*
X2115Y845D01*
G37*
D02*
G36*
X2067Y839D02*
X2067Y836D01*
X2069Y836D01*
X2069Y832D01*
X2070Y832D01*
X2070Y829D01*
X2064Y829D01*
X2064Y833D01*
X2066Y833D01*
X2066Y839D01*
X2067Y839D01*
G37*
D02*
G36*
X2141Y837D02*
X2141Y836D01*
X2143Y836D01*
X2143Y832D01*
X2144Y832D01*
X2144Y829D01*
X2138Y829D01*
X2138Y833D01*
X2140Y833D01*
X2140Y837D01*
X2141Y837D01*
G37*
D02*
G54D12*
X1118Y146D02*
X1120Y146D01*
X1571Y146D02*
X1573Y146D01*
X1883Y146D02*
X1885Y146D01*
X2076Y146D02*
X2077Y146D01*
X2337Y146D02*
X2338Y146D01*
X1117Y145D02*
X1121Y145D01*
X1570Y145D02*
X1574Y145D01*
X1882Y145D02*
X1886Y145D01*
X2074Y145D02*
X2079Y145D01*
X2335Y145D02*
X2340Y145D01*
X1116Y144D02*
X1121Y144D01*
X1146Y144D02*
X1153Y144D01*
X1223Y144D02*
X1224Y144D01*
X1259Y144D02*
X1266Y144D01*
X1449Y144D02*
X1451Y144D01*
X1570Y144D02*
X1575Y144D01*
X1594Y144D02*
X1609Y144D01*
X1620Y144D02*
X1621Y144D01*
X1777Y144D02*
X1778Y144D01*
X1834Y144D02*
X1835Y144D01*
X1882Y144D02*
X1886Y144D01*
X2074Y144D02*
X2079Y144D01*
X2230Y144D02*
X2232Y144D01*
X2287Y144D02*
X2288Y144D01*
X2335Y144D02*
X2340Y144D01*
X2356Y144D02*
X2365Y144D01*
X1116Y143D02*
X1121Y143D01*
X1145Y143D02*
X1153Y143D01*
X1222Y143D02*
X1225Y143D01*
X1258Y143D02*
X1267Y143D01*
X1449Y143D02*
X1451Y143D01*
X1570Y143D02*
X1575Y143D01*
X1593Y143D02*
X1609Y143D01*
X1619Y143D02*
X1622Y143D01*
X1776Y143D02*
X1779Y143D01*
X1833Y143D02*
X1835Y143D01*
X1882Y143D02*
X1886Y143D01*
X2074Y143D02*
X2079Y143D01*
X2230Y143D02*
X2232Y143D01*
X2286Y143D02*
X2289Y143D01*
X2335Y143D02*
X2340Y143D01*
X2356Y143D02*
X2366Y143D01*
X1116Y142D02*
X1121Y142D01*
X1145Y142D02*
X1153Y142D01*
X1222Y142D02*
X1225Y142D01*
X1258Y142D02*
X1267Y142D01*
X1449Y142D02*
X1452Y142D01*
X1570Y142D02*
X1575Y142D01*
X1592Y142D02*
X1609Y142D01*
X1619Y142D02*
X1622Y142D01*
X1776Y142D02*
X1779Y142D01*
X1833Y142D02*
X1836Y142D01*
X1858Y142D02*
X1860Y142D01*
X1882Y142D02*
X1886Y142D01*
X1999Y142D02*
X2001Y142D01*
X2074Y142D02*
X2079Y142D01*
X2229Y142D02*
X2232Y142D01*
X2286Y142D02*
X2289Y142D01*
X2311Y142D02*
X2313Y142D01*
X2335Y142D02*
X2340Y142D01*
X2356Y142D02*
X2367Y142D01*
X1117Y141D02*
X1121Y141D01*
X1145Y141D02*
X1153Y141D01*
X1222Y141D02*
X1226Y141D01*
X1258Y141D02*
X1266Y141D01*
X1449Y141D02*
X1452Y141D01*
X1570Y141D02*
X1574Y141D01*
X1591Y141D02*
X1609Y141D01*
X1619Y141D02*
X1623Y141D01*
X1776Y141D02*
X1779Y141D01*
X1833Y141D02*
X1836Y141D01*
X1857Y141D02*
X1860Y141D01*
X1882Y141D02*
X1886Y141D01*
X1999Y141D02*
X2002Y141D01*
X2075Y141D02*
X2078Y141D01*
X2229Y141D02*
X2232Y141D01*
X2286Y141D02*
X2289Y141D01*
X2311Y141D02*
X2313Y141D01*
X2336Y141D02*
X2339Y141D01*
X2356Y141D02*
X2368Y141D01*
X1145Y140D02*
X1148Y140D01*
X1223Y140D02*
X1227Y140D01*
X1258Y140D02*
X1261Y140D01*
X1449Y140D02*
X1452Y140D01*
X1591Y140D02*
X1594Y140D01*
X1606Y140D02*
X1609Y140D01*
X1620Y140D02*
X1623Y140D01*
X1776Y140D02*
X1779Y140D01*
X1833Y140D02*
X1836Y140D01*
X1857Y140D02*
X1860Y140D01*
X1999Y140D02*
X2002Y140D01*
X2229Y140D02*
X2232Y140D01*
X2286Y140D02*
X2289Y140D01*
X2311Y140D02*
X2314Y140D01*
X2364Y140D02*
X2369Y140D01*
X1145Y139D02*
X1148Y139D01*
X1224Y139D02*
X1227Y139D01*
X1258Y139D02*
X1261Y139D01*
X1449Y139D02*
X1452Y139D01*
X1590Y139D02*
X1593Y139D01*
X1606Y139D02*
X1609Y139D01*
X1620Y139D02*
X1624Y139D01*
X1776Y139D02*
X1779Y139D01*
X1833Y139D02*
X1836Y139D01*
X1857Y139D02*
X1860Y139D01*
X1965Y139D02*
X1971Y139D01*
X1999Y139D02*
X2002Y139D01*
X2229Y139D02*
X2232Y139D01*
X2286Y139D02*
X2289Y139D01*
X2311Y139D02*
X2314Y139D01*
X2365Y139D02*
X2370Y139D01*
X1145Y138D02*
X1148Y138D01*
X1224Y138D02*
X1228Y138D01*
X1258Y138D02*
X1261Y138D01*
X1449Y138D02*
X1452Y138D01*
X1590Y138D02*
X1593Y138D01*
X1606Y138D02*
X1609Y138D01*
X1621Y138D02*
X1625Y138D01*
X1776Y138D02*
X1779Y138D01*
X1833Y138D02*
X1836Y138D01*
X1857Y138D02*
X1860Y138D01*
X1965Y138D02*
X1971Y138D01*
X1999Y138D02*
X2002Y138D01*
X2229Y138D02*
X2232Y138D01*
X2286Y138D02*
X2289Y138D01*
X2311Y138D02*
X2314Y138D01*
X2366Y138D02*
X2370Y138D01*
X1145Y137D02*
X1148Y137D01*
X1225Y137D02*
X1228Y137D01*
X1258Y137D02*
X1261Y137D01*
X1449Y137D02*
X1452Y137D01*
X1590Y137D02*
X1593Y137D01*
X1606Y137D02*
X1609Y137D01*
X1621Y137D02*
X1625Y137D01*
X1776Y137D02*
X1779Y137D01*
X1833Y137D02*
X1836Y137D01*
X1857Y137D02*
X1860Y137D01*
X1965Y137D02*
X1971Y137D01*
X1999Y137D02*
X2002Y137D01*
X2229Y137D02*
X2232Y137D01*
X2286Y137D02*
X2289Y137D01*
X2311Y137D02*
X2314Y137D01*
X2367Y137D02*
X2371Y137D01*
X1057Y136D02*
X1061Y136D01*
X1069Y136D02*
X1069Y136D01*
X1087Y136D02*
X1092Y136D01*
X1118Y136D02*
X1123Y136D01*
X1145Y136D02*
X1148Y136D01*
X1172Y136D02*
X1177Y136D01*
X1199Y136D02*
X1203Y136D01*
X1225Y136D02*
X1229Y136D01*
X1258Y136D02*
X1261Y136D01*
X1284Y136D02*
X1292Y136D01*
X1312Y136D02*
X1316Y136D01*
X1324Y136D02*
X1324Y136D01*
X1342Y136D02*
X1347Y136D01*
X1365Y136D02*
X1365Y136D01*
X1372Y136D02*
X1375Y136D01*
X1397Y136D02*
X1405Y136D01*
X1427Y136D02*
X1432Y136D01*
X1449Y136D02*
X1452Y136D01*
X1457Y136D02*
X1460Y136D01*
X1482Y136D02*
X1486Y136D01*
X1494Y136D02*
X1494Y136D01*
X1511Y136D02*
X1518Y136D01*
X1535Y136D02*
X1544Y136D01*
X1571Y136D02*
X1577Y136D01*
X1590Y136D02*
X1593Y136D01*
X1606Y136D02*
X1609Y136D01*
X1622Y136D02*
X1626Y136D01*
X1659Y136D02*
X1659Y136D01*
X1682Y136D02*
X1687Y136D01*
X1705Y136D02*
X1714Y136D01*
X1767Y136D02*
X1770Y136D01*
X1776Y136D02*
X1779Y136D01*
X1790Y136D02*
X1790Y136D01*
X1806Y136D02*
X1806Y136D01*
X1823Y136D02*
X1825Y136D01*
X1833Y136D02*
X1836Y136D01*
X1849Y136D02*
X1862Y136D01*
X1883Y136D02*
X1889Y136D01*
X1911Y136D02*
X1914Y136D01*
X1965Y136D02*
X1972Y136D01*
X1991Y136D02*
X2004Y136D01*
X2017Y136D02*
X2025Y136D01*
X2050Y136D02*
X2055Y136D01*
X2076Y136D02*
X2083Y136D01*
X2107Y136D02*
X2112Y136D01*
X2134Y136D02*
X2138Y136D01*
X2146Y136D02*
X2146Y136D01*
X2163Y136D02*
X2169Y136D01*
X2173Y136D02*
X2175Y136D01*
X2220Y136D02*
X2224Y136D01*
X2229Y136D02*
X2232Y136D01*
X2259Y136D02*
X2259Y136D01*
X2276Y136D02*
X2279Y136D01*
X2286Y136D02*
X2289Y136D01*
X2302Y136D02*
X2316Y136D01*
X2337Y136D02*
X2342Y136D01*
X2368Y136D02*
X2372Y136D01*
X1055Y135D02*
X1063Y135D01*
X1068Y135D02*
X1070Y135D01*
X1084Y135D02*
X1095Y135D01*
X1117Y135D02*
X1125Y135D01*
X1145Y135D02*
X1148Y135D01*
X1169Y135D02*
X1180Y135D01*
X1196Y135D02*
X1204Y135D01*
X1209Y135D02*
X1212Y135D01*
X1226Y135D02*
X1230Y135D01*
X1258Y135D02*
X1261Y135D01*
X1282Y135D02*
X1293Y135D01*
X1310Y135D02*
X1318Y135D01*
X1323Y135D02*
X1325Y135D01*
X1339Y135D02*
X1350Y135D01*
X1364Y135D02*
X1366Y135D01*
X1370Y135D02*
X1378Y135D01*
X1394Y135D02*
X1408Y135D01*
X1424Y135D02*
X1435Y135D01*
X1449Y135D02*
X1452Y135D01*
X1455Y135D02*
X1463Y135D01*
X1480Y135D02*
X1488Y135D01*
X1493Y135D02*
X1495Y135D01*
X1508Y135D02*
X1520Y135D01*
X1534Y135D02*
X1546Y135D01*
X1570Y135D02*
X1578Y135D01*
X1590Y135D02*
X1594Y135D01*
X1606Y135D02*
X1609Y135D01*
X1623Y135D02*
X1626Y135D01*
X1649Y135D02*
X1654Y135D01*
X1657Y135D02*
X1666Y135D01*
X1679Y135D02*
X1690Y135D01*
X1704Y135D02*
X1716Y135D01*
X1764Y135D02*
X1773Y135D01*
X1776Y135D02*
X1779Y135D01*
X1789Y135D02*
X1791Y135D01*
X1805Y135D02*
X1807Y135D01*
X1820Y135D02*
X1828Y135D01*
X1833Y135D02*
X1836Y135D01*
X1848Y135D02*
X1864Y135D01*
X1882Y135D02*
X1890Y135D01*
X1902Y135D02*
X1905Y135D01*
X1908Y135D02*
X1917Y135D01*
X1965Y135D02*
X1972Y135D01*
X1989Y135D02*
X2005Y135D01*
X2016Y135D02*
X2028Y135D01*
X2048Y135D02*
X2058Y135D01*
X2074Y135D02*
X2085Y135D01*
X2104Y135D02*
X2115Y135D01*
X2132Y135D02*
X2140Y135D01*
X2145Y135D02*
X2147Y135D01*
X2162Y135D02*
X2171Y135D01*
X2173Y135D02*
X2176Y135D01*
X2218Y135D02*
X2226Y135D01*
X2229Y135D02*
X2232Y135D01*
X2242Y135D02*
X2245Y135D01*
X2258Y135D02*
X2260Y135D01*
X2274Y135D02*
X2282Y135D01*
X2286Y135D02*
X2289Y135D01*
X2301Y135D02*
X2317Y135D01*
X2335Y135D02*
X2344Y135D01*
X2369Y135D02*
X2373Y135D01*
X1053Y134D02*
X1064Y134D01*
X1067Y134D02*
X1070Y134D01*
X1083Y134D02*
X1096Y134D01*
X1116Y134D02*
X1125Y134D01*
X1145Y134D02*
X1148Y134D01*
X1168Y134D02*
X1181Y134D01*
X1195Y134D02*
X1206Y134D01*
X1209Y134D02*
X1212Y134D01*
X1226Y134D02*
X1230Y134D01*
X1258Y134D02*
X1261Y134D01*
X1281Y134D02*
X1293Y134D01*
X1308Y134D02*
X1319Y134D01*
X1323Y134D02*
X1325Y134D01*
X1338Y134D02*
X1351Y134D01*
X1364Y134D02*
X1379Y134D01*
X1393Y134D02*
X1409Y134D01*
X1423Y134D02*
X1436Y134D01*
X1449Y134D02*
X1464Y134D01*
X1478Y134D02*
X1489Y134D01*
X1493Y134D02*
X1496Y134D01*
X1507Y134D02*
X1520Y134D01*
X1534Y134D02*
X1548Y134D01*
X1570Y134D02*
X1579Y134D01*
X1591Y134D02*
X1609Y134D01*
X1623Y134D02*
X1627Y134D01*
X1648Y134D02*
X1666Y134D01*
X1678Y134D02*
X1691Y134D01*
X1704Y134D02*
X1718Y134D01*
X1763Y134D02*
X1774Y134D01*
X1776Y134D02*
X1779Y134D01*
X1789Y134D02*
X1792Y134D01*
X1804Y134D02*
X1807Y134D01*
X1819Y134D02*
X1830Y134D01*
X1833Y134D02*
X1836Y134D01*
X1847Y134D02*
X1864Y134D01*
X1882Y134D02*
X1890Y134D01*
X1902Y134D02*
X1905Y134D01*
X1907Y134D02*
X1918Y134D01*
X1965Y134D02*
X1971Y134D01*
X1989Y134D02*
X2006Y134D01*
X2015Y134D02*
X2029Y134D01*
X2046Y134D02*
X2060Y134D01*
X2074Y134D02*
X2085Y134D01*
X2103Y134D02*
X2116Y134D01*
X2130Y134D02*
X2141Y134D01*
X2144Y134D02*
X2147Y134D01*
X2161Y134D02*
X2176Y134D01*
X2217Y134D02*
X2232Y134D01*
X2242Y134D02*
X2245Y134D01*
X2258Y134D02*
X2261Y134D01*
X2273Y134D02*
X2283Y134D01*
X2286Y134D02*
X2289Y134D01*
X2301Y134D02*
X2317Y134D01*
X2335Y134D02*
X2344Y134D01*
X2369Y134D02*
X2373Y134D01*
X1053Y133D02*
X1065Y133D01*
X1067Y133D02*
X1070Y133D01*
X1082Y133D02*
X1097Y133D01*
X1116Y133D02*
X1125Y133D01*
X1145Y133D02*
X1148Y133D01*
X1167Y133D02*
X1182Y133D01*
X1194Y133D02*
X1207Y133D01*
X1209Y133D02*
X1212Y133D01*
X1227Y133D02*
X1231Y133D01*
X1258Y133D02*
X1261Y133D01*
X1280Y133D02*
X1293Y133D01*
X1308Y133D02*
X1320Y133D01*
X1323Y133D02*
X1325Y133D01*
X1337Y133D02*
X1352Y133D01*
X1364Y133D02*
X1381Y133D01*
X1393Y133D02*
X1410Y133D01*
X1422Y133D02*
X1437Y133D01*
X1449Y133D02*
X1465Y133D01*
X1478Y133D02*
X1490Y133D01*
X1493Y133D02*
X1496Y133D01*
X1507Y133D02*
X1520Y133D01*
X1534Y133D02*
X1549Y133D01*
X1570Y133D02*
X1578Y133D01*
X1592Y133D02*
X1609Y133D01*
X1624Y133D02*
X1627Y133D01*
X1648Y133D02*
X1666Y133D01*
X1677Y133D02*
X1692Y133D01*
X1704Y133D02*
X1719Y133D01*
X1762Y133D02*
X1779Y133D01*
X1789Y133D02*
X1792Y133D01*
X1804Y133D02*
X1807Y133D01*
X1818Y133D02*
X1836Y133D01*
X1848Y133D02*
X1864Y133D01*
X1882Y133D02*
X1890Y133D01*
X1902Y133D02*
X1919Y133D01*
X1965Y133D02*
X1971Y133D01*
X1989Y133D02*
X2005Y133D01*
X2016Y133D02*
X2031Y133D01*
X2045Y133D02*
X2061Y133D01*
X2074Y133D02*
X2084Y133D01*
X2102Y133D02*
X2117Y133D01*
X2130Y133D02*
X2142Y133D01*
X2144Y133D02*
X2147Y133D01*
X2160Y133D02*
X2176Y133D01*
X2215Y133D02*
X2232Y133D01*
X2242Y133D02*
X2245Y133D01*
X2258Y133D02*
X2261Y133D01*
X2272Y133D02*
X2289Y133D01*
X2301Y133D02*
X2317Y133D01*
X2335Y133D02*
X2343Y133D01*
X2370Y133D02*
X2374Y133D01*
X1052Y132D02*
X1056Y132D01*
X1061Y132D02*
X1070Y132D01*
X1081Y132D02*
X1086Y132D01*
X1093Y132D02*
X1098Y132D01*
X1116Y132D02*
X1120Y132D01*
X1145Y132D02*
X1148Y132D01*
X1166Y132D02*
X1171Y132D01*
X1178Y132D02*
X1183Y132D01*
X1194Y132D02*
X1198Y132D01*
X1203Y132D02*
X1212Y132D01*
X1228Y132D02*
X1231Y132D01*
X1258Y132D02*
X1261Y132D01*
X1279Y132D02*
X1283Y132D01*
X1307Y132D02*
X1311Y132D01*
X1316Y132D02*
X1325Y132D01*
X1336Y132D02*
X1341Y132D01*
X1348Y132D02*
X1353Y132D01*
X1364Y132D02*
X1371Y132D01*
X1376Y132D02*
X1381Y132D01*
X1392Y132D02*
X1396Y132D01*
X1406Y132D02*
X1410Y132D01*
X1421Y132D02*
X1426Y132D01*
X1433Y132D02*
X1438Y132D01*
X1449Y132D02*
X1456Y132D01*
X1461Y132D02*
X1466Y132D01*
X1477Y132D02*
X1481Y132D01*
X1486Y132D02*
X1496Y132D01*
X1506Y132D02*
X1510Y132D01*
X1544Y132D02*
X1550Y132D01*
X1570Y132D02*
X1573Y132D01*
X1592Y132D02*
X1609Y132D01*
X1624Y132D02*
X1628Y132D01*
X1647Y132D02*
X1658Y132D01*
X1660Y132D02*
X1666Y132D01*
X1676Y132D02*
X1681Y132D01*
X1688Y132D02*
X1693Y132D01*
X1714Y132D02*
X1720Y132D01*
X1761Y132D02*
X1766Y132D01*
X1771Y132D02*
X1779Y132D01*
X1789Y132D02*
X1792Y132D01*
X1804Y132D02*
X1807Y132D01*
X1818Y132D02*
X1822Y132D01*
X1826Y132D02*
X1836Y132D01*
X1857Y132D02*
X1860Y132D01*
X1882Y132D02*
X1885Y132D01*
X1902Y132D02*
X1910Y132D01*
X1915Y132D02*
X1920Y132D01*
X1998Y132D02*
X2002Y132D01*
X2026Y132D02*
X2032Y132D01*
X2045Y132D02*
X2050Y132D01*
X2056Y132D02*
X2061Y132D01*
X2074Y132D02*
X2077Y132D01*
X2101Y132D02*
X2106Y132D01*
X2113Y132D02*
X2118Y132D01*
X2129Y132D02*
X2133Y132D01*
X2138Y132D02*
X2147Y132D01*
X2159Y132D02*
X2164Y132D01*
X2169Y132D02*
X2176Y132D01*
X2215Y132D02*
X2220Y132D01*
X2225Y132D02*
X2232Y132D01*
X2242Y132D02*
X2245Y132D01*
X2258Y132D02*
X2261Y132D01*
X2271Y132D02*
X2275Y132D01*
X2280Y132D02*
X2289Y132D01*
X2310Y132D02*
X2314Y132D01*
X2335Y132D02*
X2338Y132D01*
X2371Y132D02*
X2374Y132D01*
X1052Y131D02*
X1055Y131D01*
X1062Y131D02*
X1070Y131D01*
X1081Y131D02*
X1084Y131D01*
X1094Y131D02*
X1098Y131D01*
X1116Y131D02*
X1119Y131D01*
X1145Y131D02*
X1148Y131D01*
X1166Y131D02*
X1169Y131D01*
X1179Y131D02*
X1183Y131D01*
X1194Y131D02*
X1197Y131D01*
X1204Y131D02*
X1212Y131D01*
X1228Y131D02*
X1232Y131D01*
X1258Y131D02*
X1261Y131D01*
X1279Y131D02*
X1282Y131D01*
X1307Y131D02*
X1310Y131D01*
X1317Y131D02*
X1325Y131D01*
X1336Y131D02*
X1339Y131D01*
X1350Y131D02*
X1353Y131D01*
X1364Y131D02*
X1370Y131D01*
X1378Y131D02*
X1382Y131D01*
X1393Y131D02*
X1395Y131D01*
X1407Y131D02*
X1410Y131D01*
X1421Y131D02*
X1424Y131D01*
X1435Y131D02*
X1438Y131D01*
X1449Y131D02*
X1455Y131D01*
X1463Y131D02*
X1467Y131D01*
X1477Y131D02*
X1480Y131D01*
X1487Y131D02*
X1496Y131D01*
X1506Y131D02*
X1509Y131D01*
X1546Y131D02*
X1551Y131D01*
X1570Y131D02*
X1573Y131D01*
X1594Y131D02*
X1609Y131D01*
X1625Y131D02*
X1629Y131D01*
X1647Y131D02*
X1650Y131D01*
X1653Y131D02*
X1658Y131D01*
X1661Y131D02*
X1666Y131D01*
X1676Y131D02*
X1680Y131D01*
X1690Y131D02*
X1693Y131D01*
X1716Y131D02*
X1721Y131D01*
X1761Y131D02*
X1765Y131D01*
X1773Y131D02*
X1779Y131D01*
X1789Y131D02*
X1792Y131D01*
X1804Y131D02*
X1807Y131D01*
X1818Y131D02*
X1821Y131D01*
X1828Y131D02*
X1836Y131D01*
X1857Y131D02*
X1860Y131D01*
X1882Y131D02*
X1884Y131D01*
X1902Y131D02*
X1908Y131D01*
X1916Y131D02*
X1920Y131D01*
X1999Y131D02*
X2002Y131D01*
X2028Y131D02*
X2033Y131D01*
X2044Y131D02*
X2048Y131D01*
X2058Y131D02*
X2062Y131D01*
X2074Y131D02*
X2077Y131D01*
X2101Y131D02*
X2105Y131D01*
X2115Y131D02*
X2119Y131D01*
X2129Y131D02*
X2132Y131D01*
X2139Y131D02*
X2147Y131D01*
X2158Y131D02*
X2163Y131D01*
X2170Y131D02*
X2176Y131D01*
X2214Y131D02*
X2218Y131D01*
X2226Y131D02*
X2232Y131D01*
X2242Y131D02*
X2245Y131D01*
X2258Y131D02*
X2261Y131D01*
X2271Y131D02*
X2274Y131D01*
X2281Y131D02*
X2289Y131D01*
X2311Y131D02*
X2314Y131D01*
X2335Y131D02*
X2338Y131D01*
X2371Y131D02*
X2374Y131D01*
X1052Y130D02*
X1055Y130D01*
X1063Y130D02*
X1070Y130D01*
X1080Y130D02*
X1084Y130D01*
X1095Y130D02*
X1099Y130D01*
X1116Y130D02*
X1119Y130D01*
X1145Y130D02*
X1148Y130D01*
X1165Y130D02*
X1169Y130D01*
X1180Y130D02*
X1184Y130D01*
X1194Y130D02*
X1197Y130D01*
X1205Y130D02*
X1212Y130D01*
X1229Y130D02*
X1232Y130D01*
X1258Y130D02*
X1261Y130D01*
X1279Y130D02*
X1282Y130D01*
X1307Y130D02*
X1310Y130D01*
X1318Y130D02*
X1325Y130D01*
X1335Y130D02*
X1339Y130D01*
X1350Y130D02*
X1354Y130D01*
X1364Y130D02*
X1369Y130D01*
X1379Y130D02*
X1382Y130D01*
X1406Y130D02*
X1410Y130D01*
X1420Y130D02*
X1424Y130D01*
X1435Y130D02*
X1439Y130D01*
X1449Y130D02*
X1454Y130D01*
X1464Y130D02*
X1467Y130D01*
X1477Y130D02*
X1480Y130D01*
X1488Y130D02*
X1496Y130D01*
X1506Y130D02*
X1509Y130D01*
X1547Y130D02*
X1552Y130D01*
X1570Y130D02*
X1573Y130D01*
X1598Y130D02*
X1602Y130D01*
X1606Y130D02*
X1609Y130D01*
X1626Y130D02*
X1629Y130D01*
X1647Y130D02*
X1650Y130D01*
X1655Y130D02*
X1658Y130D01*
X1662Y130D02*
X1666Y130D01*
X1675Y130D02*
X1679Y130D01*
X1691Y130D02*
X1694Y130D01*
X1717Y130D02*
X1722Y130D01*
X1760Y130D02*
X1764Y130D01*
X1774Y130D02*
X1779Y130D01*
X1789Y130D02*
X1792Y130D01*
X1804Y130D02*
X1807Y130D01*
X1818Y130D02*
X1821Y130D01*
X1829Y130D02*
X1836Y130D01*
X1857Y130D02*
X1860Y130D01*
X1882Y130D02*
X1884Y130D01*
X1902Y130D02*
X1907Y130D01*
X1917Y130D02*
X1921Y130D01*
X1999Y130D02*
X2002Y130D01*
X2029Y130D02*
X2033Y130D01*
X2044Y130D02*
X2047Y130D01*
X2059Y130D02*
X2062Y130D01*
X2074Y130D02*
X2077Y130D01*
X2101Y130D02*
X2104Y130D01*
X2116Y130D02*
X2119Y130D01*
X2129Y130D02*
X2132Y130D01*
X2140Y130D02*
X2147Y130D01*
X2157Y130D02*
X2161Y130D01*
X2171Y130D02*
X2176Y130D01*
X2214Y130D02*
X2217Y130D01*
X2227Y130D02*
X2232Y130D01*
X2242Y130D02*
X2245Y130D01*
X2258Y130D02*
X2261Y130D01*
X2271Y130D02*
X2274Y130D01*
X2283Y130D02*
X2289Y130D01*
X2311Y130D02*
X2314Y130D01*
X2335Y130D02*
X2338Y130D01*
X2371Y130D02*
X2374Y130D01*
X1052Y129D02*
X1055Y129D01*
X1064Y129D02*
X1070Y129D01*
X1080Y129D02*
X1083Y129D01*
X1096Y129D02*
X1099Y129D01*
X1116Y129D02*
X1119Y129D01*
X1145Y129D02*
X1148Y129D01*
X1165Y129D02*
X1168Y129D01*
X1181Y129D02*
X1184Y129D01*
X1194Y129D02*
X1196Y129D01*
X1206Y129D02*
X1212Y129D01*
X1229Y129D02*
X1233Y129D01*
X1258Y129D02*
X1261Y129D01*
X1279Y129D02*
X1282Y129D01*
X1307Y129D02*
X1310Y129D01*
X1320Y129D02*
X1325Y129D01*
X1335Y129D02*
X1338Y129D01*
X1351Y129D02*
X1354Y129D01*
X1364Y129D02*
X1368Y129D01*
X1379Y129D02*
X1382Y129D01*
X1404Y129D02*
X1410Y129D01*
X1420Y129D02*
X1423Y129D01*
X1436Y129D02*
X1439Y129D01*
X1449Y129D02*
X1453Y129D01*
X1464Y129D02*
X1467Y129D01*
X1477Y129D02*
X1480Y129D01*
X1490Y129D02*
X1496Y129D01*
X1506Y129D02*
X1509Y129D01*
X1548Y129D02*
X1552Y129D01*
X1570Y129D02*
X1573Y129D01*
X1598Y129D02*
X1601Y129D01*
X1606Y129D02*
X1609Y129D01*
X1626Y129D02*
X1630Y129D01*
X1647Y129D02*
X1650Y129D01*
X1655Y129D02*
X1658Y129D01*
X1663Y129D02*
X1666Y129D01*
X1675Y129D02*
X1678Y129D01*
X1691Y129D02*
X1694Y129D01*
X1718Y129D02*
X1722Y129D01*
X1760Y129D02*
X1763Y129D01*
X1775Y129D02*
X1779Y129D01*
X1789Y129D02*
X1792Y129D01*
X1804Y129D02*
X1807Y129D01*
X1817Y129D02*
X1820Y129D01*
X1831Y129D02*
X1836Y129D01*
X1857Y129D02*
X1860Y129D01*
X1882Y129D02*
X1884Y129D01*
X1902Y129D02*
X1906Y129D01*
X1918Y129D02*
X1921Y129D01*
X1999Y129D02*
X2002Y129D01*
X2030Y129D02*
X2034Y129D01*
X2044Y129D02*
X2047Y129D01*
X2059Y129D02*
X2062Y129D01*
X2074Y129D02*
X2077Y129D01*
X2100Y129D02*
X2103Y129D01*
X2116Y129D02*
X2119Y129D01*
X2129Y129D02*
X2132Y129D01*
X2141Y129D02*
X2147Y129D01*
X2157Y129D02*
X2160Y129D01*
X2172Y129D02*
X2176Y129D01*
X2214Y129D02*
X2217Y129D01*
X2228Y129D02*
X2232Y129D01*
X2242Y129D02*
X2245Y129D01*
X2258Y129D02*
X2261Y129D01*
X2271Y129D02*
X2274Y129D01*
X2284Y129D02*
X2289Y129D01*
X2311Y129D02*
X2314Y129D01*
X2335Y129D02*
X2338Y129D01*
X2371Y129D02*
X2374Y129D01*
X1052Y128D02*
X1054Y128D01*
X1066Y128D02*
X1070Y128D01*
X1080Y128D02*
X1083Y128D01*
X1096Y128D02*
X1099Y128D01*
X1116Y128D02*
X1119Y128D01*
X1145Y128D02*
X1148Y128D01*
X1165Y128D02*
X1168Y128D01*
X1181Y128D02*
X1184Y128D01*
X1194Y128D02*
X1196Y128D01*
X1207Y128D02*
X1212Y128D01*
X1230Y128D02*
X1234Y128D01*
X1258Y128D02*
X1261Y128D01*
X1279Y128D02*
X1282Y128D01*
X1307Y128D02*
X1310Y128D01*
X1321Y128D02*
X1325Y128D01*
X1335Y128D02*
X1338Y128D01*
X1351Y128D02*
X1354Y128D01*
X1364Y128D02*
X1367Y128D01*
X1379Y128D02*
X1382Y128D01*
X1402Y128D02*
X1409Y128D01*
X1420Y128D02*
X1423Y128D01*
X1436Y128D02*
X1439Y128D01*
X1449Y128D02*
X1452Y128D01*
X1464Y128D02*
X1467Y128D01*
X1477Y128D02*
X1480Y128D01*
X1491Y128D02*
X1496Y128D01*
X1506Y128D02*
X1509Y128D01*
X1549Y128D02*
X1552Y128D01*
X1570Y128D02*
X1573Y128D01*
X1597Y128D02*
X1601Y128D01*
X1606Y128D02*
X1609Y128D01*
X1627Y128D02*
X1630Y128D01*
X1647Y128D02*
X1650Y128D01*
X1655Y128D02*
X1658Y128D01*
X1663Y128D02*
X1666Y128D01*
X1675Y128D02*
X1678Y128D01*
X1691Y128D02*
X1694Y128D01*
X1719Y128D02*
X1722Y128D01*
X1760Y128D02*
X1763Y128D01*
X1776Y128D02*
X1779Y128D01*
X1789Y128D02*
X1792Y128D01*
X1804Y128D02*
X1807Y128D01*
X1817Y128D02*
X1820Y128D01*
X1832Y128D02*
X1836Y128D01*
X1857Y128D02*
X1860Y128D01*
X1882Y128D02*
X1884Y128D01*
X1902Y128D02*
X1905Y128D01*
X1918Y128D02*
X1921Y128D01*
X1999Y128D02*
X2002Y128D01*
X2031Y128D02*
X2034Y128D01*
X2044Y128D02*
X2047Y128D01*
X2059Y128D02*
X2062Y128D01*
X2074Y128D02*
X2077Y128D01*
X2100Y128D02*
X2103Y128D01*
X2116Y128D02*
X2119Y128D01*
X2129Y128D02*
X2131Y128D01*
X2143Y128D02*
X2147Y128D01*
X2157Y128D02*
X2160Y128D01*
X2173Y128D02*
X2176Y128D01*
X2214Y128D02*
X2217Y128D01*
X2229Y128D02*
X2232Y128D01*
X2242Y128D02*
X2245Y128D01*
X2258Y128D02*
X2261Y128D01*
X2271Y128D02*
X2274Y128D01*
X2286Y128D02*
X2289Y128D01*
X2311Y128D02*
X2314Y128D01*
X2335Y128D02*
X2338Y128D01*
X2371Y128D02*
X2374Y128D01*
X1067Y127D02*
X1070Y127D01*
X1080Y127D02*
X1083Y127D01*
X1096Y127D02*
X1099Y127D01*
X1116Y127D02*
X1119Y127D01*
X1145Y127D02*
X1148Y127D01*
X1165Y127D02*
X1168Y127D01*
X1181Y127D02*
X1184Y127D01*
X1209Y127D02*
X1212Y127D01*
X1231Y127D02*
X1234Y127D01*
X1258Y127D02*
X1261Y127D01*
X1279Y127D02*
X1294Y127D01*
X1322Y127D02*
X1325Y127D01*
X1335Y127D02*
X1338Y127D01*
X1351Y127D02*
X1354Y127D01*
X1364Y127D02*
X1367Y127D01*
X1379Y127D02*
X1382Y127D01*
X1400Y127D02*
X1408Y127D01*
X1420Y127D02*
X1423Y127D01*
X1436Y127D02*
X1439Y127D01*
X1449Y127D02*
X1452Y127D01*
X1464Y127D02*
X1467Y127D01*
X1492Y127D02*
X1496Y127D01*
X1506Y127D02*
X1521Y127D01*
X1549Y127D02*
X1552Y127D01*
X1570Y127D02*
X1573Y127D01*
X1597Y127D02*
X1600Y127D01*
X1606Y127D02*
X1609Y127D01*
X1627Y127D02*
X1631Y127D01*
X1647Y127D02*
X1650Y127D01*
X1655Y127D02*
X1658Y127D01*
X1663Y127D02*
X1666Y127D01*
X1675Y127D02*
X1678Y127D01*
X1691Y127D02*
X1694Y127D01*
X1719Y127D02*
X1722Y127D01*
X1760Y127D02*
X1763Y127D01*
X1776Y127D02*
X1779Y127D01*
X1789Y127D02*
X1792Y127D01*
X1804Y127D02*
X1807Y127D01*
X1817Y127D02*
X1820Y127D01*
X1833Y127D02*
X1836Y127D01*
X1857Y127D02*
X1860Y127D01*
X1882Y127D02*
X1884Y127D01*
X1902Y127D02*
X1905Y127D01*
X1918Y127D02*
X1921Y127D01*
X1999Y127D02*
X2002Y127D01*
X2031Y127D02*
X2034Y127D01*
X2044Y127D02*
X2047Y127D01*
X2059Y127D02*
X2062Y127D01*
X2074Y127D02*
X2077Y127D01*
X2100Y127D02*
X2103Y127D01*
X2116Y127D02*
X2119Y127D01*
X2144Y127D02*
X2147Y127D01*
X2157Y127D02*
X2160Y127D01*
X2173Y127D02*
X2176Y127D01*
X2214Y127D02*
X2217Y127D01*
X2229Y127D02*
X2232Y127D01*
X2242Y127D02*
X2245Y127D01*
X2258Y127D02*
X2261Y127D01*
X2271Y127D02*
X2274Y127D01*
X2286Y127D02*
X2289Y127D01*
X2311Y127D02*
X2314Y127D01*
X2335Y127D02*
X2338Y127D01*
X2355Y127D02*
X2364Y127D01*
X2371Y127D02*
X2374Y127D01*
X1067Y126D02*
X1070Y126D01*
X1080Y126D02*
X1099Y126D01*
X1116Y126D02*
X1119Y126D01*
X1145Y126D02*
X1148Y126D01*
X1165Y126D02*
X1184Y126D01*
X1209Y126D02*
X1212Y126D01*
X1231Y126D02*
X1235Y126D01*
X1258Y126D02*
X1261Y126D01*
X1279Y126D02*
X1295Y126D01*
X1323Y126D02*
X1325Y126D01*
X1335Y126D02*
X1354Y126D01*
X1364Y126D02*
X1367Y126D01*
X1379Y126D02*
X1382Y126D01*
X1397Y126D02*
X1406Y126D01*
X1420Y126D02*
X1423Y126D01*
X1436Y126D02*
X1439Y126D01*
X1449Y126D02*
X1452Y126D01*
X1464Y126D02*
X1467Y126D01*
X1493Y126D02*
X1496Y126D01*
X1506Y126D02*
X1522Y126D01*
X1549Y126D02*
X1552Y126D01*
X1570Y126D02*
X1573Y126D01*
X1596Y126D02*
X1600Y126D01*
X1606Y126D02*
X1609Y126D01*
X1628Y126D02*
X1632Y126D01*
X1647Y126D02*
X1650Y126D01*
X1655Y126D02*
X1658Y126D01*
X1663Y126D02*
X1666Y126D01*
X1675Y126D02*
X1678Y126D01*
X1691Y126D02*
X1694Y126D01*
X1719Y126D02*
X1722Y126D01*
X1740Y126D02*
X1743Y126D01*
X1760Y126D02*
X1763Y126D01*
X1776Y126D02*
X1779Y126D01*
X1789Y126D02*
X1792Y126D01*
X1804Y126D02*
X1807Y126D01*
X1817Y126D02*
X1820Y126D01*
X1833Y126D02*
X1836Y126D01*
X1857Y126D02*
X1860Y126D01*
X1882Y126D02*
X1884Y126D01*
X1902Y126D02*
X1905Y126D01*
X1918Y126D02*
X1921Y126D01*
X1967Y126D02*
X1970Y126D01*
X1999Y126D02*
X2002Y126D01*
X2031Y126D02*
X2034Y126D01*
X2044Y126D02*
X2062Y126D01*
X2074Y126D02*
X2077Y126D01*
X2100Y126D02*
X2103Y126D01*
X2116Y126D02*
X2119Y126D01*
X2144Y126D02*
X2147Y126D01*
X2157Y126D02*
X2160Y126D01*
X2173Y126D02*
X2176Y126D01*
X2214Y126D02*
X2217Y126D01*
X2229Y126D02*
X2232Y126D01*
X2242Y126D02*
X2245Y126D01*
X2258Y126D02*
X2260Y126D01*
X2271Y126D02*
X2274Y126D01*
X2286Y126D02*
X2289Y126D01*
X2311Y126D02*
X2314Y126D01*
X2335Y126D02*
X2338Y126D01*
X2355Y126D02*
X2364Y126D01*
X2371Y126D02*
X2374Y126D01*
X1067Y125D02*
X1070Y125D01*
X1080Y125D02*
X1099Y125D01*
X1116Y125D02*
X1119Y125D01*
X1145Y125D02*
X1148Y125D01*
X1165Y125D02*
X1184Y125D01*
X1209Y125D02*
X1212Y125D01*
X1232Y125D02*
X1235Y125D01*
X1258Y125D02*
X1261Y125D01*
X1279Y125D02*
X1296Y125D01*
X1323Y125D02*
X1325Y125D01*
X1335Y125D02*
X1354Y125D01*
X1364Y125D02*
X1367Y125D01*
X1379Y125D02*
X1382Y125D01*
X1395Y125D02*
X1404Y125D01*
X1420Y125D02*
X1423Y125D01*
X1436Y125D02*
X1439Y125D01*
X1449Y125D02*
X1452Y125D01*
X1464Y125D02*
X1467Y125D01*
X1493Y125D02*
X1496Y125D01*
X1506Y125D02*
X1523Y125D01*
X1549Y125D02*
X1552Y125D01*
X1570Y125D02*
X1573Y125D01*
X1595Y125D02*
X1599Y125D01*
X1606Y125D02*
X1609Y125D01*
X1629Y125D02*
X1632Y125D01*
X1647Y125D02*
X1650Y125D01*
X1655Y125D02*
X1658Y125D01*
X1663Y125D02*
X1666Y125D01*
X1675Y125D02*
X1678Y125D01*
X1691Y125D02*
X1694Y125D01*
X1719Y125D02*
X1722Y125D01*
X1738Y125D02*
X1744Y125D01*
X1760Y125D02*
X1763Y125D01*
X1776Y125D02*
X1779Y125D01*
X1789Y125D02*
X1792Y125D01*
X1804Y125D02*
X1807Y125D01*
X1817Y125D02*
X1820Y125D01*
X1833Y125D02*
X1836Y125D01*
X1857Y125D02*
X1860Y125D01*
X1882Y125D02*
X1884Y125D01*
X1902Y125D02*
X1905Y125D01*
X1918Y125D02*
X1921Y125D01*
X1965Y125D02*
X1971Y125D01*
X1999Y125D02*
X2002Y125D01*
X2031Y125D02*
X2034Y125D01*
X2044Y125D02*
X2062Y125D01*
X2074Y125D02*
X2077Y125D01*
X2100Y125D02*
X2103Y125D01*
X2116Y125D02*
X2119Y125D01*
X2144Y125D02*
X2147Y125D01*
X2157Y125D02*
X2160Y125D01*
X2173Y125D02*
X2176Y125D01*
X2214Y125D02*
X2217Y125D01*
X2229Y125D02*
X2232Y125D01*
X2242Y125D02*
X2245Y125D01*
X2257Y125D02*
X2260Y125D01*
X2271Y125D02*
X2274Y125D01*
X2286Y125D02*
X2289Y125D01*
X2311Y125D02*
X2314Y125D01*
X2335Y125D02*
X2338Y125D01*
X2355Y125D02*
X2364Y125D01*
X2371Y125D02*
X2374Y125D01*
X1067Y124D02*
X1070Y124D01*
X1080Y124D02*
X1099Y124D01*
X1116Y124D02*
X1119Y124D01*
X1145Y124D02*
X1148Y124D01*
X1165Y124D02*
X1184Y124D01*
X1209Y124D02*
X1212Y124D01*
X1232Y124D02*
X1236Y124D01*
X1258Y124D02*
X1261Y124D01*
X1279Y124D02*
X1297Y124D01*
X1323Y124D02*
X1325Y124D01*
X1335Y124D02*
X1354Y124D01*
X1364Y124D02*
X1367Y124D01*
X1379Y124D02*
X1382Y124D01*
X1394Y124D02*
X1402Y124D01*
X1420Y124D02*
X1423Y124D01*
X1436Y124D02*
X1439Y124D01*
X1449Y124D02*
X1452Y124D01*
X1464Y124D02*
X1467Y124D01*
X1493Y124D02*
X1496Y124D01*
X1506Y124D02*
X1523Y124D01*
X1549Y124D02*
X1552Y124D01*
X1570Y124D02*
X1573Y124D01*
X1595Y124D02*
X1598Y124D01*
X1606Y124D02*
X1609Y124D01*
X1629Y124D02*
X1633Y124D01*
X1647Y124D02*
X1650Y124D01*
X1655Y124D02*
X1658Y124D01*
X1663Y124D02*
X1666Y124D01*
X1675Y124D02*
X1678Y124D01*
X1691Y124D02*
X1694Y124D01*
X1719Y124D02*
X1722Y124D01*
X1738Y124D02*
X1745Y124D01*
X1760Y124D02*
X1763Y124D01*
X1776Y124D02*
X1779Y124D01*
X1789Y124D02*
X1792Y124D01*
X1804Y124D02*
X1807Y124D01*
X1817Y124D02*
X1820Y124D01*
X1833Y124D02*
X1836Y124D01*
X1857Y124D02*
X1860Y124D01*
X1882Y124D02*
X1884Y124D01*
X1902Y124D02*
X1905Y124D01*
X1918Y124D02*
X1921Y124D01*
X1965Y124D02*
X1971Y124D01*
X1999Y124D02*
X2002Y124D01*
X2031Y124D02*
X2034Y124D01*
X2044Y124D02*
X2062Y124D01*
X2074Y124D02*
X2077Y124D01*
X2100Y124D02*
X2103Y124D01*
X2116Y124D02*
X2119Y124D01*
X2144Y124D02*
X2147Y124D01*
X2157Y124D02*
X2160Y124D01*
X2173Y124D02*
X2176Y124D01*
X2214Y124D02*
X2217Y124D01*
X2229Y124D02*
X2232Y124D01*
X2242Y124D02*
X2245Y124D01*
X2257Y124D02*
X2260Y124D01*
X2271Y124D02*
X2274Y124D01*
X2286Y124D02*
X2289Y124D01*
X2311Y124D02*
X2314Y124D01*
X2335Y124D02*
X2338Y124D01*
X2355Y124D02*
X2363Y124D01*
X2371Y124D02*
X2374Y124D01*
X1067Y123D02*
X1070Y123D01*
X1081Y123D02*
X1099Y123D01*
X1116Y123D02*
X1119Y123D01*
X1145Y123D02*
X1148Y123D01*
X1166Y123D02*
X1184Y123D01*
X1209Y123D02*
X1212Y123D01*
X1233Y123D02*
X1237Y123D01*
X1258Y123D02*
X1261Y123D01*
X1279Y123D02*
X1282Y123D01*
X1294Y123D02*
X1297Y123D01*
X1323Y123D02*
X1325Y123D01*
X1336Y123D02*
X1354Y123D01*
X1364Y123D02*
X1367Y123D01*
X1379Y123D02*
X1382Y123D01*
X1393Y123D02*
X1399Y123D01*
X1420Y123D02*
X1423Y123D01*
X1436Y123D02*
X1439Y123D01*
X1449Y123D02*
X1452Y123D01*
X1464Y123D02*
X1467Y123D01*
X1493Y123D02*
X1496Y123D01*
X1506Y123D02*
X1509Y123D01*
X1520Y123D02*
X1524Y123D01*
X1549Y123D02*
X1552Y123D01*
X1570Y123D02*
X1573Y123D01*
X1594Y123D02*
X1598Y123D01*
X1606Y123D02*
X1609Y123D01*
X1630Y123D02*
X1633Y123D01*
X1647Y123D02*
X1650Y123D01*
X1655Y123D02*
X1658Y123D01*
X1663Y123D02*
X1666Y123D01*
X1675Y123D02*
X1678Y123D01*
X1691Y123D02*
X1694Y123D01*
X1719Y123D02*
X1722Y123D01*
X1738Y123D02*
X1745Y123D01*
X1760Y123D02*
X1763Y123D01*
X1776Y123D02*
X1779Y123D01*
X1789Y123D02*
X1792Y123D01*
X1804Y123D02*
X1807Y123D01*
X1817Y123D02*
X1820Y123D01*
X1833Y123D02*
X1836Y123D01*
X1857Y123D02*
X1860Y123D01*
X1882Y123D02*
X1884Y123D01*
X1902Y123D02*
X1906Y123D01*
X1918Y123D02*
X1921Y123D01*
X1965Y123D02*
X1972Y123D01*
X1999Y123D02*
X2002Y123D01*
X2031Y123D02*
X2034Y123D01*
X2044Y123D02*
X2062Y123D01*
X2074Y123D02*
X2077Y123D01*
X2100Y123D02*
X2103Y123D01*
X2116Y123D02*
X2119Y123D01*
X2144Y123D02*
X2147Y123D01*
X2157Y123D02*
X2160Y123D01*
X2173Y123D02*
X2176Y123D01*
X2214Y123D02*
X2217Y123D01*
X2229Y123D02*
X2232Y123D01*
X2242Y123D02*
X2245Y123D01*
X2257Y123D02*
X2260Y123D01*
X2271Y123D02*
X2274Y123D01*
X2286Y123D02*
X2289Y123D01*
X2311Y123D02*
X2314Y123D01*
X2335Y123D02*
X2338Y123D01*
X2355Y123D02*
X2358Y123D01*
X2371Y123D02*
X2374Y123D01*
X1067Y122D02*
X1070Y122D01*
X1095Y122D02*
X1099Y122D01*
X1116Y122D02*
X1119Y122D01*
X1145Y122D02*
X1148Y122D01*
X1180Y122D02*
X1184Y122D01*
X1209Y122D02*
X1212Y122D01*
X1233Y122D02*
X1237Y122D01*
X1258Y122D02*
X1261Y122D01*
X1279Y122D02*
X1282Y122D01*
X1294Y122D02*
X1297Y122D01*
X1323Y122D02*
X1325Y122D01*
X1350Y122D02*
X1354Y122D01*
X1364Y122D02*
X1368Y122D01*
X1379Y122D02*
X1382Y122D01*
X1392Y122D02*
X1397Y122D01*
X1420Y122D02*
X1423Y122D01*
X1436Y122D02*
X1439Y122D01*
X1449Y122D02*
X1452Y122D01*
X1464Y122D02*
X1467Y122D01*
X1493Y122D02*
X1496Y122D01*
X1505Y122D02*
X1509Y122D01*
X1521Y122D02*
X1524Y122D01*
X1549Y122D02*
X1552Y122D01*
X1570Y122D02*
X1573Y122D01*
X1594Y122D02*
X1597Y122D01*
X1606Y122D02*
X1609Y122D01*
X1630Y122D02*
X1634Y122D01*
X1647Y122D02*
X1650Y122D01*
X1655Y122D02*
X1658Y122D01*
X1663Y122D02*
X1666Y122D01*
X1675Y122D02*
X1678Y122D01*
X1691Y122D02*
X1694Y122D01*
X1719Y122D02*
X1722Y122D01*
X1738Y122D02*
X1745Y122D01*
X1760Y122D02*
X1763Y122D01*
X1776Y122D02*
X1779Y122D01*
X1789Y122D02*
X1792Y122D01*
X1804Y122D02*
X1807Y122D01*
X1817Y122D02*
X1820Y122D01*
X1833Y122D02*
X1836Y122D01*
X1857Y122D02*
X1860Y122D01*
X1882Y122D02*
X1884Y122D01*
X1902Y122D02*
X1907Y122D01*
X1918Y122D02*
X1921Y122D01*
X1965Y122D02*
X1972Y122D01*
X1999Y122D02*
X2002Y122D01*
X2031Y122D02*
X2034Y122D01*
X2059Y122D02*
X2062Y122D01*
X2074Y122D02*
X2077Y122D01*
X2100Y122D02*
X2103Y122D01*
X2116Y122D02*
X2119Y122D01*
X2144Y122D02*
X2147Y122D01*
X2157Y122D02*
X2160Y122D01*
X2173Y122D02*
X2176Y122D01*
X2214Y122D02*
X2217Y122D01*
X2229Y122D02*
X2232Y122D01*
X2242Y122D02*
X2245Y122D01*
X2257Y122D02*
X2260Y122D01*
X2271Y122D02*
X2274Y122D01*
X2286Y122D02*
X2289Y122D01*
X2311Y122D02*
X2314Y122D01*
X2335Y122D02*
X2338Y122D01*
X2355Y122D02*
X2358Y122D01*
X2371Y122D02*
X2374Y122D01*
X1067Y121D02*
X1070Y121D01*
X1096Y121D02*
X1099Y121D01*
X1116Y121D02*
X1119Y121D01*
X1145Y121D02*
X1148Y121D01*
X1181Y121D02*
X1184Y121D01*
X1209Y121D02*
X1212Y121D01*
X1234Y121D02*
X1238Y121D01*
X1258Y121D02*
X1261Y121D01*
X1279Y121D02*
X1282Y121D01*
X1294Y121D02*
X1297Y121D01*
X1323Y121D02*
X1325Y121D01*
X1351Y121D02*
X1354Y121D01*
X1364Y121D02*
X1369Y121D01*
X1379Y121D02*
X1382Y121D01*
X1392Y121D02*
X1395Y121D01*
X1420Y121D02*
X1423Y121D01*
X1436Y121D02*
X1439Y121D01*
X1449Y121D02*
X1452Y121D01*
X1464Y121D02*
X1467Y121D01*
X1493Y121D02*
X1496Y121D01*
X1505Y121D02*
X1508Y121D01*
X1521Y121D02*
X1524Y121D01*
X1548Y121D02*
X1552Y121D01*
X1570Y121D02*
X1573Y121D01*
X1593Y121D02*
X1597Y121D01*
X1606Y121D02*
X1609Y121D01*
X1631Y121D02*
X1634Y121D01*
X1647Y121D02*
X1650Y121D01*
X1655Y121D02*
X1658Y121D01*
X1663Y121D02*
X1666Y121D01*
X1675Y121D02*
X1678Y121D01*
X1691Y121D02*
X1694Y121D01*
X1719Y121D02*
X1722Y121D01*
X1738Y121D02*
X1745Y121D01*
X1760Y121D02*
X1763Y121D01*
X1775Y121D02*
X1779Y121D01*
X1789Y121D02*
X1793Y121D01*
X1804Y121D02*
X1807Y121D01*
X1817Y121D02*
X1820Y121D01*
X1833Y121D02*
X1836Y121D01*
X1857Y121D02*
X1860Y121D01*
X1882Y121D02*
X1884Y121D01*
X1902Y121D02*
X1908Y121D01*
X1917Y121D02*
X1920Y121D01*
X1965Y121D02*
X1971Y121D01*
X1999Y121D02*
X2002Y121D01*
X2030Y121D02*
X2034Y121D01*
X2059Y121D02*
X2062Y121D01*
X2074Y121D02*
X2077Y121D01*
X2100Y121D02*
X2103Y121D01*
X2116Y121D02*
X2119Y121D01*
X2144Y121D02*
X2147Y121D01*
X2157Y121D02*
X2160Y121D01*
X2172Y121D02*
X2176Y121D01*
X2214Y121D02*
X2217Y121D01*
X2229Y121D02*
X2232Y121D01*
X2242Y121D02*
X2246Y121D01*
X2257Y121D02*
X2260Y121D01*
X2271Y121D02*
X2274Y121D01*
X2286Y121D02*
X2289Y121D01*
X2311Y121D02*
X2314Y121D01*
X2335Y121D02*
X2338Y121D01*
X2355Y121D02*
X2358Y121D01*
X2371Y121D02*
X2374Y121D01*
X1067Y120D02*
X1070Y120D01*
X1096Y120D02*
X1099Y120D01*
X1116Y120D02*
X1119Y120D01*
X1145Y120D02*
X1148Y120D01*
X1181Y120D02*
X1184Y120D01*
X1209Y120D02*
X1212Y120D01*
X1235Y120D02*
X1238Y120D01*
X1258Y120D02*
X1261Y120D01*
X1279Y120D02*
X1282Y120D01*
X1294Y120D02*
X1297Y120D01*
X1323Y120D02*
X1325Y120D01*
X1351Y120D02*
X1354Y120D01*
X1364Y120D02*
X1370Y120D01*
X1378Y120D02*
X1382Y120D01*
X1392Y120D02*
X1395Y120D01*
X1420Y120D02*
X1423Y120D01*
X1436Y120D02*
X1439Y120D01*
X1449Y120D02*
X1454Y120D01*
X1464Y120D02*
X1467Y120D01*
X1493Y120D02*
X1496Y120D01*
X1505Y120D02*
X1509Y120D01*
X1521Y120D02*
X1524Y120D01*
X1547Y120D02*
X1552Y120D01*
X1570Y120D02*
X1573Y120D01*
X1592Y120D02*
X1596Y120D01*
X1606Y120D02*
X1609Y120D01*
X1631Y120D02*
X1635Y120D01*
X1647Y120D02*
X1650Y120D01*
X1655Y120D02*
X1658Y120D01*
X1663Y120D02*
X1666Y120D01*
X1675Y120D02*
X1679Y120D01*
X1691Y120D02*
X1694Y120D01*
X1717Y120D02*
X1722Y120D01*
X1738Y120D02*
X1745Y120D01*
X1760Y120D02*
X1764Y120D01*
X1774Y120D02*
X1779Y120D01*
X1789Y120D02*
X1794Y120D01*
X1804Y120D02*
X1807Y120D01*
X1817Y120D02*
X1820Y120D01*
X1833Y120D02*
X1836Y120D01*
X1846Y120D02*
X1848Y120D01*
X1857Y120D02*
X1860Y120D01*
X1882Y120D02*
X1884Y120D01*
X1902Y120D02*
X1909Y120D01*
X1916Y120D02*
X1920Y120D01*
X1965Y120D02*
X1971Y120D01*
X1987Y120D02*
X1990Y120D01*
X1999Y120D02*
X2002Y120D01*
X2029Y120D02*
X2033Y120D01*
X2059Y120D02*
X2062Y120D01*
X2074Y120D02*
X2077Y120D01*
X2100Y120D02*
X2104Y120D01*
X2116Y120D02*
X2119Y120D01*
X2144Y120D02*
X2147Y120D01*
X2157Y120D02*
X2161Y120D01*
X2171Y120D02*
X2176Y120D01*
X2214Y120D02*
X2217Y120D01*
X2228Y120D02*
X2232Y120D01*
X2242Y120D02*
X2248Y120D01*
X2257Y120D02*
X2260Y120D01*
X2271Y120D02*
X2274Y120D01*
X2286Y120D02*
X2289Y120D01*
X2299Y120D02*
X2301Y120D01*
X2311Y120D02*
X2314Y120D01*
X2335Y120D02*
X2338Y120D01*
X2356Y120D02*
X2358Y120D01*
X2371Y120D02*
X2374Y120D01*
X1067Y119D02*
X1070Y119D01*
X1095Y119D02*
X1098Y119D01*
X1116Y119D02*
X1119Y119D01*
X1145Y119D02*
X1148Y119D01*
X1180Y119D02*
X1183Y119D01*
X1209Y119D02*
X1212Y119D01*
X1235Y119D02*
X1239Y119D01*
X1258Y119D02*
X1261Y119D01*
X1279Y119D02*
X1284Y119D01*
X1294Y119D02*
X1297Y119D01*
X1323Y119D02*
X1325Y119D01*
X1350Y119D02*
X1354Y119D01*
X1364Y119D02*
X1381Y119D01*
X1392Y119D02*
X1395Y119D01*
X1409Y119D02*
X1410Y119D01*
X1421Y119D02*
X1424Y119D01*
X1435Y119D02*
X1439Y119D01*
X1449Y119D02*
X1455Y119D01*
X1463Y119D02*
X1467Y119D01*
X1493Y119D02*
X1496Y119D01*
X1505Y119D02*
X1510Y119D01*
X1521Y119D02*
X1524Y119D01*
X1546Y119D02*
X1551Y119D01*
X1570Y119D02*
X1573Y119D01*
X1592Y119D02*
X1596Y119D01*
X1606Y119D02*
X1609Y119D01*
X1632Y119D02*
X1636Y119D01*
X1647Y119D02*
X1650Y119D01*
X1655Y119D02*
X1658Y119D01*
X1663Y119D02*
X1666Y119D01*
X1676Y119D02*
X1679Y119D01*
X1690Y119D02*
X1694Y119D01*
X1716Y119D02*
X1721Y119D01*
X1739Y119D02*
X1744Y119D01*
X1761Y119D02*
X1764Y119D01*
X1773Y119D02*
X1779Y119D01*
X1789Y119D02*
X1796Y119D01*
X1804Y119D02*
X1807Y119D01*
X1817Y119D02*
X1820Y119D01*
X1833Y119D02*
X1836Y119D01*
X1845Y119D02*
X1849Y119D01*
X1857Y119D02*
X1860Y119D01*
X1882Y119D02*
X1884Y119D01*
X1902Y119D02*
X1919Y119D01*
X1966Y119D02*
X1970Y119D01*
X1987Y119D02*
X1990Y119D01*
X1999Y119D02*
X2002Y119D01*
X2028Y119D02*
X2033Y119D01*
X2058Y119D02*
X2062Y119D01*
X2074Y119D02*
X2077Y119D01*
X2101Y119D02*
X2105Y119D01*
X2115Y119D02*
X2119Y119D01*
X2144Y119D02*
X2147Y119D01*
X2158Y119D02*
X2162Y119D01*
X2170Y119D02*
X2176Y119D01*
X2214Y119D02*
X2218Y119D01*
X2226Y119D02*
X2232Y119D01*
X2242Y119D02*
X2249Y119D01*
X2257Y119D02*
X2260Y119D01*
X2271Y119D02*
X2274Y119D01*
X2286Y119D02*
X2289Y119D01*
X2299Y119D02*
X2302Y119D01*
X2310Y119D02*
X2313Y119D01*
X2335Y119D02*
X2338Y119D01*
X2356Y119D02*
X2359Y119D01*
X2371Y119D02*
X2374Y119D01*
X1067Y118D02*
X1070Y118D01*
X1093Y118D02*
X1098Y118D01*
X1116Y118D02*
X1119Y118D01*
X1145Y118D02*
X1148Y118D01*
X1178Y118D02*
X1183Y118D01*
X1209Y118D02*
X1212Y118D01*
X1236Y118D02*
X1239Y118D01*
X1258Y118D02*
X1261Y118D01*
X1279Y118D02*
X1285Y118D01*
X1293Y118D02*
X1297Y118D01*
X1323Y118D02*
X1325Y118D01*
X1348Y118D02*
X1353Y118D01*
X1364Y118D02*
X1380Y118D01*
X1392Y118D02*
X1396Y118D01*
X1407Y118D02*
X1410Y118D01*
X1421Y118D02*
X1426Y118D01*
X1433Y118D02*
X1438Y118D01*
X1449Y118D02*
X1456Y118D01*
X1462Y118D02*
X1466Y118D01*
X1493Y118D02*
X1496Y118D01*
X1505Y118D02*
X1512Y118D01*
X1520Y118D02*
X1524Y118D01*
X1545Y118D02*
X1550Y118D01*
X1570Y118D02*
X1573Y118D01*
X1591Y118D02*
X1595Y118D01*
X1606Y118D02*
X1609Y118D01*
X1633Y118D02*
X1636Y118D01*
X1647Y118D02*
X1650Y118D01*
X1655Y118D02*
X1658Y118D01*
X1663Y118D02*
X1666Y118D01*
X1676Y118D02*
X1681Y118D01*
X1688Y118D02*
X1693Y118D01*
X1715Y118D02*
X1720Y118D01*
X1761Y118D02*
X1766Y118D01*
X1772Y118D02*
X1779Y118D01*
X1789Y118D02*
X1798Y118D01*
X1803Y118D02*
X1806Y118D01*
X1817Y118D02*
X1820Y118D01*
X1833Y118D02*
X1836Y118D01*
X1846Y118D02*
X1849Y118D01*
X1856Y118D02*
X1860Y118D01*
X1881Y118D02*
X1885Y118D01*
X1902Y118D02*
X1919Y118D01*
X1987Y118D02*
X1991Y118D01*
X1998Y118D02*
X2002Y118D01*
X2027Y118D02*
X2032Y118D01*
X2057Y118D02*
X2062Y118D01*
X2074Y118D02*
X2077Y118D01*
X2101Y118D02*
X2106Y118D01*
X2114Y118D02*
X2118Y118D01*
X2144Y118D02*
X2147Y118D01*
X2158Y118D02*
X2163Y118D01*
X2169Y118D02*
X2176Y118D01*
X2215Y118D02*
X2219Y118D01*
X2225Y118D02*
X2232Y118D01*
X2242Y118D02*
X2251Y118D01*
X2256Y118D02*
X2260Y118D01*
X2271Y118D02*
X2274Y118D01*
X2286Y118D02*
X2289Y118D01*
X2299Y118D02*
X2303Y118D01*
X2310Y118D02*
X2313Y118D01*
X2335Y118D02*
X2338Y118D01*
X2356Y118D02*
X2360Y118D01*
X2370Y118D02*
X2374Y118D01*
X1067Y117D02*
X1070Y117D01*
X1081Y117D02*
X1097Y117D01*
X1111Y117D02*
X1125Y117D01*
X1139Y117D02*
X1153Y117D01*
X1166Y117D02*
X1182Y117D01*
X1209Y117D02*
X1212Y117D01*
X1236Y117D02*
X1240Y117D01*
X1253Y117D02*
X1266Y117D01*
X1279Y117D02*
X1296Y117D01*
X1323Y117D02*
X1325Y117D01*
X1336Y117D02*
X1352Y117D01*
X1364Y117D02*
X1367Y117D01*
X1369Y117D02*
X1379Y117D01*
X1393Y117D02*
X1410Y117D01*
X1422Y117D02*
X1437Y117D01*
X1449Y117D02*
X1466Y117D01*
X1493Y117D02*
X1496Y117D01*
X1505Y117D02*
X1523Y117D01*
X1534Y117D02*
X1549Y117D01*
X1565Y117D02*
X1578Y117D01*
X1591Y117D02*
X1594Y117D01*
X1606Y117D02*
X1609Y117D01*
X1633Y117D02*
X1637Y117D01*
X1647Y117D02*
X1650Y117D01*
X1655Y117D02*
X1658Y117D01*
X1663Y117D02*
X1666Y117D01*
X1677Y117D02*
X1693Y117D01*
X1704Y117D02*
X1719Y117D01*
X1762Y117D02*
X1779Y117D01*
X1789Y117D02*
X1806Y117D01*
X1817Y117D02*
X1820Y117D01*
X1833Y117D02*
X1836Y117D01*
X1846Y117D02*
X1859Y117D01*
X1876Y117D02*
X1890Y117D01*
X1902Y117D02*
X1905Y117D01*
X1907Y117D02*
X1917Y117D01*
X1988Y117D02*
X2001Y117D01*
X2016Y117D02*
X2031Y117D01*
X2044Y117D02*
X2061Y117D01*
X2074Y117D02*
X2077Y117D01*
X2102Y117D02*
X2118Y117D01*
X2144Y117D02*
X2147Y117D01*
X2159Y117D02*
X2165Y117D01*
X2168Y117D02*
X2176Y117D01*
X2215Y117D02*
X2232Y117D01*
X2242Y117D02*
X2260Y117D01*
X2271Y117D02*
X2273Y117D01*
X2286Y117D02*
X2289Y117D01*
X2299Y117D02*
X2313Y117D01*
X2330Y117D02*
X2343Y117D01*
X2356Y117D02*
X2373Y117D01*
X1067Y116D02*
X1070Y116D01*
X1080Y116D02*
X1096Y116D01*
X1111Y116D02*
X1125Y116D01*
X1139Y116D02*
X1153Y116D01*
X1165Y116D02*
X1181Y116D01*
X1209Y116D02*
X1212Y116D01*
X1237Y116D02*
X1240Y116D01*
X1252Y116D02*
X1267Y116D01*
X1279Y116D02*
X1296Y116D01*
X1323Y116D02*
X1325Y116D01*
X1335Y116D02*
X1351Y116D01*
X1364Y116D02*
X1367Y116D01*
X1370Y116D02*
X1377Y116D01*
X1393Y116D02*
X1410Y116D01*
X1423Y116D02*
X1436Y116D01*
X1449Y116D02*
X1465Y116D01*
X1493Y116D02*
X1496Y116D01*
X1505Y116D02*
X1523Y116D01*
X1534Y116D02*
X1548Y116D01*
X1564Y116D02*
X1579Y116D01*
X1590Y116D02*
X1594Y116D01*
X1606Y116D02*
X1609Y116D01*
X1634Y116D02*
X1637Y116D01*
X1647Y116D02*
X1650Y116D01*
X1655Y116D02*
X1658Y116D01*
X1663Y116D02*
X1666Y116D01*
X1678Y116D02*
X1691Y116D01*
X1704Y116D02*
X1718Y116D01*
X1763Y116D02*
X1779Y116D01*
X1789Y116D02*
X1792Y116D01*
X1794Y116D02*
X1805Y116D01*
X1817Y116D02*
X1820Y116D01*
X1833Y116D02*
X1836Y116D01*
X1847Y116D02*
X1859Y116D01*
X1876Y116D02*
X1890Y116D01*
X1902Y116D02*
X1905Y116D01*
X1909Y116D02*
X1916Y116D01*
X1988Y116D02*
X2000Y116D01*
X2015Y116D02*
X2030Y116D01*
X2044Y116D02*
X2060Y116D01*
X2074Y116D02*
X2077Y116D01*
X2103Y116D02*
X2117Y116D01*
X2144Y116D02*
X2147Y116D01*
X2161Y116D02*
X2176Y116D01*
X2216Y116D02*
X2232Y116D01*
X2242Y116D02*
X2245Y116D01*
X2248Y116D02*
X2259Y116D01*
X2271Y116D02*
X2273Y116D01*
X2286Y116D02*
X2289Y116D01*
X2300Y116D02*
X2312Y116D01*
X2329Y116D02*
X2344Y116D01*
X2357Y116D02*
X2373Y116D01*
X1068Y115D02*
X1070Y115D01*
X1080Y115D02*
X1095Y115D01*
X1111Y115D02*
X1125Y115D01*
X1139Y115D02*
X1153Y115D01*
X1165Y115D02*
X1180Y115D01*
X1209Y115D02*
X1212Y115D01*
X1238Y115D02*
X1240Y115D01*
X1252Y115D02*
X1267Y115D01*
X1279Y115D02*
X1281Y115D01*
X1284Y115D02*
X1295Y115D01*
X1323Y115D02*
X1325Y115D01*
X1335Y115D02*
X1350Y115D01*
X1364Y115D02*
X1367Y115D01*
X1394Y115D02*
X1408Y115D01*
X1424Y115D02*
X1435Y115D01*
X1449Y115D02*
X1451Y115D01*
X1454Y115D02*
X1464Y115D01*
X1493Y115D02*
X1495Y115D01*
X1505Y115D02*
X1508Y115D01*
X1510Y115D02*
X1522Y115D01*
X1534Y115D02*
X1547Y115D01*
X1564Y115D02*
X1578Y115D01*
X1590Y115D02*
X1593Y115D01*
X1606Y115D02*
X1609Y115D01*
X1634Y115D02*
X1637Y115D01*
X1647Y115D02*
X1649Y115D01*
X1655Y115D02*
X1658Y115D01*
X1663Y115D02*
X1666Y115D01*
X1679Y115D02*
X1690Y115D01*
X1704Y115D02*
X1717Y115D01*
X1764Y115D02*
X1773Y115D01*
X1776Y115D02*
X1779Y115D01*
X1789Y115D02*
X1791Y115D01*
X1796Y115D02*
X1804Y115D01*
X1817Y115D02*
X1820Y115D01*
X1833Y115D02*
X1835Y115D01*
X1848Y115D02*
X1858Y115D01*
X1876Y115D02*
X1890Y115D01*
X1902Y115D02*
X1905Y115D01*
X1989Y115D02*
X1999Y115D01*
X2016Y115D02*
X2028Y115D01*
X2044Y115D02*
X2059Y115D01*
X2074Y115D02*
X2077Y115D01*
X2104Y115D02*
X2115Y115D01*
X2145Y115D02*
X2147Y115D01*
X2162Y115D02*
X2171Y115D01*
X2173Y115D02*
X2176Y115D01*
X2218Y115D02*
X2227Y115D01*
X2230Y115D02*
X2232Y115D01*
X2242Y115D02*
X2245Y115D01*
X2249Y115D02*
X2258Y115D01*
X2271Y115D02*
X2273Y115D01*
X2286Y115D02*
X2289Y115D01*
X2301Y115D02*
X2311Y115D01*
X2329Y115D02*
X2344Y115D01*
X2358Y115D02*
X2372Y115D01*
X1068Y114D02*
X1069Y114D01*
X1081Y114D02*
X1093Y114D01*
X1112Y114D02*
X1124Y114D01*
X1140Y114D02*
X1152Y114D01*
X1166Y114D02*
X1178Y114D01*
X1210Y114D02*
X1211Y114D01*
X1239Y114D02*
X1239Y114D01*
X1253Y114D02*
X1266Y114D01*
X1280Y114D02*
X1281Y114D01*
X1285Y114D02*
X1293Y114D01*
X1324Y114D02*
X1324Y114D01*
X1336Y114D02*
X1348Y114D01*
X1364Y114D02*
X1367Y114D01*
X1396Y114D02*
X1406Y114D01*
X1426Y114D02*
X1433Y114D01*
X1450Y114D02*
X1451Y114D01*
X1456Y114D02*
X1462Y114D01*
X1494Y114D02*
X1495Y114D01*
X1506Y114D02*
X1507Y114D01*
X1512Y114D02*
X1520Y114D01*
X1535Y114D02*
X1545Y114D01*
X1565Y114D02*
X1578Y114D01*
X1591Y114D02*
X1592Y114D01*
X1607Y114D02*
X1608Y114D01*
X1635Y114D02*
X1636Y114D01*
X1648Y114D02*
X1649Y114D01*
X1656Y114D02*
X1657Y114D01*
X1664Y114D02*
X1665Y114D01*
X1681Y114D02*
X1688Y114D01*
X1705Y114D02*
X1715Y114D01*
X1766Y114D02*
X1771Y114D01*
X1777Y114D02*
X1778Y114D01*
X1790Y114D02*
X1791Y114D01*
X1798Y114D02*
X1803Y114D01*
X1818Y114D02*
X1819Y114D01*
X1834Y114D02*
X1835Y114D01*
X1850Y114D02*
X1856Y114D01*
X1877Y114D02*
X1889Y114D01*
X1902Y114D02*
X1905Y114D01*
X1991Y114D02*
X1998Y114D01*
X2016Y114D02*
X2026Y114D01*
X2045Y114D02*
X2057Y114D01*
X2074Y114D02*
X2077Y114D01*
X2106Y114D02*
X2113Y114D01*
X2145Y114D02*
X2146Y114D01*
X2163Y114D02*
X2170Y114D01*
X2173Y114D02*
X2176Y114D01*
X2219Y114D02*
X2225Y114D01*
X2230Y114D02*
X2231Y114D01*
X2243Y114D02*
X2244Y114D01*
X2251Y114D02*
X2256Y114D01*
X2272Y114D02*
X2272Y114D01*
X2287Y114D02*
X2288Y114D01*
X2303Y114D02*
X2309Y114D01*
X2330Y114D02*
X2343Y114D01*
X2360Y114D02*
X2370Y114D01*
X1364Y113D02*
X1367Y113D01*
X1902Y113D02*
X1905Y113D01*
X2074Y113D02*
X2077Y113D01*
X2166Y113D02*
X2167Y113D01*
X2173Y113D02*
X2176Y113D01*
X1364Y112D02*
X1367Y112D01*
X1902Y112D02*
X1905Y112D01*
X2074Y112D02*
X2077Y112D01*
X2086Y112D02*
X2088Y112D01*
X2173Y112D02*
X2176Y112D01*
X1364Y111D02*
X1367Y111D01*
X1902Y111D02*
X1906Y111D01*
X2074Y111D02*
X2077Y111D01*
X2086Y111D02*
X2089Y111D01*
X2173Y111D02*
X2176Y111D01*
X1364Y110D02*
X1368Y110D01*
X1903Y110D02*
X1907Y110D01*
X2074Y110D02*
X2078Y110D01*
X2085Y110D02*
X2089Y110D01*
X2173Y110D02*
X2176Y110D01*
X1365Y109D02*
X1379Y109D01*
X1903Y109D02*
X1918Y109D01*
X2075Y109D02*
X2088Y109D01*
X2173Y109D02*
X2176Y109D01*
X1366Y108D02*
X1380Y108D01*
X1904Y108D02*
X1919Y108D01*
X2075Y108D02*
X2088Y108D01*
X2173Y108D02*
X2176Y108D01*
X1367Y107D02*
X1380Y107D01*
X1905Y107D02*
X1919Y107D01*
X2076Y107D02*
X2087Y107D01*
X2173Y107D02*
X2176Y107D01*
X1368Y106D02*
X1380Y106D01*
X1907Y106D02*
X1918Y106D01*
X2077Y106D02*
X2085Y106D01*
X2173Y106D02*
X2175Y106D01*
X1113Y79D02*
X1115Y79D01*
X1283Y79D02*
X1285Y79D01*
X1453Y79D02*
X1456Y79D01*
X1850Y79D02*
X1852Y79D01*
X2269Y79D02*
X2272Y79D01*
X1112Y78D02*
X1117Y78D01*
X1282Y78D02*
X1287Y78D01*
X1452Y78D02*
X1457Y78D01*
X1849Y78D02*
X1853Y78D01*
X2268Y78D02*
X2273Y78D01*
X1112Y77D02*
X1117Y77D01*
X1141Y77D02*
X1148Y77D01*
X1218Y77D02*
X1220Y77D01*
X1282Y77D02*
X1287Y77D01*
X1347Y77D02*
X1349Y77D01*
X1404Y77D02*
X1405Y77D01*
X1452Y77D02*
X1457Y77D01*
X1538Y77D02*
X1545Y77D01*
X1728Y77D02*
X1730Y77D01*
X1849Y77D02*
X1854Y77D01*
X2084Y77D02*
X2085Y77D01*
X2268Y77D02*
X2273Y77D01*
X2355Y77D02*
X2370Y77D01*
X1112Y76D02*
X1117Y76D01*
X1140Y76D02*
X1149Y76D01*
X1217Y76D02*
X1220Y76D01*
X1282Y76D02*
X1287Y76D01*
X1346Y76D02*
X1349Y76D01*
X1403Y76D02*
X1406Y76D01*
X1452Y76D02*
X1457Y76D01*
X1537Y76D02*
X1546Y76D01*
X1728Y76D02*
X1730Y76D01*
X1849Y76D02*
X1854Y76D01*
X2083Y76D02*
X2086Y76D01*
X2268Y76D02*
X2273Y76D01*
X2353Y76D02*
X2370Y76D01*
X1112Y75D02*
X1117Y75D01*
X1140Y75D02*
X1149Y75D01*
X1218Y75D02*
X1221Y75D01*
X1282Y75D02*
X1287Y75D01*
X1346Y75D02*
X1349Y75D01*
X1403Y75D02*
X1406Y75D01*
X1428Y75D02*
X1430Y75D01*
X1452Y75D02*
X1457Y75D01*
X1537Y75D02*
X1546Y75D01*
X1728Y75D02*
X1731Y75D01*
X1849Y75D02*
X1854Y75D01*
X2083Y75D02*
X2086Y75D01*
X2193Y75D02*
X2195Y75D01*
X2268Y75D02*
X2273Y75D01*
X2352Y75D02*
X2370Y75D01*
X1113Y74D02*
X1116Y74D01*
X1140Y74D02*
X1148Y74D01*
X1218Y74D02*
X1222Y74D01*
X1283Y74D02*
X1286Y74D01*
X1346Y74D02*
X1349Y74D01*
X1403Y74D02*
X1406Y74D01*
X1428Y74D02*
X1430Y74D01*
X1453Y74D02*
X1456Y74D01*
X1537Y74D02*
X1545Y74D01*
X1728Y74D02*
X1731Y74D01*
X1850Y74D02*
X1853Y74D01*
X2083Y74D02*
X2086Y74D01*
X2193Y74D02*
X2196Y74D01*
X2269Y74D02*
X2272Y74D01*
X2352Y74D02*
X2370Y74D01*
X1140Y73D02*
X1143Y73D01*
X1219Y73D02*
X1222Y73D01*
X1346Y73D02*
X1349Y73D01*
X1403Y73D02*
X1406Y73D01*
X1427Y73D02*
X1430Y73D01*
X1537Y73D02*
X1540Y73D01*
X1728Y73D02*
X1731Y73D01*
X2083Y73D02*
X2086Y73D01*
X2193Y73D02*
X2196Y73D01*
X2351Y73D02*
X2355Y73D01*
X2367Y73D02*
X2370Y73D01*
X1140Y72D02*
X1143Y72D01*
X1219Y72D02*
X1223Y72D01*
X1346Y72D02*
X1349Y72D01*
X1403Y72D02*
X1406Y72D01*
X1427Y72D02*
X1430Y72D01*
X1537Y72D02*
X1540Y72D01*
X1728Y72D02*
X1731Y72D01*
X1933Y72D02*
X1938Y72D01*
X2083Y72D02*
X2086Y72D01*
X2193Y72D02*
X2196Y72D01*
X2351Y72D02*
X2354Y72D01*
X2367Y72D02*
X2370Y72D01*
X1140Y71D02*
X1143Y71D01*
X1220Y71D02*
X1223Y71D01*
X1346Y71D02*
X1349Y71D01*
X1403Y71D02*
X1406Y71D01*
X1427Y71D02*
X1430Y71D01*
X1537Y71D02*
X1540Y71D01*
X1728Y71D02*
X1731Y71D01*
X1932Y71D02*
X1939Y71D01*
X2083Y71D02*
X2086Y71D01*
X2193Y71D02*
X2196Y71D01*
X2351Y71D02*
X2354Y71D01*
X2367Y71D02*
X2370Y71D01*
X1140Y70D02*
X1143Y70D01*
X1220Y70D02*
X1224Y70D01*
X1346Y70D02*
X1349Y70D01*
X1403Y70D02*
X1406Y70D01*
X1427Y70D02*
X1430Y70D01*
X1537Y70D02*
X1540Y70D01*
X1728Y70D02*
X1731Y70D01*
X1932Y70D02*
X1939Y70D01*
X2083Y70D02*
X2086Y70D01*
X2193Y70D02*
X2196Y70D01*
X2351Y70D02*
X2354Y70D01*
X2367Y70D02*
X2370Y70D01*
X1052Y69D02*
X1057Y69D01*
X1064Y69D02*
X1065Y69D01*
X1082Y69D02*
X1088Y69D01*
X1113Y69D02*
X1119Y69D01*
X1140Y69D02*
X1143Y69D01*
X1167Y69D02*
X1173Y69D01*
X1194Y69D02*
X1198Y69D01*
X1206Y69D02*
X1206Y69D01*
X1221Y69D02*
X1225Y69D01*
X1252Y69D02*
X1258Y69D01*
X1283Y69D02*
X1289Y69D01*
X1337Y69D02*
X1341Y69D01*
X1346Y69D02*
X1349Y69D01*
X1360Y69D02*
X1361Y69D01*
X1376Y69D02*
X1376Y69D01*
X1393Y69D02*
X1396Y69D01*
X1403Y69D02*
X1406Y69D01*
X1419Y69D02*
X1433Y69D01*
X1453Y69D02*
X1459Y69D01*
X1474Y69D02*
X1474Y69D01*
X1481Y69D02*
X1485Y69D01*
X1537Y69D02*
X1540Y69D01*
X1563Y69D02*
X1571Y69D01*
X1590Y69D02*
X1595Y69D01*
X1603Y69D02*
X1603Y69D01*
X1620Y69D02*
X1626Y69D01*
X1644Y69D02*
X1644Y69D01*
X1651Y69D02*
X1655Y69D01*
X1675Y69D02*
X1685Y69D01*
X1705Y69D02*
X1711Y69D01*
X1728Y69D02*
X1731Y69D01*
X1736Y69D02*
X1740Y69D01*
X1761Y69D02*
X1765Y69D01*
X1773Y69D02*
X1773Y69D01*
X1789Y69D02*
X1798Y69D01*
X1814Y69D02*
X1823Y69D01*
X1850Y69D02*
X1856Y69D01*
X1874Y69D02*
X1879Y69D01*
X1886Y69D02*
X1886Y69D01*
X1932Y69D02*
X1939Y69D01*
X1960Y69D02*
X1966Y69D01*
X1984Y69D02*
X1984Y69D01*
X1991Y69D02*
X1995Y69D01*
X2016Y69D02*
X2024Y69D01*
X2045Y69D02*
X2052Y69D01*
X2055Y69D02*
X2058Y69D01*
X2074Y69D02*
X2078Y69D01*
X2083Y69D02*
X2086Y69D01*
X2102Y69D02*
X2108Y69D01*
X2125Y69D02*
X2126Y69D01*
X2142Y69D02*
X2142Y69D01*
X2184Y69D02*
X2198Y69D01*
X2211Y69D02*
X2220Y69D01*
X2244Y69D02*
X2250Y69D01*
X2269Y69D02*
X2277Y69D01*
X2300Y69D02*
X2307Y69D01*
X2327Y69D02*
X2332Y69D01*
X2340Y69D02*
X2340Y69D01*
X2351Y69D02*
X2354Y69D01*
X2367Y69D02*
X2370Y69D01*
X1050Y68D02*
X1058Y68D01*
X1063Y68D02*
X1066Y68D01*
X1080Y68D02*
X1090Y68D01*
X1112Y68D02*
X1120Y68D01*
X1140Y68D02*
X1143Y68D01*
X1165Y68D02*
X1175Y68D01*
X1192Y68D02*
X1200Y68D01*
X1205Y68D02*
X1207Y68D01*
X1221Y68D02*
X1225Y68D01*
X1250Y68D02*
X1260Y68D01*
X1282Y68D02*
X1290Y68D01*
X1335Y68D02*
X1343Y68D01*
X1346Y68D02*
X1349Y68D01*
X1359Y68D02*
X1362Y68D01*
X1375Y68D02*
X1377Y68D01*
X1391Y68D02*
X1399Y68D01*
X1403Y68D02*
X1406Y68D01*
X1418Y68D02*
X1434Y68D01*
X1452Y68D02*
X1461Y68D01*
X1473Y68D02*
X1475Y68D01*
X1478Y68D02*
X1487Y68D01*
X1537Y68D02*
X1540Y68D01*
X1561Y68D02*
X1572Y68D01*
X1588Y68D02*
X1597Y68D01*
X1602Y68D02*
X1604Y68D01*
X1618Y68D02*
X1629Y68D01*
X1643Y68D02*
X1645Y68D01*
X1648Y68D02*
X1657Y68D01*
X1673Y68D02*
X1687Y68D01*
X1703Y68D02*
X1714Y68D01*
X1728Y68D02*
X1731Y68D01*
X1733Y68D02*
X1742Y68D01*
X1758Y68D02*
X1767Y68D01*
X1772Y68D02*
X1774Y68D01*
X1787Y68D02*
X1799Y68D01*
X1813Y68D02*
X1825Y68D01*
X1849Y68D02*
X1857Y68D01*
X1872Y68D02*
X1880Y68D01*
X1885Y68D02*
X1888Y68D01*
X1932Y68D02*
X1939Y68D01*
X1958Y68D02*
X1969Y68D01*
X1983Y68D02*
X1985Y68D01*
X1988Y68D02*
X1997Y68D01*
X2014Y68D02*
X2025Y68D01*
X2044Y68D02*
X2053Y68D01*
X2055Y68D02*
X2058Y68D01*
X2072Y68D02*
X2080Y68D01*
X2083Y68D02*
X2086Y68D01*
X2100Y68D02*
X2111Y68D01*
X2124Y68D02*
X2127Y68D01*
X2141Y68D02*
X2143Y68D01*
X2183Y68D02*
X2199Y68D01*
X2210Y68D02*
X2222Y68D01*
X2242Y68D02*
X2252Y68D01*
X2268Y68D02*
X2279Y68D01*
X2298Y68D02*
X2309Y68D01*
X2325Y68D02*
X2334Y68D01*
X2339Y68D02*
X2341Y68D01*
X2351Y68D02*
X2354Y68D01*
X2367Y68D02*
X2370Y68D01*
X1049Y67D02*
X1059Y67D01*
X1063Y67D02*
X1066Y67D01*
X1078Y67D02*
X1092Y67D01*
X1112Y67D02*
X1121Y67D01*
X1140Y67D02*
X1143Y67D01*
X1163Y67D02*
X1177Y67D01*
X1191Y67D02*
X1201Y67D01*
X1205Y67D02*
X1208Y67D01*
X1222Y67D02*
X1226Y67D01*
X1248Y67D02*
X1262Y67D01*
X1282Y67D02*
X1291Y67D01*
X1333Y67D02*
X1349Y67D01*
X1359Y67D02*
X1362Y67D01*
X1375Y67D02*
X1378Y67D01*
X1389Y67D02*
X1400Y67D01*
X1403Y67D02*
X1406Y67D01*
X1418Y67D02*
X1434Y67D01*
X1452Y67D02*
X1461Y67D01*
X1472Y67D02*
X1488Y67D01*
X1537Y67D02*
X1540Y67D01*
X1559Y67D02*
X1572Y67D01*
X1587Y67D02*
X1598Y67D01*
X1601Y67D02*
X1604Y67D01*
X1617Y67D02*
X1630Y67D01*
X1643Y67D02*
X1658Y67D01*
X1672Y67D02*
X1688Y67D01*
X1702Y67D02*
X1715Y67D01*
X1728Y67D02*
X1743Y67D01*
X1757Y67D02*
X1768Y67D01*
X1771Y67D02*
X1774Y67D01*
X1786Y67D02*
X1799Y67D01*
X1813Y67D02*
X1827Y67D01*
X1849Y67D02*
X1858Y67D01*
X1871Y67D02*
X1881Y67D01*
X1885Y67D02*
X1888Y67D01*
X1932Y67D02*
X1939Y67D01*
X1957Y67D02*
X1970Y67D01*
X1983Y67D02*
X1999Y67D01*
X2013Y67D02*
X2026Y67D01*
X2043Y67D02*
X2058Y67D01*
X2070Y67D02*
X2086Y67D01*
X2099Y67D02*
X2112Y67D01*
X2124Y67D02*
X2127Y67D01*
X2140Y67D02*
X2143Y67D01*
X2183Y67D02*
X2200Y67D01*
X2209Y67D02*
X2223Y67D01*
X2240Y67D02*
X2254Y67D01*
X2268Y67D02*
X2279Y67D01*
X2297Y67D02*
X2310Y67D01*
X2324Y67D02*
X2335Y67D01*
X2338Y67D02*
X2341Y67D01*
X2351Y67D02*
X2354Y67D01*
X2367Y67D02*
X2370Y67D01*
X1048Y66D02*
X1061Y66D01*
X1063Y66D02*
X1066Y66D01*
X1077Y66D02*
X1093Y66D01*
X1112Y66D02*
X1120Y66D01*
X1140Y66D02*
X1143Y66D01*
X1162Y66D02*
X1178Y66D01*
X1190Y66D02*
X1202Y66D01*
X1205Y66D02*
X1208Y66D01*
X1223Y66D02*
X1226Y66D01*
X1247Y66D02*
X1263Y66D01*
X1282Y66D02*
X1290Y66D01*
X1332Y66D02*
X1349Y66D01*
X1359Y66D02*
X1362Y66D01*
X1375Y66D02*
X1378Y66D01*
X1389Y66D02*
X1406Y66D01*
X1418Y66D02*
X1434Y66D01*
X1452Y66D02*
X1460Y66D01*
X1472Y66D02*
X1489Y66D01*
X1537Y66D02*
X1540Y66D01*
X1559Y66D02*
X1572Y66D01*
X1587Y66D02*
X1599Y66D01*
X1601Y66D02*
X1604Y66D01*
X1616Y66D02*
X1631Y66D01*
X1642Y66D02*
X1660Y66D01*
X1671Y66D02*
X1689Y66D01*
X1701Y66D02*
X1716Y66D01*
X1728Y66D02*
X1744Y66D01*
X1757Y66D02*
X1769Y66D01*
X1771Y66D02*
X1774Y66D01*
X1785Y66D02*
X1798Y66D01*
X1813Y66D02*
X1828Y66D01*
X1849Y66D02*
X1857Y66D01*
X1870Y66D02*
X1882Y66D01*
X1885Y66D02*
X1888Y66D01*
X1932Y66D02*
X1938Y66D01*
X1956Y66D02*
X1971Y66D01*
X1983Y66D02*
X2000Y66D01*
X2012Y66D02*
X2025Y66D01*
X2042Y66D02*
X2058Y66D01*
X2069Y66D02*
X2086Y66D01*
X2098Y66D02*
X2113Y66D01*
X2124Y66D02*
X2127Y66D01*
X2140Y66D02*
X2143Y66D01*
X2183Y66D02*
X2199Y66D01*
X2210Y66D02*
X2225Y66D01*
X2239Y66D02*
X2255Y66D01*
X2268Y66D02*
X2278Y66D01*
X2296Y66D02*
X2311Y66D01*
X2323Y66D02*
X2336Y66D01*
X2338Y66D02*
X2341Y66D01*
X2351Y66D02*
X2354Y66D01*
X2367Y66D02*
X2370Y66D01*
X1048Y65D02*
X1052Y65D01*
X1057Y65D02*
X1066Y65D01*
X1077Y65D02*
X1081Y65D01*
X1089Y65D02*
X1093Y65D01*
X1112Y65D02*
X1115Y65D01*
X1140Y65D02*
X1143Y65D01*
X1162Y65D02*
X1166Y65D01*
X1174Y65D02*
X1178Y65D01*
X1189Y65D02*
X1193Y65D01*
X1198Y65D02*
X1208Y65D01*
X1223Y65D02*
X1227Y65D01*
X1247Y65D02*
X1251Y65D01*
X1259Y65D02*
X1263Y65D01*
X1282Y65D02*
X1285Y65D01*
X1332Y65D02*
X1336Y65D01*
X1342Y65D02*
X1349Y65D01*
X1359Y65D02*
X1362Y65D01*
X1375Y65D02*
X1378Y65D01*
X1388Y65D02*
X1392Y65D01*
X1397Y65D02*
X1406Y65D01*
X1427Y65D02*
X1431Y65D01*
X1452Y65D02*
X1455Y65D01*
X1472Y65D02*
X1480Y65D01*
X1485Y65D02*
X1490Y65D01*
X1537Y65D02*
X1540Y65D01*
X1558Y65D02*
X1562Y65D01*
X1586Y65D02*
X1590Y65D01*
X1595Y65D02*
X1604Y65D01*
X1615Y65D02*
X1620Y65D01*
X1627Y65D02*
X1632Y65D01*
X1642Y65D02*
X1650Y65D01*
X1655Y65D02*
X1660Y65D01*
X1671Y65D02*
X1675Y65D01*
X1685Y65D02*
X1689Y65D01*
X1700Y65D02*
X1705Y65D01*
X1712Y65D02*
X1717Y65D01*
X1728Y65D02*
X1735Y65D01*
X1740Y65D02*
X1745Y65D01*
X1756Y65D02*
X1760Y65D01*
X1765Y65D02*
X1774Y65D01*
X1785Y65D02*
X1789Y65D01*
X1824Y65D02*
X1829Y65D01*
X1849Y65D02*
X1852Y65D01*
X1870Y65D02*
X1873Y65D01*
X1878Y65D02*
X1888Y65D01*
X1955Y65D02*
X1960Y65D01*
X1967Y65D02*
X1972Y65D01*
X1983Y65D02*
X1990Y65D01*
X1996Y65D02*
X2000Y65D01*
X2012Y65D02*
X2016Y65D01*
X2041Y65D02*
X2046Y65D01*
X2051Y65D02*
X2058Y65D01*
X2068Y65D02*
X2073Y65D01*
X2079Y65D02*
X2086Y65D01*
X2097Y65D02*
X2102Y65D01*
X2109Y65D02*
X2114Y65D01*
X2124Y65D02*
X2127Y65D01*
X2140Y65D02*
X2143Y65D01*
X2192Y65D02*
X2196Y65D01*
X2220Y65D02*
X2226Y65D01*
X2238Y65D02*
X2243Y65D01*
X2251Y65D02*
X2255Y65D01*
X2268Y65D02*
X2271Y65D01*
X2295Y65D02*
X2300Y65D01*
X2307Y65D02*
X2312Y65D01*
X2323Y65D02*
X2327Y65D01*
X2332Y65D02*
X2341Y65D01*
X2351Y65D02*
X2354Y65D01*
X2367Y65D02*
X2370Y65D01*
X1047Y64D02*
X1051Y64D01*
X1058Y64D02*
X1066Y64D01*
X1076Y64D02*
X1080Y64D01*
X1090Y64D02*
X1094Y64D01*
X1112Y64D02*
X1115Y64D01*
X1140Y64D02*
X1143Y64D01*
X1161Y64D02*
X1165Y64D01*
X1175Y64D02*
X1179Y64D01*
X1189Y64D02*
X1192Y64D01*
X1199Y64D02*
X1208Y64D01*
X1224Y64D02*
X1227Y64D01*
X1246Y64D02*
X1250Y64D01*
X1260Y64D02*
X1264Y64D01*
X1282Y64D02*
X1285Y64D01*
X1331Y64D02*
X1335Y64D01*
X1343Y64D02*
X1349Y64D01*
X1359Y64D02*
X1362Y64D01*
X1375Y64D02*
X1378Y64D01*
X1388Y64D02*
X1391Y64D01*
X1398Y64D02*
X1406Y64D01*
X1427Y64D02*
X1430Y64D01*
X1452Y64D02*
X1455Y64D01*
X1472Y64D02*
X1479Y64D01*
X1487Y64D02*
X1491Y64D01*
X1537Y64D02*
X1540Y64D01*
X1558Y64D02*
X1561Y64D01*
X1586Y64D02*
X1589Y64D01*
X1596Y64D02*
X1604Y64D01*
X1615Y64D02*
X1618Y64D01*
X1629Y64D02*
X1632Y64D01*
X1642Y64D02*
X1649Y64D01*
X1657Y64D02*
X1661Y64D01*
X1672Y64D02*
X1673Y64D01*
X1686Y64D02*
X1689Y64D01*
X1700Y64D02*
X1703Y64D01*
X1714Y64D02*
X1717Y64D01*
X1728Y64D02*
X1734Y64D01*
X1742Y64D02*
X1746Y64D01*
X1756Y64D02*
X1759Y64D01*
X1766Y64D02*
X1774Y64D01*
X1785Y64D02*
X1788Y64D01*
X1825Y64D02*
X1830Y64D01*
X1849Y64D02*
X1852Y64D01*
X1869Y64D02*
X1872Y64D01*
X1880Y64D02*
X1888Y64D01*
X1955Y64D02*
X1958Y64D01*
X1969Y64D02*
X1972Y64D01*
X1983Y64D02*
X1989Y64D01*
X1997Y64D02*
X2001Y64D01*
X2012Y64D02*
X2015Y64D01*
X2040Y64D02*
X2045Y64D01*
X2052Y64D02*
X2058Y64D01*
X2068Y64D02*
X2072Y64D01*
X2080Y64D02*
X2086Y64D01*
X2096Y64D02*
X2100Y64D01*
X2110Y64D02*
X2114Y64D01*
X2124Y64D02*
X2127Y64D01*
X2140Y64D02*
X2143Y64D01*
X2193Y64D02*
X2196Y64D01*
X2222Y64D02*
X2227Y64D01*
X2238Y64D02*
X2242Y64D01*
X2252Y64D02*
X2256Y64D01*
X2268Y64D02*
X2271Y64D01*
X2295Y64D02*
X2298Y64D01*
X2309Y64D02*
X2313Y64D01*
X2323Y64D02*
X2326Y64D01*
X2333Y64D02*
X2341Y64D01*
X2351Y64D02*
X2354Y64D01*
X2367Y64D02*
X2370Y64D01*
X1047Y63D02*
X1050Y63D01*
X1059Y63D02*
X1066Y63D01*
X1076Y63D02*
X1079Y63D01*
X1091Y63D02*
X1094Y63D01*
X1112Y63D02*
X1115Y63D01*
X1140Y63D02*
X1143Y63D01*
X1161Y63D02*
X1164Y63D01*
X1176Y63D02*
X1179Y63D01*
X1189Y63D02*
X1192Y63D01*
X1201Y63D02*
X1208Y63D01*
X1224Y63D02*
X1228Y63D01*
X1246Y63D02*
X1249Y63D01*
X1261Y63D02*
X1264Y63D01*
X1282Y63D02*
X1285Y63D01*
X1331Y63D02*
X1334Y63D01*
X1344Y63D02*
X1349Y63D01*
X1359Y63D02*
X1362Y63D01*
X1375Y63D02*
X1378Y63D01*
X1388Y63D02*
X1391Y63D01*
X1400Y63D02*
X1406Y63D01*
X1427Y63D02*
X1430Y63D01*
X1452Y63D02*
X1455Y63D01*
X1472Y63D02*
X1478Y63D01*
X1488Y63D02*
X1491Y63D01*
X1537Y63D02*
X1540Y63D01*
X1558Y63D02*
X1561Y63D01*
X1586Y63D02*
X1589Y63D01*
X1597Y63D02*
X1604Y63D01*
X1614Y63D02*
X1617Y63D01*
X1629Y63D02*
X1633Y63D01*
X1642Y63D02*
X1648Y63D01*
X1658Y63D02*
X1661Y63D01*
X1685Y63D02*
X1689Y63D01*
X1699Y63D02*
X1702Y63D01*
X1714Y63D02*
X1718Y63D01*
X1728Y63D02*
X1733Y63D01*
X1743Y63D02*
X1746Y63D01*
X1756Y63D02*
X1759Y63D01*
X1767Y63D02*
X1774Y63D01*
X1785Y63D02*
X1788Y63D01*
X1826Y63D02*
X1831Y63D01*
X1849Y63D02*
X1852Y63D01*
X1869Y63D02*
X1872Y63D01*
X1881Y63D02*
X1888Y63D01*
X1954Y63D02*
X1958Y63D01*
X1970Y63D02*
X1973Y63D01*
X1983Y63D02*
X1988Y63D01*
X1998Y63D02*
X2001Y63D01*
X2011Y63D02*
X2014Y63D01*
X2040Y63D02*
X2043Y63D01*
X2053Y63D02*
X2058Y63D01*
X2068Y63D02*
X2071Y63D01*
X2081Y63D02*
X2086Y63D01*
X2096Y63D02*
X2099Y63D01*
X2111Y63D02*
X2114Y63D01*
X2124Y63D02*
X2127Y63D01*
X2140Y63D02*
X2143Y63D01*
X2193Y63D02*
X2196Y63D01*
X2223Y63D02*
X2227Y63D01*
X2238Y63D02*
X2241Y63D01*
X2253Y63D02*
X2256Y63D01*
X2268Y63D02*
X2271Y63D01*
X2294Y63D02*
X2298Y63D01*
X2310Y63D02*
X2313Y63D01*
X2323Y63D02*
X2326Y63D01*
X2334Y63D02*
X2341Y63D01*
X2351Y63D02*
X2355Y63D01*
X2367Y63D02*
X2370Y63D01*
X1047Y62D02*
X1050Y62D01*
X1060Y62D02*
X1066Y62D01*
X1076Y62D02*
X1079Y62D01*
X1091Y62D02*
X1094Y62D01*
X1112Y62D02*
X1115Y62D01*
X1140Y62D02*
X1143Y62D01*
X1161Y62D02*
X1164Y62D01*
X1176Y62D02*
X1179Y62D01*
X1189Y62D02*
X1192Y62D01*
X1202Y62D02*
X1208Y62D01*
X1225Y62D02*
X1229Y62D01*
X1246Y62D02*
X1249Y62D01*
X1261Y62D02*
X1264Y62D01*
X1282Y62D02*
X1285Y62D01*
X1331Y62D02*
X1334Y62D01*
X1345Y62D02*
X1349Y62D01*
X1359Y62D02*
X1362Y62D01*
X1375Y62D02*
X1378Y62D01*
X1388Y62D02*
X1391Y62D01*
X1402Y62D02*
X1406Y62D01*
X1427Y62D02*
X1430Y62D01*
X1452Y62D02*
X1455Y62D01*
X1472Y62D02*
X1476Y62D01*
X1488Y62D02*
X1491Y62D01*
X1537Y62D02*
X1540Y62D01*
X1558Y62D02*
X1561Y62D01*
X1586Y62D02*
X1589Y62D01*
X1599Y62D02*
X1604Y62D01*
X1614Y62D02*
X1617Y62D01*
X1630Y62D02*
X1633Y62D01*
X1642Y62D02*
X1646Y62D01*
X1658Y62D02*
X1661Y62D01*
X1683Y62D02*
X1688Y62D01*
X1699Y62D02*
X1702Y62D01*
X1715Y62D02*
X1718Y62D01*
X1728Y62D02*
X1731Y62D01*
X1743Y62D02*
X1746Y62D01*
X1756Y62D02*
X1759Y62D01*
X1769Y62D02*
X1774Y62D01*
X1785Y62D02*
X1788Y62D01*
X1827Y62D02*
X1831Y62D01*
X1849Y62D02*
X1852Y62D01*
X1869Y62D02*
X1872Y62D01*
X1882Y62D02*
X1888Y62D01*
X1954Y62D02*
X1957Y62D01*
X1970Y62D02*
X1973Y62D01*
X1983Y62D02*
X1987Y62D01*
X1998Y62D02*
X2001Y62D01*
X2011Y62D02*
X2014Y62D01*
X2039Y62D02*
X2043Y62D01*
X2054Y62D02*
X2058Y62D01*
X2068Y62D02*
X2071Y62D01*
X2082Y62D02*
X2086Y62D01*
X2096Y62D02*
X2099Y62D01*
X2112Y62D02*
X2115Y62D01*
X2124Y62D02*
X2127Y62D01*
X2133Y62D02*
X2134Y62D01*
X2140Y62D02*
X2143Y62D01*
X2193Y62D02*
X2196Y62D01*
X2224Y62D02*
X2228Y62D01*
X2238Y62D02*
X2241Y62D01*
X2253Y62D02*
X2256Y62D01*
X2268Y62D02*
X2271Y62D01*
X2294Y62D02*
X2297Y62D01*
X2310Y62D02*
X2313Y62D01*
X2323Y62D02*
X2326Y62D01*
X2335Y62D02*
X2341Y62D01*
X2352Y62D02*
X2370Y62D01*
X1048Y61D02*
X1050Y61D01*
X1061Y61D02*
X1066Y61D01*
X1076Y61D02*
X1079Y61D01*
X1091Y61D02*
X1094Y61D01*
X1112Y61D02*
X1115Y61D01*
X1140Y61D02*
X1143Y61D01*
X1161Y61D02*
X1164Y61D01*
X1176Y61D02*
X1179Y61D01*
X1189Y61D02*
X1192Y61D01*
X1203Y61D02*
X1208Y61D01*
X1226Y61D02*
X1229Y61D01*
X1246Y61D02*
X1249Y61D01*
X1261Y61D02*
X1264Y61D01*
X1282Y61D02*
X1285Y61D01*
X1331Y61D02*
X1334Y61D01*
X1346Y61D02*
X1349Y61D01*
X1359Y61D02*
X1362Y61D01*
X1375Y61D02*
X1377Y61D01*
X1388Y61D02*
X1391Y61D01*
X1403Y61D02*
X1406Y61D01*
X1427Y61D02*
X1430Y61D01*
X1452Y61D02*
X1455Y61D01*
X1472Y61D02*
X1476Y61D01*
X1488Y61D02*
X1491Y61D01*
X1537Y61D02*
X1540Y61D01*
X1558Y61D02*
X1561Y61D01*
X1586Y61D02*
X1588Y61D01*
X1600Y61D02*
X1604Y61D01*
X1614Y61D02*
X1617Y61D01*
X1630Y61D02*
X1633Y61D01*
X1642Y61D02*
X1646Y61D01*
X1658Y61D02*
X1661Y61D01*
X1681Y61D02*
X1688Y61D01*
X1699Y61D02*
X1702Y61D01*
X1715Y61D02*
X1718Y61D01*
X1728Y61D02*
X1731Y61D01*
X1743Y61D02*
X1746Y61D01*
X1756Y61D02*
X1758Y61D01*
X1770Y61D02*
X1774Y61D01*
X1785Y61D02*
X1788Y61D01*
X1828Y61D02*
X1831Y61D01*
X1849Y61D02*
X1852Y61D01*
X1870Y61D02*
X1872Y61D01*
X1883Y61D02*
X1888Y61D01*
X1954Y61D02*
X1957Y61D01*
X1970Y61D02*
X1973Y61D01*
X1983Y61D02*
X1986Y61D01*
X1998Y61D02*
X2001Y61D01*
X2011Y61D02*
X2014Y61D01*
X2039Y61D02*
X2042Y61D01*
X2055Y61D02*
X2058Y61D01*
X2068Y61D02*
X2071Y61D01*
X2083Y61D02*
X2086Y61D01*
X2096Y61D02*
X2099Y61D01*
X2112Y61D02*
X2115Y61D01*
X2124Y61D02*
X2127Y61D01*
X2132Y61D02*
X2135Y61D01*
X2140Y61D02*
X2143Y61D01*
X2193Y61D02*
X2196Y61D01*
X2225Y61D02*
X2228Y61D01*
X2238Y61D02*
X2241Y61D01*
X2253Y61D02*
X2256Y61D01*
X2268Y61D02*
X2271Y61D01*
X2294Y61D02*
X2297Y61D01*
X2310Y61D02*
X2313Y61D01*
X2323Y61D02*
X2325Y61D01*
X2337Y61D02*
X2341Y61D01*
X2352Y61D02*
X2370Y61D01*
X1062Y60D02*
X1066Y60D01*
X1076Y60D02*
X1079Y60D01*
X1091Y60D02*
X1094Y60D01*
X1112Y60D02*
X1115Y60D01*
X1140Y60D02*
X1143Y60D01*
X1161Y60D02*
X1164Y60D01*
X1176Y60D02*
X1179Y60D01*
X1204Y60D02*
X1208Y60D01*
X1226Y60D02*
X1230Y60D01*
X1246Y60D02*
X1249Y60D01*
X1261Y60D02*
X1264Y60D01*
X1282Y60D02*
X1285Y60D01*
X1331Y60D02*
X1334Y60D01*
X1346Y60D02*
X1349Y60D01*
X1359Y60D02*
X1362Y60D01*
X1375Y60D02*
X1377Y60D01*
X1388Y60D02*
X1391Y60D01*
X1403Y60D02*
X1406Y60D01*
X1427Y60D02*
X1430Y60D01*
X1452Y60D02*
X1455Y60D01*
X1472Y60D02*
X1475Y60D01*
X1488Y60D02*
X1491Y60D01*
X1537Y60D02*
X1540Y60D01*
X1558Y60D02*
X1573Y60D01*
X1601Y60D02*
X1604Y60D01*
X1614Y60D02*
X1617Y60D01*
X1630Y60D02*
X1633Y60D01*
X1642Y60D02*
X1645Y60D01*
X1658Y60D02*
X1661Y60D01*
X1678Y60D02*
X1687Y60D01*
X1699Y60D02*
X1702Y60D01*
X1715Y60D02*
X1718Y60D01*
X1728Y60D02*
X1731Y60D01*
X1743Y60D02*
X1746Y60D01*
X1771Y60D02*
X1774Y60D01*
X1785Y60D02*
X1800Y60D01*
X1828Y60D02*
X1831Y60D01*
X1849Y60D02*
X1852Y60D01*
X1884Y60D02*
X1888Y60D01*
X1954Y60D02*
X1957Y60D01*
X1970Y60D02*
X1973Y60D01*
X1983Y60D02*
X1986Y60D01*
X1998Y60D02*
X2001Y60D01*
X2011Y60D02*
X2026Y60D01*
X2039Y60D02*
X2042Y60D01*
X2055Y60D02*
X2058Y60D01*
X2068Y60D02*
X2071Y60D01*
X2083Y60D02*
X2086Y60D01*
X2096Y60D02*
X2099Y60D01*
X2112Y60D02*
X2115Y60D01*
X2124Y60D02*
X2127Y60D01*
X2132Y60D02*
X2135Y60D01*
X2140Y60D02*
X2143Y60D01*
X2193Y60D02*
X2196Y60D01*
X2225Y60D02*
X2228Y60D01*
X2238Y60D02*
X2241Y60D01*
X2253Y60D02*
X2256Y60D01*
X2268Y60D02*
X2271Y60D01*
X2294Y60D02*
X2297Y60D01*
X2310Y60D02*
X2313Y60D01*
X2338Y60D02*
X2341Y60D01*
X2353Y60D02*
X2370Y60D01*
X1063Y59D02*
X1066Y59D01*
X1076Y59D02*
X1094Y59D01*
X1112Y59D02*
X1115Y59D01*
X1140Y59D02*
X1143Y59D01*
X1161Y59D02*
X1179Y59D01*
X1205Y59D02*
X1208Y59D01*
X1227Y59D02*
X1230Y59D01*
X1246Y59D02*
X1249Y59D01*
X1261Y59D02*
X1264Y59D01*
X1282Y59D02*
X1285Y59D01*
X1310Y59D02*
X1314Y59D01*
X1331Y59D02*
X1334Y59D01*
X1346Y59D02*
X1349Y59D01*
X1359Y59D02*
X1362Y59D01*
X1374Y59D02*
X1377Y59D01*
X1388Y59D02*
X1391Y59D01*
X1403Y59D02*
X1406Y59D01*
X1427Y59D02*
X1430Y59D01*
X1452Y59D02*
X1455Y59D01*
X1472Y59D02*
X1475Y59D01*
X1488Y59D02*
X1491Y59D01*
X1508Y59D02*
X1512Y59D01*
X1537Y59D02*
X1540Y59D01*
X1558Y59D02*
X1574Y59D01*
X1601Y59D02*
X1604Y59D01*
X1614Y59D02*
X1633Y59D01*
X1642Y59D02*
X1645Y59D01*
X1658Y59D02*
X1661Y59D01*
X1676Y59D02*
X1685Y59D01*
X1699Y59D02*
X1702Y59D01*
X1715Y59D02*
X1718Y59D01*
X1728Y59D02*
X1731Y59D01*
X1743Y59D02*
X1746Y59D01*
X1771Y59D02*
X1774Y59D01*
X1785Y59D02*
X1801Y59D01*
X1828Y59D02*
X1831Y59D01*
X1849Y59D02*
X1852Y59D01*
X1885Y59D02*
X1888Y59D01*
X1933Y59D02*
X1937Y59D01*
X1954Y59D02*
X1973Y59D01*
X1983Y59D02*
X1986Y59D01*
X1998Y59D02*
X2001Y59D01*
X2011Y59D02*
X2028Y59D01*
X2039Y59D02*
X2042Y59D01*
X2055Y59D02*
X2058Y59D01*
X2068Y59D02*
X2071Y59D01*
X2083Y59D02*
X2086Y59D01*
X2096Y59D02*
X2115Y59D01*
X2124Y59D02*
X2127Y59D01*
X2132Y59D02*
X2135Y59D01*
X2140Y59D02*
X2143Y59D01*
X2193Y59D02*
X2196Y59D01*
X2225Y59D02*
X2228Y59D01*
X2238Y59D02*
X2256Y59D01*
X2268Y59D02*
X2271Y59D01*
X2294Y59D02*
X2297Y59D01*
X2310Y59D02*
X2313Y59D01*
X2338Y59D02*
X2341Y59D01*
X2355Y59D02*
X2370Y59D01*
X1063Y58D02*
X1066Y58D01*
X1076Y58D02*
X1094Y58D01*
X1112Y58D02*
X1115Y58D01*
X1140Y58D02*
X1143Y58D01*
X1161Y58D02*
X1179Y58D01*
X1205Y58D02*
X1208Y58D01*
X1227Y58D02*
X1231Y58D01*
X1246Y58D02*
X1249Y58D01*
X1261Y58D02*
X1264Y58D01*
X1282Y58D02*
X1285Y58D01*
X1309Y58D02*
X1315Y58D01*
X1331Y58D02*
X1334Y58D01*
X1346Y58D02*
X1349Y58D01*
X1359Y58D02*
X1362Y58D01*
X1374Y58D02*
X1377Y58D01*
X1388Y58D02*
X1391Y58D01*
X1403Y58D02*
X1406Y58D01*
X1427Y58D02*
X1430Y58D01*
X1452Y58D02*
X1455Y58D01*
X1472Y58D02*
X1475Y58D01*
X1488Y58D02*
X1491Y58D01*
X1507Y58D02*
X1513Y58D01*
X1537Y58D02*
X1540Y58D01*
X1558Y58D02*
X1575Y58D01*
X1601Y58D02*
X1604Y58D01*
X1614Y58D02*
X1633Y58D01*
X1642Y58D02*
X1645Y58D01*
X1658Y58D02*
X1661Y58D01*
X1674Y58D02*
X1683Y58D01*
X1699Y58D02*
X1702Y58D01*
X1715Y58D02*
X1718Y58D01*
X1728Y58D02*
X1731Y58D01*
X1743Y58D02*
X1746Y58D01*
X1771Y58D02*
X1774Y58D01*
X1785Y58D02*
X1802Y58D01*
X1828Y58D02*
X1831Y58D01*
X1849Y58D02*
X1852Y58D01*
X1885Y58D02*
X1888Y58D01*
X1932Y58D02*
X1938Y58D01*
X1954Y58D02*
X1973Y58D01*
X1983Y58D02*
X1986Y58D01*
X1998Y58D02*
X2001Y58D01*
X2011Y58D02*
X2029Y58D01*
X2039Y58D02*
X2042Y58D01*
X2055Y58D02*
X2058Y58D01*
X2068Y58D02*
X2071Y58D01*
X2083Y58D02*
X2086Y58D01*
X2096Y58D02*
X2115Y58D01*
X2124Y58D02*
X2127Y58D01*
X2132Y58D02*
X2135Y58D01*
X2140Y58D02*
X2143Y58D01*
X2193Y58D02*
X2196Y58D01*
X2225Y58D02*
X2228Y58D01*
X2238Y58D02*
X2256Y58D01*
X2268Y58D02*
X2271Y58D01*
X2294Y58D02*
X2297Y58D01*
X2310Y58D02*
X2313Y58D01*
X2338Y58D02*
X2341Y58D01*
X2367Y58D02*
X2370Y58D01*
X1063Y57D02*
X1066Y57D01*
X1076Y57D02*
X1094Y57D01*
X1112Y57D02*
X1115Y57D01*
X1140Y57D02*
X1143Y57D01*
X1161Y57D02*
X1179Y57D01*
X1205Y57D02*
X1208Y57D01*
X1228Y57D02*
X1232Y57D01*
X1246Y57D02*
X1249Y57D01*
X1261Y57D02*
X1264Y57D01*
X1282Y57D02*
X1285Y57D01*
X1308Y57D02*
X1315Y57D01*
X1331Y57D02*
X1334Y57D01*
X1346Y57D02*
X1349Y57D01*
X1359Y57D02*
X1362Y57D01*
X1374Y57D02*
X1377Y57D01*
X1388Y57D02*
X1391Y57D01*
X1403Y57D02*
X1406Y57D01*
X1427Y57D02*
X1430Y57D01*
X1452Y57D02*
X1455Y57D01*
X1472Y57D02*
X1475Y57D01*
X1488Y57D02*
X1491Y57D01*
X1507Y57D02*
X1514Y57D01*
X1537Y57D02*
X1540Y57D01*
X1558Y57D02*
X1576Y57D01*
X1601Y57D02*
X1604Y57D01*
X1614Y57D02*
X1633Y57D01*
X1642Y57D02*
X1646Y57D01*
X1658Y57D02*
X1661Y57D01*
X1673Y57D02*
X1680Y57D01*
X1699Y57D02*
X1702Y57D01*
X1715Y57D02*
X1718Y57D01*
X1728Y57D02*
X1731Y57D01*
X1743Y57D02*
X1746Y57D01*
X1771Y57D02*
X1774Y57D01*
X1784Y57D02*
X1802Y57D01*
X1828Y57D02*
X1831Y57D01*
X1849Y57D02*
X1852Y57D01*
X1885Y57D02*
X1888Y57D01*
X1932Y57D02*
X1939Y57D01*
X1954Y57D02*
X1973Y57D01*
X1983Y57D02*
X1986Y57D01*
X1998Y57D02*
X2001Y57D01*
X2011Y57D02*
X2029Y57D01*
X2039Y57D02*
X2042Y57D01*
X2055Y57D02*
X2058Y57D01*
X2068Y57D02*
X2071Y57D01*
X2083Y57D02*
X2086Y57D01*
X2096Y57D02*
X2115Y57D01*
X2124Y57D02*
X2127Y57D01*
X2132Y57D02*
X2135Y57D01*
X2140Y57D02*
X2143Y57D01*
X2193Y57D02*
X2196Y57D01*
X2225Y57D02*
X2228Y57D01*
X2238Y57D02*
X2256Y57D01*
X2268Y57D02*
X2271Y57D01*
X2294Y57D02*
X2297Y57D01*
X2310Y57D02*
X2313Y57D01*
X2338Y57D02*
X2341Y57D01*
X2367Y57D02*
X2370Y57D01*
X1063Y56D02*
X1066Y56D01*
X1076Y56D02*
X1094Y56D01*
X1112Y56D02*
X1115Y56D01*
X1140Y56D02*
X1143Y56D01*
X1161Y56D02*
X1179Y56D01*
X1205Y56D02*
X1208Y56D01*
X1228Y56D02*
X1232Y56D01*
X1246Y56D02*
X1249Y56D01*
X1261Y56D02*
X1264Y56D01*
X1282Y56D02*
X1285Y56D01*
X1308Y56D02*
X1315Y56D01*
X1331Y56D02*
X1334Y56D01*
X1346Y56D02*
X1349Y56D01*
X1359Y56D02*
X1362Y56D01*
X1374Y56D02*
X1377Y56D01*
X1388Y56D02*
X1391Y56D01*
X1403Y56D02*
X1406Y56D01*
X1427Y56D02*
X1430Y56D01*
X1452Y56D02*
X1455Y56D01*
X1472Y56D02*
X1476Y56D01*
X1488Y56D02*
X1491Y56D01*
X1507Y56D02*
X1514Y56D01*
X1537Y56D02*
X1540Y56D01*
X1558Y56D02*
X1561Y56D01*
X1573Y56D02*
X1576Y56D01*
X1601Y56D02*
X1604Y56D01*
X1615Y56D02*
X1633Y56D01*
X1642Y56D02*
X1646Y56D01*
X1658Y56D02*
X1661Y56D01*
X1672Y56D02*
X1678Y56D01*
X1699Y56D02*
X1702Y56D01*
X1715Y56D02*
X1718Y56D01*
X1728Y56D02*
X1731Y56D01*
X1743Y56D02*
X1746Y56D01*
X1771Y56D02*
X1774Y56D01*
X1784Y56D02*
X1788Y56D01*
X1799Y56D02*
X1803Y56D01*
X1828Y56D02*
X1831Y56D01*
X1849Y56D02*
X1852Y56D01*
X1885Y56D02*
X1888Y56D01*
X1932Y56D02*
X1939Y56D01*
X1955Y56D02*
X1973Y56D01*
X1983Y56D02*
X1986Y56D01*
X1998Y56D02*
X2001Y56D01*
X2011Y56D02*
X2015Y56D01*
X2026Y56D02*
X2029Y56D01*
X2039Y56D02*
X2042Y56D01*
X2055Y56D02*
X2058Y56D01*
X2068Y56D02*
X2071Y56D01*
X2083Y56D02*
X2086Y56D01*
X2096Y56D02*
X2115Y56D01*
X2124Y56D02*
X2127Y56D01*
X2132Y56D02*
X2135Y56D01*
X2140Y56D02*
X2143Y56D01*
X2193Y56D02*
X2196Y56D01*
X2225Y56D02*
X2228Y56D01*
X2238Y56D02*
X2256Y56D01*
X2268Y56D02*
X2271Y56D01*
X2294Y56D02*
X2297Y56D01*
X2310Y56D02*
X2313Y56D01*
X2338Y56D02*
X2341Y56D01*
X2367Y56D02*
X2370Y56D01*
X1063Y55D02*
X1066Y55D01*
X1091Y55D02*
X1094Y55D01*
X1112Y55D02*
X1115Y55D01*
X1140Y55D02*
X1143Y55D01*
X1176Y55D02*
X1179Y55D01*
X1205Y55D02*
X1208Y55D01*
X1229Y55D02*
X1233Y55D01*
X1246Y55D02*
X1249Y55D01*
X1261Y55D02*
X1264Y55D01*
X1282Y55D02*
X1285Y55D01*
X1308Y55D02*
X1315Y55D01*
X1331Y55D02*
X1334Y55D01*
X1346Y55D02*
X1349Y55D01*
X1359Y55D02*
X1362Y55D01*
X1374Y55D02*
X1377Y55D01*
X1388Y55D02*
X1391Y55D01*
X1403Y55D02*
X1406Y55D01*
X1427Y55D02*
X1430Y55D01*
X1452Y55D02*
X1455Y55D01*
X1472Y55D02*
X1477Y55D01*
X1488Y55D02*
X1491Y55D01*
X1507Y55D02*
X1514Y55D01*
X1537Y55D02*
X1540Y55D01*
X1558Y55D02*
X1561Y55D01*
X1573Y55D02*
X1576Y55D01*
X1601Y55D02*
X1604Y55D01*
X1630Y55D02*
X1633Y55D01*
X1642Y55D02*
X1647Y55D01*
X1658Y55D02*
X1661Y55D01*
X1671Y55D02*
X1676Y55D01*
X1699Y55D02*
X1702Y55D01*
X1715Y55D02*
X1718Y55D01*
X1728Y55D02*
X1731Y55D01*
X1743Y55D02*
X1746Y55D01*
X1771Y55D02*
X1774Y55D01*
X1784Y55D02*
X1787Y55D01*
X1800Y55D02*
X1803Y55D01*
X1828Y55D02*
X1831Y55D01*
X1849Y55D02*
X1852Y55D01*
X1885Y55D02*
X1888Y55D01*
X1932Y55D02*
X1939Y55D01*
X1970Y55D02*
X1973Y55D01*
X1983Y55D02*
X1987Y55D01*
X1998Y55D02*
X2001Y55D01*
X2011Y55D02*
X2014Y55D01*
X2027Y55D02*
X2030Y55D01*
X2039Y55D02*
X2042Y55D01*
X2055Y55D02*
X2058Y55D01*
X2068Y55D02*
X2071Y55D01*
X2083Y55D02*
X2086Y55D01*
X2111Y55D02*
X2115Y55D01*
X2124Y55D02*
X2127Y55D01*
X2132Y55D02*
X2136Y55D01*
X2140Y55D02*
X2143Y55D01*
X2193Y55D02*
X2196Y55D01*
X2225Y55D02*
X2228Y55D01*
X2253Y55D02*
X2256Y55D01*
X2268Y55D02*
X2271Y55D01*
X2294Y55D02*
X2297Y55D01*
X2310Y55D02*
X2313Y55D01*
X2338Y55D02*
X2341Y55D01*
X2367Y55D02*
X2370Y55D01*
X1063Y54D02*
X1066Y54D01*
X1091Y54D02*
X1094Y54D01*
X1112Y54D02*
X1115Y54D01*
X1140Y54D02*
X1143Y54D01*
X1176Y54D02*
X1179Y54D01*
X1205Y54D02*
X1208Y54D01*
X1230Y54D02*
X1233Y54D01*
X1246Y54D02*
X1249Y54D01*
X1261Y54D02*
X1264Y54D01*
X1282Y54D02*
X1285Y54D01*
X1308Y54D02*
X1315Y54D01*
X1331Y54D02*
X1334Y54D01*
X1346Y54D02*
X1349Y54D01*
X1359Y54D02*
X1363Y54D01*
X1374Y54D02*
X1377Y54D01*
X1388Y54D02*
X1391Y54D01*
X1403Y54D02*
X1406Y54D01*
X1417Y54D02*
X1417Y54D01*
X1427Y54D02*
X1430Y54D01*
X1452Y54D02*
X1455Y54D01*
X1472Y54D02*
X1478Y54D01*
X1487Y54D02*
X1491Y54D01*
X1507Y54D02*
X1514Y54D01*
X1537Y54D02*
X1540Y54D01*
X1558Y54D02*
X1561Y54D01*
X1573Y54D02*
X1576Y54D01*
X1601Y54D02*
X1604Y54D01*
X1630Y54D02*
X1633Y54D01*
X1642Y54D02*
X1648Y54D01*
X1657Y54D02*
X1661Y54D01*
X1671Y54D02*
X1674Y54D01*
X1699Y54D02*
X1702Y54D01*
X1715Y54D02*
X1718Y54D01*
X1728Y54D02*
X1731Y54D01*
X1743Y54D02*
X1746Y54D01*
X1771Y54D02*
X1774Y54D01*
X1784Y54D02*
X1787Y54D01*
X1800Y54D02*
X1803Y54D01*
X1827Y54D02*
X1831Y54D01*
X1849Y54D02*
X1852Y54D01*
X1885Y54D02*
X1888Y54D01*
X1932Y54D02*
X1939Y54D01*
X1970Y54D02*
X1973Y54D01*
X1983Y54D02*
X1988Y54D01*
X1998Y54D02*
X2001Y54D01*
X2011Y54D02*
X2014Y54D01*
X2027Y54D02*
X2030Y54D01*
X2039Y54D02*
X2042Y54D01*
X2054Y54D02*
X2058Y54D01*
X2068Y54D02*
X2071Y54D01*
X2082Y54D02*
X2086Y54D01*
X2112Y54D02*
X2115Y54D01*
X2125Y54D02*
X2128Y54D01*
X2131Y54D02*
X2136Y54D01*
X2139Y54D02*
X2143Y54D01*
X2182Y54D02*
X2182Y54D01*
X2193Y54D02*
X2196Y54D01*
X2224Y54D02*
X2228Y54D01*
X2253Y54D02*
X2256Y54D01*
X2268Y54D02*
X2271Y54D01*
X2294Y54D02*
X2297Y54D01*
X2310Y54D02*
X2313Y54D01*
X2338Y54D02*
X2341Y54D01*
X2367Y54D02*
X2370Y54D01*
X1063Y53D02*
X1066Y53D01*
X1091Y53D02*
X1094Y53D01*
X1112Y53D02*
X1115Y53D01*
X1140Y53D02*
X1143Y53D01*
X1176Y53D02*
X1179Y53D01*
X1205Y53D02*
X1208Y53D01*
X1230Y53D02*
X1234Y53D01*
X1246Y53D02*
X1249Y53D01*
X1261Y53D02*
X1264Y53D01*
X1282Y53D02*
X1285Y53D01*
X1308Y53D02*
X1315Y53D01*
X1331Y53D02*
X1334Y53D01*
X1344Y53D02*
X1349Y53D01*
X1359Y53D02*
X1365Y53D01*
X1374Y53D02*
X1377Y53D01*
X1388Y53D02*
X1391Y53D01*
X1403Y53D02*
X1406Y53D01*
X1416Y53D02*
X1418Y53D01*
X1427Y53D02*
X1430Y53D01*
X1452Y53D02*
X1455Y53D01*
X1472Y53D02*
X1479Y53D01*
X1486Y53D02*
X1490Y53D01*
X1507Y53D02*
X1513Y53D01*
X1537Y53D02*
X1540Y53D01*
X1558Y53D02*
X1561Y53D01*
X1573Y53D02*
X1576Y53D01*
X1601Y53D02*
X1604Y53D01*
X1629Y53D02*
X1633Y53D01*
X1642Y53D02*
X1649Y53D01*
X1656Y53D02*
X1660Y53D01*
X1671Y53D02*
X1674Y53D01*
X1699Y53D02*
X1702Y53D01*
X1715Y53D02*
X1718Y53D01*
X1728Y53D02*
X1733Y53D01*
X1743Y53D02*
X1746Y53D01*
X1771Y53D02*
X1774Y53D01*
X1784Y53D02*
X1788Y53D01*
X1800Y53D02*
X1803Y53D01*
X1826Y53D02*
X1831Y53D01*
X1849Y53D02*
X1852Y53D01*
X1885Y53D02*
X1888Y53D01*
X1932Y53D02*
X1938Y53D01*
X1970Y53D02*
X1973Y53D01*
X1983Y53D02*
X1990Y53D01*
X1996Y53D02*
X2001Y53D01*
X2011Y53D02*
X2015Y53D01*
X2027Y53D02*
X2030Y53D01*
X2040Y53D02*
X2043Y53D01*
X2053Y53D02*
X2058Y53D01*
X2068Y53D02*
X2071Y53D01*
X2081Y53D02*
X2086Y53D01*
X2111Y53D02*
X2114Y53D01*
X2125Y53D02*
X2128Y53D01*
X2130Y53D02*
X2137Y53D01*
X2139Y53D02*
X2142Y53D01*
X2181Y53D02*
X2184Y53D01*
X2193Y53D02*
X2196Y53D01*
X2223Y53D02*
X2227Y53D01*
X2253Y53D02*
X2256Y53D01*
X2268Y53D02*
X2271Y53D01*
X2294Y53D02*
X2298Y53D01*
X2310Y53D02*
X2313Y53D01*
X2338Y53D02*
X2341Y53D01*
X2367Y53D02*
X2370Y53D01*
X1063Y52D02*
X1066Y52D01*
X1090Y52D02*
X1094Y52D01*
X1112Y52D02*
X1115Y52D01*
X1140Y52D02*
X1143Y52D01*
X1175Y52D02*
X1179Y52D01*
X1205Y52D02*
X1208Y52D01*
X1231Y52D02*
X1234Y52D01*
X1246Y52D02*
X1250Y52D01*
X1260Y52D02*
X1264Y52D01*
X1282Y52D02*
X1285Y52D01*
X1310Y52D02*
X1314Y52D01*
X1331Y52D02*
X1335Y52D01*
X1343Y52D02*
X1349Y52D01*
X1359Y52D02*
X1367Y52D01*
X1374Y52D02*
X1377Y52D01*
X1388Y52D02*
X1391Y52D01*
X1403Y52D02*
X1406Y52D01*
X1416Y52D02*
X1419Y52D01*
X1427Y52D02*
X1430Y52D01*
X1452Y52D02*
X1455Y52D01*
X1472Y52D02*
X1490Y52D01*
X1508Y52D02*
X1512Y52D01*
X1537Y52D02*
X1540Y52D01*
X1558Y52D02*
X1563Y52D01*
X1573Y52D02*
X1576Y52D01*
X1601Y52D02*
X1604Y52D01*
X1629Y52D02*
X1632Y52D01*
X1642Y52D02*
X1660Y52D01*
X1671Y52D02*
X1674Y52D01*
X1687Y52D02*
X1689Y52D01*
X1700Y52D02*
X1703Y52D01*
X1714Y52D02*
X1717Y52D01*
X1728Y52D02*
X1734Y52D01*
X1742Y52D02*
X1746Y52D01*
X1771Y52D02*
X1774Y52D01*
X1784Y52D02*
X1790Y52D01*
X1800Y52D02*
X1803Y52D01*
X1825Y52D02*
X1830Y52D01*
X1849Y52D02*
X1852Y52D01*
X1885Y52D02*
X1888Y52D01*
X1933Y52D02*
X1937Y52D01*
X1969Y52D02*
X1973Y52D01*
X1983Y52D02*
X2000Y52D01*
X2011Y52D02*
X2016Y52D01*
X2026Y52D02*
X2029Y52D01*
X2040Y52D02*
X2044Y52D01*
X2052Y52D02*
X2058Y52D01*
X2068Y52D02*
X2072Y52D01*
X2080Y52D02*
X2086Y52D01*
X2110Y52D02*
X2114Y52D01*
X2125Y52D02*
X2142Y52D01*
X2181Y52D02*
X2184Y52D01*
X2193Y52D02*
X2196Y52D01*
X2222Y52D02*
X2227Y52D01*
X2252Y52D02*
X2256Y52D01*
X2268Y52D02*
X2271Y52D01*
X2295Y52D02*
X2299Y52D01*
X2309Y52D02*
X2313Y52D01*
X2338Y52D02*
X2341Y52D01*
X2367Y52D02*
X2370Y52D01*
X1063Y51D02*
X1066Y51D01*
X1089Y51D02*
X1094Y51D01*
X1112Y51D02*
X1115Y51D01*
X1140Y51D02*
X1143Y51D01*
X1174Y51D02*
X1179Y51D01*
X1205Y51D02*
X1208Y51D01*
X1231Y51D02*
X1235Y51D01*
X1247Y51D02*
X1251Y51D01*
X1259Y51D02*
X1264Y51D01*
X1282Y51D02*
X1285Y51D01*
X1332Y51D02*
X1336Y51D01*
X1342Y51D02*
X1349Y51D01*
X1359Y51D02*
X1368Y51D01*
X1373Y51D02*
X1377Y51D01*
X1388Y51D02*
X1390Y51D01*
X1403Y51D02*
X1406Y51D01*
X1416Y51D02*
X1420Y51D01*
X1426Y51D02*
X1430Y51D01*
X1452Y51D02*
X1455Y51D01*
X1472Y51D02*
X1489Y51D01*
X1537Y51D02*
X1540Y51D01*
X1558Y51D02*
X1565Y51D01*
X1572Y51D02*
X1576Y51D01*
X1601Y51D02*
X1604Y51D01*
X1627Y51D02*
X1632Y51D01*
X1642Y51D02*
X1659Y51D01*
X1671Y51D02*
X1675Y51D01*
X1686Y51D02*
X1689Y51D01*
X1700Y51D02*
X1705Y51D01*
X1712Y51D02*
X1717Y51D01*
X1728Y51D02*
X1735Y51D01*
X1740Y51D02*
X1745Y51D01*
X1771Y51D02*
X1774Y51D01*
X1784Y51D02*
X1791Y51D01*
X1799Y51D02*
X1803Y51D01*
X1824Y51D02*
X1829Y51D01*
X1849Y51D02*
X1852Y51D01*
X1885Y51D02*
X1888Y51D01*
X1967Y51D02*
X1972Y51D01*
X1983Y51D02*
X1999Y51D01*
X2011Y51D02*
X2018Y51D01*
X2025Y51D02*
X2029Y51D01*
X2041Y51D02*
X2046Y51D01*
X2051Y51D02*
X2058Y51D01*
X2068Y51D02*
X2073Y51D01*
X2079Y51D02*
X2086Y51D01*
X2109Y51D02*
X2114Y51D01*
X2126Y51D02*
X2142Y51D01*
X2181Y51D02*
X2185Y51D01*
X2192Y51D02*
X2195Y51D01*
X2220Y51D02*
X2226Y51D01*
X2251Y51D02*
X2256Y51D01*
X2268Y51D02*
X2271Y51D01*
X2295Y51D02*
X2300Y51D01*
X2307Y51D02*
X2312Y51D01*
X2338Y51D02*
X2341Y51D01*
X2367Y51D02*
X2370Y51D01*
X1063Y50D02*
X1066Y50D01*
X1076Y50D02*
X1093Y50D01*
X1107Y50D02*
X1120Y50D01*
X1135Y50D02*
X1149Y50D01*
X1161Y50D02*
X1178Y50D01*
X1205Y50D02*
X1208Y50D01*
X1232Y50D02*
X1236Y50D01*
X1247Y50D02*
X1263Y50D01*
X1277Y50D02*
X1290Y50D01*
X1332Y50D02*
X1349Y50D01*
X1359Y50D02*
X1377Y50D01*
X1388Y50D02*
X1390Y50D01*
X1403Y50D02*
X1406Y50D01*
X1416Y50D02*
X1430Y50D01*
X1447Y50D02*
X1460Y50D01*
X1472Y50D02*
X1475Y50D01*
X1478Y50D02*
X1488Y50D01*
X1532Y50D02*
X1545Y50D01*
X1558Y50D02*
X1575Y50D01*
X1601Y50D02*
X1604Y50D01*
X1615Y50D02*
X1631Y50D01*
X1642Y50D02*
X1645Y50D01*
X1648Y50D02*
X1658Y50D01*
X1672Y50D02*
X1689Y50D01*
X1701Y50D02*
X1716Y50D01*
X1728Y50D02*
X1745Y50D01*
X1771Y50D02*
X1774Y50D01*
X1784Y50D02*
X1802Y50D01*
X1813Y50D02*
X1828Y50D01*
X1843Y50D02*
X1857Y50D01*
X1885Y50D02*
X1888Y50D01*
X1955Y50D02*
X1971Y50D01*
X1983Y50D02*
X1986Y50D01*
X1988Y50D02*
X1998Y50D01*
X2011Y50D02*
X2029Y50D01*
X2042Y50D02*
X2047Y50D01*
X2050Y50D02*
X2058Y50D01*
X2069Y50D02*
X2086Y50D01*
X2096Y50D02*
X2113Y50D01*
X2126Y50D02*
X2132Y50D01*
X2135Y50D02*
X2141Y50D01*
X2182Y50D02*
X2195Y50D01*
X2210Y50D02*
X2225Y50D01*
X2238Y50D02*
X2255Y50D01*
X2268Y50D02*
X2271Y50D01*
X2296Y50D02*
X2311Y50D01*
X2338Y50D02*
X2341Y50D01*
X2367Y50D02*
X2370Y50D01*
X1063Y49D02*
X1066Y49D01*
X1076Y49D02*
X1092Y49D01*
X1106Y49D02*
X1121Y49D01*
X1134Y49D02*
X1149Y49D01*
X1161Y49D02*
X1177Y49D01*
X1205Y49D02*
X1208Y49D01*
X1233Y49D02*
X1236Y49D01*
X1248Y49D02*
X1262Y49D01*
X1276Y49D02*
X1291Y49D01*
X1333Y49D02*
X1349Y49D01*
X1359Y49D02*
X1362Y49D01*
X1365Y49D02*
X1376Y49D01*
X1387Y49D02*
X1390Y49D01*
X1403Y49D02*
X1406Y49D01*
X1417Y49D02*
X1429Y49D01*
X1446Y49D02*
X1461Y49D01*
X1472Y49D02*
X1475Y49D01*
X1479Y49D02*
X1486Y49D01*
X1531Y49D02*
X1546Y49D01*
X1557Y49D02*
X1575Y49D01*
X1601Y49D02*
X1604Y49D01*
X1614Y49D02*
X1630Y49D01*
X1642Y49D02*
X1645Y49D01*
X1649Y49D02*
X1656Y49D01*
X1672Y49D02*
X1689Y49D01*
X1702Y49D02*
X1715Y49D01*
X1728Y49D02*
X1744Y49D01*
X1771Y49D02*
X1774Y49D01*
X1784Y49D02*
X1801Y49D01*
X1813Y49D02*
X1827Y49D01*
X1843Y49D02*
X1857Y49D01*
X1885Y49D02*
X1888Y49D01*
X1954Y49D02*
X1970Y49D01*
X1983Y49D02*
X1986Y49D01*
X1990Y49D02*
X1996Y49D01*
X2011Y49D02*
X2028Y49D01*
X2043Y49D02*
X2058Y49D01*
X2070Y49D02*
X2086Y49D01*
X2096Y49D02*
X2112Y49D01*
X2126Y49D02*
X2132Y49D01*
X2136Y49D02*
X2141Y49D01*
X2182Y49D02*
X2194Y49D01*
X2209Y49D02*
X2223Y49D01*
X2238Y49D02*
X2254Y49D01*
X2268Y49D02*
X2271Y49D01*
X2297Y49D02*
X2310Y49D01*
X2338Y49D02*
X2341Y49D01*
X2367Y49D02*
X2370Y49D01*
X1063Y48D02*
X1066Y48D01*
X1076Y48D02*
X1091Y48D01*
X1106Y48D02*
X1120Y48D01*
X1135Y48D02*
X1149Y48D01*
X1161Y48D02*
X1176Y48D01*
X1205Y48D02*
X1207Y48D01*
X1233Y48D02*
X1236Y48D01*
X1250Y48D02*
X1261Y48D01*
X1276Y48D02*
X1291Y48D01*
X1335Y48D02*
X1344Y48D01*
X1347Y48D02*
X1349Y48D01*
X1359Y48D02*
X1362Y48D01*
X1366Y48D02*
X1375Y48D01*
X1388Y48D02*
X1390Y48D01*
X1403Y48D02*
X1406Y48D01*
X1418Y48D02*
X1428Y48D01*
X1446Y48D02*
X1461Y48D01*
X1472Y48D02*
X1475Y48D01*
X1531Y48D02*
X1546Y48D01*
X1558Y48D02*
X1560Y48D01*
X1563Y48D02*
X1574Y48D01*
X1602Y48D02*
X1604Y48D01*
X1614Y48D02*
X1629Y48D01*
X1642Y48D02*
X1645Y48D01*
X1673Y48D02*
X1687Y48D01*
X1703Y48D02*
X1714Y48D01*
X1728Y48D02*
X1730Y48D01*
X1733Y48D02*
X1742Y48D01*
X1772Y48D02*
X1774Y48D01*
X1784Y48D02*
X1787Y48D01*
X1789Y48D02*
X1800Y48D01*
X1813Y48D02*
X1825Y48D01*
X1843Y48D02*
X1857Y48D01*
X1885Y48D02*
X1888Y48D01*
X1954Y48D02*
X1969Y48D01*
X1983Y48D02*
X1986Y48D01*
X2011Y48D02*
X2014Y48D01*
X2016Y48D02*
X2027Y48D01*
X2044Y48D02*
X2053Y48D01*
X2055Y48D02*
X2058Y48D01*
X2071Y48D02*
X2081Y48D01*
X2083Y48D02*
X2086Y48D01*
X2096Y48D02*
X2111Y48D01*
X2127Y48D02*
X2131Y48D01*
X2136Y48D02*
X2141Y48D01*
X2183Y48D02*
X2193Y48D01*
X2210Y48D02*
X2222Y48D01*
X2238Y48D02*
X2253Y48D01*
X2268Y48D02*
X2271Y48D01*
X2298Y48D02*
X2309Y48D01*
X2339Y48D02*
X2341Y48D01*
X2367Y48D02*
X2369Y48D01*
X1064Y47D02*
X1065Y47D01*
X1077Y47D02*
X1089Y47D01*
X1107Y47D02*
X1119Y47D01*
X1136Y47D02*
X1148Y47D01*
X1162Y47D02*
X1174Y47D01*
X1206Y47D02*
X1206Y47D01*
X1234Y47D02*
X1235Y47D01*
X1252Y47D02*
X1258Y47D01*
X1277Y47D02*
X1290Y47D01*
X1337Y47D02*
X1341Y47D01*
X1348Y47D02*
X1348Y47D01*
X1360Y47D02*
X1361Y47D01*
X1369Y47D02*
X1373Y47D01*
X1389Y47D02*
X1389Y47D01*
X1404Y47D02*
X1405Y47D01*
X1421Y47D02*
X1426Y47D01*
X1447Y47D02*
X1460Y47D01*
X1472Y47D02*
X1475Y47D01*
X1532Y47D02*
X1545Y47D01*
X1559Y47D02*
X1559Y47D01*
X1565Y47D02*
X1572Y47D01*
X1603Y47D02*
X1603Y47D01*
X1615Y47D02*
X1627Y47D01*
X1642Y47D02*
X1645Y47D01*
X1675Y47D02*
X1685Y47D01*
X1705Y47D02*
X1712Y47D01*
X1729Y47D02*
X1729Y47D01*
X1735Y47D02*
X1740Y47D01*
X1773Y47D02*
X1773Y47D01*
X1785Y47D02*
X1786Y47D01*
X1791Y47D02*
X1798Y47D01*
X1814Y47D02*
X1823Y47D01*
X1844Y47D02*
X1856Y47D01*
X1886Y47D02*
X1887Y47D01*
X1955Y47D02*
X1967Y47D01*
X1983Y47D02*
X1986Y47D01*
X2012Y47D02*
X2013Y47D01*
X2018Y47D02*
X2025Y47D01*
X2045Y47D02*
X2052Y47D01*
X2055Y47D02*
X2058Y47D01*
X2074Y47D02*
X2078Y47D01*
X2084Y47D02*
X2085Y47D01*
X2097Y47D02*
X2109Y47D01*
X2128Y47D02*
X2130Y47D01*
X2137Y47D02*
X2140Y47D01*
X2186Y47D02*
X2191Y47D01*
X2211Y47D02*
X2220Y47D01*
X2239Y47D02*
X2250Y47D01*
X2268Y47D02*
X2271Y47D01*
X2300Y47D02*
X2307Y47D01*
X2340Y47D02*
X2340Y47D01*
X2368Y47D02*
X2368Y47D01*
X1472Y46D02*
X1475Y46D01*
X1643Y46D02*
X1645Y46D01*
X1983Y46D02*
X1986Y46D01*
X2048Y46D02*
X2049Y46D01*
X2055Y46D02*
X2058Y46D01*
X2268Y46D02*
X2271Y46D01*
X1472Y45D02*
X1476Y45D01*
X1643Y45D02*
X1646Y45D01*
X1983Y45D02*
X1986Y45D01*
X2055Y45D02*
X2058Y45D01*
X2268Y45D02*
X2271Y45D01*
X2280Y45D02*
X2282Y45D01*
X1473Y44D02*
X1476Y44D01*
X1643Y44D02*
X1646Y44D01*
X1983Y44D02*
X1986Y44D01*
X2055Y44D02*
X2058Y44D01*
X2268Y44D02*
X2271Y44D01*
X2280Y44D02*
X2283Y44D01*
X1473Y43D02*
X1477Y43D01*
X1643Y43D02*
X1647Y43D01*
X1983Y43D02*
X1988Y43D01*
X2055Y43D02*
X2058Y43D01*
X2268Y43D02*
X2272Y43D01*
X2279Y43D02*
X2283Y43D01*
X1474Y42D02*
X1488Y42D01*
X1644Y42D02*
X1658Y42D01*
X1984Y42D02*
X1998Y42D01*
X2055Y42D02*
X2058Y42D01*
X2269Y42D02*
X2282Y42D01*
X1475Y41D02*
X1489Y41D01*
X1645Y41D02*
X1659Y41D01*
X1985Y41D02*
X1999Y41D01*
X2055Y41D02*
X2058Y41D01*
X2269Y41D02*
X2282Y41D01*
X1476Y40D02*
X1489Y40D01*
X1646Y40D02*
X1659Y40D01*
X1986Y40D02*
X1999Y40D01*
X2055Y40D02*
X2058Y40D01*
X2270Y40D02*
X2281Y40D01*
X1477Y39D02*
X1488Y39D01*
X1647Y39D02*
X1658Y39D01*
X1988Y39D02*
X1999Y39D01*
X2056Y39D02*
X2057Y39D01*
X2271Y39D02*
X2279Y39D01*
D02*
G04 End of Silk0*
M02*