G04 MADE WITH FRITZING*
G04 WWW.FRITZING.ORG*
G04 DOUBLE SIDED*
G04 HOLES PLATED*
G04 CONTOUR ON CENTER OF CONTOUR VECTOR*
%ASAXBY*%
%FSLAX23Y23*%
%MOIN*%
%OFA0B0*%
%SFA1.0B1.0*%
%ADD10C,0.065000*%
%ADD11C,0.039370*%
%ADD12C,0.078000*%
%ADD13C,0.074803*%
%ADD14C,0.070000*%
%ADD15C,0.075361*%
%ADD16C,0.075000*%
%ADD17C,0.066111*%
%ADD18R,0.078000X0.078000*%
%ADD19C,0.024000*%
%LNCOPPER1*%
G90*
G70*
G54D10*
X2600Y1702D03*
X2679Y1702D03*
X2758Y1702D03*
X2837Y1702D03*
G54D11*
X435Y1171D03*
G54D12*
X218Y305D03*
X318Y305D03*
X418Y305D03*
X884Y305D03*
X984Y305D03*
X1084Y305D03*
X1359Y305D03*
X1459Y305D03*
X1559Y305D03*
X1830Y305D03*
X1930Y305D03*
X2030Y305D03*
X2344Y305D03*
X2444Y305D03*
X2544Y305D03*
X2875Y305D03*
X2975Y305D03*
X3075Y305D03*
G54D13*
X907Y1412D03*
X907Y912D03*
X907Y1012D03*
X907Y1112D03*
X907Y1212D03*
X907Y1312D03*
X1307Y1412D03*
X1308Y912D03*
X1308Y1012D03*
X1308Y1112D03*
X1308Y1212D03*
X1308Y1312D03*
G54D12*
X2933Y738D03*
X3033Y738D03*
G54D14*
X2467Y738D03*
X2367Y738D03*
X2267Y738D03*
X2167Y738D03*
X2067Y738D03*
X1967Y738D03*
X1867Y738D03*
X1767Y738D03*
X1667Y738D03*
X1567Y738D03*
G54D15*
X292Y1654D03*
X392Y1654D03*
X492Y1654D03*
X592Y1654D03*
X692Y1654D03*
X792Y1654D03*
X892Y1654D03*
X992Y1654D03*
X1092Y1654D03*
X1192Y1654D03*
X1292Y1654D03*
X1392Y1654D03*
X1492Y1654D03*
X1592Y1654D03*
X1692Y1654D03*
X1792Y1654D03*
X1892Y1654D03*
X1992Y1654D03*
X2092Y1654D03*
X2192Y1654D03*
X2192Y1754D03*
X2092Y1754D03*
X1992Y1754D03*
X1892Y1754D03*
X1792Y1754D03*
X1692Y1754D03*
X1592Y1754D03*
X1492Y1754D03*
X1392Y1754D03*
X1292Y1754D03*
X1192Y1754D03*
X1092Y1754D03*
X992Y1754D03*
X892Y1754D03*
X792Y1754D03*
X692Y1754D03*
X592Y1754D03*
X492Y1754D03*
X392Y1754D03*
X292Y1754D03*
G54D12*
X2658Y1013D03*
X2758Y1013D03*
G54D16*
X711Y182D03*
X711Y482D03*
X883Y541D03*
X1183Y541D03*
X3053Y1786D03*
X3053Y1486D03*
X2537Y1505D03*
X2837Y1505D03*
X2694Y1387D03*
X2994Y1387D03*
X273Y502D03*
X573Y502D03*
G54D12*
X297Y1389D03*
X297Y1289D03*
X297Y1189D03*
X297Y1089D03*
X1752Y1466D03*
X1852Y1466D03*
X1952Y1466D03*
X1122Y738D03*
X1222Y738D03*
X1322Y738D03*
G54D17*
X573Y938D03*
X573Y838D03*
X573Y638D03*
X573Y738D03*
G54D18*
X218Y305D03*
X884Y305D03*
X1359Y305D03*
X1830Y305D03*
X2344Y305D03*
X2875Y305D03*
X2933Y738D03*
X1752Y1466D03*
X1122Y738D03*
G54D19*
X258Y185D02*
X682Y182D01*
D02*
X237Y247D02*
X258Y185D01*
D02*
X227Y277D02*
X237Y247D01*
D02*
X2519Y1528D02*
X2343Y1742D01*
D02*
X2343Y1742D02*
X2223Y1752D01*
D02*
X1478Y1408D02*
X1338Y1411D01*
D02*
X1755Y766D02*
X1478Y1408D01*
D02*
X946Y185D02*
X1280Y187D01*
D02*
X898Y279D02*
X946Y185D01*
D02*
X1280Y187D02*
X1343Y280D01*
D02*
X1026Y895D02*
X1026Y1170D01*
D02*
X1026Y1170D02*
X936Y1202D01*
D02*
X729Y639D02*
X1026Y895D01*
D02*
X594Y520D02*
X729Y639D01*
D02*
X1338Y1211D02*
X1421Y1210D01*
D02*
X1421Y1210D02*
X1558Y767D01*
D02*
X270Y1301D02*
X159Y1348D01*
D02*
X159Y1800D02*
X238Y1861D01*
D02*
X159Y1348D02*
X159Y1800D01*
D02*
X238Y1861D02*
X651Y1861D01*
D02*
X651Y1861D02*
X683Y1778D01*
D02*
X1847Y280D02*
X1910Y186D01*
D02*
X2266Y186D02*
X2327Y280D01*
D02*
X1910Y186D02*
X2266Y186D01*
D02*
X1084Y384D02*
X1084Y336D01*
D02*
X1184Y463D02*
X1084Y384D01*
D02*
X1183Y512D02*
X1184Y463D01*
D02*
X739Y482D02*
X790Y482D01*
D02*
X790Y482D02*
X859Y526D01*
D02*
X592Y1623D02*
X592Y1525D01*
D02*
X592Y1525D02*
X443Y1188D01*
D02*
X751Y560D02*
X724Y507D01*
D02*
X1105Y875D02*
X751Y560D01*
D02*
X1106Y1466D02*
X1105Y875D01*
D02*
X927Y1565D02*
X1106Y1466D01*
D02*
X903Y1625D02*
X927Y1565D01*
D02*
X2836Y187D02*
X2444Y187D01*
D02*
X2444Y187D02*
X2363Y282D01*
D02*
X2866Y277D02*
X2836Y187D01*
D02*
X2324Y1605D02*
X2678Y1172D01*
D02*
X2221Y1643D02*
X2324Y1605D01*
D02*
X2678Y1172D02*
X2744Y1040D01*
D02*
X1184Y1034D02*
X1184Y876D01*
D02*
X1184Y876D02*
X1135Y765D01*
D02*
X1282Y1096D02*
X1184Y1034D01*
D02*
X296Y895D02*
X549Y751D01*
D02*
X297Y1059D02*
X296Y895D01*
D02*
X495Y1073D02*
X495Y895D01*
D02*
X847Y1406D02*
X495Y1073D01*
D02*
X495Y895D02*
X551Y854D01*
D02*
X877Y1409D02*
X847Y1406D01*
D02*
X574Y1012D02*
X573Y965D01*
D02*
X885Y1292D02*
X574Y1012D01*
D02*
X887Y1089D02*
X591Y758D01*
D02*
X1418Y187D02*
X1373Y279D01*
D02*
X1754Y187D02*
X1418Y187D01*
D02*
X1814Y280D02*
X1754Y187D01*
D02*
X2896Y443D02*
X2880Y335D01*
D02*
X2896Y619D02*
X2896Y443D01*
D02*
X2924Y709D02*
X2896Y619D01*
G04 End of Copper1*
M02*