<?xml version="1.0" encoding="UTF-8" standalone="no"?>
<svg
   version="1.1"
   width="500"
   height="500"
   viewBox="0 0 500 500"
   id="svg11"
   xmlns="http://www.w3.org/2000/svg"
   xmlns:svg="http://www.w3.org/2000/svg">
  <defs
     id="defs11">
    <linearGradient
       id="swatch226">
      <stop
         style="stop-color:#000000;stop-opacity:1;"
         offset="0"
         id="stop226" />
    </linearGradient>
  </defs>
  <g
     id="g172-7-1"
     style="display:inline;mix-blend-mode:darken;fill:#ffcc00;fill-opacity:1;fill-rule:nonzero;stroke:#000000;stroke-width:3;stroke-dasharray:none;stroke-opacity:1"
     transform="translate(89.22336,-816.24322)">
    <g
       id="g18-4-8"
       transform="matrix(0.95,0,0,0.95,-93.200297,139.9548)">
      <path
         style="fill:#ffcc00;fill-opacity:1;fill-rule:nonzero;stroke:#000000;stroke-width:5;stroke-linecap:round;stroke-linejoin:round;stroke-dasharray:none;stroke-opacity:1;paint-order:stroke markers fill"
         d="M 165.78432,790.25495 127.13005,919.75386"
         id="path16-0-5" />
      <path
         style="fill:#ffcc00;fill-opacity:1;fill-rule:nonzero;stroke:#000000;stroke-width:5;stroke-linecap:round;stroke-linejoin:round;stroke-dasharray:none;stroke-opacity:1;paint-order:stroke markers fill"
         d="M 181.71837,798.48083 140.34641,966.43545"
         id="path17-7-8" />
      <path
         style="fill:#ffcc00;fill-opacity:1;fill-rule:nonzero;stroke:#000000;stroke-width:5;stroke-linecap:round;stroke-linejoin:round;stroke-dasharray:none;stroke-opacity:1;paint-order:stroke markers fill"
         d="m 140.34641,966.43545 47.39779,16.68681"
         id="path18-2-0" />
      <path
         style="fill:#ffcc00;fill-opacity:1;fill-rule:nonzero;stroke:#000000;stroke-width:5;stroke-linecap:round;stroke-linejoin:round;stroke-dasharray:none;stroke-opacity:1;paint-order:stroke markers fill"
         d="M 315.77058,796.05399 225.18684,981.43015"
         id="path19-0-4" />
      <path
         style="fill:#ffcc00;fill-opacity:1;fill-rule:nonzero;stroke:#000000;stroke-width:5;stroke-linecap:round;stroke-linejoin:round;stroke-dasharray:none;stroke-opacity:1;paint-order:stroke markers fill"
         d="M 285.3302,1028.8059 417.9741,880.08385"
         id="path20-6-2" />
      <path
         style="fill:#ffcc00;fill-opacity:1;fill-rule:nonzero;stroke:#000000;stroke-width:5;stroke-linecap:round;stroke-linejoin:round;stroke-dasharray:none;stroke-opacity:1;paint-order:stroke markers fill"
         d="M 395.79155,1073.357 417.63624,884.34912"
         id="path21-5-1" />
      <path
         style="fill:#ffcc00;fill-opacity:1;fill-rule:nonzero;stroke:#000000;stroke-width:5;stroke-linecap:round;stroke-linejoin:round;stroke-dasharray:none;stroke-opacity:1;paint-order:stroke markers fill"
         d="m 181.95383,798.14488 43.23301,182.71683"
         id="path27-8-0" />
      <path
         style="fill:#ffcc00;fill-opacity:1;fill-rule:nonzero;stroke:#000000;stroke-width:5;stroke-linecap:round;stroke-linejoin:round;stroke-dasharray:none;stroke-opacity:1;paint-order:stroke markers fill"
         d="m 499.92861,1076.8767 -47.87806,21.6696"
         id="path31-0-1" />
      <path
         style="opacity:1;fill:#ffcc00;fill-opacity:1;fill-rule:nonzero;stroke:#000000;stroke-width:5;stroke-linecap:round;stroke-linejoin:round;stroke-dasharray:none;stroke-opacity:1;paint-order:stroke markers fill"
         d="m 37.546833,813.12044 40.472648,45.0981"
         id="path195-3-9" />
      <path
         style="opacity:1;fill:none;fill-opacity:1;fill-rule:nonzero;stroke:#000000;stroke-width:5;stroke-linecap:round;stroke-linejoin:round;stroke-dasharray:none;stroke-opacity:1;paint-order:stroke markers fill"
         d="M 60.973917,889.38587 79.616055,857.60581 158.58738,814.97956"
         id="path196-9-1" />
    </g>
    <path
       style="display:inline;mix-blend-mode:darken;fill:#ffcc00;fill-opacity:1;fill-rule:nonzero;stroke:#000000;stroke-width:7.6;stroke-linecap:round;stroke-linejoin:round;stroke-dasharray:none;stroke-opacity:1;paint-order:normal"
       d="m -35.275073,984.87138 -23.380619,-22.25213 0.66187,-49.62008 35.581808,-12.09665 86.976833,-10.57679 15.025504,8.33045 26.807887,-3.03147 100.10417,-0.16142 c 32.88338,17.29709 75.5124,48.30739 97.37272,80.57117 l 77.85678,186.95324 c 0,0 -6.63251,22.4478 -7.04879,22.4478 -22.28005,11.6678 -68.75396,46.7228 -128.93588,61.1542 l -75.21127,20.5521 -44.57014,-11.2106 18.23789,-22.011 64.95306,-15.4185 94.1221,-19.5915 32.97743,-15.324 -0.009,-0.012 -51.53153,-23.7684 c 0,0 -4.51196,-0.4178 -4.70129,-0.2575 l -17.36029,1.2655 -136.72335,9.9666 51.93212,-53.4596 c -15.68028,-13.0881 -35.14981,-42.8242 -57.13619,-45.0069 l -35.570504,1.6075 -51.634058,13.6148 -45.82245,-12.2193 52.428608,-17.248 2.50154,-10.1554 -15.217357,-34.4569 z"
       id="path15-2-0" />
    <rect
       style="display:inline;fill:#facc15;fill-opacity:1;fill-rule:nonzero;stroke:none;stroke-width:7.4;stroke-linecap:round;stroke-linejoin:round;stroke-dasharray:none;stroke-opacity:1;paint-order:stroke markers fill"
       id="rect264-4-1-2-5-2-5-3"
       width="40.919518"
       height="35.152534"
       x="410.77664"
       y="781.0907" />
    <path
       style="display:inline;mix-blend-mode:normal;fill:#000000;fill-opacity:1;fill-rule:nonzero;stroke:none;stroke-width:16.8133;stroke-linecap:round;stroke-linejoin:round;stroke-miterlimit:16.2;stroke-dasharray:none;stroke-opacity:1;paint-order:normal"
       d="m 143.22138,1230.6 32.72309,37.2158 -55.38719,-12.5585 z"
       id="path141-3" />
  </g>
</svg>
