<?xml version="1.0" encoding="utf-8"?>
<!-- Generator: Adobe Illustrator 16.2.0, SVG Export Plug-In . SVG Version: 6.00 Build 0)  -->
<svg version="1.2" baseProfile="tiny" id="Layer_1" xmlns="http://www.w3.org/2000/svg" xmlns:xlink="http://www.w3.org/1999/xlink"
	 x="0px" y="0px" width="184.252px" height="235.275px" viewBox="0 0 184.252 235.275" xml:space="preserve">
<g id="board">
	<path id="board_1_" fill="#08A650" d="M4.25,0C1.913,0,0,1.914,0,4.252V127.56c0,2.338,1.914,4.252,4.252,4.252H9.92
		c2.338,0,4.252,1.914,4.252,4.252v39.686c0,2.338-1.914,4.252-4.252,4.252H4.25C1.913,180,0,181.914,0,184.252v46.771
		c0,2.338,1.914,4.252,4.252,4.252H180c2.338,0,4.252-1.914,4.252-4.252V4.252C184.252,1.914,182.338,0,180,0H4.25z
		 M130.395,222.521c0,2.338-1.276,4.252-2.836,4.252c-1.559,0-2.834-1.914-2.834-4.252v-39.687c0-2.338,1.275-4.252,2.834-4.252
		c1.56,0,2.836,1.914,2.836,4.252V222.521z"/>
</g>
<g id="silkscreen">
	<path id="silkscreen_1_" fill="none" stroke="#FFFFFF" stroke-miterlimit="10" d="M4.25,0C1.913,0,0,1.914,0,4.252V127.56
		c0,2.338,1.914,4.252,4.252,4.252H9.92c2.338,0,4.252,1.914,4.252,4.252v39.686c0,2.338-1.914,4.252-4.252,4.252H4.25
		C1.913,180,0,181.914,0,184.252v46.771c0,2.338,1.914,4.252,4.252,4.252H180c2.338,0,4.252-1.914,4.252-4.252V4.252
		C184.252,1.914,182.338,0,180,0H4.25z"/>
</g>
</svg>
