; NON-PLATED HOLES START AT T1
; THROUGH (PLATED) HOLES START AT T100
M48
INCH
T100C0.039370
T101C0.052000
T102C0.015748
T103C0.038000
T104C0.038522
T105C0.040639
T106C0.031497
T107C0.035000
T108C0.032778
%
T100
X020907Y006735
X021907Y006735
X017907Y006735
X023907Y006735
X016907Y006735
X018907Y006735
X019907Y006735
X022907Y006735
X014907Y006735
X015907Y006735
T101
X016053Y013602
X019053Y013602
T102
X004537Y007696
T103
X019301Y002972
X014577Y002972
X030907Y014736
X013577Y002972
X030907Y015736
X030340Y002972
X010671Y002972
X029340Y002972
X003175Y002972
X028340Y002972
X023616Y002972
X009671Y002972
X008671Y002972
X002907Y009736
X002175Y002972
X024616Y002972
X004175Y002972
X025616Y002972
X015577Y002972
X018301Y002972
X002907Y010736
X002907Y007736
X002907Y008736
X020301Y002972
T104
X011912Y007736
X007903Y012739
X011907Y012739
X011911Y008736
X007907Y007736
X011912Y011736
X011912Y009736
X007907Y010736
X007907Y011736
X011911Y010736
X007907Y008736
X007907Y009736
T105
X008907Y015893
X011907Y015893
X013907Y015893
X007907Y015893
X021907Y015893
X018907Y015893
X017907Y014893
X019907Y015893
X006907Y014893
X010907Y015893
X005907Y015893
X009907Y015893
X004907Y014893
X012907Y015893
X008907Y014893
X006907Y015893
X012907Y014893
X020907Y015893
X002907Y015893
X010907Y014893
X007907Y014893
X011907Y014893
X014907Y014893
X005907Y014893
X013907Y014893
X004907Y015893
X003907Y014893
X018907Y014893
X014907Y015893
X002907Y014893
X016907Y015893
X015907Y014893
X017907Y015893
X009907Y014893
X015907Y015893
X019907Y014893
X020907Y014893
X016907Y014893
X003907Y015893
X021907Y014893
T106
X025797Y015373
X026781Y015373
T107
X009033Y005334
X003128Y004743
X006899Y004743
X005128Y004743
X028907Y014736
X028907Y012736
X011033Y005334
X006899Y002743
T108
X027907Y008736
X027907Y007735
X027907Y009736
X027907Y006735
T00
M30
