G04 MADE WITH FRITZING*
G04 WWW.FRITZING.ORG*
G04 DOUBLE SIDED*
G04 HOLES PLATED*
G04 CONTOUR ON CENTER OF CONTOUR VECTOR*
%ASAXBY*%
%FSLAX23Y23*%
%MOIN*%
%OFA0B0*%
%SFA1.0B1.0*%
%ADD10C,0.102000*%
%ADD11C,0.088000*%
%ADD12C,0.072992*%
%ADD13C,0.076111*%
%ADD14C,0.084803*%
%ADD15C,0.080000*%
%ADD16C,0.085361*%
%ADD17C,0.085000*%
%ADD18C,0.049370*%
%ADD19R,0.102000X0.102000*%
%ADD20R,0.088000X0.088000*%
%ADD21R,0.072992X0.072992*%
%LNMASK0*%
G90*
G70*
G54D10*
X1605Y1360D03*
X1905Y1360D03*
G54D11*
X418Y297D03*
X318Y297D03*
X218Y297D03*
X1067Y297D03*
X967Y297D03*
X867Y297D03*
X1558Y297D03*
X1458Y297D03*
X1358Y297D03*
X2030Y297D03*
X1930Y297D03*
X1830Y297D03*
X2562Y297D03*
X2462Y297D03*
X2362Y297D03*
X3034Y297D03*
X2934Y297D03*
X2834Y297D03*
G54D12*
X2580Y1537D03*
X2678Y1537D03*
G54D13*
X2791Y674D03*
X2791Y774D03*
X2791Y974D03*
X2791Y874D03*
G54D11*
X3091Y1474D03*
X3091Y1574D03*
G54D14*
X790Y1274D03*
X791Y774D03*
X791Y874D03*
X791Y974D03*
X791Y1074D03*
X791Y1174D03*
X1191Y1274D03*
X1191Y774D03*
X1191Y874D03*
X1191Y974D03*
X1191Y1074D03*
X1191Y1174D03*
G54D15*
X2391Y674D03*
X2291Y674D03*
X2191Y674D03*
X2091Y674D03*
X1991Y674D03*
X1891Y674D03*
X1791Y674D03*
X1691Y674D03*
X1591Y674D03*
X1491Y674D03*
G54D16*
X291Y1489D03*
X391Y1489D03*
X491Y1489D03*
X591Y1489D03*
X691Y1489D03*
X791Y1489D03*
X891Y1489D03*
X991Y1489D03*
X1091Y1489D03*
X1191Y1489D03*
X1291Y1489D03*
X1391Y1489D03*
X1491Y1489D03*
X1591Y1489D03*
X1691Y1489D03*
X1791Y1489D03*
X1891Y1489D03*
X1991Y1489D03*
X2091Y1489D03*
X2191Y1489D03*
X2191Y1589D03*
X2091Y1589D03*
X1991Y1589D03*
X1891Y1589D03*
X1791Y1589D03*
X1691Y1589D03*
X1591Y1589D03*
X1491Y1589D03*
X1391Y1589D03*
X1291Y1589D03*
X1191Y1589D03*
X1091Y1589D03*
X991Y1589D03*
X891Y1589D03*
X791Y1589D03*
X691Y1589D03*
X591Y1589D03*
X491Y1589D03*
X391Y1589D03*
X291Y1589D03*
G54D11*
X291Y1074D03*
X291Y974D03*
X291Y874D03*
X291Y774D03*
G54D17*
X690Y274D03*
X690Y474D03*
X903Y533D03*
X1103Y533D03*
X2891Y1274D03*
X2891Y1474D03*
X313Y474D03*
X513Y474D03*
G54D18*
X454Y770D03*
G54D19*
X1605Y1360D03*
G54D20*
X418Y297D03*
X1067Y297D03*
X1558Y297D03*
X2030Y297D03*
X2562Y297D03*
X3034Y297D03*
G54D21*
X2580Y1537D03*
G54D20*
X3091Y1474D03*
G04 End of Mask0*
M02*