G04 MADE WITH FRITZING*
G04 WWW.FRITZING.ORG*
G04 DOUBLE SIDED*
G04 HOLES PLATED*
G04 CONTOUR ON CENTER OF CONTOUR VECTOR*
%ASAXBY*%
%FSLAX23Y23*%
%MOIN*%
%OFA0B0*%
%SFA1.0B1.0*%
%ADD10C,0.092000*%
%ADD11C,0.078000*%
%ADD12C,0.062992*%
%ADD13C,0.066111*%
%ADD14C,0.074803*%
%ADD15C,0.070000*%
%ADD16C,0.075361*%
%ADD17C,0.075000*%
%ADD18C,0.039370*%
%ADD19R,0.092000X0.092000*%
%ADD20R,0.078000X0.078000*%
%ADD21R,0.062992X0.062992*%
%ADD22C,0.024000*%
%LNCOPPER1*%
G90*
G70*
G54D10*
X1605Y1360D03*
X1905Y1360D03*
G54D11*
X418Y297D03*
X318Y297D03*
X218Y297D03*
X1067Y297D03*
X967Y297D03*
X867Y297D03*
X1558Y297D03*
X1458Y297D03*
X1358Y297D03*
X2030Y297D03*
X1930Y297D03*
X1830Y297D03*
X2562Y297D03*
X2462Y297D03*
X2362Y297D03*
X3034Y297D03*
X2934Y297D03*
X2834Y297D03*
G54D12*
X2580Y1537D03*
X2678Y1537D03*
G54D13*
X2791Y674D03*
X2791Y774D03*
X2791Y974D03*
X2791Y874D03*
G54D11*
X3091Y1474D03*
X3091Y1574D03*
G54D14*
X790Y1274D03*
X791Y774D03*
X791Y874D03*
X791Y974D03*
X791Y1074D03*
X791Y1174D03*
X1191Y1274D03*
X1191Y774D03*
X1191Y874D03*
X1191Y974D03*
X1191Y1074D03*
X1191Y1174D03*
G54D15*
X2391Y674D03*
X2291Y674D03*
X2191Y674D03*
X2091Y674D03*
X1991Y674D03*
X1891Y674D03*
X1791Y674D03*
X1691Y674D03*
X1591Y674D03*
X1491Y674D03*
G54D16*
X291Y1489D03*
X391Y1489D03*
X491Y1489D03*
X591Y1489D03*
X691Y1489D03*
X791Y1489D03*
X891Y1489D03*
X991Y1489D03*
X1091Y1489D03*
X1191Y1489D03*
X1291Y1489D03*
X1391Y1489D03*
X1491Y1489D03*
X1591Y1489D03*
X1691Y1489D03*
X1791Y1489D03*
X1891Y1489D03*
X1991Y1489D03*
X2091Y1489D03*
X2191Y1489D03*
X2191Y1589D03*
X2091Y1589D03*
X1991Y1589D03*
X1891Y1589D03*
X1791Y1589D03*
X1691Y1589D03*
X1591Y1589D03*
X1491Y1589D03*
X1391Y1589D03*
X1291Y1589D03*
X1191Y1589D03*
X1091Y1589D03*
X991Y1589D03*
X891Y1589D03*
X791Y1589D03*
X691Y1589D03*
X591Y1589D03*
X491Y1589D03*
X391Y1589D03*
X291Y1589D03*
G54D11*
X291Y1074D03*
X291Y974D03*
X291Y874D03*
X291Y774D03*
G54D17*
X690Y274D03*
X690Y474D03*
X903Y533D03*
X1103Y533D03*
X2891Y1274D03*
X2891Y1474D03*
X313Y474D03*
X513Y474D03*
G54D18*
X454Y770D03*
G54D19*
X1605Y1360D03*
G54D20*
X418Y297D03*
X1067Y297D03*
X1558Y297D03*
X2030Y297D03*
X2562Y297D03*
X3034Y297D03*
G54D21*
X2580Y1537D03*
G54D20*
X3091Y1474D03*
G54D22*
X2107Y1361D02*
X1942Y1360D01*
D02*
X2174Y1463D02*
X2107Y1361D01*
D02*
X2315Y179D02*
X1872Y178D01*
D02*
X2351Y269D02*
X2315Y179D01*
D02*
X1872Y178D02*
X1840Y269D01*
D02*
X1310Y179D02*
X1346Y269D01*
D02*
X881Y270D02*
X926Y179D01*
D02*
X926Y179D02*
X1310Y179D01*
D02*
X1460Y327D02*
X1488Y643D01*
D02*
X1782Y179D02*
X1399Y178D01*
D02*
X1399Y178D02*
X1368Y269D01*
D02*
X1819Y269D02*
X1782Y179D01*
D02*
X2787Y179D02*
X2401Y178D01*
D02*
X2823Y269D02*
X2787Y179D01*
D02*
X2401Y178D02*
X2371Y269D01*
D02*
X2592Y974D02*
X2771Y793D01*
D02*
X1992Y973D02*
X2592Y974D01*
D02*
X1713Y695D02*
X1992Y973D01*
D02*
X718Y482D02*
X876Y526D01*
D02*
X1291Y1275D02*
X1692Y873D01*
D02*
X1221Y1274D02*
X1291Y1275D01*
D02*
X1222Y1074D02*
X1292Y1075D01*
D02*
X573Y1361D02*
X571Y829D01*
D02*
X586Y1458D02*
X573Y1361D01*
D02*
X336Y533D02*
X323Y501D01*
D02*
X571Y829D02*
X336Y533D01*
D02*
X630Y1657D02*
X670Y1613D01*
D02*
X160Y1657D02*
X630Y1657D01*
D02*
X99Y1597D02*
X160Y1657D01*
D02*
X99Y1066D02*
X99Y1597D01*
D02*
X264Y987D02*
X99Y1066D01*
D02*
X691Y533D02*
X690Y503D01*
D02*
X1044Y652D02*
X691Y533D01*
D02*
X1044Y1301D02*
X1044Y652D01*
D02*
X911Y1465D02*
X1044Y1301D01*
D02*
X818Y1060D02*
X927Y1005D01*
D02*
X927Y1005D02*
X927Y710D01*
D02*
X571Y593D02*
X525Y500D01*
D02*
X927Y710D02*
X571Y593D01*
D02*
X1490Y874D02*
X1491Y704D01*
D02*
X1292Y1075D02*
X1490Y874D01*
D02*
X1692Y873D02*
X1691Y704D01*
D02*
X393Y1064D02*
X450Y788D01*
D02*
X321Y1071D02*
X393Y1064D01*
G04 End of Copper1*
M02*